<svg width="32" height="42" viewBox="0 0 32 42" fill="none" xmlns="http://www.w3.org/2000/svg">
<path d="M29.1562 3.28125H27.8438C27.8438 2.58506 27.5672 1.91738 27.0749 1.42509C26.5826 0.932812 25.9149 0.65625 25.2188 0.65625C24.5226 0.65625 23.8549 0.932812 23.3626 1.42509C22.8703 1.91738 22.5938 2.58506 22.5938 3.28125H4.21875C3.52284 3.28216 2.85569 3.55902 2.3636 4.0511C1.87152 4.54319 1.59466 5.21034 1.59375 5.90625V8.53125H0.9375C0.763452 8.53125 0.596532 8.60039 0.473461 8.72346C0.350391 8.84653 0.28125 9.01345 0.28125 9.1875C0.28125 9.36155 0.350391 9.52847 0.473461 9.65154C0.596532 9.77461 0.763452 9.84375 0.9375 9.84375H1.59375V12.4688H0.9375C0.763452 12.4688 0.596532 12.5379 0.473461 12.661C0.350391 12.784 0.28125 12.951 0.28125 13.125C0.28125 13.299 0.350391 13.466 0.473461 13.589C0.596532 13.7121 0.763452 13.7812 0.9375 13.7812H1.59375V16.4062H0.9375C0.763452 16.4062 0.596532 16.4754 0.473461 16.5985C0.350391 16.7215 0.28125 16.8885 0.28125 17.0625C0.28125 17.2365 0.350391 17.4035 0.473461 17.5265C0.596532 17.6496 0.763452 17.7188 0.9375 17.7188H1.59375V20.3438H0.9375C0.763452 20.3438 0.596532 20.4129 0.473461 20.536C0.350391 20.659 0.28125 20.826 0.28125 21C0.28125 21.174 0.350391 21.341 0.473461 21.464C0.596532 21.5871 0.763452 21.6562 0.9375 21.6562H1.59375V24.2812H0.9375C0.763452 24.2812 0.596532 24.3504 0.473461 24.4735C0.350391 24.5965 0.28125 24.7635 0.28125 24.9375C0.28125 25.1115 0.350391 25.2785 0.473461 25.4015C0.596532 25.5246 0.763452 25.5938 0.9375 25.5938H1.59375V28.2188H0.9375C0.763452 28.2188 0.596532 28.2879 0.473461 28.411C0.350391 28.534 0.28125 28.701 0.28125 28.875C0.28125 29.049 0.350391 29.216 0.473461 29.339C0.596532 29.4621 0.763452 29.5312 0.9375 29.5312H1.59375V32.1562H0.9375C0.763452 32.1562 0.596532 32.2254 0.473461 32.3485C0.350391 32.4715 0.28125 32.6385 0.28125 32.8125C0.28125 32.9865 0.350391 33.1535 0.473461 33.2765C0.596532 33.3996 0.763452 33.4688 0.9375 33.4688H1.59375V36.0938H0.9375C0.763452 36.0938 0.596532 36.1629 0.473461 36.286C0.350391 36.409 0.28125 36.576 0.28125 36.75C0.28125 36.924 0.350391 37.091 0.473461 37.214C0.596532 37.3371 0.763452 37.4062 0.9375 37.4062H1.59375V38.7188C1.59466 39.4147 1.87152 40.0818 2.3636 40.5739C2.85569 41.066 3.52284 41.3428 4.21875 41.3438H29.1562C29.8522 41.3428 30.5193 41.066 31.0114 40.5739C31.5035 40.0818 31.7803 39.4147 31.7812 38.7188V5.90625C31.7803 5.21034 31.5035 4.54319 31.0114 4.0511C30.5193 3.55902 29.8522 3.28216 29.1562 3.28125ZM23.9062 3.28125C23.9062 2.93315 24.0445 2.59931 24.2907 2.35317C24.5368 2.10703 24.8707 1.96875 25.2188 1.96875C25.5668 1.96875 25.9007 2.10703 26.1468 2.35317C26.393 2.59931 26.5312 2.93315 26.5312 3.28125V5.25H23.9062V3.28125ZM23.9062 6.5625H26.5312V24.2812H23.9062V6.5625ZM23.9062 25.5938H26.5312V26.095L25.2188 28.72L23.9062 26.095V25.5938ZM5.53125 40.0312H4.21875C3.87079 40.0308 3.53722 39.8924 3.29118 39.6463C3.04513 39.4003 2.90671 39.0667 2.90625 38.7188V37.4062H3.5625C3.73655 37.4062 3.90347 37.3371 4.02654 37.214C4.14961 37.091 4.21875 36.924 4.21875 36.75C4.21875 36.576 4.14961 36.409 4.02654 36.286C3.90347 36.1629 3.73655 36.0938 3.5625 36.0938H2.90625V33.4688H3.5625C3.73655 33.4688 3.90347 33.3996 4.02654 33.2765C4.14961 33.1535 4.21875 32.9865 4.21875 32.8125C4.21875 32.6385 4.14961 32.4715 4.02654 32.3485C3.90347 32.2254 3.73655 32.1562 3.5625 32.1562H2.90625V29.5312H3.5625C3.73655 29.5312 3.90347 29.4621 4.02654 29.339C4.14961 29.216 4.21875 29.049 4.21875 28.875C4.21875 28.701 4.14961 28.534 4.02654 28.411C3.90347 28.2879 3.73655 28.2188 3.5625 28.2188H2.90625V25.5938H3.5625C3.73655 25.5938 3.90347 25.5246 4.02654 25.4015C4.14961 25.2785 4.21875 25.1115 4.21875 24.9375C4.21875 24.7635 4.14961 24.5965 4.02654 24.4735C3.90347 24.3504 3.73655 24.2812 3.5625 24.2812H2.90625V21.6562H3.5625C3.73655 21.6562 3.90347 21.5871 4.02654 21.464C4.14961 21.341 4.21875 21.174 4.21875 21C4.21875 20.826 4.14961 20.659 4.02654 20.536C3.90347 20.4129 3.73655 20.3438 3.5625 20.3438H2.90625V17.7188H3.5625C3.73655 17.7188 3.90347 17.6496 4.02654 17.5265C4.14961 17.4035 4.21875 17.2365 4.21875 17.0625C4.21875 16.8885 4.14961 16.7215 4.02654 16.5985C3.90347 16.4754 3.73655 16.4062 3.5625 16.4062H2.90625V13.7812H3.5625C3.73655 13.7812 3.90347 13.7121 4.02654 13.589C4.14961 13.466 4.21875 13.299 4.21875 13.125C4.21875 12.951 4.14961 12.784 4.02654 12.661C3.90347 12.5379 3.73655 12.4688 3.5625 12.4688H2.90625V9.84375H3.5625C3.73655 9.84375 3.90347 9.77461 4.02654 9.65154C4.14961 9.52847 4.21875 9.36155 4.21875 9.1875C4.21875 9.01345 4.14961 8.84653 4.02654 8.72346C3.90347 8.60039 3.73655 8.53125 3.5625 8.53125H2.90625V5.90625C2.90671 5.55829 3.04513 5.22472 3.29118 4.97868C3.53722 4.73263 3.87079 4.59421 4.21875 4.59375H5.53125V40.0312ZM30.4688 38.7188C30.4683 39.0667 30.3299 39.4003 30.0838 39.6463C29.8378 39.8924 29.5042 40.0308 29.1562 40.0312H6.84375V4.59375H22.5938V8.53125H21.9375V7.21875C21.9375 7.0447 21.8684 6.87778 21.7453 6.75471C21.6222 6.63164 21.4553 6.5625 21.2812 6.5625C21.1072 6.5625 20.9403 6.63164 20.8172 6.75471C20.6941 6.87778 20.625 7.0447 20.625 7.21875V15.0938C20.625 15.2678 20.6941 15.4347 20.8172 15.5578C20.9403 15.6809 21.1072 15.75 21.2812 15.75C21.4553 15.75 21.6222 15.6809 21.7453 15.5578C21.8684 15.4347 21.9375 15.2678 21.9375 15.0938V9.84375H22.5938V26.25C22.5938 26.3519 22.6174 26.4524 22.6627 26.5437L24.6314 30.4812C24.686 30.5902 24.7699 30.6818 24.8736 30.7458C24.9774 30.8099 25.0968 30.8438 25.2188 30.8438C25.3407 30.8438 25.4601 30.8099 25.5639 30.7458C25.6676 30.6818 25.7515 30.5902 25.8061 30.4812L27.7748 26.5437C27.8201 26.4524 27.8437 26.3519 27.8438 26.25V4.59375H29.1562C29.5042 4.59421 29.8378 4.73263 30.0838 4.97868C30.3299 5.22472 30.4683 5.55829 30.4688 5.90625V38.7188Z" fill="#FFC02F"/>
<path d="M25.875 37.4062H18.6562C18.4822 37.4062 18.3153 37.4754 18.1922 37.5985C18.0691 37.7215 18 37.8885 18 38.0625C18 38.2365 18.0691 38.4035 18.1922 38.5265C18.3153 38.6496 18.4822 38.7188 18.6562 38.7188H25.875C26.049 38.7188 26.216 38.6496 26.339 38.5265C26.4621 38.4035 26.5312 38.2365 26.5312 38.0625C26.5312 37.8885 26.4621 37.7215 26.339 37.5985C26.216 37.4754 26.049 37.4062 25.875 37.4062Z" fill="#FFC02F"/>
<path d="M28.5 37.4062H27.8438C27.6697 37.4062 27.5028 37.4754 27.3797 37.5985C27.2566 37.7215 27.1875 37.8885 27.1875 38.0625C27.1875 38.2365 27.2566 38.4035 27.3797 38.5265C27.5028 38.6496 27.6697 38.7188 27.8438 38.7188H28.5C28.674 38.7188 28.841 38.6496 28.964 38.5265C29.0871 38.4035 29.1562 38.2365 29.1562 38.0625C29.1562 37.8885 29.0871 37.7215 28.964 37.5985C28.841 37.4754 28.674 37.4062 28.5 37.4062Z" fill="#FFC02F"/>
<path d="M15.375 5.90625H8.8125C8.63845 5.90625 8.47153 5.97539 8.34846 6.09846C8.22539 6.22153 8.15625 6.38845 8.15625 6.5625C8.15625 6.73655 8.22539 6.90347 8.34846 7.02654C8.47153 7.14961 8.63845 7.21875 8.8125 7.21875H15.375C15.549 7.21875 15.716 7.14961 15.839 7.02654C15.9621 6.90347 16.0312 6.73655 16.0312 6.5625C16.0312 6.38845 15.9621 6.22153 15.839 6.09846C15.716 5.97539 15.549 5.90625 15.375 5.90625Z" fill="#FFC02F"/>
<path d="M10.7812 7.875H8.8125C8.63845 7.875 8.47153 7.94414 8.34846 8.06721C8.22539 8.19028 8.15625 8.3572 8.15625 8.53125C8.15625 8.7053 8.22539 8.87222 8.34846 8.99529C8.47153 9.11836 8.63845 9.1875 8.8125 9.1875H10.7812C10.9553 9.1875 11.1222 9.11836 11.2453 8.99529C11.3684 8.87222 11.4375 8.7053 11.4375 8.53125C11.4375 8.3572 11.3684 8.19028 11.2453 8.06721C11.1222 7.94414 10.9553 7.875 10.7812 7.875Z" fill="#FFC02F"/>
</svg>
