<svg width="45" height="33" viewBox="0 0 45 33" fill="none" xmlns="http://www.w3.org/2000/svg">
<path d="M40.5025 3.00464H4.5025V25.5046H40.5025V3.00464ZM39.0025 24.0046H6.0025V4.50464H39.0025V24.0046Z" fill="url(#paint0_linear)"/>
<path d="M43.5024 27.0051V2.25513C43.5024 1.01247 42.495 0.00512695 41.2524 0.00512695H3.75238C2.50972 0.00512695 1.50238 1.01247 1.50238 2.25513V27.0051H0.00238037V29.2551C0.00481787 31.3251 1.68238 33.0027 3.75238 33.0051H41.2524C43.3224 33.0027 44.9999 31.3251 45.0024 29.2551V27.0051H43.5024ZM3.00238 2.25513C3.00238 1.84094 3.33819 1.50513 3.75238 1.50513H41.2524C41.6666 1.50513 42.0024 1.84094 42.0024 2.25513V27.0051H25.5024V27.7551C25.5024 28.1693 25.1666 28.5051 24.7524 28.5051H20.2524C19.8382 28.5051 19.5024 28.1693 19.5024 27.7551V27.0051H3.00238V2.25513ZM43.5024 29.2551C43.5024 30.4978 42.495 31.5051 41.2524 31.5051H3.75238C2.50972 31.5051 1.50238 30.4978 1.50238 29.2551V28.5051H18.1306C18.1396 28.5314 18.1539 28.5546 18.1644 28.5801C18.1801 28.6199 18.1974 28.6551 18.2154 28.6964C18.255 28.7813 18.2999 28.8637 18.3496 28.9431C18.3721 28.9784 18.3931 29.0144 18.4179 29.0489C18.4813 29.1383 18.5513 29.2231 18.6271 29.3024C18.6429 29.3181 18.6549 29.3361 18.6706 29.3519C18.7635 29.4433 18.8638 29.5268 18.9706 29.6016C19.0006 29.6219 19.0329 29.6391 19.0644 29.6586C19.146 29.7101 19.231 29.7561 19.3186 29.7966C19.3599 29.8154 19.4011 29.8319 19.4431 29.8484C19.5316 29.882 19.622 29.9103 19.7139 29.9331C19.7551 29.9429 19.7949 29.9549 19.8369 29.9624C19.9738 29.9898 20.1129 30.0041 20.2524 30.0051H24.7524C24.8911 30.0042 25.0295 29.9901 25.1656 29.9631C25.2076 29.9556 25.2474 29.9436 25.2886 29.9331C25.3806 29.9109 25.471 29.8829 25.5594 29.8491C25.6014 29.8326 25.6426 29.8161 25.6839 29.7974C25.7715 29.7569 25.8565 29.7107 25.9381 29.6594C25.9696 29.6399 26.0019 29.6226 26.0319 29.6024C26.1387 29.5276 26.239 29.444 26.3319 29.3526C26.3476 29.3369 26.3596 29.3189 26.3754 29.3031C26.4512 29.2238 26.5212 29.1391 26.5846 29.0496C26.6094 29.0151 26.6304 28.9791 26.6529 28.9439C26.7024 28.8644 26.7469 28.782 26.7864 28.6971C26.8044 28.6581 26.8224 28.6221 26.8389 28.5801C26.8486 28.5546 26.8629 28.5314 26.8719 28.5051H43.5024V29.2551V29.2551Z" fill="url(#paint1_linear)"/>
<defs>
<linearGradient id="paint0_linear" x1="36.3436" y1="6.00464" x2="21.6197" y2="34.5164" gradientUnits="userSpaceOnUse">
<stop stop-color="#FFC02F"/>
<stop offset="1" stop-color="#F08100"/>
</linearGradient>
<linearGradient id="paint1_linear" x1="39.8037" y1="4.40513" x2="16.3275" y2="43.1495" gradientUnits="userSpaceOnUse">
<stop stop-color="#FFC02F"/>
<stop offset="1" stop-color="#F08100"/>
</linearGradient>
</defs>
</svg>
