<svg width="41" height="37" viewBox="0 0 41 37" fill="none" xmlns="http://www.w3.org/2000/svg">
<path d="M40.1491 21.0889C40.1491 20.1798 39.8603 19.3368 39.3699 18.647C40.3614 17.8734 41 16.6678 41 15.3156C41 12.9867 39.1053 11.092 36.7764 11.092H28.3458C29.0287 9.61 29.7193 7.40745 29.7193 4.56132C29.7193 2.04623 27.6731 0 25.158 0C22.6429 0 20.5967 2.04623 20.5967 4.56132C20.5967 6.34282 19.5652 7.40914 18.1377 8.88497C17.4636 9.58165 16.7668 10.302 16.1147 11.1774C15.5054 11.995 15.0931 12.8251 14.7294 13.5576C13.9079 15.2116 13.6544 15.4812 12.9212 15.4812H11.9524V13.8522H0V36.8592H11.9524V35.3543C12.1687 35.4768 12.387 35.6176 12.6157 35.7657C13.4075 36.2782 14.305 36.8592 15.5025 36.8592H34.2237C36.5526 36.8592 38.4474 34.9644 38.4474 32.6355C38.4474 31.7265 38.1586 30.8835 37.6682 30.1937C38.6597 29.4202 39.2983 28.2144 39.2983 26.8623C39.2983 25.9533 39.0095 25.1103 38.519 24.4204C39.5105 23.6466 40.1491 22.4409 40.1491 21.0889ZM9.27847 34.1851H2.67388V16.5259H9.27847V34.1851ZM36.7763 16.8652H28.5217V19.5391H35.9255C36.78 19.5391 37.4751 20.2343 37.4751 21.0889C37.4751 21.9434 36.7799 22.6385 35.9255 22.6385H28.5217V25.3124H35.0746C35.9291 25.3124 36.6243 26.0076 36.6243 26.8621C36.6243 27.7165 35.9291 28.4117 35.0746 28.4117H28.5217V31.0856H34.2238C35.0783 31.0856 35.7735 31.7809 35.7735 32.6353C35.7735 33.4897 35.0782 34.185 34.2238 34.185H15.5025C15.1146 34.185 14.7049 33.9326 14.0687 33.5206C13.4843 33.1423 12.8024 32.7021 11.9524 32.4569V18.155H12.9211C15.4314 18.155 16.3699 16.2653 17.1241 14.7469C17.4531 14.0846 17.7932 13.3997 18.2588 12.7748C18.8083 12.0375 19.4444 11.3799 20.0595 10.744C21.6382 9.11199 23.2707 7.42451 23.2707 4.56132C23.2707 3.52063 24.1174 2.67388 25.1581 2.67388C26.1989 2.67388 27.0455 3.52063 27.0455 4.56132C27.0455 9.03183 25.0027 11.5432 24.9875 11.5615L23.1077 13.766H36.7766C37.6311 13.766 38.3263 14.4612 38.3263 15.3156C38.3262 16.1701 37.6308 16.8652 36.7763 16.8652Z" fill="url(#paint0_linear)"/>
<defs>
<linearGradient id="paint0_linear" x1="36.2635" y1="4.91456" x2="7.94255" y2="43.0411" gradientUnits="userSpaceOnUse">
<stop stop-color="#FFC02F"/>
<stop offset="1" stop-color="#F08100"/>
</linearGradient>
</defs>
</svg>
