<svg width="40" height="40" viewBox="0 0 40 40" fill="none" xmlns="http://www.w3.org/2000/svg">
<path d="M39.1278 34.8038L28.9023 24.5432C28.7415 24.3817 28.5181 24.2984 28.2904 24.3146C28.063 24.3311 27.8537 24.4458 27.7176 24.6286C27.4548 24.9814 27.1753 25.3204 26.8829 25.6476L25.3201 24.0848C27.5119 21.5546 28.8397 18.2565 28.8397 14.6542C28.8397 6.70319 22.3709 0.234375 14.4199 0.234375C6.46851 0.234375 0 6.70319 0 14.6542C0 22.6053 6.46881 29.0741 14.4199 29.0741C18.2053 29.0741 21.6541 27.6071 24.2294 25.2127L25.7767 26.7599C25.4562 27.0496 25.1242 27.3267 24.7784 27.5879C24.5975 27.7243 24.4846 27.9324 24.4687 28.1586C24.4528 28.385 24.5355 28.6069 24.6954 28.7674L34.9115 39.0186C35.4745 39.5813 36.2231 39.8914 37.0193 39.8914C37.8152 39.8914 38.5638 39.5816 39.1272 39.0186C39.6899 38.4555 40 37.7069 40 36.9107C40 36.1148 39.6902 35.3668 39.1278 34.8038ZM1.5686 14.6542C1.5686 7.56805 7.33368 1.80298 14.4199 1.80298C21.5063 1.80298 27.2711 7.56805 27.2711 14.6542C27.2711 21.7404 21.506 27.5055 14.4199 27.5055C7.33368 27.5055 1.5686 21.7404 1.5686 14.6542ZM38.0179 37.9092C37.7512 38.176 37.3962 38.3228 37.0193 38.3228C36.6422 38.3228 36.2875 38.176 36.0217 37.9102L26.4243 28.28C27.1448 27.6709 27.811 27.0007 28.4152 26.2766L38.0179 35.9122C38.2846 36.1789 38.4314 36.5335 38.4314 36.9107C38.4314 37.2879 38.2846 37.6425 38.0179 37.9092Z" fill="url(#paint0_linear)"/>
<path d="M14.4196 2.96143C7.97217 2.96143 2.72681 8.20679 2.72681 14.6542C2.72681 21.1017 7.97217 26.347 14.4196 26.347C20.8671 26.347 26.1124 21.1017 26.1124 14.6542C26.1124 8.20679 20.8671 2.96143 14.4196 2.96143ZM14.4196 24.7784C8.83704 24.7784 4.29541 20.2368 4.29541 14.6542C4.29541 9.07166 8.83704 4.53003 14.4196 4.53003C20.0022 4.53003 24.5438 9.07166 24.5438 14.6542C24.5438 20.2368 20.0019 24.7784 14.4196 24.7784Z" fill="url(#paint1_linear)"/>
<path d="M11.0385 6.79506C7.8949 8.15218 5.86365 11.2369 5.86365 14.6543C5.86365 15.0873 6.2149 15.4386 6.64795 15.4386C7.08099 15.4386 7.43225 15.0873 7.43225 14.6543C7.43225 11.8634 9.0918 9.34389 11.6602 8.23519C12.0578 8.06368 12.2409 7.60195 12.0694 7.2043C11.8979 6.80666 11.4362 6.62355 11.0385 6.79506Z" fill="url(#paint2_linear)"/>
<path d="M15.1442 6.58297C15.0148 6.27017 14.6877 6.07119 14.3498 6.10171C14.0251 6.13131 13.7474 6.36538 13.6626 6.67971C13.5787 6.99069 13.6995 7.33371 13.9629 7.52078C14.2311 7.7109 14.5943 7.71365 14.8653 7.5281C15.1671 7.32119 15.2831 6.91928 15.1442 6.58297Z" fill="url(#paint3_linear)"/>
<defs>
<linearGradient id="paint0_linear" x1="35.379" y1="5.52197" x2="4.17447" y2="43.6145" gradientUnits="userSpaceOnUse">
<stop stop-color="#FFC02F"/>
<stop offset="1" stop-color="#F08100"/>
</linearGradient>
<linearGradient id="paint1_linear" x1="23.4108" y1="6.07951" x2="4.97901" y2="28.3869" gradientUnits="userSpaceOnUse">
<stop stop-color="#FFC02F"/>
<stop offset="1" stop-color="#F08100"/>
</linearGradient>
<linearGradient id="paint2_linear" x1="11.4094" y1="7.89176" x2="4.48642" y2="13.9248" gradientUnits="userSpaceOnUse">
<stop stop-color="#FFC02F"/>
<stop offset="1" stop-color="#F08100"/>
</linearGradient>
<linearGradient id="paint3_linear" x1="15.0215" y1="6.30753" x2="13.7866" y2="7.80162" gradientUnits="userSpaceOnUse">
<stop stop-color="#FFC02F"/>
<stop offset="1" stop-color="#F08100"/>
</linearGradient>
</defs>
</svg>
