<svg width="40" height="40" viewBox="0 0 40 40" fill="none" xmlns="http://www.w3.org/2000/svg">
<path d="M39.3337 1.74538e-08C39.3336 1.74538e-08 39.3334 1.74538e-08 39.3333 1.74538e-08H0.666667C0.298583 -8.33159e-05 8.33333e-05 0.29825 0 0.666333C0 0.666417 0 0.666583 0 0.666667V14H1.33333V1.33333H38.6667V16H15.3333V17.3333H39.3333C39.7014 17.3334 39.9999 17.0351 40 16.667C40 16.6669 40 16.6667 40 16.6667V0.666667C40.0001 0.298583 39.7018 8.33508e-05 39.3337 1.74538e-08Z" fill="url(#paint0_linear)"/>
<path d="M35.333 3.33325H21.9996V4.66659H35.333V3.33325Z" fill="url(#paint1_linear)"/>
<path d="M37.3326 7.33325H23.9993V8.66658H37.3326V7.33325Z" fill="url(#paint2_linear)"/>
<path d="M34.667 11.3333H21.3337V12.6666H34.667V11.3333Z" fill="url(#paint3_linear)"/>
<path d="M21.2802 5.74791C20.8237 4.65083 19.5644 4.1315 18.4674 4.58791C18.4487 4.59575 18.43 4.60375 18.4115 4.61208L13.0058 7.41625C13.219 6.97442 13.3309 6.49058 13.3333 6.00008C13.3333 4.15916 11.8409 2.66675 10 2.66675C8.15908 2.66675 6.66667 4.15916 6.66667 6.00008C6.66917 6.72366 6.90942 7.42641 7.35042 8.00008H7.32267C5.43033 8.01275 3.74108 9.18917 3.073 10.9597L1.29333 17.0938C0.869667 18.1943 1.41833 19.43 2.51892 19.8537C3.02075 20.0468 3.577 20.0436 4.07658 19.8445C4.65058 19.6132 5.09725 19.1462 5.30283 18.5626L6 16.3438V25.9924C5.42633 25.5515 4.72358 25.3112 4 25.3087C2.16183 25.3059 0.669417 26.7938 0.666667 28.6321C0.665333 29.5323 1.02867 30.3947 1.67392 31.0225C0.649917 31.5457 0.00400002 32.597 1.74538e-08 33.7468V39.3334C-8.33159e-05 39.7015 0.29825 40 0.666333 40.0001C0.666417 40.0001 0.666583 40.0001 0.666667 40.0001H7.33333C7.70142 40.0002 7.99992 39.7018 8 39.3337C8 39.3337 8 39.3335 8 39.3334V33.7468C7.99675 32.8019 7.55775 31.9114 6.81033 31.3334H11.8564C11.1089 31.9114 10.6699 32.8019 10.6667 33.7468V39.3334C10.6667 39.7015 10.965 40 11.3331 40.0001C11.3332 40.0001 11.3333 40.0001 11.3334 40.0001H18.0001C18.3682 40.0002 18.6667 39.7018 18.6667 39.3337C18.6667 39.3337 18.6667 39.3335 18.6667 39.3334V33.7468C18.6628 32.597 18.0168 31.5457 16.9928 31.0225C18.3091 29.7377 18.3347 27.6292 17.0499 26.3129C16.2587 25.5023 15.1098 25.1494 14.0001 25.3761V11.7383L20.1202 8.56058C21.2172 8.10425 21.7365 6.84491 21.2802 5.74791ZM10 4.00008C11.1046 4.00008 12 4.8955 12 6.00008C12 7.10466 11.1046 8.00008 10 8.00008C8.89592 7.99891 8.00117 7.10416 8 6.00008C8 4.8955 8.89542 4.00008 10 4.00008ZM4 26.642C5.10458 26.642 6 27.5374 6 28.642C6 29.7466 5.10458 30.642 4 30.642C2.89542 30.642 2 29.7466 2 28.642C2.00117 27.5379 2.89592 26.6432 4 26.642ZM6.66667 38.6667H1.33333V33.7468C1.33467 32.7826 2.11608 32.0012 3.08042 32.0001H4.91958C5.88383 32.0012 6.66533 32.7826 6.66667 33.7468V38.6667ZM17.3333 33.7468V38.6667H12V33.7468C12.0013 32.7826 12.7827 32.0012 13.7471 32.0001H15.5862C16.5506 32.0012 17.332 32.7826 17.3333 33.7468ZM14.6667 26.642C15.7707 26.6432 16.6655 27.5379 16.6667 28.642C16.6667 29.7466 15.7712 30.642 14.6667 30.642C13.5621 30.642 12.6667 29.7466 12.6667 28.642C12.6667 27.5374 13.5621 26.642 14.6667 26.642ZM20.0602 6.86008C19.971 7.08908 19.7878 7.26883 19.557 7.35358L13.0264 10.7416C12.8054 10.8562 12.6667 11.0845 12.6667 11.3334V25.9924C11.4179 26.9157 10.9853 28.5868 11.6293 30.0001H10.6667V18.6667H9.33333V30.0001H7.03733C7.227 29.5809 7.32692 29.1267 7.33083 28.6667H7.33333V12.0001C7.33325 11.6318 7.03467 11.3334 6.6665 11.3335C6.37542 11.3336 6.118 11.5225 6.03067 11.8002L4.04 18.1348C3.88917 18.5508 3.42958 18.7658 3.01358 18.6149C2.98442 18.6043 2.95583 18.5921 2.928 18.5782C2.54342 18.3794 2.38017 17.9154 2.55567 17.5196L4.33525 11.3855C4.81517 10.153 5.99992 9.33916 7.32258 9.33342H12.043C12.1498 9.33358 12.2552 9.30783 12.35 9.25858L18.976 5.81916C19.3735 5.65333 19.8317 5.823 20.0252 6.20783C20.1277 6.41066 20.1405 6.64733 20.0602 6.86008Z" fill="url(#paint4_linear)"/>
<path d="M27.6598 31.0224C28.9783 29.7377 29.0058 27.6273 27.7212 26.3087C26.4365 24.9901 24.3261 24.9626 23.0075 26.2473C21.6889 27.532 21.6614 29.6424 22.9461 30.961C22.9663 30.9817 22.9868 31.0022 23.0076 31.0224C21.9837 31.5456 21.3377 32.5969 21.3337 33.7467V39.3333C21.3336 39.7014 21.6319 39.9999 22 40C22.0001 40 22.0003 40 22.0003 40H28.667C29.0351 40.0001 29.3336 39.7017 29.3337 39.3337C29.3337 39.3336 29.3337 39.3334 29.3337 39.3333V33.7467C29.3297 32.5969 28.6838 31.5456 27.6598 31.0224ZM25.3337 26.6419C26.4383 26.6419 27.3337 27.5373 27.3337 28.6419C27.3337 29.7465 26.4383 30.6419 25.3337 30.6419C24.2291 30.6419 23.3337 29.7465 23.3337 28.6419C23.3348 27.5378 24.2296 26.6431 25.3337 26.6419ZM28.0003 38.6667H22.667V33.7467C22.6683 32.7825 23.4498 32.0011 24.4141 32H26.2533C27.2175 32.0011 27.999 32.7825 28.0003 33.7467V38.6667Z" fill="url(#paint5_linear)"/>
<path d="M38.3257 31.0224C39.6443 29.7377 39.6718 27.6273 38.3871 26.3087C37.1025 24.9901 34.9921 24.9626 33.6735 26.2473C32.3549 27.532 32.3274 29.6424 33.6121 30.961C33.6323 30.9817 33.6528 31.0022 33.6736 31.0224C32.6496 31.5456 32.0036 32.5969 31.9996 33.7467V39.3333C31.9996 39.7014 32.2979 39.9999 32.666 40C32.6661 40 32.6662 40 32.6663 40H39.333C39.7011 40.0001 39.9996 39.7017 39.9996 39.3337C39.9996 39.3336 39.9996 39.3334 39.9996 39.3333V33.7467C39.9956 32.5969 39.3497 31.5456 38.3257 31.0224ZM35.9996 26.6419C37.1042 26.6419 37.9996 27.5373 37.9996 28.6419C37.9996 29.7465 37.1042 30.6419 35.9996 30.6419C34.8951 30.6419 33.9996 29.7465 33.9996 28.6419C34.0008 27.5378 34.8956 26.6431 35.9996 26.6419ZM38.6663 38.6667H33.333V33.7467C33.3343 32.7825 34.1157 32.0011 35.0801 32H36.9192C37.8835 32.0011 38.665 32.7825 38.6663 33.7467V38.6667Z" fill="url(#paint6_linear)"/>
<defs>
<linearGradient id="paint0_linear" x1="35.379" y1="2.31111" x2="26.5493" y2="26.9719" gradientUnits="userSpaceOnUse">
<stop stop-color="#FFC02F"/>
<stop offset="1" stop-color="#F08100"/>
</linearGradient>
<linearGradient id="paint1_linear" x1="33.7926" y1="3.51103" x2="33.617" y2="5.63669" gradientUnits="userSpaceOnUse">
<stop stop-color="#FFC02F"/>
<stop offset="1" stop-color="#F08100"/>
</linearGradient>
<linearGradient id="paint2_linear" x1="35.7923" y1="7.51103" x2="35.6166" y2="9.63669" gradientUnits="userSpaceOnUse">
<stop stop-color="#FFC02F"/>
<stop offset="1" stop-color="#F08100"/>
</linearGradient>
<linearGradient id="paint3_linear" x1="33.1267" y1="11.511" x2="32.951" y2="13.6367" gradientUnits="userSpaceOnUse">
<stop stop-color="#FFC02F"/>
<stop offset="1" stop-color="#F08100"/>
</linearGradient>
<linearGradient id="paint4_linear" x1="18.9682" y1="7.64453" x2="-9.11792" y2="27.1707" gradientUnits="userSpaceOnUse">
<stop stop-color="#FFC02F"/>
<stop offset="1" stop-color="#F08100"/>
</linearGradient>
<linearGradient id="paint5_linear" x1="28.4095" y1="27.2613" x2="17.5712" y2="34.4007" gradientUnits="userSpaceOnUse">
<stop stop-color="#FFC02F"/>
<stop offset="1" stop-color="#F08100"/>
</linearGradient>
<linearGradient id="paint6_linear" x1="39.0754" y1="27.2613" x2="28.2372" y2="34.4007" gradientUnits="userSpaceOnUse">
<stop stop-color="#FFC02F"/>
<stop offset="1" stop-color="#F08100"/>
</linearGradient>
</defs>
</svg>
