<svg width="41" height="45" viewBox="0 0 41 45" fill="none" xmlns="http://www.w3.org/2000/svg">
<path d="M40.2803 25.914C40.2803 23.7868 38.5497 22.0561 36.4224 22.0561H31.9273V16.0232C34.5383 14.5112 36.1828 11.7032 36.1828 8.64693C36.1828 6.88362 35.6486 5.19104 34.6371 3.75252C33.6497 2.34833 32.2823 1.28506 30.6824 0.678406L28.894 0V5.72525L27.6612 6.4864L26.428 5.72525V0L24.6399 0.678062C23.04 1.28506 21.6722 2.34833 20.6852 3.75252C19.6738 5.19104 19.1392 6.88328 19.1392 8.64693C19.1392 11.7385 20.8102 14.5613 23.463 16.063V17.8391H17.8727L10.7821 23.5399H9.85645V21.4316H0V45H9.8568V42.4975L14.663 45H33.728V44.9276C35.5016 44.5808 36.844 43.0156 36.844 41.1421C36.844 40.4602 36.6655 39.8196 36.3538 39.2631C37.3793 38.5689 38.0546 37.3951 38.0546 36.0661C38.0546 35.3681 37.8675 34.7134 37.5417 34.1476C38.5356 33.4492 39.1872 32.2947 39.1872 30.99C39.1872 30.2838 38.9953 29.6219 38.6626 29.052C39.6411 28.3516 40.2803 27.2063 40.2803 25.914V25.914ZM21.779 8.64693C21.779 6.93134 22.5405 5.32494 23.7881 4.22562V7.19742L27.6612 9.58935L31.5339 7.19776V4.22562C32.7818 5.32494 33.543 6.93134 33.543 8.64693C33.543 10.9592 32.1786 13.0658 30.0668 14.0141L29.2875 14.3643V22.0564H26.1028V14.3852L25.3111 14.0395C23.1654 13.1026 21.779 10.986 21.779 8.64693V8.64693ZM7.21699 42.3602H2.63981V24.0714H7.21699V42.3602ZM32.9865 42.3602H15.3091L9.8568 39.5213V26.1797H11.7118L18.8024 20.4792H23.4277V24.6962H36.4224C37.094 24.6962 37.6405 25.2425 37.6405 25.9143C37.6405 26.5859 37.094 27.1325 36.4224 27.1325H28.7303V29.7723H35.3293C36.0008 29.7723 36.5471 30.3185 36.5471 30.9904C36.5471 31.6619 36.0008 32.2085 35.3293 32.2085H27.598V34.8483H34.1967C34.8685 34.8483 35.4148 35.3945 35.4148 36.0664C35.4148 36.7379 34.8685 37.2845 34.1967 37.2845H26.3874V39.9243H32.9865C33.658 39.9243 34.2046 40.4705 34.2046 41.1424C34.2046 41.814 33.658 42.3602 32.9865 42.3602V42.3602Z" fill="url(#paint0_linear)"/>
<defs>
<linearGradient id="paint0_linear" x1="35.627" y1="6" x2="-0.37305" y2="45" gradientUnits="userSpaceOnUse">
<stop stop-color="#FFC02F"/>
<stop offset="1" stop-color="#F08100"/>
</linearGradient>
</defs>
</svg>
