<svg width="39" height="39" viewBox="0 0 39 39" fill="none" xmlns="http://www.w3.org/2000/svg">
<path fill-rule="evenodd" clip-rule="evenodd" d="M24.8001 21.7297C27.6342 17.4522 27.1669 11.6322 23.3981 7.8634C19.0958 3.56114 12.1205 3.56114 7.81824 7.8634C3.51599 12.1657 3.51599 19.141 7.81824 23.4432C11.5869 27.2119 17.4067 27.6793 21.6841 24.8455L27.344 30.5054C28.2045 31.3659 29.5995 31.3659 30.4599 30.5054C31.3203 29.645 31.3203 28.25 30.4599 27.3896L24.8001 21.7297ZM21.2735 9.98779C24.4024 13.1167 24.4024 18.1898 21.2735 21.3188C18.1445 24.4477 13.0715 24.4477 9.9425 21.3188C6.81354 18.1898 6.81354 13.1167 9.9425 9.98779C13.0715 6.85883 18.1445 6.85883 21.2735 9.98779Z" fill="white"/>
</svg>
