<svg width="52" height="52" viewBox="0 0 52 52" fill="none" xmlns="http://www.w3.org/2000/svg">
<g clip-path="url(#clip0)">
<path d="M32.0806 0.084399C31.9484 0.139037 31.8284 0.219268 31.7275 0.320521L18.728 13.32C18.3123 13.7503 18.3243 14.4361 18.7546 14.8518C19.1744 15.2573 19.8399 15.2573 20.2598 14.8518L31.4112 3.70039L31.4112 24.9177C31.3956 38.6719 20.2495 49.8179 6.49543 49.8335C5.89715 49.8335 5.41211 50.3185 5.41211 50.9168C5.41211 51.5151 5.89715 52 6.49543 52C21.4457 51.9832 33.561 39.8679 33.5777 24.9177L33.5777 3.70039L44.7269 14.8496C45.1426 15.2799 45.8285 15.2918 46.2588 14.8761C46.6891 14.4604 46.7009 13.7746 46.2853 13.3443C46.2765 13.3352 46.2677 13.3264 46.2588 13.3178L33.2593 0.318289C32.9497 0.00792574 32.4836 -0.0853054 32.0784 0.0821674L32.0806 0.084399Z" fill="#2196F3"/>
<path d="M46.5771 14.0849C46.5782 14.6832 46.0939 15.169 45.4957 15.1702C45.2072 15.1707 44.9305 15.0561 44.7268 14.8519L32.4942 2.61712L20.2617 14.8519C19.8314 15.2676 19.1456 15.2556 18.7299 14.8253C18.3244 14.4054 18.3244 13.7399 18.7299 13.3201L31.7294 0.320577C32.1524 -0.102313 32.8381 -0.102313 33.2612 0.320577L46.2607 13.3201C46.4632 13.5231 46.577 13.7981 46.5771 14.0849Z" fill="#616161"/>
<path d="M33.5777 1.08536L33.5777 24.9177C33.561 39.8679 21.4457 51.9832 6.49543 52C5.89715 52 5.41211 51.515 5.41211 50.9167C5.41211 50.3184 5.89715 49.8334 6.49543 49.8334C20.2495 49.8178 31.3957 38.6718 31.4111 24.9177L31.4111 1.08526C31.4111 0.486979 31.8961 0.00194052 32.4944 0.0019405C33.0927 0.00204347 33.5777 0.487082 33.5777 1.08536Z" fill="#616161"/>
</g>
<defs>
<clipPath id="clip0">
<rect width="52" height="52" fill="white" transform="translate(0 52) rotate(-90)"/>
</clipPath>
</defs>
</svg>
