<svg width="13" height="8" viewBox="0 0 13 8" fill="none" xmlns="http://www.w3.org/2000/svg">
<path d="M10.3238 0.625383C10.6692 0.279994 11.2292 0.279993 11.5746 0.625383C11.92 0.970772 11.92 1.53076 11.5746 1.87615L6.87562 6.57513C6.53023 6.92052 5.97024 6.92052 5.62485 6.57513C5.27947 6.22974 5.27946 5.66975 5.62485 5.32436L10.3238 0.625383Z" fill="#959BA4"/>
<path d="M1.87538 0.625383C1.52999 0.279994 0.970007 0.279993 0.624617 0.625383C0.279228 0.970772 0.279228 1.53076 0.624617 1.87615L5.3236 6.57513C5.66899 6.92052 6.22898 6.92052 6.57436 6.57513C6.91975 6.22974 6.91975 5.66975 6.57436 5.32436L1.87538 0.625383Z" fill="#959BA4"/>
</svg>
