<svg width="364" height="347" viewBox="0 0 364 347" fill="none" xmlns="http://www.w3.org/2000/svg">
<path d="M198.545 347C291.175 338.988 364 264.402 364 173.863C364 77.9949 282.355 0 182 0C81.6452 0 0 77.9949 0 173.863C0 264.402 72.8254 338.988 165.455 347H198.545ZM182 31.6115C264.108 31.6115 330.909 95.4255 330.909 173.863C330.909 196.294 325.438 217.527 315.715 236.416L226.166 181.979C217.017 165.661 198.369 161.364 185.864 158.495C167.553 154.293 165.455 152.623 165.455 142.252C165.455 133.536 172.877 126.446 182 126.446C191.123 126.446 198.545 133.536 198.545 142.252H231.636C231.636 121.646 217.803 104.078 198.545 97.5529V79.0286H165.455V97.5529C151.308 102.346 140.098 113.101 135.14 126.641L66.0936 84.6671C93.4123 52.3338 135.217 31.6115 182 31.6115ZM33.0909 173.863C33.0909 151.432 38.5619 130.199 48.2851 111.31L137.834 165.747C146.983 182.065 165.631 186.362 178.136 189.231C196.447 193.433 198.545 195.103 198.545 205.474C198.545 214.19 191.123 221.28 182 221.28C172.877 221.28 165.455 214.19 165.455 205.474H132.364C132.364 226.08 146.197 243.648 165.455 250.173V268.697H198.545V250.173C212.692 245.38 223.902 234.625 228.86 221.085L297.906 263.06C270.588 295.392 228.783 316.115 182 316.115C99.8915 316.115 33.0909 252.3 33.0909 173.863Z" fill="url(#paint0_linear)"/>
<defs>
<linearGradient id="paint0_linear" x1="182" y1="0" x2="182" y2="347" gradientUnits="userSpaceOnUse">
<stop stop-color="#DBDBDB" stop-opacity="0.5"/>
<stop offset="1" stop-color="#DBDBDB" stop-opacity="0"/>
</linearGradient>
</defs>
</svg>
