<svg width="134" height="83" viewBox="0 0 134 83" fill="none" xmlns="http://www.w3.org/2000/svg">
<path d="M19.6237 20.0416C32.2786 7.38702 49.1037 0.417969 67 0.417969C84.8963 0.417969 101.721 7.38728 114.376 20.0416C127.031 32.6963 134 49.5216 134 67.418V71.3438H109.47L104.236 62.1417H82.7314C81.4615 67.9749 80.0477 73.3082 78.77 75.4708C76.9092 78.6208 73.9329 80.8575 70.3895 81.7688C69.2513 82.0617 68.099 82.2064 66.9539 82.2064C64.5341 82.2064 62.1485 81.5594 60.0105 80.2964C56.8608 78.4356 54.6241 75.4593 53.7128 71.9161C52.8591 68.5973 53.264 65.1533 54.8481 62.1417H29.7637L24.5293 71.3438H0V67.418C0 49.5216 6.96931 32.6963 19.6237 20.0416ZM61.317 69.9601C61.7057 71.472 62.6604 72.7421 64.0046 73.5364C65.3486 74.3305 66.9217 74.5537 68.434 74.1648C69.9459 73.7759 71.216 72.8214 72.0103 71.4772C73.0797 69.6669 75.0089 61.2134 76.7524 51.9596C69.4884 57.9519 63.0151 63.7207 61.9454 65.531C61.1511 66.8749 60.9281 68.4481 61.317 69.9601ZM19.9626 63.4922L25.197 54.2902H61.9737C68.1788 48.6164 76.6438 41.9017 80.0009 39.2743L87.8993 33.0925L86.2957 42.9933C85.9212 45.3059 85.2099 49.5656 84.3171 54.2902H108.803L114.037 63.4922H126.02C125.498 55.576 123.409 48.0822 120.066 41.3136L111.347 46.347L107.422 39.5475L116.13 34.5199C111.826 28.1138 106.305 22.5913 99.8988 18.2876L94.8707 26.9966L88.0712 23.0708L93.1057 14.3508C86.3373 11.0076 78.842 8.92357 70.926 8.40223V18.4766H63.0745V8.40223C55.1585 8.92357 47.6632 11.0076 40.8949 14.3508L45.9293 23.0708L39.1298 26.9966L34.1017 18.2876C27.6956 22.5913 22.1744 28.1138 17.8704 34.5199L26.5788 39.5475L22.6531 46.347L13.935 41.3136C10.5918 48.0822 8.50219 55.576 7.98085 63.4922H19.9626Z" fill="#A6A6A6"/>
</svg>
