<svg width="110" height="123" viewBox="0 0 110 123" fill="none" xmlns="http://www.w3.org/2000/svg">
<path d="M106.218 46.1039L98.3716 38.2545V22.7002C98.3716 17.4441 94.0955 13.168 88.8394 13.168H73.3018L61.1545 1.0136C60.7077 0.566773 60.1017 0.31536 59.4697 0.315121L50.5921 0.3125C50.5918 0.3125 50.5916 0.3125 50.5914 0.3125C49.9596 0.3125 49.3536 0.563437 48.9068 1.01002L36.7412 13.1682H21.1602C15.9041 13.1682 11.6279 17.4444 11.6279 22.7005V38.2795L3.78717 46.1022C1.46725 48.4209 0.189453 51.5044 0.189453 54.7847V110.037C0.189453 113.344 1.50586 116.347 3.63918 118.556C3.68518 118.611 3.73308 118.665 3.78479 118.717C3.83626 118.769 3.89012 118.816 3.94493 118.862C6.15427 120.996 9.15766 122.312 12.4646 122.312H44.2762C45.5924 122.312 46.6593 121.245 46.6593 119.929C46.6593 118.614 45.5924 117.546 44.2762 117.546H12.4644C11.2617 117.546 10.1252 117.261 9.11619 116.756L37.2052 88.6667L46.35 97.806C48.6682 100.123 51.7495 101.399 55.027 101.399H55.0308C58.3096 101.398 61.3917 100.12 63.7094 97.8007L72.8161 88.6884L100.883 116.756C99.8746 117.26 98.7379 117.546 97.5352 117.546H65.7238C64.4077 117.546 63.3408 118.614 63.3408 119.929C63.3408 121.245 64.4077 122.312 65.7238 122.312H97.5357C100.842 122.312 103.846 120.996 106.055 118.862C106.11 118.816 106.164 118.769 106.216 118.717C106.267 118.665 106.315 118.611 106.361 118.556C108.494 116.346 109.811 113.344 109.811 110.037V54.7811C109.811 51.5039 108.535 48.4224 106.218 46.1039ZM98.3719 44.9962L102.847 49.4731C103.26 49.8865 103.617 50.3407 103.918 50.825L98.3719 56.3751V44.9962ZM51.5777 5.07888L58.4812 5.08126L66.5632 13.1682H43.4834L51.5777 5.07888ZM7.15492 49.475L11.6282 45.012V56.3673L6.08302 50.8257C6.38448 50.3417 6.74194 49.8877 7.15492 49.475ZM5.74605 113.386C5.24132 112.377 4.95559 111.24 4.95559 110.038V56.4369L33.8341 85.2975L5.74605 113.386ZM60.3386 94.4318C58.9207 95.8504 57.0354 96.6318 55.0296 96.6326C55.0289 96.6326 55.0282 96.6326 55.0274 96.6326C53.0226 96.6326 51.1376 95.8521 49.7194 94.4347L16.3943 61.1303V22.7002C16.3943 20.0722 18.5324 17.9341 21.1605 17.9341H88.8396C91.4677 17.9341 93.6057 20.0722 93.6057 22.7002V38.937C93.5831 39.1265 93.5831 39.3176 93.6057 39.5071V61.1439L60.3386 94.4318ZM105.044 110.038C105.044 111.24 104.759 112.377 104.254 113.386L76.1858 85.3173L105.044 56.4409V110.038Z" fill="#A6A6A6"/>
<path d="M55.0003 117.546C54.3735 117.546 53.7587 117.801 53.3154 118.244C52.8722 118.687 52.6172 119.302 52.6172 119.929C52.6172 120.555 52.8722 121.17 53.3154 121.614C53.7587 122.059 54.3735 122.312 55.0003 122.312C55.627 122.312 56.2418 122.059 56.6851 121.614C57.1283 121.17 57.3833 120.555 57.3833 119.929C57.3833 119.302 57.1283 118.687 56.6851 118.244C56.2418 117.801 55.627 117.546 55.0003 117.546Z" fill="#A6A6A6"/>
<path d="M55.0002 27.9282C42.5935 27.9282 32.5 38.0215 32.5 50.4282C32.5 63.0046 42.7317 73.2363 55.3081 73.2363H69.7922C71.1083 73.2363 72.1752 72.1692 72.1752 70.8532C72.1752 69.5373 71.1083 68.4702 69.7922 68.4702H55.3081C45.3598 68.4702 37.2661 60.3765 37.2661 50.4282C37.2661 40.6498 45.2215 32.6944 55.0002 32.6944C64.7789 32.6944 72.7343 40.6498 72.7343 50.4282V55.3118C72.7343 57.1887 71.2072 58.7155 69.3303 58.7155C67.4534 58.7155 65.9263 57.1887 65.9263 55.3118V49.7957C65.9263 43.2711 60.6183 37.9631 54.0937 37.9631C47.2328 37.9631 41.6515 43.5447 41.6515 50.4056C41.6515 57.2662 47.2331 62.8478 54.0937 62.8478H57.8847C59.2008 62.8478 60.2677 61.7806 60.2677 60.4647C60.2677 59.1488 59.2008 58.0817 57.8847 58.0817H54.0937C49.8611 58.0817 46.4176 54.6381 46.4176 50.4053C46.4176 46.1728 49.8611 42.7292 54.0937 42.7292C57.9903 42.7292 61.1602 45.8994 61.1602 49.7957V55.3118C61.1602 59.8168 64.8251 63.4817 69.3303 63.4817C73.8355 63.4817 77.5004 59.8168 77.5004 55.3118V50.4282C77.5002 38.0215 67.4067 27.9282 55.0002 27.9282Z" fill="#A6A6A6"/>
</svg>
