<svg width="118" height="111" viewBox="0 0 118 111" fill="none" xmlns="http://www.w3.org/2000/svg">
<path d="M118 89.8828V0H0V89.8828H44.9414V103.711H38.0273V110.625H79.9727V103.711H73.0586V89.8828H118ZM6.91406 82.9688V73.75H76.5156V66.8359H32.7757L51.2793 48.3323L61.6504 58.7034L90.3438 30.01V38.4883H97.2578V17.7461H76.5156V24.6602H85.9157L61.6504 48.9255L51.2793 38.5544L22.9978 66.8359H6.91406V6.91406H111.086V82.9688C108.324 82.9688 9.69421 82.9688 6.91406 82.9688ZM66.1445 103.711H51.8555V89.8828H66.1445V103.711Z" fill="#A6A6A6"/>
<path d="M83.4297 66.8359H90.3438V73.75H83.4297V66.8359Z" fill="#A6A6A6"/>
<path d="M97.2578 66.8359H104.172V73.75H97.2578V66.8359Z" fill="#A6A6A6"/>
</svg>
