<svg width="120" height="121" viewBox="0 0 120 121" fill="none" xmlns="http://www.w3.org/2000/svg">
<path d="M26.25 30.3125H30C30.4973 30.3125 30.9742 30.51 31.3258 30.8617C31.6775 31.2133 31.875 31.6902 31.875 32.1875C31.875 32.6848 31.6775 33.1617 31.3258 33.5133C30.9742 33.865 30.4973 34.0625 30 34.0625H24.375C23.8777 34.0625 23.4008 34.26 23.0492 34.6117C22.6975 34.9633 22.5 35.4402 22.5 35.9375C22.5 36.4348 22.6975 36.9117 23.0492 37.2633C23.4008 37.615 23.8777 37.8125 24.375 37.8125H26.25V39.6875C26.25 40.1848 26.4475 40.6617 26.7992 41.0133C27.1508 41.365 27.6277 41.5625 28.125 41.5625C28.6223 41.5625 29.0992 41.365 29.4508 41.0133C29.8025 40.6617 30 40.1848 30 39.6875V37.8125C31.4918 37.8125 32.9226 37.2199 33.9775 36.165C35.0324 35.1101 35.625 33.6793 35.625 32.1875C35.625 30.6957 35.0324 29.2649 33.9775 28.21C32.9226 27.1551 31.4918 26.5625 30 26.5625H26.25C25.7527 26.5625 25.2758 26.365 24.9242 26.0133C24.5725 25.6617 24.375 25.1848 24.375 24.6875C24.375 24.1902 24.5725 23.7133 24.9242 23.3617C25.2758 23.01 25.7527 22.8125 26.25 22.8125H31.875C32.3723 22.8125 32.8492 22.615 33.2008 22.2633C33.5525 21.9117 33.75 21.4348 33.75 20.9375C33.75 20.4402 33.5525 19.9633 33.2008 19.6117C32.8492 19.26 32.3723 19.0625 31.875 19.0625H30V17.1875C30 16.6902 29.8025 16.2133 29.4508 15.8617C29.0992 15.51 28.6223 15.3125 28.125 15.3125C27.6277 15.3125 27.1508 15.51 26.7992 15.8617C26.4475 16.2133 26.25 16.6902 26.25 17.1875V19.0625C24.7582 19.0625 23.3274 19.6551 22.2725 20.71C21.2176 21.7649 20.625 23.1957 20.625 24.6875C20.625 26.1793 21.2176 27.6101 22.2725 28.665C23.3274 29.7199 24.7582 30.3125 26.25 30.3125Z" fill="#A6A6A6"/>
<path d="M50.625 22.8125H63.75C64.2473 22.8125 64.7242 22.615 65.0758 22.2633C65.4275 21.9117 65.625 21.4348 65.625 20.9375C65.625 20.4402 65.4275 19.9633 65.0758 19.6117C64.7242 19.26 64.2473 19.0625 63.75 19.0625H50.625C50.1277 19.0625 49.6508 19.26 49.2992 19.6117C48.9475 19.9633 48.75 20.4402 48.75 20.9375C48.75 21.4348 48.9475 21.9117 49.2992 22.2633C49.6508 22.615 50.1277 22.8125 50.625 22.8125Z" fill="#A6A6A6"/>
<path d="M41.25 37.8125H54.375C54.8723 37.8125 55.3492 37.615 55.7008 37.2633C56.0525 36.9117 56.25 36.4348 56.25 35.9375C56.25 35.4402 56.0525 34.9633 55.7008 34.6117C55.3492 34.26 54.8723 34.0625 54.375 34.0625H41.25C40.7527 34.0625 40.2758 34.26 39.9242 34.6117C39.5725 34.9633 39.375 35.4402 39.375 35.9375C39.375 36.4348 39.5725 36.9117 39.9242 37.2633C40.2758 37.615 40.7527 37.8125 41.25 37.8125Z" fill="#A6A6A6"/>
<path d="M41.25 30.3125H63.75C64.2473 30.3125 64.7242 30.115 65.0758 29.7633C65.4275 29.4117 65.625 28.9348 65.625 28.4375C65.625 27.9402 65.4275 27.4633 65.0758 27.1117C64.7242 26.76 64.2473 26.5625 63.75 26.5625H41.25C40.7527 26.5625 40.2758 26.76 39.9242 27.1117C39.5725 27.4633 39.375 27.9402 39.375 28.4375C39.375 28.9348 39.5725 29.4117 39.9242 29.7633C40.2758 30.115 40.7527 30.3125 41.25 30.3125Z" fill="#A6A6A6"/>
<path d="M22.5 49.0625H63.75C64.2473 49.0625 64.7242 48.865 65.0758 48.5133C65.4275 48.1617 65.625 47.6848 65.625 47.1875C65.625 46.6902 65.4275 46.2133 65.0758 45.8617C64.7242 45.51 64.2473 45.3125 63.75 45.3125H22.5C22.0027 45.3125 21.5258 45.51 21.1742 45.8617C20.8225 46.2133 20.625 46.6902 20.625 47.1875C20.625 47.6848 20.8225 48.1617 21.1742 48.5133C21.5258 48.865 22.0027 49.0625 22.5 49.0625Z" fill="#A6A6A6"/>
<path d="M65.625 54.6875C65.625 54.1902 65.4275 53.7133 65.0758 53.3617C64.7242 53.01 64.2473 52.8125 63.75 52.8125H22.5C22.0027 52.8125 21.5258 53.01 21.1742 53.3617C20.8225 53.7133 20.625 54.1902 20.625 54.6875C20.625 55.1848 20.8225 55.6617 21.1742 56.0133C21.5258 56.365 22.0027 56.5625 22.5 56.5625H63.75C64.2473 56.5625 64.7242 56.365 65.0758 56.0133C65.4275 55.6617 65.625 55.1848 65.625 54.6875Z" fill="#A6A6A6"/>
<path d="M39.375 60.3125H30C29.5027 60.3125 29.0258 60.51 28.6742 60.8617C28.3225 61.2133 28.125 61.6902 28.125 62.1875C28.125 62.6848 28.3225 63.1617 28.6742 63.5133C29.0258 63.865 29.5027 64.0625 30 64.0625H39.375C39.8723 64.0625 40.3492 63.865 40.7008 63.5133C41.0525 63.1617 41.25 62.6848 41.25 62.1875C41.25 61.6902 41.0525 61.2133 40.7008 60.8617C40.3492 60.51 39.8723 60.3125 39.375 60.3125Z" fill="#A6A6A6"/>
<path d="M39.375 67.8125H30C29.5027 67.8125 29.0258 68.01 28.6742 68.3617C28.3225 68.7133 28.125 69.1902 28.125 69.6875C28.125 70.1848 28.3225 70.6617 28.6742 71.0133C29.0258 71.365 29.5027 71.5625 30 71.5625H39.375C39.8723 71.5625 40.3492 71.365 40.7008 71.0133C41.0525 70.6617 41.25 70.1848 41.25 69.6875C41.25 69.1902 41.0525 68.7133 40.7008 68.3617C40.3492 68.01 39.8723 67.8125 39.375 67.8125Z" fill="#A6A6A6"/>
<path d="M39.375 75.3125H30C29.5027 75.3125 29.0258 75.51 28.6742 75.8617C28.3225 76.2133 28.125 76.6902 28.125 77.1875C28.125 77.6848 28.3225 78.1617 28.6742 78.5133C29.0258 78.865 29.5027 79.0625 30 79.0625H39.375C39.8723 79.0625 40.3492 78.865 40.7008 78.5133C41.0525 78.1617 41.25 77.6848 41.25 77.1875C41.25 76.6902 41.0525 76.2133 40.7008 75.8617C40.3492 75.51 39.8723 75.3125 39.375 75.3125Z" fill="#A6A6A6"/>
<path d="M63.75 60.3125H58.125C57.6277 60.3125 57.1508 60.51 56.7992 60.8617C56.4475 61.2133 56.25 61.6902 56.25 62.1875C56.25 62.6848 56.4475 63.1617 56.7992 63.5133C57.1508 63.865 57.6277 64.0625 58.125 64.0625H63.75C64.2473 64.0625 64.7242 63.865 65.0758 63.5133C65.4275 63.1617 65.625 62.6848 65.625 62.1875C65.625 61.6902 65.4275 61.2133 65.0758 60.8617C64.7242 60.51 64.2473 60.3125 63.75 60.3125Z" fill="#A6A6A6"/>
<path d="M63.75 67.8125H58.125C57.6277 67.8125 57.1508 68.01 56.7992 68.3617C56.4475 68.7133 56.25 69.1902 56.25 69.6875C56.25 70.1848 56.4475 70.6617 56.7992 71.0133C57.1508 71.365 57.6277 71.5625 58.125 71.5625H63.75C64.2473 71.5625 64.7242 71.365 65.0758 71.0133C65.4275 70.6617 65.625 70.1848 65.625 69.6875C65.625 69.1902 65.4275 68.7133 65.0758 68.3617C64.7242 68.01 64.2473 67.8125 63.75 67.8125Z" fill="#A6A6A6"/>
<path d="M56.25 97.8125H30C29.5027 97.8125 29.0258 98.01 28.6742 98.3617C28.3225 98.7133 28.125 99.1902 28.125 99.6875C28.125 100.185 28.3225 100.662 28.6742 101.013C29.0258 101.365 29.5027 101.562 30 101.562H56.25C56.7473 101.562 57.2242 101.365 57.5758 101.013C57.9275 100.662 58.125 100.185 58.125 99.6875C58.125 99.1902 57.9275 98.7133 57.5758 98.3617C57.2242 98.01 56.7473 97.8125 56.25 97.8125Z" fill="#A6A6A6"/>
<path d="M43.125 22.8125C44.1605 22.8125 45 21.973 45 20.9375C45 19.902 44.1605 19.0625 43.125 19.0625C42.0895 19.0625 41.25 19.902 41.25 20.9375C41.25 21.973 42.0895 22.8125 43.125 22.8125Z" fill="#A6A6A6"/>
<path d="M22.5 64.0625C23.5355 64.0625 24.375 63.223 24.375 62.1875C24.375 61.152 23.5355 60.3125 22.5 60.3125C21.4645 60.3125 20.625 61.152 20.625 62.1875C20.625 63.223 21.4645 64.0625 22.5 64.0625Z" fill="#A6A6A6"/>
<path d="M22.5 71.5625C23.5355 71.5625 24.375 70.723 24.375 69.6875C24.375 68.652 23.5355 67.8125 22.5 67.8125C21.4645 67.8125 20.625 68.652 20.625 69.6875C20.625 70.723 21.4645 71.5625 22.5 71.5625Z" fill="#A6A6A6"/>
<path d="M22.5 79.0625C23.5355 79.0625 24.375 78.223 24.375 77.1875C24.375 76.152 23.5355 75.3125 22.5 75.3125C21.4645 75.3125 20.625 76.152 20.625 77.1875C20.625 78.223 21.4645 79.0625 22.5 79.0625Z" fill="#A6A6A6"/>
<path d="M39.375 82.8125H30C29.5027 82.8125 29.0258 83.01 28.6742 83.3617C28.3225 83.7133 28.125 84.1902 28.125 84.6875C28.125 85.1848 28.3225 85.6617 28.6742 86.0133C29.0258 86.365 29.5027 86.5625 30 86.5625H39.375C39.8723 86.5625 40.3492 86.365 40.7008 86.0133C41.0525 85.6617 41.25 85.1848 41.25 84.6875C41.25 84.1902 41.0525 83.7133 40.7008 83.3617C40.3492 83.01 39.8723 82.8125 39.375 82.8125Z" fill="#A6A6A6"/>
<path d="M22.5 86.5625C23.5355 86.5625 24.375 85.723 24.375 84.6875C24.375 83.652 23.5355 82.8125 22.5 82.8125C21.4645 82.8125 20.625 83.652 20.625 84.6875C20.625 85.723 21.4645 86.5625 22.5 86.5625Z" fill="#A6A6A6"/>
<path d="M39.375 90.3125H30C29.5027 90.3125 29.0258 90.51 28.6742 90.8617C28.3225 91.2133 28.125 91.6902 28.125 92.1875C28.125 92.6848 28.3225 93.1617 28.6742 93.5133C29.0258 93.865 29.5027 94.0625 30 94.0625H39.375C39.8723 94.0625 40.3492 93.865 40.7008 93.5133C41.0525 93.1617 41.25 92.6848 41.25 92.1875C41.25 91.6902 41.0525 91.2133 40.7008 90.8617C40.3492 90.51 39.8723 90.3125 39.375 90.3125Z" fill="#A6A6A6"/>
<path d="M22.5 94.0625C23.5355 94.0625 24.375 93.223 24.375 92.1875C24.375 91.152 23.5355 90.3125 22.5 90.3125C21.4645 90.3125 20.625 91.152 20.625 92.1875C20.625 93.223 21.4645 94.0625 22.5 94.0625Z" fill="#A6A6A6"/>
<path d="M86.25 62.1875C81.5967 62.1819 77.0402 63.5163 73.125 66.0312V5.9375C73.125 5.44022 72.9275 4.96331 72.5758 4.61167C72.2242 4.26004 71.7473 4.0625 71.25 4.0625H15C14.5027 4.0625 14.0258 4.26004 13.6742 4.61167C13.3225 4.96331 13.125 5.44022 13.125 5.9375V114.688C13.125 115.027 13.2171 115.36 13.3915 115.651C13.5659 115.942 13.8161 116.181 14.1153 116.341C14.4146 116.501 14.7516 116.577 15.0906 116.56C15.4296 116.544 15.7578 116.436 16.0402 116.247L20.625 113.191L25.2098 116.247C25.5179 116.453 25.8798 116.562 26.25 116.562C26.6202 116.562 26.9821 116.453 27.2902 116.247L31.875 113.191L36.4598 116.247C36.7679 116.453 37.1298 116.562 37.5 116.562C37.8702 116.562 38.2321 116.453 38.5402 116.247L43.125 113.191L47.7098 116.247C48.0179 116.453 48.3798 116.562 48.75 116.562C49.1202 116.562 49.4821 116.453 49.7902 116.247L54.375 113.191L58.9598 116.247C59.2679 116.453 59.6298 116.562 60 116.562C60.3702 116.562 60.7321 116.453 61.0402 116.247L65.625 113.191L70.2099 116.247C70.4922 116.436 70.8204 116.544 71.1594 116.56C71.4984 116.577 71.8354 116.501 72.1347 116.341C72.4339 116.181 72.6841 115.942 72.8585 115.651C73.0329 115.36 73.125 115.027 73.125 114.688V107.094C76.314 109.133 79.9341 110.401 83.6984 110.798C87.4626 111.194 91.2676 110.709 94.8116 109.38C98.3557 108.051 101.542 105.914 104.117 103.14C106.692 100.366 108.585 97.0301 109.647 93.397C110.709 89.7639 110.91 85.9334 110.234 82.2091C109.559 78.4848 108.025 74.969 105.754 71.9405C103.484 68.9119 100.539 66.4538 97.1538 64.7609C93.7683 63.0681 90.0351 62.187 86.25 62.1875ZM69.375 111.184L66.6652 109.378C66.3571 109.172 65.9952 109.063 65.625 109.063C65.2548 109.063 64.8929 109.172 64.5849 109.378L60 112.434L55.4152 109.378C55.1071 109.172 54.7452 109.063 54.375 109.063C54.0048 109.063 53.6429 109.172 53.3348 109.378L48.75 112.434L44.1652 109.378C43.8571 109.172 43.4952 109.063 43.125 109.063C42.7548 109.063 42.3929 109.172 42.0848 109.378L37.5 112.434L32.9152 109.378C32.6071 109.172 32.2452 109.063 31.875 109.063C31.5048 109.063 31.1429 109.172 30.8348 109.378L26.25 112.434L21.6652 109.378C21.3571 109.172 20.9952 109.063 20.625 109.063C20.2548 109.063 19.8929 109.172 19.5848 109.378L16.875 111.184V7.8125H69.375V68.9905C67.4139 70.8733 65.7796 73.0692 64.5391 75.4883C64.2921 75.3728 64.0227 75.3128 63.75 75.3125H58.125C57.6277 75.3125 57.1508 75.51 56.7992 75.8617C56.4475 76.2133 56.25 76.6902 56.25 77.1875C56.25 77.6848 56.4475 78.1617 56.7992 78.5133C57.1508 78.865 57.6277 79.0625 58.125 79.0625H63.0572C62.6599 80.2867 62.3611 81.5407 62.1635 82.8125H58.125C57.6277 82.8125 57.1508 83.01 56.7992 83.3617C56.4475 83.7133 56.25 84.1902 56.25 84.6875C56.25 85.1848 56.4475 85.6617 56.7992 86.0133C57.1508 86.365 57.6277 86.5625 58.125 86.5625H61.875C61.8748 87.8181 61.9712 89.0718 62.1635 90.3125H58.125C57.6277 90.3125 57.1508 90.51 56.7992 90.8617C56.4475 91.2133 56.25 91.6902 56.25 92.1875C56.25 92.6848 56.4475 93.1617 56.7992 93.5133C57.1508 93.865 57.6277 94.0625 58.125 94.0625H63.0572C64.3013 97.889 66.4715 101.349 69.375 104.135V111.184ZM86.25 107.188C82.1708 107.188 78.1831 105.978 74.7914 103.712C71.3996 101.445 68.756 98.2241 67.195 94.4553C65.6339 90.6866 65.2255 86.5396 66.0213 82.5388C66.8171 78.5379 68.7815 74.8629 71.6659 71.9784C74.5504 69.094 78.2254 67.1296 82.2263 66.3338C86.2271 65.538 90.3741 65.9464 94.1429 67.5075C97.9116 69.0685 101.133 71.7121 103.399 75.1039C105.665 78.4956 106.875 82.4833 106.875 86.5625C106.869 92.0307 104.694 97.2731 100.827 101.14C96.9606 105.006 91.7182 107.181 86.25 107.188Z" fill="#A6A6A6"/>
<path d="M92.8397 75.5797C92.6286 75.453 92.3945 75.3692 92.151 75.3329C91.9074 75.2967 91.6591 75.3088 91.4203 75.3685C91.1814 75.4282 90.9566 75.5344 90.7588 75.681C90.5609 75.8276 90.3939 76.0117 90.2672 76.2228L79.0172 94.9728C78.8905 95.184 78.8067 95.418 78.7704 95.6616C78.7342 95.9051 78.7463 96.1534 78.806 96.3923C78.8657 96.6312 78.9719 96.8559 79.1185 97.0538C79.2651 97.2516 79.4492 97.4186 79.6603 97.5453C79.8715 97.672 80.1055 97.7559 80.349 97.7921C80.5926 97.8284 80.8409 97.8163 81.0798 97.7566C81.3187 97.6968 81.5434 97.5906 81.7413 97.4441C81.9391 97.2975 82.1061 97.1134 82.2328 96.9022L93.4828 78.1522C93.6095 77.9411 93.6934 77.707 93.7296 77.4635C93.7659 77.2199 93.7538 76.9716 93.6941 76.7328C93.6343 76.4939 93.5281 76.2691 93.3816 76.0713C93.235 75.8734 93.0508 75.7064 92.8397 75.5797Z" fill="#A6A6A6"/>
<path d="M84.375 79.0625C84.375 77.95 84.0451 76.8624 83.427 75.9374C82.8089 75.0124 81.9304 74.2914 80.9026 73.8657C79.8748 73.4399 78.7438 73.3285 77.6526 73.5456C76.5615 73.7626 75.5592 74.2984 74.7725 75.085C73.9859 75.8717 73.4501 76.874 73.2331 77.9651C73.016 79.0563 73.1274 80.1873 73.5532 81.2151C73.9789 82.2429 74.6999 83.1214 75.6249 83.7395C76.5499 84.3576 77.6375 84.6875 78.75 84.6875C80.2413 84.6858 81.6711 84.0927 82.7256 83.0381C83.7802 81.9836 84.3733 80.5538 84.375 79.0625ZM78.75 80.9375C78.3792 80.9375 78.0167 80.8275 77.7083 80.6215C77.4 80.4155 77.1596 80.1226 77.0177 79.78C76.8758 79.4374 76.8387 79.0604 76.911 78.6967C76.9834 78.333 77.162 77.9989 77.4242 77.7367C77.6864 77.4745 78.0205 77.2959 78.3842 77.2235C78.7479 77.1512 79.1249 77.1883 79.4675 77.3302C79.8101 77.4721 80.103 77.7125 80.309 78.0208C80.515 78.3292 80.625 78.6917 80.625 79.0625C80.6244 79.5596 80.4267 80.0362 80.0752 80.3877C79.7237 80.7392 79.2471 80.9369 78.75 80.9375Z" fill="#A6A6A6"/>
<path d="M93.75 88.4375C92.6375 88.4375 91.5499 88.7674 90.6249 89.3855C89.6999 90.0036 88.9789 90.8821 88.5532 91.9099C88.1274 92.9377 88.016 94.0687 88.2331 95.1599C88.4501 96.251 88.9859 97.2533 89.7725 98.04C90.5592 98.8266 91.5615 99.3624 92.6526 99.5794C93.7438 99.7965 94.8748 99.6851 95.9026 99.2593C96.9304 98.8336 97.8089 98.1126 98.427 97.1876C99.0451 96.2626 99.375 95.175 99.375 94.0625C99.3733 92.5712 98.7802 91.1414 97.7256 90.0869C96.6711 89.0323 95.2413 88.4392 93.75 88.4375ZM93.75 95.9375C93.3792 95.9375 93.0167 95.8275 92.7083 95.6215C92.4 95.4155 92.1596 95.1226 92.0177 94.78C91.8758 94.4374 91.8387 94.0604 91.911 93.6967C91.9834 93.333 92.162 92.9989 92.4242 92.7367C92.6864 92.4745 93.0205 92.2959 93.3842 92.2235C93.7479 92.1512 94.1249 92.1883 94.4675 92.3302C94.8101 92.4721 95.103 92.7125 95.309 93.0208C95.515 93.3292 95.625 93.6917 95.625 94.0625C95.6244 94.5596 95.4267 95.0362 95.0752 95.3877C94.7237 95.7392 94.2471 95.9369 93.75 95.9375Z" fill="#A6A6A6"/>
</svg>
