<svg width="145" height="112" viewBox="0 0 145 112" fill="none" xmlns="http://www.w3.org/2000/svg">
<path fill-rule="evenodd" clip-rule="evenodd" d="M24.3313 39.8287C25.4914 40.3608 26.6933 40.8177 27.9307 41.193C27.1323 44.6533 26.7103 48.2576 26.7103 51.9604C26.7103 58.0544 27.8532 63.8815 29.9362 69.239C28.624 69.3524 27.3372 69.5544 26.0817 69.839C24.0205 64.2696 22.8945 58.2465 22.8945 51.9604C22.8945 47.7816 23.3921 43.719 24.3313 39.8287ZM74.4077 4.26306C70.7048 4.26306 67.1006 4.685 63.6403 5.48342C63.265 4.24606 62.8081 3.04417 62.2759 1.884C66.1663 0.944857 70.2289 0.447266 74.4077 0.447266C96.08 0.447266 114.626 13.8307 122.233 32.7838C121.147 33.5902 120.12 34.4719 119.159 35.421C112.434 17.2307 94.9354 4.26306 74.4077 4.26306ZM116.909 73.6312C109.016 89.0804 92.9472 99.6578 74.4077 99.6578C69.7717 99.6578 65.2902 98.9964 61.0524 97.7628C61.0518 99.0827 60.9619 100.382 60.7883 101.654C65.1266 102.84 69.6932 103.474 74.4077 103.474C93.9293 103.474 110.915 92.6147 119.653 76.6076C118.67 75.6816 117.753 74.6869 116.909 73.6312ZM56.7054 27.6215L56.6803 27.5785C56.4178 27.1288 55.2929 25.2016 51.042 21.5192L50.907 21.4023C48.964 19.7192 47.9534 18.8439 47.8536 17.8747C47.7455 16.8246 48.7066 15.6644 50.7092 13.247C51.2778 12.5606 51.9303 11.7729 52.6662 10.8576C56.1829 6.48346 57.5889 3.81221 57.1489 2.67025C56.7303 1.58172 54.1437 1.86888 54.1437 1.86888L45.5432 1.91562C45.5432 1.91562 44.9064 1.83549 44.4306 2.09927C43.9691 2.35972 43.6722 2.96075 43.6722 2.96075C43.6722 2.96075 42.3091 6.34656 40.4917 9.22483C36.6601 15.2986 35.1254 15.6191 34.4993 15.2418C33.2793 14.506 33.3377 12.5231 33.3887 10.7917L33.3887 10.7914C33.3986 10.4565 33.4081 10.1311 33.4081 9.82586C33.4081 8.47279 33.4586 7.30107 33.5021 6.29111C33.6478 2.90704 33.7154 1.33906 31.5442 0.850464C30.6069 0.640103 29.92 0.499863 27.5266 0.476489C24.4571 0.446438 21.8562 0.486506 20.3858 1.15766C19.4055 1.60509 18.6507 2.60347 19.1122 2.66024C19.681 2.73036 20.9689 2.98412 21.6522 3.85228C22.5359 4.97087 22.5037 7.48852 22.5037 7.48852C22.5037 7.48852 23.0117 14.4171 21.3195 15.2785C20.1568 15.8696 18.5648 14.6642 15.1482 9.15137C13.3988 6.32986 12.0751 3.20784 12.0751 3.20784C12.0751 3.20784 11.8211 2.62684 11.3667 2.31631C10.8158 1.939 10.043 1.81879 10.043 1.81879L1.86471 1.86554C1.86471 1.86554 0.637606 1.89893 0.186832 2.39645C-0.213855 2.84055 0.154634 3.75545 0.154634 3.75545C0.154634 3.75545 6.55848 17.7361 13.8066 24.7848C20.4573 31.2459 28.006 30.8219 28.006 30.8219H31.4262C31.4262 30.8219 32.4601 30.715 32.986 30.1841C33.4725 29.6966 33.4546 28.7817 33.4546 28.7817C33.4546 28.7817 33.3867 24.4977 35.5189 23.8666C36.7888 23.491 38.2772 25.0837 39.8875 26.8069C40.9402 27.9334 42.045 29.1156 43.1749 29.8402C45.3358 31.2259 46.9779 30.922 46.9779 30.922L54.6231 30.8219C54.6231 30.8219 58.6228 30.5915 56.7267 27.6564C56.7208 27.6473 56.7138 27.6356 56.7054 27.6215ZM36.2505 72.9473C24.6516 72.9473 15.2637 81.4803 15.2637 92.0262C15.2637 95.3727 16.2237 98.6411 18.0468 101.524L15.3428 109.158C15.1541 109.69 15.3091 110.273 15.744 110.668C16.1747 111.06 16.8149 111.206 17.406 111.033L25.8032 108.575C28.9742 110.232 32.5694 111.105 36.2505 111.105C47.8494 111.105 57.2374 102.572 57.2374 92.0262C57.2374 81.4818 47.851 72.9473 36.2505 72.9473ZM38.3 92.0262C38.3 93.055 37.3825 93.8894 36.2505 93.8894C35.1185 93.8894 34.201 93.055 34.201 92.0262C34.201 90.9971 35.1185 90.163 36.2505 90.163C37.3825 90.163 38.3 90.9971 38.3 92.0262ZM46.498 92.0262C46.498 93.055 45.5805 93.8894 44.4485 93.8894C43.3165 93.8894 42.399 93.055 42.399 92.0262C42.399 90.9971 43.3165 90.163 44.4485 90.163C45.5805 90.163 46.498 90.9971 46.498 92.0262ZM30.102 92.0262C30.102 93.055 29.1846 93.8894 28.0525 93.8894C26.9208 93.8894 26.003 93.055 26.003 92.0262C26.003 90.9971 26.9208 90.163 28.0525 90.163C29.1846 90.163 30.102 90.9971 30.102 92.0262ZM141.936 38.6055L122.11 57.6844L102.281 38.6055H141.936ZM129.737 53.8695L145 69.1321V38.6058L129.737 53.8695ZM99.2109 69.1321L114.474 53.8695L99.2109 38.6058V69.1321ZM116.383 57.6844L122.106 62.5904L127.83 57.6844L141.185 69.1318H129.737H114.474H103.027L116.383 57.6844ZM78.1316 52.3993C82.6437 49.9497 85.7633 44.6937 85.7633 38.605C85.7633 30.1753 79.7839 23.3418 72.408 23.3418C65.0321 23.3418 59.0527 30.1753 59.0527 38.605C59.0527 44.6936 62.1722 49.9496 66.6843 52.3993V61.5574C59.4974 63.0126 53.8642 67.1796 52 72.4471H92.6513C90.8014 67.2199 85.2398 63.0764 78.1316 61.5913V52.3993Z" fill="url(#paint0_linear)"/>
<defs>
<linearGradient id="paint0_linear" x1="72.5001" y1="0.447266" x2="72.5001" y2="111.105" gradientUnits="userSpaceOnUse">
<stop stop-color="#FFA300"/>
<stop offset="1" stop-color="#FFBF2D"/>
</linearGradient>
</defs>
</svg>
