<svg width="133" height="114" viewBox="0 0 133 114" fill="none" xmlns="http://www.w3.org/2000/svg">
<path d="M8.94922 89.3207V110.719C8.94922 112.021 10.0069 113.105 11.3358 113.105H27.8794C29.1812 113.105 30.266 112.048 30.266 110.719V73.0754L18.2516 85.0899C15.7023 87.6121 12.4478 89.0766 8.94922 89.3207Z" fill="url(#paint0_linear)"/>
<path d="M38.5117 72.8033V110.718C38.5117 112.02 39.5694 113.105 40.8983 113.105H57.4419C58.7437 113.105 59.8285 112.047 59.8285 110.718V88.3977C56.0588 88.3163 52.5331 86.8247 49.8753 84.1669L38.5117 72.8033Z" fill="url(#paint1_linear)"/>
<path d="M68.0742 86.0384V110.718C68.0742 112.02 69.1319 113.105 70.4608 113.105H87.0044C88.3062 113.105 89.391 112.047 89.391 110.718V65.1826L70.4337 84.1399C69.7015 84.8722 68.915 85.496 68.0742 86.0384Z" fill="url(#paint2_linear)"/>
<path d="M117.351 37.1941L97.6348 56.9108V110.718C97.6348 112.02 98.6925 113.105 100.021 113.105H116.565C117.867 113.105 118.952 112.047 118.952 110.718V38.6857C118.409 38.2247 118.002 37.8179 117.704 37.5467L117.351 37.1941Z" fill="url(#paint3_linear)"/>
<path d="M130.884 2.26295C130.098 1.42221 128.904 0.988281 127.385 0.988281C127.25 0.988281 127.087 0.988281 126.952 0.988281C119.249 1.34085 111.574 1.72054 103.872 2.07311C102.841 2.12735 101.431 2.18159 100.319 3.29353C99.9666 3.6461 99.6954 4.05291 99.4784 4.54108C98.3393 7.00906 99.9394 8.60917 100.699 9.36855L102.624 11.3212C103.953 12.6773 105.309 14.0333 106.665 15.3622L60.1264 61.9283L39.2164 41.0183C37.9689 39.7707 36.2874 39.0656 34.4974 39.0656C32.7075 39.0656 31.0531 39.7707 29.8055 41.0183L1.95268 68.844C-0.650895 71.4476 -0.650895 75.6513 1.95268 78.2549L3.20023 79.5024C4.44778 80.75 6.12926 81.4551 7.91922 81.4551C9.70918 81.4551 11.3635 80.75 12.6111 79.5024L34.4974 57.6161L55.4074 78.5261C56.6549 79.7737 58.3364 80.4788 60.1264 80.4788C61.9163 80.4788 63.5707 79.7737 64.8454 78.5261L117.351 26.0206L123.29 31.9329C123.995 32.638 124.972 33.6144 126.463 33.6144C127.087 33.6144 127.711 33.4516 128.362 33.0991C128.796 32.855 129.175 32.5838 129.501 32.2583C130.667 31.0922 130.884 29.6005 130.938 28.4343C131.155 23.4441 131.399 18.454 131.643 13.4366L131.996 5.92423C132.077 4.35124 131.725 3.13081 130.884 2.26295Z" fill="url(#paint4_linear)"/>
<defs>
<linearGradient id="paint0_linear" x1="19.6076" y1="73.0754" x2="19.6076" y2="113.105" gradientUnits="userSpaceOnUse">
<stop stop-color="#FFA300"/>
<stop offset="1" stop-color="#FFBF2D"/>
</linearGradient>
<linearGradient id="paint1_linear" x1="49.1701" y1="72.8033" x2="49.1701" y2="113.105" gradientUnits="userSpaceOnUse">
<stop stop-color="#FFA300"/>
<stop offset="1" stop-color="#FFBF2D"/>
</linearGradient>
<linearGradient id="paint2_linear" x1="78.7326" y1="65.1826" x2="78.7326" y2="113.105" gradientUnits="userSpaceOnUse">
<stop stop-color="#FFA300"/>
<stop offset="1" stop-color="#FFBF2D"/>
</linearGradient>
<linearGradient id="paint3_linear" x1="108.293" y1="37.1941" x2="108.293" y2="113.105" gradientUnits="userSpaceOnUse">
<stop stop-color="#FFA300"/>
<stop offset="1" stop-color="#FFBF2D"/>
</linearGradient>
<linearGradient id="paint4_linear" x1="66.0037" y1="0.988281" x2="66.0037" y2="81.4551" gradientUnits="userSpaceOnUse">
<stop stop-color="#FFA300"/>
<stop offset="1" stop-color="#FFBF2D"/>
</linearGradient>
</defs>
</svg>
