<svg width="30" height="31" viewBox="0 0 30 31" fill="none" xmlns="http://www.w3.org/2000/svg">
<path fill-rule="evenodd" clip-rule="evenodd" d="M10.0954 17.8645V27.5742H19.805V17.8645H10.0954ZM9.12442 15.4371C8.32004 15.4371 7.66797 16.0892 7.66797 16.8936V28.5452C7.66797 29.3496 8.32004 30.0016 9.12442 30.0016H20.776C21.5804 30.0016 22.2325 29.3496 22.2325 28.5452V16.8936C22.2325 16.0892 21.5804 15.4371 20.776 15.4371H9.12442Z" fill="white"/>
<path d="M16.8942 13.9787V11.0658H26.6039V20.7755H23.691V23.2029H27.5748C28.3792 23.2029 29.0313 22.5508 29.0313 21.7465V10.0949C29.0313 9.2905 28.3792 8.63843 27.5748 8.63843H15.9232C15.1189 8.63843 14.4668 9.2905 14.4668 10.0949V13.9787H16.8942Z" fill="#FFA401"/>
<path d="M3.78397 20.7759L7.56793 14.2219H0L3.78397 20.7759Z" fill="white"/>
<path d="M20.7759 3.78397L14.2219 0V7.56793L20.7759 3.78397Z" fill="white"/>
<path d="M13.979 2.95589C8.29424 3.80021 3.80016 8.29436 2.95594 13.9791H4.92329C5.73179 9.36869 9.36858 5.73183 13.979 4.92324V2.95589Z" fill="white"/>
</svg>
