<svg width="116" height="121" viewBox="0 0 116 121" fill="none" xmlns="http://www.w3.org/2000/svg">
<path fill-rule="evenodd" clip-rule="evenodd" d="M68.933 75.7192L79.2656 79.1626C80.2513 79.4913 81.2147 79.8781 82.1529 80.3187C80.7939 81.2376 79.5334 82.2915 78.3909 83.4609C78.2249 83.4011 78.0581 83.3433 77.8906 83.2874L68.74 80.2379C67.0759 84.8392 65.0207 89.3059 62.6174 93.545L62.6135 93.552C62.6026 93.5711 62.5924 93.5907 62.5815 93.6098C60.7852 96.7746 58.7691 99.8559 56.5893 102.769L53.9152 107.062H72.4754C72.9155 108.578 73.5003 110.033 74.2139 111.41H2.17391C0.973261 111.41 0 110.437 0 109.236C0 95.8166 8.72 83.1689 20.7341 79.1629L31.067 75.7192L34.7743 68.3044C34.4454 67.9707 34.1243 67.6276 33.8165 67.2737C32.3322 65.5705 31.1124 63.6744 30.17 61.6272H28.2609C24.6648 61.6272 21.7391 58.7016 21.7391 55.1055V52.5576C19.2089 51.6602 17.3913 49.2437 17.3913 46.4098V32.7142C17.3913 14.6918 31.9735 0.105469 50 0.105469C67.9804 0.105469 82.6087 14.7337 82.6087 32.7142V46.4098C82.6087 50.0059 79.683 52.9316 76.087 52.9316H72.1306L71.668 55.7044C70.8857 60.3985 68.5654 64.8989 65.2237 68.3003L68.933 75.7192ZM76.087 48.5837C77.2857 48.5837 78.2609 47.6085 78.2609 46.4098V34.8881H73.8498C73.847 34.9773 73.8444 35.0659 73.8415 35.1556C73.8404 35.1909 73.8393 35.2263 73.838 35.262C73.69 39.7483 73.3217 44.3033 72.7691 48.5837H76.087ZM21.7391 46.4098C21.7391 47.6085 22.7143 48.5837 23.913 48.5837V48.5835H27.2315C26.6915 44.3974 26.328 39.9607 26.1759 35.5972V35.5953L26.175 35.572C26.1665 35.3426 26.1589 35.1148 26.1517 34.8881H21.7391V46.4098ZM26.087 55.1055C26.087 56.3042 27.0622 57.2794 28.2609 57.2794H28.6539C28.5285 56.7576 28.42 56.2324 28.3317 55.7052L27.8691 52.9316H26.087V55.1055ZM21.8217 30.5403H26.0907C26.247 18.5344 36.0243 8.80112 48.0546 8.80112H51.9459C63.9763 8.80112 73.753 18.5344 73.9096 30.5403H78.178C77.0643 15.9689 64.8517 4.45329 50 4.45329C35.082 4.45329 22.9228 15.9705 21.8217 30.5403ZM69.5652 30.8468C69.5709 21.1166 61.6867 13.1489 51.9457 13.1489H48.0543C38.9246 13.1489 31.4413 20.1466 30.5309 28.9985C34.2252 24.5046 39.8139 21.8446 45.6522 21.8446C46.2287 21.8446 46.7815 22.0737 47.1893 22.4813C52.4672 27.7592 59.442 31.2466 66.8289 32.3013L69.548 32.6898L69.5483 32.6685C69.5598 32.1266 69.5652 31.5309 69.5652 30.8468ZM30.5522 36.1809C30.8274 43.007 32.0726 53.6592 33.1609 57.2794H39.5007C40.3743 54.8029 42.755 52.9316 45.6522 52.9316H50C53.5961 52.9316 56.5217 55.8572 56.5217 59.4533C56.5217 63.0568 53.6033 65.975 50 65.975H45.6522C42.818 65.975 40.4017 64.1574 39.5043 61.6272H35.0726C37.5859 65.8394 41.4802 68.7781 45.7274 69.8398C48.5252 70.5385 51.4743 70.5387 54.2737 69.8398C61.0756 68.1392 66.2283 61.8946 67.3796 54.9892C67.5012 54.2547 67.6003 53.6632 67.685 53.158C67.8795 51.9975 67.9978 51.2921 68.1365 50.3535L68.1372 50.3492C68.7635 46.1589 69.2007 41.6029 69.4146 37.0626L66.2141 36.6053C58.2146 35.4631 50.6446 31.7857 44.793 26.217C40.3459 26.4724 36.1652 28.6979 33.478 32.2796L30.5522 36.1809ZM50 74.7142C48.4807 74.7142 46.9604 74.5535 45.4693 74.2394L49.7137 78.4839L53.555 74.4216C52.3789 74.6146 51.1893 74.7142 50 74.7142ZM39.8298 88.9361L46.725 81.6444L37.552 72.4711L34.9626 77.6498C36.3004 81.5211 37.9315 85.3026 39.8298 88.9361ZM65.037 77.6496L62.0796 71.7346L52.7891 81.5594L60.1691 88.9394C62.0654 85.3102 63.697 81.5274 65.037 77.6496ZM45.6522 57.2794C44.4517 57.2794 43.4783 58.2531 43.4783 59.4533C43.4783 60.652 44.4535 61.6272 45.6522 61.6272H50C51.2002 61.6272 52.1739 60.6537 52.1739 59.4533C52.1739 58.2546 51.1987 57.2794 50 57.2794H45.6522ZM22.1091 83.2874C12.4635 86.5039 5.2963 96.2926 4.43478 107.062H46.0848L43.4104 102.769C41.2402 99.8668 39.2385 96.81 37.46 93.682L37.4598 93.6816C37.4573 93.6772 37.4549 93.6729 37.4525 93.6684C37.4509 93.6655 37.4493 93.6625 37.4476 93.6596C35.0135 89.3796 32.9365 84.8737 31.26 80.2379L22.1091 83.2874ZM47.0517 100.391L50 105.124C52.8875 100.493 52.9533 100.372 53.035 100.262C53.041 100.254 53.0471 100.246 53.0543 100.236C54.8163 97.887 56.4641 95.4209 57.9698 92.8889L49.8006 84.7198L42.0478 92.9185C43.5435 95.4322 45.1856 97.8881 46.9461 100.236C46.9835 100.286 47.0187 100.338 47.0517 100.391Z" fill="url(#paint0_linear)"/>
<path d="M115.435 103.501V96.9275L110.042 95.8552C109.74 94.8762 109.367 93.9438 108.877 93.0346L111.884 88.5357L107.222 83.8737L102.723 86.8808C101.814 86.3912 100.882 86.0182 99.9026 85.7153L98.8303 80.3229H92.257L91.1847 85.7154C90.2057 86.0182 89.2732 86.3913 88.3641 86.8809L83.8653 83.8738L79.2033 88.5358L82.2103 93.0347C81.7207 93.9438 81.3477 94.8762 81.0448 95.8553L75.6523 96.9275V103.501L81.0448 104.573C81.3477 105.552 81.7207 106.485 82.2103 107.394L79.2033 111.893L83.8653 116.555L88.3641 113.547C89.2732 114.037 90.2057 114.41 91.1847 114.713L92.257 120.105H98.8303L99.9026 114.713C100.882 114.41 101.814 114.037 102.723 113.547L107.222 116.555L111.884 111.893L108.877 107.394C109.367 106.485 109.74 105.552 110.043 104.573L115.435 103.501ZM95.5436 108.373C91.0448 108.373 87.3851 104.713 87.3851 100.214C87.3851 95.7153 91.0448 92.0556 95.5436 92.0556C100.043 92.0556 103.702 95.7153 103.702 100.214C103.702 104.713 100.043 108.373 95.5436 108.373Z" fill="url(#paint1_linear)"/>
<defs>
<linearGradient id="paint0_linear" x1="41.3043" y1="0.105469" x2="41.3043" y2="111.41" gradientUnits="userSpaceOnUse">
<stop stop-color="#FFA300"/>
<stop offset="1" stop-color="#FFBF2D"/>
</linearGradient>
<linearGradient id="paint1_linear" x1="95.5436" y1="80.3229" x2="95.5436" y2="120.105" gradientUnits="userSpaceOnUse">
<stop stop-color="#FFA300"/>
<stop offset="1" stop-color="#FFBF2D"/>
</linearGradient>
</defs>
</svg>
