<svg width="63" height="63" viewBox="0 0 63 63" fill="none" xmlns="http://www.w3.org/2000/svg">
<path d="M46.5 26.5L37 14L39.5 14.5L44.5 18L49 17L52 12.5V6L50.5 3L47.5 1C46 1.33333 42.9 2 42.5 2C42.1 2 38.3333 5.66667 36.5 7.5L33 5L29 5.5L26 7.5L23 4.5L18.5 1.5H14L10.5 5L10 10.5L12 16L17 18L22 15.5L25.5 14L17.5 25L15 28.5L16.5 29.5L20 28.5L21 31L22.5 33L25 28.5L30 19.5L31.5 17L35.5 24.5C37 27.3333 40.1 33 40.5 33C40.9 33 41 32.3333 41 32L42.5 28.5L44.5 29H47.5L46.5 26.5Z" fill="#FFA302"/>
<rect x="28" y="24" width="7" height="37" fill="#FFA302"/>
<path d="M8 49.0003C8 48.8021 8.05664 48.6175 8.15625 48.4623C8.33398 48.1839 8.64648 48.0003 9 48.0003C9.55273 48.0003 10 48.4476 10 49.0003V57.0003C10 57.5531 9.55273 58.0003 9 58.0003C8.44727 58.0003 8 57.5531 8 57.0003V49.0003Z" fill="black"/>
<path d="M8.13281 45.5033C8.04883 45.6498 8 45.8197 8 46.0003C8 46.5531 8.44727 47.0003 9 47.0003C9.55273 47.0003 10 46.5531 10 46.0003C10 45.4476 9.55273 45.0003 9 45.0003C8.62891 45.0003 8.30469 45.2025 8.13281 45.5033Z" fill="black"/>
<path fill-rule="evenodd" clip-rule="evenodd" d="M25.6348 5.74448C25.8398 5.95933 26.0195 6.15366 26.1699 6.31968C27.4531 4.95152 29.3438 4.08628 31.4512 4.08628C33.4199 4.08628 35.2012 4.84214 36.4727 6.05796L36.7676 5.74448C37.4395 5.03941 38.3926 4.10581 39.5078 3.19859C40.6172 2.29527 41.918 1.39488 43.2852 0.782571C44.6445 0.172219 46.1582 -0.192039 47.6465 0.105813C51.7207 0.921243 53.4277 5.19859 53.4023 9.05796C53.4023 9.36948 53.3867 9.68394 53.3613 10.0003H59C61.209 10.0003 63 11.7914 63 14.0003V24.0003C63 24.097 62.9863 24.1908 62.9609 24.2796C62.9277 24.3919 62.877 24.4955 62.8086 24.5882C62.627 24.8382 62.332 25.0003 62 25.0003H60V59.0003C60 61.2093 58.209 63.0003 56 63.0003H7C4.79102 63.0003 3 61.2093 3 59.0003V25.0003H1C0.447266 25.0003 0 24.5531 0 24.0003V14.0003C0 11.7914 1.79102 10.0003 4 10.0003H9.04102C9.01562 9.68394 9 9.36948 9 9.05796C8.97461 5.19859 10.6816 0.921243 14.7559 0.105813C15.4023 -0.0230933 16.0547 -0.0279761 16.6953 0.0579614C17.5293 0.170266 18.3477 0.436868 19.1172 0.782571C20.4844 1.39488 21.7832 2.29527 22.8945 3.19859C23.3633 3.58042 23.8027 3.96616 24.2051 4.33823C24.7617 4.85093 25.2461 5.33628 25.6348 5.74448ZM15.1465 2.06773C15.5547 1.9857 15.9902 1.97984 16.4492 2.04331C17.0332 2.12437 17.6523 2.31675 18.2988 2.60679C19.4492 3.12241 20.5957 3.90757 21.6328 4.75034C22.6641 5.58823 23.5547 6.46031 24.1895 7.12534C24.4043 7.34995 24.5879 7.55015 24.7363 7.71519L24.9141 7.91343L24.8691 8.37144C24.7734 8.61363 24.6934 8.86167 24.6309 9.1146C24.5527 9.43003 24.498 9.75425 24.4707 10.0863H20.4512C19.8984 10.0863 19.4512 10.5345 19.4512 11.0863C19.4512 11.639 19.8984 12.0863 20.4512 12.0863H24.4512L24.4961 12.0853L24.4902 12.1419L24.4785 12.1556C24.3105 12.3197 24.0664 12.556 23.7598 12.8353C23.1406 13.3959 22.2773 14.1253 21.2891 14.807C20.668 15.2347 20.0117 15.6351 19.3457 15.9632C19.1035 16.0814 18.8613 16.1908 18.6191 16.2884C18.457 16.3539 18.2949 16.4134 18.1348 16.4681C17.9141 16.5423 17.6992 16.6048 17.4883 16.6546L17.2383 16.7084L17.0117 16.7474C16.9277 16.7601 16.8457 16.7709 16.7637 16.7787L16.5547 16.7943C16.4258 16.8011 16.2988 16.8021 16.1738 16.7972C16.002 16.7914 15.834 16.7738 15.6699 16.7445C15.5957 16.7308 15.5215 16.7152 15.4512 16.6966C15.3867 16.68 15.3223 16.6625 15.2598 16.6419C12.6152 15.7826 11.0234 12.558 11 9.04429C10.9766 5.51304 12.5195 2.59312 15.1465 2.06773ZM9.35156 12.0003H4C3.58008 12.0003 3.19141 12.1293 2.86914 12.349C2.34375 12.7093 2 13.3148 2 14.0003V23.0003H17.8672L23.2598 15.849C22.9941 16.0501 22.7148 16.2533 22.4238 16.4535C21.3457 17.1976 20.084 17.9212 18.7734 18.3636C17.9336 18.6468 17.0391 18.8255 16.1406 18.7982C15.8457 18.7894 15.5508 18.7582 15.2578 18.7025C15.0527 18.6625 14.8477 18.6107 14.6426 18.5443C11.752 17.6058 10.0391 14.9193 9.35156 12.0003ZM16.3574 25.0003H5V59.0003C5 59.472 5.16406 59.9056 5.4375 60.2474C5.80273 60.7064 6.36719 61.0003 7 61.0003H27V27.3519L24.2637 32.8998C23.4609 34.5267 21.082 34.3314 20.5547 32.596L19.6191 29.5121L16.9062 30.1468C15.0859 30.5726 13.7285 28.4886 14.8535 26.9945L16.3574 25.0003ZM33.8086 23.0003L31.4766 18.2728L29.1465 23.0003H33.8086ZM36 27.4457V61.0003H56C56.6094 61.0003 57.1543 60.7289 57.5215 60.2992C57.8203 59.9496 58 59.4964 58 59.0003V25.0003H46.5938L48.0977 26.9945C49.2246 28.4886 47.8672 30.5726 46.0449 30.1468L43.332 29.5121L42.3965 32.596C42.3496 32.7503 42.2891 32.8919 42.2148 33.0209C42.1621 33.1136 42.1035 33.1996 42.0391 33.2796L41.9746 33.3558L41.916 33.4193C41.707 33.6332 41.457 33.7904 41.1875 33.89C41.0996 33.9222 41.0098 33.9486 40.918 33.9681C40.8066 33.9925 40.6934 34.0072 40.5801 34.013C40.4902 34.0179 40.4004 34.016 40.3105 34.0091C40.1133 33.9935 39.918 33.9486 39.7324 33.8753C39.3047 33.7064 38.9277 33.3832 38.6895 32.8998L36 27.4457ZM45.0859 23.0003H61V14.0003C61 12.8959 60.1055 12.0003 59 12.0003H53.0508C52.3633 14.9193 50.6504 17.6058 47.7598 18.5443C47.0664 18.7689 46.3594 18.8343 45.6602 18.7875L45.4277 18.7679L45.1875 18.7386C45.0352 18.7181 44.8828 18.6927 44.7324 18.6625C44.3574 18.5873 43.9883 18.4847 43.6289 18.3636C43.0352 18.1634 42.4531 17.9056 41.8945 17.6156C41.3457 17.3304 40.8184 17.013 40.3242 16.6859L45.0859 23.0003ZM38.4258 10.0863C38.3555 9.22202 38.1074 8.40562 37.707 7.66831L37.918 7.43687L38.2129 7.12534C38.7266 6.58726 39.4082 5.91245 40.1953 5.23081C40.3809 5.07066 40.5723 4.90952 40.7695 4.75034C41.5078 4.14976 42.3027 3.57847 43.1152 3.11265C43.4434 2.92515 43.7734 2.75523 44.1035 2.60679C45.2598 2.08823 46.3281 1.88218 47.2559 2.06773C49.8828 2.59312 51.4258 5.51304 51.4023 9.04429C51.3789 12.558 49.7871 15.7826 47.1426 16.6419C46.7305 16.7757 46.2812 16.8226 45.8008 16.7914C45.5938 16.7777 45.3828 16.7503 45.166 16.7084C44.875 16.6527 44.5762 16.5716 44.2676 16.4681C43.791 16.307 43.3086 16.096 42.834 15.85C42.2441 15.5453 41.6641 15.1869 41.1133 14.807C40.707 14.5267 40.3223 14.2386 39.9668 13.9574C39.457 13.5541 39.0078 13.1654 38.6426 12.8353L38.4082 12.6195L38.1758 12.3998C38.3516 11.8343 38.4473 11.2318 38.4512 10.6136C38.4512 10.9984 38.4141 11.3734 38.3438 11.7386C38.3223 11.85 38.2969 11.9603 38.2695 12.0697C38.3281 12.0804 38.3887 12.0863 38.4512 12.0863H42.4512C43.0039 12.0863 43.4512 11.639 43.4512 11.0863C43.4512 10.7337 43.2695 10.4232 42.9922 10.2455C42.9395 10.2113 42.8828 10.182 42.8242 10.1576L42.7461 10.1312L42.7051 10.1185C42.625 10.097 42.5391 10.0863 42.4512 10.0863H38.4258ZM33.0371 16.9183C34.4121 16.6224 35.6348 15.9496 36.5664 15.0238L46.5 28.1986L43.7871 27.5638C42.7617 27.3236 41.7246 27.9222 41.418 28.931L40.4824 32.016L33.0371 16.9183ZM26.3652 15.0531C27.3027 15.974 28.5293 16.64 29.9082 16.9281L22.4688 32.016L21.5332 28.931C21.459 28.6878 21.3418 28.4681 21.1934 28.2787C21.0742 28.1253 20.9316 27.9916 20.7754 27.8802C20.3242 27.5589 19.7422 27.4281 19.1641 27.5638L16.4512 28.1986L26.3652 15.0531ZM31.4512 15.0863C34.3555 15.0863 36.4512 12.9349 36.4512 10.5863C36.4512 8.23765 34.3555 6.08628 31.4512 6.08628C28.5469 6.08628 26.4512 8.23765 26.4512 10.5863C26.4512 12.9349 28.5469 15.0863 31.4512 15.0863ZM34 25.0003H29V61.0003H34V25.0003Z" fill="black"/>
</svg>
