<svg width="63" height="63" viewBox="0 0 63 63" fill="none" xmlns="http://www.w3.org/2000/svg">
<path d="M27.5 58.5L28.5 61H34.5L35.5 58.5L37.5 59.5L41.5 55.5L40.5 53.5L43.5 51.5V47L40.5 45L41.5 43L37.5 39L35 40L34.5 38H28.5L27.5 40L25.5 39L21.5 43L22 45L19.5 46.5V51.5L22 53.5L21.5 55.5L22 57L25.5 59.5L27.5 58.5Z" fill="#FFA302"/>
<circle cx="32" cy="49" r="6" fill="#F6F6F6"/>
<circle cx="51" cy="12" r="10" fill="#FFA302"/>
<path d="M28.5 33L30.5 23.5H32.5L34.5 33L33 37H30L28.5 33Z" fill="#FFA302"/>
<path d="M43.1927 37.8778C43.9537 38.2184 44.7658 38.3847 45.572 38.3847C46.9373 38.3847 48.2859 37.9093 49.347 36.9967L55.6352 31.6083C56.3046 31.0354 56.7633 30.3296 56.9612 29.5677C57.2959 28.2821 56.9976 26.9758 56.1442 25.9826C55.3941 25.1104 54.3053 24.6094 53.1556 24.6094C52.2175 24.6094 51.3069 24.946 50.5933 25.5573L46.4707 29.0903C44.7667 25.2433 40.9178 22.6918 36.685 22.6455C38.3299 21.2005 39.3743 19.089 39.3743 16.7344C39.3743 12.3923 35.8414 8.85938 31.4993 8.85938C27.1573 8.85938 23.6243 12.3923 23.6243 16.7344C23.6243 19.089 24.6688 21.2005 26.3127 22.6446C22.0789 22.6908 18.231 25.2433 16.528 29.0893L12.4044 25.5554C11.6908 24.946 10.7802 24.6094 9.84309 24.6094C8.69334 24.6094 7.60462 25.1104 6.8565 25.9826C6.00206 26.9768 5.70379 28.2831 6.03848 29.5696C6.23831 30.3315 6.69703 31.0373 7.36542 31.6093L13.6516 36.9967C15.3418 38.4487 17.7575 38.7952 19.8079 37.8787C21.0069 37.3433 22.0129 36.3362 22.641 35.0674V39.9804L19.8207 42.8006L21.0807 44.9033L18.7025 45.4968V52.9407L21.0797 53.5342L19.8197 55.6369L25.0822 60.8993L27.1848 59.6393L27.7774 62.0156H35.2213L35.8148 59.6384L37.9175 60.8984L43.1799 55.6359L41.9199 53.5333L44.2962 52.9407V45.4968L41.9189 44.9033L43.179 42.8006L40.3587 39.9804V35.0664C40.9867 36.3353 41.9928 37.3423 43.1927 37.8778ZM31.1017 36.4219C30.641 35.5861 30.2078 34.7396 29.8141 33.8773L31.1902 24.6094H31.8124L33.2092 33.829C32.8095 34.7081 32.3685 35.5714 31.898 36.4219H31.1017ZM26.9811 24.6094H29.1998L28.369 30.2036C27.7627 28.3845 27.302 26.5161 26.9811 24.6094ZM34.6425 30.1612L33.8018 24.6094H36.0176C35.6987 26.5013 35.2429 28.3549 34.6425 30.1612ZM25.5931 16.7344C25.5931 13.4771 28.242 10.8281 31.4993 10.8281C34.7566 10.8281 37.4056 13.4771 37.4056 16.7344C37.4056 19.9917 34.7566 22.6406 31.4993 22.6406C28.242 22.6406 25.5931 19.9917 25.5931 16.7344ZM22.64 27.5625V30.1032C22.4037 30.4093 22.199 30.7361 22.0621 31.1003L21.063 33.7641C20.6633 34.8301 19.9123 35.6747 19.0027 36.0813C17.6265 36.6965 16.0653 36.475 14.9313 35.5015L8.64412 30.113C8.39212 29.8965 8.06531 29.5411 7.94226 29.0715C7.77197 28.4209 7.92061 27.7623 8.34782 27.2652C9.02803 26.4698 10.3274 26.3724 11.1228 27.0506L17.3657 32.4027L18.1335 30.3591C19.2527 27.3715 21.9174 25.2404 25.0054 24.7305C25.6718 28.8225 26.9614 32.7452 28.8622 36.4219H27.7754L27.1819 38.7991L25.0792 37.5391L24.6087 38.0116V27.5625H22.64ZM39.9138 46.432L42.3275 47.0344V51.4031L40.4089 51.8815L39.8833 52.0803L39.4255 53.2055L40.7013 55.3307L37.6113 58.4207L35.4861 57.1449L34.2861 57.6332L33.6837 60.0469H29.315L28.8366 58.1283L28.6378 57.6027L27.5126 57.1449L25.3874 58.4207L22.2974 55.3307L23.5732 53.2055L23.0849 52.0055L20.6712 51.4031V47.0344L22.5898 46.556L23.1154 46.3572L23.5732 45.232L22.2974 43.1068L25.3874 40.0168L27.5126 41.2926L28.7126 40.8043L29.315 38.3906H33.6837L34.1621 40.3092L34.3609 40.8348L35.4861 41.2926L37.6113 40.0168L40.7013 43.1068L39.4255 45.232L39.9138 46.432ZM37.9175 37.5391L35.8148 38.7991L35.2213 36.4219H34.1345C36.0353 32.7452 37.3249 28.8225 37.9913 24.7305C41.0793 25.2394 43.745 27.3715 44.8642 30.3591L45.6291 32.4037L51.8739 27.0526C52.6693 26.3704 53.9677 26.4698 54.6499 27.2662C55.0771 27.7623 55.2247 28.4209 55.0545 29.0715C54.9324 29.5411 54.6056 29.8965 54.3536 30.113L48.0644 35.5025C46.9324 36.477 45.3712 36.6965 43.995 36.0813C43.0845 35.6747 42.3334 34.8301 41.9337 33.7641L40.9346 31.1023C40.7977 30.7371 40.594 30.4054 40.3567 30.0973V27.5625H38.388V38.0116L37.9175 37.5391Z" fill="black"/>
<path d="M51.1875 22.6406C57.1577 22.6406 62.0156 17.7827 62.0156 11.8125C62.0156 5.84227 57.1577 0.984375 51.1875 0.984375C45.2173 0.984375 40.3594 5.84227 40.3594 11.8125C40.3594 17.7827 45.2173 22.6406 51.1875 22.6406ZM51.1875 2.95312C56.073 2.95312 60.0469 6.92705 60.0469 11.8125C60.0469 16.698 56.073 20.6719 51.1875 20.6719C46.302 20.6719 42.3281 16.698 42.3281 11.8125C42.3281 6.92705 46.302 2.95312 51.1875 2.95312Z" fill="black"/>
<path d="M50.2031 14.7656C49.6597 14.7656 49.2188 14.3246 49.2188 13.7812H47.25C47.25 15.4094 48.575 16.7344 50.2031 16.7344V18.7031H52.1719V16.7344H55.125V13.7812C55.125 12.1531 53.8 10.8281 52.1719 10.8281H50.2031C49.6597 10.8281 49.2188 10.3871 49.2188 9.84375V8.85938H52.1719C52.7153 8.85938 53.1562 9.30037 53.1562 9.84375H55.125C55.125 8.21559 53.8 6.89062 52.1719 6.89062V4.92188H50.2031V6.89062H47.25V9.84375C47.25 11.4719 48.575 12.7969 50.2031 12.7969H52.1719C52.7153 12.7969 53.1562 13.2379 53.1562 13.7812V14.7656H50.2031Z" fill="black"/>
<path d="M31.5 42.3281C27.7013 42.3281 24.6094 45.42 24.6094 49.2188C24.6094 53.0175 27.7013 56.1094 31.5 56.1094C35.2987 56.1094 38.3906 53.0175 38.3906 49.2188C38.3906 45.42 35.2987 42.3281 31.5 42.3281ZM31.5 54.1406C28.7861 54.1406 26.5781 51.9327 26.5781 49.2188C26.5781 46.5048 28.7861 44.2969 31.5 44.2969C34.2139 44.2969 36.4219 46.5048 36.4219 49.2188C36.4219 51.9327 34.2139 54.1406 31.5 54.1406Z" fill="black"/>
<path d="M8.62706 22.6406C9.8408 22.6406 10.8281 21.6533 10.8281 20.4396V18.7031H17.7188C19.3469 18.7031 20.6719 17.3782 20.6719 15.75V7.875C20.6719 6.24684 19.3469 4.92188 17.7188 4.92188H3.9375C2.30934 4.92188 0.984375 6.24684 0.984375 7.875V15.75C0.984375 17.3782 2.30934 18.7031 3.9375 18.7031H5.29791L6.6593 21.4249C7.03434 22.174 7.78837 22.6406 8.62706 22.6406ZM3.9375 16.7344C3.39412 16.7344 2.95312 16.2934 2.95312 15.75V7.875C2.95312 7.33162 3.39412 6.89062 3.9375 6.89062H17.7188C18.2621 6.89062 18.7031 7.33162 18.7031 7.875V15.75C18.7031 16.2934 18.2621 16.7344 17.7188 16.7344H8.85938V20.4396C8.86036 20.6561 8.51484 20.7359 8.41936 20.5429L6.51459 16.7344H3.9375Z" fill="black"/>
<path d="M4.92188 8.85938H16.7344V10.8281H4.92188V8.85938Z" fill="black"/>
<path d="M4.92188 12.7969H12.7969V14.7656H4.92188V12.7969Z" fill="black"/>
<path d="M14.7656 12.7969H16.7344V14.7656H14.7656V12.7969Z" fill="black"/>
<path d="M59.0625 44.2969H49.2188C47.5906 44.2969 46.2656 45.6218 46.2656 47.25V55.125C46.2656 56.7532 47.5906 58.0781 49.2188 58.0781H59.0625C60.6907 58.0781 62.0156 56.7532 62.0156 55.125V47.25C62.0156 45.6218 60.6907 44.2969 59.0625 44.2969ZM60.0469 55.125C60.0469 55.6684 59.6059 56.1094 59.0625 56.1094H49.2188C48.6754 56.1094 48.2344 55.6684 48.2344 55.125V47.25C48.2344 46.7066 48.6754 46.2656 49.2188 46.2656H59.0625C59.6059 46.2656 60.0469 46.7066 60.0469 47.25V55.125Z" fill="black"/>
<path d="M55.1256 50.7801L53.1569 48.8114L49.5078 52.4604L50.8997 53.8524L53.1569 51.5952L55.1256 53.5639L58.7747 49.9149L57.3828 48.5229L55.1256 50.7801Z" fill="black"/>
<path d="M10.0131 43.3125H9.67444C7.59741 43.3125 5.90625 45.0037 5.90625 47.0807V48.2344H7.875V47.0807C7.875 46.0884 8.68219 45.2812 9.67444 45.2812H10.0131C11.0053 45.2812 11.8125 46.0884 11.8125 47.0807C11.8125 47.5542 11.6205 48.0188 11.2859 48.3535L8.85938 50.78V54.1406H10.8281V51.595L12.6778 49.7454C13.3895 49.0337 13.7812 48.0877 13.7812 47.0807C13.7812 45.0037 12.0901 43.3125 10.0131 43.3125Z" fill="black"/>
<circle cx="10" cy="59" r="2" fill="#FFA302"/>
<path d="M9.84375 56.1094C8.21559 56.1094 6.89062 57.4343 6.89062 59.0625C6.89062 60.6907 8.21559 62.0156 9.84375 62.0156C11.4719 62.0156 12.7969 60.6907 12.7969 59.0625C12.7969 57.4343 11.4719 56.1094 9.84375 56.1094ZM9.84375 60.0469C9.30037 60.0469 8.85938 59.6059 8.85938 59.0625C8.85938 58.5191 9.30037 58.0781 9.84375 58.0781C10.3871 58.0781 10.8281 58.5191 10.8281 59.0625C10.8281 59.6059 10.3871 60.0469 9.84375 60.0469Z" fill="black"/>
</svg>
