<svg width="1029" height="148" viewBox="0 0 1029 148" fill="none" xmlns="http://www.w3.org/2000/svg">
<g filter="url(#filter0_d)">
<path fill-rule="evenodd" clip-rule="evenodd" d="M280.556 37.5585H40.9277L514.499 30L988.071 37.5585H748.442C731.359 37.5585 716.833 48.7299 711.494 64.305C711.503 64.1477 711.513 63.9906 711.524 63.8338C711.491 64.0638 711.457 64.2931 711.42 64.5217C710.714 66.62 710.175 68.7971 709.818 71.0368C704.54 86.7249 689.959 98 672.797 98H514.499H356.202C339.04 98 324.458 86.7249 319.18 71.0368C318.823 68.7971 318.284 66.62 317.578 64.5217C317.541 64.2931 317.507 64.0638 317.474 63.8338C317.485 63.9906 317.495 64.1477 317.504 64.305C312.166 48.7299 297.639 37.5585 280.556 37.5585Z" fill="white"/>
</g>
<path d="M418.136 62.8168V58.9249H429.881V54.7216H413.309V76.5165H423.091C427.532 76.5165 431.716 75.0842 431.716 69.6667C431.716 64.2802 427.532 62.8168 423.091 62.8168H418.136ZM418.136 72.4066V66.9267H423.124C425.022 66.9267 426.792 67.3315 426.792 69.6667C426.792 72.0018 425.022 72.4066 423.124 72.4066H418.136Z" fill="#FF0153"/>
<path d="M435.024 54.7216V76.5165H451.082V72.4066H439.851V67.5494H449.924V63.4707H439.851V58.8315H450.889V54.7216H435.024Z" fill="#FF0153"/>
<path d="M453.347 65.8681C453.347 73.4652 459.494 76.9524 465.512 76.9524C467.893 76.9524 470.113 76.4542 472.044 75.5513V70.9743C470.693 72.1575 468.569 72.7802 466.252 72.7802C462.326 72.7802 458.271 70.663 458.303 65.8681C458.303 60.6062 462.294 58.4267 466.252 58.4267C468.344 58.4267 470.435 59.0494 471.883 60.1392V55.6868C469.953 54.7527 467.7 54.2857 465.447 54.2857C459.43 54.2857 453.38 57.8974 453.347 65.8681Z" fill="#FF0153"/>
<path d="M480.485 76.5165V58.9249H490.461V76.5165H495.256V54.7216H475.658V76.5165H480.485Z" fill="#FF0153"/>
<path d="M504.066 54.7216C503.487 62.3809 503.294 72.1886 499.497 72.4377C498.853 72.4689 498.371 72.4066 497.952 72.282V76.3919C498.853 76.7033 499.69 76.7967 500.462 76.7967C506.705 76.7656 507.735 68.2033 508.507 58.9249H514.686V76.5165H519.513V54.7216H504.066Z" fill="#FF0153"/>
<path d="M527.008 76.5165L528.681 72.4377H538.979L540.62 76.5165H545.608L536.437 54.7216H531.224L522.02 76.5165H527.008ZM533.315 60.7619C533.508 60.326 533.669 59.8901 533.83 59.0494C533.991 59.8901 534.152 60.326 534.313 60.7619L537.467 68.5769H530.194L533.315 60.7619Z" fill="#FF0153"/>
<path d="M543.586 54.7216V58.9249H550.505V76.5165H555.3V58.9249H562.218V54.7216H543.586Z" fill="#FF0153"/>
<path d="M579.997 54.7216V63.5018H569.892V54.7216H565.065V76.5165H569.892V67.7363H579.997V76.5165H584.824V54.7216H579.997Z" fill="#FF0153"/>
<path d="M588.385 65.619C588.385 71.5348 592.376 76.9524 600.357 76.9524C608.337 76.9524 612.328 71.5348 612.328 65.619C612.328 59.7033 608.337 54.2857 600.357 54.2857C592.376 54.2857 588.385 59.7033 588.385 65.619ZM607.372 65.619C607.372 69.4487 605.023 72.6245 600.357 72.6245C595.658 72.6245 593.309 69.4487 593.309 65.619C593.309 61.7894 595.658 58.6135 600.357 58.6135C605.023 58.6135 607.372 61.7894 607.372 65.619Z" fill="#FF0153"/>
<path d="M619.903 69.0439L620.193 54.7216H615.494L615.784 69.0439H619.903ZM620.547 74.3681C620.547 72.6557 619.292 71.8461 617.844 71.8461C616.428 71.8461 615.14 72.6557 615.14 74.3681C615.14 76.1428 616.428 76.9212 617.844 76.9212C619.292 76.9212 620.547 76.1428 620.547 74.3681Z" fill="#FF0153"/>
<defs>
<filter id="filter0_d" x="0.927734" y="0" width="1027.14" height="148" filterUnits="userSpaceOnUse" color-interpolation-filters="sRGB">
<feFlood flood-opacity="0" result="BackgroundImageFix"/>
<feColorMatrix in="SourceAlpha" type="matrix" values="0 0 0 0 0 0 0 0 0 0 0 0 0 0 0 0 0 0 127 0"/>
<feOffset dy="10"/>
<feGaussianBlur stdDeviation="20"/>
<feColorMatrix type="matrix" values="0 0 0 0 0.645833 0 0 0 0 0.645833 0 0 0 0 0.645833 0 0 0 0.45 0"/>
<feBlend mode="normal" in2="BackgroundImageFix" result="effect1_dropShadow"/>
<feBlend mode="normal" in="SourceGraphic" in2="effect1_dropShadow" result="shape"/>
</filter>
</defs>
</svg>
