<svg width="64" height="51" viewBox="0 0 64 51" fill="none" xmlns="http://www.w3.org/2000/svg">
<path fill-rule="evenodd" clip-rule="evenodd" d="M37 9V4H40.874C40.4299 2.27477 38.8638 1 37 1C34.7909 1 33 2.79086 33 5C33 7.20914 34.7909 9 37 9Z" fill="#FFA302"/>
<path fill-rule="evenodd" clip-rule="evenodd" d="M35.5288 28.8263C35.5288 29.3543 35.9504 29.7828 36.4699 29.7828C36.9895 29.7828 37.4111 29.3543 37.4111 28.8263V23.1225C37.4115 23.1106 37.4118 23.0987 37.4118 23.0868C37.4118 23.0748 37.4115 23.0629 37.4111 23.0511V6.82612C37.4111 5.77011 38.2563 4.91306 39.2935 4.91306C40.3306 4.91306 41.1758 5.77011 41.1758 6.82612V26.9132C41.1758 27.4412 41.5975 27.8698 42.117 27.8698C42.6365 27.8698 43.0582 27.4412 43.0582 26.9132V18.3025C43.0592 17.2474 43.904 16.3914 44.9405 16.3914C45.9777 16.3914 46.8229 17.2485 46.8229 18.3045V26.9132C46.8229 27.4412 47.2445 27.8697 47.7641 27.8697C48.2836 27.8697 48.7052 27.4412 48.7052 26.9132V20.2196L48.7052 20.2169C48.7052 19.1609 49.5504 18.3038 50.5876 18.3038C51.6248 18.3038 52.4699 19.1609 52.4699 20.2169V26.9126C52.4699 27.4406 52.8916 27.8691 53.4111 27.8691C53.9306 27.8691 54.3523 27.4406 54.3523 26.9126V22.1663C54.3527 22.1543 54.3529 22.1423 54.3529 22.1303C54.3529 21.0742 55.1981 20.2172 56.2353 20.2172C57.2725 20.2172 58.1176 21.0742 58.1176 22.1303V38.3912C58.1176 42.0834 55.1624 45.0869 51.5294 45.0869H40.6362C36.9449 45.0869 29.8824 38.7279 29.8824 28.7571C29.8824 26.1572 32 24.0433 34.5995 24.0433H35.5288V28.8263ZM35.5288 22.1303V6.82612C35.5288 4.71601 37.2172 3 39.2935 3C41.3697 3 43.0582 4.71601 43.0582 6.82612V14.9916C43.6122 14.6653 44.2552 14.4783 44.9405 14.4783C46.5804 14.4783 47.9783 15.5488 48.4935 17.0385C49.0926 16.6295 49.8131 16.3908 50.5876 16.3908C52.2279 16.3908 53.6261 17.4618 54.141 18.952C54.7401 18.543 55.4607 18.3041 56.2353 18.3041C58.3115 18.3041 60 20.0201 60 22.1303V38.3912C60 43.1375 56.1995 47 51.5294 47H40.6362C35.5482 47 28 39.3401 28 28.7571C28 25.1031 30.9609 22.1303 34.5995 22.1303H35.5288Z" fill="black"/>
<rect y="4" width="30" height="2" rx="1" fill="black"/>
<circle cx="23" cy="46" r="4" fill="#FFA302"/>
<circle cx="10" cy="26" r="4" fill="#FFA302"/>
<rect x="45" y="4" width="18" height="2" rx="1" fill="black"/>
<rect x="61" y="45" width="3" height="2" rx="1" fill="black"/>
<rect x="61" y="25" width="3" height="2" rx="1" fill="black"/>
<rect x="17" y="25" width="9" height="2" rx="1" fill="black"/>
<rect y="25" width="3" height="2" rx="1" fill="black"/>
<rect y="45" width="16" height="2" rx="1" fill="black"/>
<rect x="30" y="45" width="4" height="2" rx="1" fill="black"/>
<circle cx="10" cy="26" r="4" stroke="black" stroke-width="2"/>
<circle cx="23" cy="46" r="4" stroke="black" stroke-width="2"/>
<path fill-rule="evenodd" clip-rule="evenodd" d="M37 9C37 8.44771 36.54 8.01632 36.0181 7.83563C34.8435 7.42895 34 6.31297 34 5C34 3.34315 35.3431 2 37 2C38.313 2 39.4289 2.84347 39.8356 4.01811C40.0163 4.54 40.4477 5 41 5C41.5523 5 42.0104 4.54777 41.9013 4.00638C41.4405 1.72096 39.4212 0 37 0C34.2386 0 32 2.23858 32 5C32 7.42121 33.721 9.44047 36.0064 9.90127C36.5478 10.0104 37 9.55229 37 9Z" fill="black"/>
</svg>
