<svg width="63" height="63" viewBox="0 0 63 63" fill="none" xmlns="http://www.w3.org/2000/svg">
<g clip-path="url(#clip0)">
<path d="M52.9788 48.1671C52.7146 47.7312 52.1467 47.5917 51.7103 47.8563C51.2742 48.1207 51.135 48.6887 51.3995 49.1248L54.6445 54.476C54.7612 54.6685 54.7104 54.8441 54.6696 54.9317C54.6289 55.0193 54.5273 55.1715 54.3049 55.2062L49.1381 56.0143C48.5702 56.1031 48.0569 56.397 47.6929 56.8423L44.3145 60.9756C44.1762 61.1445 43.9987 61.1587 43.9052 61.1524C43.8118 61.1457 43.6379 61.107 43.5247 60.9202L35.82 48.215C36.9895 48.5119 38.1692 48.6695 39.3114 48.2987C40.9603 47.7633 42.0203 46.3584 43.0455 44.9999C43.6907 44.1448 44.3002 43.3371 44.9944 42.832C45.54 42.4349 46.2395 42.1446 46.9996 41.8694L49.1956 45.4906C49.4601 45.9267 50.0281 46.0662 50.4641 45.8014C50.9002 45.5369 51.0392 44.9689 50.7749 44.5329L48.7754 41.2359C50.0026 40.7685 51.1678 40.1835 51.946 39.1142C52.9412 37.7467 52.9797 36.0068 53.0168 34.3241C53.041 33.233 53.0637 32.2024 53.3392 31.3539C53.5973 30.5592 54.1687 29.7429 54.7737 28.8788C55.7561 27.4756 56.7719 26.0244 56.7719 24.2579C56.7719 22.4915 55.7561 21.0403 54.7737 19.6371C54.1687 18.773 53.5973 17.9567 53.3392 17.1619C53.0637 16.3135 53.041 15.2829 53.0168 14.1918C52.9797 12.5091 52.9412 10.7693 51.946 9.40179C50.9404 8.0199 49.289 7.446 47.692 6.89092C46.6687 6.5352 45.7024 6.19943 44.9943 5.684C44.3001 5.1788 43.6906 4.37119 43.0453 3.51605C42.0201 2.15756 40.9599 0.752643 39.3111 0.21715C37.7317 -0.295194 36.0809 0.200774 34.4844 0.680735C33.4228 1.00001 32.42 1.30143 31.5002 1.30143C30.5804 1.30143 29.5777 1.00001 28.5159 0.680735C26.9195 0.200897 25.2686 -0.295563 23.6892 0.21715C22.0403 0.752643 20.9802 2.15756 19.9551 3.51605C19.3097 4.37119 18.7004 5.17892 18.0062 5.684C17.298 6.19943 16.3316 6.5352 15.3085 6.89092C13.7115 7.446 12.0601 8.0199 11.0545 9.40179C10.0592 10.7693 10.0208 12.5092 9.98361 14.1918C9.95948 15.2829 9.9367 16.3135 9.66126 17.1619C9.40318 17.9566 8.83173 18.773 8.22679 19.6371C7.24434 21.0403 6.22852 22.4915 6.22852 24.2579C6.22852 26.0244 7.24434 27.4754 8.22667 28.8786C8.83173 29.7429 9.40318 30.5591 9.66114 31.354C9.93658 32.2025 9.95936 33.2331 9.98349 34.3242C10.0207 36.0068 10.0591 37.7467 11.0544 39.1142C11.8327 40.1836 12.9978 40.7686 14.2251 41.236L6.77669 53.5184C6.3727 54.1846 6.32764 55.004 6.65615 55.7105C6.98466 56.4169 7.64045 56.9107 8.41026 57.0312L13.5773 57.8393C13.6952 57.8577 13.802 57.9189 13.8775 58.0112L17.2559 62.1445C17.6999 62.6877 18.3656 63.0006 19.0619 63.0006C19.1159 63.0006 19.1702 62.9986 19.2246 62.9948C19.9788 62.9418 20.6632 62.5243 21.0551 61.8779L29.7918 47.4712C30.3868 47.3197 30.958 47.2146 31.5001 47.2146C32.0422 47.2146 32.6136 47.3197 33.2084 47.471L41.9451 61.8777C42.3372 62.5242 43.0214 62.9418 43.7756 62.9947C43.83 62.9985 43.8842 63.0005 43.9383 63.0005C44.6345 63.0003 45.3003 62.6876 45.7443 62.1443L49.1227 58.0112C49.1985 57.9187 49.3051 57.8576 49.4232 57.8392L54.5901 57.0311C55.3599 56.9106 56.0157 56.4169 56.3442 55.7104C56.6726 55.004 56.6275 54.1845 56.2236 53.5183L52.9788 48.1671ZM19.476 60.92C19.3628 61.1068 19.1889 61.1456 19.0955 61.1523C19.0018 61.1585 18.8244 61.1445 18.6862 60.9755L15.3076 56.8421C14.9437 56.397 14.4305 56.1029 13.8627 56.0142L8.69592 55.2061C8.47342 55.1713 8.37196 55.019 8.33121 54.9316C8.29045 54.8439 8.2396 54.6684 8.35633 54.4759L16.0014 41.8692C16.7614 42.1443 17.4609 42.4348 18.0065 42.8317C18.7007 43.3369 19.3102 44.1446 19.9556 44.9997C20.9807 46.3583 22.0409 47.7631 23.6897 48.2986C24.1632 48.4523 24.6429 48.5153 25.1257 48.5153C25.8078 48.5153 26.496 48.3891 27.1807 48.2152L19.476 60.92ZM31.5002 45.3674C30.3088 45.3674 29.127 45.7227 27.9841 46.0664C26.5987 46.483 25.29 46.8766 24.2597 46.5419C23.1642 46.1862 22.3216 45.0695 21.4294 43.8872C20.7313 42.9619 20.0092 42.0052 19.0929 41.3383C18.1633 40.6617 17.0203 40.2645 15.9148 39.8803C14.5254 39.3973 13.2129 38.9412 12.5478 38.0272C11.893 37.1272 11.8625 35.7458 11.8301 34.2831C11.8041 33.1066 11.7772 31.89 11.4178 30.7833C11.0745 29.7259 10.396 28.7566 9.73969 27.8192C8.88382 26.5967 8.07547 25.4419 8.07547 24.2577C8.07547 23.0734 8.88382 21.9187 9.73982 20.696C10.396 19.7588 11.0745 18.7895 11.4178 17.7322C11.7771 16.6255 11.8041 15.4089 11.8301 14.2323C11.8623 12.7696 11.8929 11.388 12.5478 10.4883C13.2129 9.5743 14.5254 9.11823 15.9149 8.63519C17.0203 8.25102 18.1633 7.8538 19.093 7.1772C20.0092 6.51033 20.7313 5.55349 21.4294 4.62829C22.3215 3.44599 23.1642 2.32932 24.2596 1.9736C24.5309 1.88544 24.8214 1.84789 25.1276 1.84789C25.9844 1.84789 26.9634 2.14241 27.984 2.44925C29.1269 2.79279 30.3086 3.14814 31.5001 3.14814C32.6915 3.14814 33.8732 2.79279 35.0161 2.44913C36.4015 2.03258 37.7104 1.63906 38.7405 1.97372C39.836 2.32945 40.6787 3.44611 41.5708 4.62841C42.2689 5.55373 42.991 6.51045 43.9073 7.17733C44.8369 7.85393 45.98 8.25114 47.0854 8.63531C48.4748 9.11835 49.7873 9.57442 50.4525 10.4884C51.1073 11.3883 51.1379 12.7698 51.1701 14.2324C51.1961 15.4089 51.223 16.6256 51.5824 17.7323C51.9257 18.7896 52.6042 19.7589 53.2604 20.6961C54.1163 21.9188 54.9247 23.0735 54.9247 24.2578C54.9247 25.4421 54.1164 26.5968 53.2604 27.8195C52.6042 28.7567 51.9257 29.726 51.5824 30.7833C51.2231 31.89 51.1961 33.1066 51.1701 34.2832C51.1379 35.7458 51.1073 37.1275 50.4524 38.0273C49.7873 38.9413 48.4748 39.3974 47.0853 39.8804C45.98 40.2646 44.8369 40.6618 43.9072 41.3384C42.9908 42.0053 42.2689 42.9621 41.5707 43.8873C40.6786 45.0696 39.8359 46.1863 38.7404 46.5419C37.7102 46.8768 36.4014 46.483 35.0158 46.0665C33.8734 45.7227 32.6916 45.3674 31.5002 45.3674Z" fill="black"/>
<circle cx="31.5" cy="24.5" r="17.5" fill="#FFA302"/>
<path d="M49.4684 24.2577C49.4684 14.3498 41.4077 6.28906 31.4997 6.28906C21.5918 6.28906 13.5312 14.3498 13.5312 24.2577C13.5312 26.1098 13.8121 27.9362 14.3659 29.6861C14.5199 30.1724 15.039 30.4419 15.5251 30.2879C16.0113 30.1339 16.2807 29.615 16.1268 29.1287C15.63 27.5594 15.3782 25.9206 15.3782 24.2577C15.3782 15.3682 22.6104 8.13601 31.4999 8.13601C40.3894 8.13601 47.6215 15.3681 47.6215 24.2577C47.6215 33.1473 40.3894 40.3793 31.4999 40.3793C25.9029 40.3793 20.7882 37.5419 17.818 32.7892C17.5478 32.3567 16.978 32.2252 16.5455 32.4955C16.1129 32.7657 15.9814 33.3354 16.2518 33.768C19.5617 39.0643 25.262 42.2262 31.4999 42.2262C41.4077 42.2263 49.4684 34.1656 49.4684 24.2577Z" fill="black"/>
<path d="M41.7354 21.7873L41.7354 21.7873C41.523 21.1337 40.9745 20.6711 40.2941 20.5722C40.2941 20.5722 40.2941 20.5722 40.2941 20.5722L35.8435 19.9255L35.3232 19.8499L35.0905 19.3785L33.1001 15.3455L33.1001 15.3454C32.796 14.7292 32.1866 14.3503 31.4992 14.3503C30.812 14.3503 30.2025 14.7292 29.8984 15.3454L29.8983 15.3455L27.9079 19.3785L27.6753 19.8499L27.155 19.9255L22.7044 20.5722C22.7044 20.5722 22.7044 20.5722 22.7043 20.5722C22.0242 20.6711 21.4756 21.1337 21.2633 21.7873L21.2632 21.7873C21.0509 22.4408 21.2229 23.1374 21.7151 23.6172L21.02 24.3304L21.7151 23.6172L24.9356 26.7563L25.3121 27.1232L25.2232 27.6414L24.463 32.0741C24.463 32.0741 24.463 32.0741 24.463 32.0741C24.3468 32.7516 24.6172 33.4162 25.1732 33.8202L25.1732 33.8202C25.4898 34.0502 25.855 34.1641 26.2196 34.1642L41.7354 21.7873ZM41.7354 21.7873C41.9477 22.4408 41.7758 23.1373 41.2836 23.6172C41.2836 23.6172 41.2836 23.6172 41.2836 23.6173L38.0632 26.7563L37.6867 27.1232L37.7755 27.6414L38.5357 32.0741C38.6519 32.7516 38.3816 33.4162 37.8255 33.8202L37.8255 33.8202C37.2693 34.2243 36.5537 34.2759 35.9455 33.9561L35.9454 33.9561L31.9646 31.8632L31.4993 31.6186M41.7354 21.7873L31.4993 31.6186M31.4993 31.6186L31.0339 31.8633M31.4993 31.6186L31.0339 31.8633M31.0339 31.8633L27.0535 33.956C27.0534 33.956 27.0533 33.9561 27.0533 33.9561M31.0339 31.8633L27.0533 33.9561M27.0533 33.9561C26.786 34.0965 26.5009 34.1641 26.2199 34.1642L27.0533 33.9561Z" fill="#F6F6F6" stroke="black" stroke-width="2"/>
</g>
<defs>
<clipPath id="clip0">
<rect width="63" height="63" fill="white"/>
</clipPath>
</defs>
</svg>
