<svg width="63" height="63" viewBox="0 0 63 63" fill="none" xmlns="http://www.w3.org/2000/svg">
<g clip-path="url(#clip0)">
<path d="M7.52497 56.595V58.8C7.52497 61.1196 9.40538 63 11.725 63H22.0496C24.3692 63 26.2496 61.1196 26.2496 58.8V56.7H36.7496V58.8C36.7496 61.1196 38.63 63 40.9496 63H51.2743C53.5939 63 55.4743 61.1196 55.4743 58.8V56.6118C57.9949 56.1859 59.8424 54.0064 59.8496 51.45V5.25C59.8462 2.35194 57.4977 0.00347143 54.5996 0H8.57813C5.68007 0.00347143 3.3316 2.35194 3.32812 5.25V9.45C3.32812 10.0299 3.79823 10.5 4.37812 10.5C4.95802 10.5 5.42813 10.0299 5.42813 9.45V5.25C5.42813 3.5103 6.83843 2.1 8.57813 2.1H54.5996C56.3393 2.1 57.7496 3.5103 57.7496 5.25V51.45C57.7496 53.1897 56.3393 54.6 54.5996 54.6H8.57813C6.83843 54.6 5.42813 53.1897 5.42813 51.45V14.7C5.42813 14.1201 4.95802 13.65 4.37812 13.65C3.79823 13.65 3.32812 14.1201 3.32812 14.7V51.45C3.33096 53.9429 5.08349 56.0913 7.52497 56.595ZM53.3743 56.7V58.8C53.3743 59.9598 52.4341 60.9 51.2743 60.9H40.9496C39.7898 60.9 38.8496 59.9598 38.8496 58.8V56.7H53.3743ZM24.1496 56.7V58.8C24.1496 59.9598 23.2094 60.9 22.0496 60.9H11.725C10.5652 60.9 9.62498 59.9598 9.62498 58.8V56.7H24.1496Z" fill="black"/>
<path d="M11.55 35.7C10.9701 35.7 10.5 36.1701 10.5 36.75V46.2C10.5 47.9397 11.9103 49.35 13.65 49.35H49.35C51.0897 49.35 52.5 47.9397 52.5 46.2V45.15C54.2397 45.15 55.65 43.7397 55.65 42V35.7C55.65 33.9603 54.2397 32.55 52.5 32.55V24.15C54.2397 24.15 55.65 22.7397 55.65 21V14.7C55.65 12.9603 54.2397 11.55 52.5 11.55V10.5C52.5 8.76028 51.0897 7.34998 49.35 7.34998H13.65C11.9103 7.34998 10.5 8.76028 10.5 10.5V31.5C10.5 32.0799 10.9701 32.55 11.55 32.55C12.1299 32.55 12.6 32.0799 12.6 31.5V10.5C12.6 9.92008 13.0701 9.44998 13.65 9.44998H49.35C49.9299 9.44998 50.4 9.92008 50.4 10.5V11.55C48.6603 11.55 47.25 12.9603 47.25 14.7V21C47.25 22.7397 48.6603 24.15 50.4 24.15V32.55C48.6603 32.55 47.25 33.9603 47.25 35.7V42C47.25 43.7397 48.6603 45.15 50.4 45.15V46.2C50.4 46.7799 49.9299 47.25 49.35 47.25H13.65C13.0701 47.25 12.6 46.7799 12.6 46.2V36.75C12.6 36.1701 12.1299 35.7 11.55 35.7ZM49.35 21V14.7C49.35 14.1201 49.8201 13.65 50.4 13.65H52.5C53.0799 13.65 53.55 14.1201 53.55 14.7V21C53.55 21.5799 53.0799 22.05 52.5 22.05H50.4C49.8201 22.05 49.35 21.5799 49.35 21ZM49.35 42V35.7C49.35 35.1201 49.8201 34.65 50.4 34.65H52.5C53.0799 34.65 53.55 35.1201 53.55 35.7V42C53.55 42.5799 53.0799 43.05 52.5 43.05H50.4C49.8201 43.05 49.35 42.5799 49.35 42Z" fill="black"/>
<circle cx="32" cy="28" r="12" fill="#FFA302"/>
<circle cx="31.5" cy="28.5" r="5.5" fill="#F6F6F6"/>
<path d="M19.8593 33.1714C22.1596 38.725 28.0626 41.8804 33.9583 40.7077C39.854 39.535 44.1003 34.361 44.1003 28.3498C44.1003 22.3386 39.854 17.1645 33.9583 15.9919C28.0626 14.8192 22.1596 17.9745 19.8593 23.5282C18.5703 26.6134 18.5703 30.0862 19.8593 33.1714ZM26.531 19.1014L26.9132 20.0233C27.0514 20.3778 27.3706 20.6298 27.7474 20.682C28.1243 20.7342 28.5 20.5784 28.7293 20.2748C28.9587 19.9712 29.0058 19.5672 28.8525 19.219L28.4714 18.2971C30.4455 17.6965 32.5537 17.6965 34.5278 18.2971L34.1466 19.219C33.9934 19.5672 34.0405 19.9712 34.2699 20.2748C34.4992 20.5784 34.8748 20.7342 35.2517 20.682C35.6286 20.6298 35.9478 20.3778 36.086 20.0233L36.4682 19.1003C38.2885 20.072 39.7789 21.5628 40.7501 23.3833L39.8282 23.7655C39.4737 23.9037 39.2217 24.2229 39.1695 24.5997C39.1173 24.9766 39.2731 25.3523 39.5767 25.5816C39.8803 25.8109 40.2842 25.8581 40.6325 25.7048L41.5544 25.3237C42.155 27.2978 42.155 29.4059 41.5544 31.3801L40.6325 30.9989C40.2842 30.8457 39.8803 30.8928 39.5767 31.1222C39.2731 31.3515 39.1173 31.7271 39.1695 32.104C39.2217 32.4809 39.4737 32.8001 39.8282 32.9383L40.7511 33.3205C39.7795 35.1408 38.2887 36.6312 36.4682 37.6024L36.086 36.6805C35.9478 36.326 35.6286 36.074 35.2517 36.0218C34.8748 35.9696 34.4992 36.1254 34.2699 36.429C34.0405 36.7326 33.9934 37.1365 34.1466 37.4848L34.5278 38.4067C32.5537 39.0073 30.4455 39.0073 28.4714 38.4067L28.8525 37.4848C29.0058 37.1365 28.9587 36.7326 28.7293 36.429C28.5 36.1254 28.1243 35.9696 27.7474 36.0218C27.3706 36.074 27.0514 36.326 26.9132 36.6805L26.531 37.6034C24.7107 36.6318 23.2203 35.141 22.2491 33.3205L23.171 32.9383C23.5255 32.8001 23.7775 32.4809 23.8297 32.104C23.8819 31.7271 23.7261 31.3515 23.4225 31.1222C23.1189 30.8928 22.7149 30.8457 22.3667 30.9989L21.4448 31.3801C20.8442 29.4059 20.8442 27.2978 21.4448 25.3237L22.3667 25.7048C22.7149 25.8581 23.1189 25.8109 23.4225 25.5816C23.7261 25.3523 23.8819 24.9766 23.8297 24.5997C23.7775 24.2229 23.5255 23.9037 23.171 23.7655L22.248 23.3833C23.2194 21.5622 24.7102 20.0711 26.531 19.0993V19.1014Z" fill="black"/>
<path d="M31.5094 34.6497C34.2839 34.6454 36.7289 32.8265 37.5307 30.1704C38.3326 27.5143 37.3024 24.6463 34.9937 23.1075C32.6851 21.5687 29.6415 21.7213 27.4984 23.4834C25.3553 25.2455 24.6173 28.2021 25.6808 30.7647C26.6604 33.1183 28.9601 34.6511 31.5094 34.6497ZM29.8934 24.4647C32.0366 23.5805 34.4909 24.6002 35.3766 26.7428C36.2623 28.8854 35.2443 31.3404 33.1024 32.2276C30.9604 33.1148 28.5047 32.0986 27.616 29.9572C27.1855 28.9273 27.1838 27.7681 27.6114 26.7369C28.039 25.7057 28.8604 24.8878 29.8934 24.4647Z" fill="black"/>
<path d="M20.9992 11.5503H15.7492C15.1693 11.5503 14.6992 12.0204 14.6992 12.6003V17.8503C14.6992 18.4302 15.1693 18.9003 15.7492 18.9003C16.3291 18.9003 16.7992 18.4302 16.7992 17.8503V13.6503H20.9992C21.5791 13.6503 22.0492 13.1802 22.0492 12.6003C22.0492 12.0204 21.5791 11.5503 20.9992 11.5503Z" fill="black"/>
</g>
<defs>
<clipPath id="clip0">
<rect width="63" height="63" fill="white"/>
</clipPath>
</defs>
</svg>
