<svg width="120" height="84" viewBox="0 0 120 84" fill="none" xmlns="http://www.w3.org/2000/svg">
<path d="M114.9 8.7C111.645 2.91 108.113 1.845 100.92 1.44C93.735 0.9525 75.6675 0.75 60.015 0.75C44.3325 0.75 26.2575 0.952501 19.08 1.4325C11.9025 1.845 8.3625 2.9025 5.0775 8.7C1.725 14.4825 0 24.4425 0 41.9775C0 41.9925 0 42 0 42C0 42.015 0 42.0225 0 42.0225V42.0375C0 59.4975 1.725 69.5325 5.0775 75.255C8.3625 81.045 11.895 82.095 19.0725 82.5825C26.2575 83.0025 44.3325 83.25 60.015 83.25C75.6675 83.25 93.735 83.0025 100.927 82.59C108.12 82.1025 111.653 81.0525 114.908 75.2625C118.29 69.54 120 59.505 120 42.045C120 42.045 120 42.0225 120 42.0075C120 42.0075 120 41.9925 120 41.985C120 24.4425 118.29 14.4825 114.9 8.7Z" fill="#F44336"/>
<path d="M45 64.5V19.5L82.5 42L45 64.5Z" fill="#FAFAFA"/>
</svg>
