<svg width="183" height="341" viewBox="0 0 183 341" fill="none" xmlns="http://www.w3.org/2000/svg">
<path d="M40.1255 36.6097C44.455 41.2147 47.9341 46.2035 50.5627 51.576C53.1914 56.795 54.5057 62.0907 54.5057 67.4632C54.5057 71.1472 53.8099 74.6009 52.4183 77.8244C51.0266 80.8944 49.0938 83.5807 46.6198 85.8832C44.3004 88.1857 41.5171 90.0277 38.27 91.4092C35.0228 92.6372 31.4664 93.2512 27.6008 93.2512C24.0444 93.2512 20.6426 92.7139 17.3954 91.6394C14.1483 90.4114 11.2104 88.6462 8.58175 86.3437C5.9531 84.0412 3.86565 81.2014 2.31939 77.8244C0.773131 74.4474 0 70.4564 0 65.8514C0 58.944 1.93283 51.6527 5.79848 43.9777C9.81876 36.1492 15.6172 29.0115 23.1939 22.5645C30.9252 16.1175 40.512 10.745 51.9544 6.447C63.3967 2.149 76.5399 0 91.384 0C106.074 0 119.062 2.149 130.35 6.447C141.792 10.745 151.379 16.5012 159.11 23.7157C166.996 30.7767 172.949 38.9122 176.97 48.1222C180.99 57.3322 183 66.9259 183 76.9034C183 96.5514 175.037 114.971 159.11 132.163C152.616 139.224 145.271 145.978 137.076 152.425C128.881 158.872 121.15 165.626 113.882 172.687C106.769 179.748 100.739 187.5 95.7909 195.943C90.9975 204.232 88.6008 213.749 88.6008 224.494C88.6008 226.643 88.6781 229.175 88.8327 232.092C89.142 234.855 89.5285 237.771 89.9924 240.841C87.5184 241.762 84.8124 242.453 81.8745 242.914C79.0913 243.221 76.3853 243.374 73.7567 243.374C71.2826 233.704 70.0456 224.724 70.0456 216.435C70.0456 208.453 71.0507 201.238 73.0608 194.791C75.071 188.344 77.6223 182.511 80.7148 177.292C83.962 171.92 87.5184 167.008 91.384 162.556C95.4043 157.951 99.4246 153.577 103.445 149.432C108.238 144.213 112.722 139.148 116.897 134.236C121.072 129.324 124.629 124.028 127.567 118.348C130.659 112.669 133.056 106.452 134.757 99.6982C136.612 92.7907 137.54 84.8854 137.54 75.9824C137.54 65.5444 136.303 56.7182 133.829 49.5037C131.355 42.1357 127.876 36.1492 123.392 31.5442C118.907 26.9392 113.496 23.639 107.156 21.6435C100.971 19.4945 94.0127 18.42 86.2814 18.42C77.0038 18.42 68.2674 19.8782 60.0722 22.7947C51.8771 25.7112 45.2281 30.3162 40.1255 36.6097ZM82.3384 341C77.8542 341 73.6793 340.232 69.8137 338.697C66.1027 337.162 62.7782 335.013 59.8403 332.25C56.9024 329.487 54.583 326.187 52.8821 322.35C51.3359 318.512 50.5627 314.291 50.5627 309.686C50.5627 305.081 51.4132 300.86 53.1141 297.022C54.815 293.031 57.057 289.654 59.8403 286.891C62.7782 284.128 66.18 281.979 70.0456 280.444C73.9113 278.756 78.0862 277.912 82.5703 277.912C86.8999 277.912 90.9975 278.679 94.8631 280.214C98.7288 281.749 102.131 283.898 105.068 286.661C108.006 289.424 110.248 292.724 111.795 296.562C113.496 300.399 114.346 304.621 114.346 309.226C114.346 313.831 113.496 318.129 111.795 322.12C110.248 325.957 108.006 329.334 105.068 332.25C102.131 335.013 98.7288 337.162 94.8631 338.697C90.9975 340.232 86.8226 341 82.3384 341Z" fill="#FAFAFA"/>
</svg>
