<svg width="44" height="52" viewBox="0 0 44 52" fill="none" xmlns="http://www.w3.org/2000/svg">
<path d="M37.8926 51.8076H6.01758C3.0872 51.8076 0.705078 49.4234 0.705078 46.4951V27.3701C0.705078 24.4419 3.0872 22.0576 6.01758 22.0576H37.8926C40.823 22.0576 43.2051 24.4419 43.2051 27.3701V46.4951C43.2051 49.4234 40.823 51.8076 37.8926 51.8076ZM6.01758 24.1826C4.2602 24.1826 2.83008 25.6127 2.83008 27.3701V46.4951C2.83008 48.2525 4.2602 49.6826 6.01758 49.6826H37.8926C39.65 49.6826 41.0801 48.2525 41.0801 46.4951V27.3701C41.0801 25.6127 39.65 24.1826 37.8926 24.1826H6.01758Z" fill="#F67600"/>
<path d="M14.5176 39.0576H10.2676C8.5102 39.0576 7.08008 37.6275 7.08008 35.8701V31.6201C7.08008 29.8627 8.5102 28.4326 10.2676 28.4326H14.5176C16.275 28.4326 17.7051 29.8627 17.7051 31.6201V35.8701C17.7051 37.6275 16.275 39.0576 14.5176 39.0576ZM10.2676 30.5576C9.6832 30.5576 9.20508 31.0336 9.20508 31.6201V35.8701C9.20508 36.4566 9.6832 36.9326 10.2676 36.9326H14.5176C15.102 36.9326 15.5801 36.4566 15.5801 35.8701V31.6201C15.5801 31.0336 15.102 30.5576 14.5176 30.5576H10.2676Z" fill="#F67600"/>
<path d="M35.7676 45.4326H8.14258C7.55608 45.4326 7.08008 44.9566 7.08008 44.3701C7.08008 43.7836 7.55608 43.3076 8.14258 43.3076H35.7676C36.3541 43.3076 36.8301 43.7836 36.8301 44.3701C36.8301 44.9566 36.3541 45.4326 35.7676 45.4326Z" fill="#F67600"/>
<path d="M21.9551 9.30762C19.6112 9.30762 17.7051 7.40149 17.7051 5.05762C17.7051 2.71374 19.6112 0.807617 21.9551 0.807617C24.2989 0.807617 26.2051 2.71374 26.2051 5.05762C26.2051 7.40149 24.2989 9.30762 21.9551 9.30762ZM21.9551 2.93262C20.7821 2.93262 19.8301 3.88674 19.8301 5.05762C19.8301 6.22849 20.7821 7.18262 21.9551 7.18262C23.1281 7.18262 24.0801 6.22849 24.0801 5.05762C24.0801 3.88674 23.1281 2.93262 21.9551 2.93262Z" fill="#F67600"/>
<path d="M21.9551 17.8076C21.3686 17.8076 20.8926 17.3316 20.8926 16.7451V8.24512C20.8926 7.65862 21.3686 7.18262 21.9551 7.18262C22.5416 7.18262 23.0176 7.65862 23.0176 8.24512V16.7451C23.0176 17.3316 22.5416 17.8076 21.9551 17.8076Z" fill="#F67600"/>
<path d="M9.20508 17.8076C8.93308 17.8076 8.66108 17.7035 8.45283 17.4974L6.32783 15.3724C6.1302 15.1726 6.01758 14.9027 6.01758 14.6201V8.24512C6.01758 7.65862 6.49358 7.18262 7.08008 7.18262C7.66658 7.18262 8.14258 7.65862 8.14258 8.24512V14.1802L9.95733 15.995C10.3717 16.4094 10.3717 17.083 9.95733 17.4974C9.74908 17.7035 9.47708 17.8076 9.20508 17.8076Z" fill="#F67600"/>
<path d="M7.08007 9.30762C4.7362 9.30762 2.83008 7.40149 2.83008 5.05762C2.83008 2.71374 4.7362 0.807617 7.08007 0.807617C9.42395 0.807617 11.3301 2.71374 11.3301 5.05762C11.3301 7.40149 9.42395 9.30762 7.08007 9.30762ZM7.08007 2.93262C5.90708 2.93262 4.95508 3.88674 4.95508 5.05762C4.95508 6.22849 5.90708 7.18262 7.08007 7.18262C8.25307 7.18262 9.20507 6.22849 9.20507 5.05762C9.20507 3.88674 8.25307 2.93262 7.08007 2.93262Z" fill="#F67600"/>
<path d="M34.7037 17.8076C34.4317 17.8076 34.1597 17.7035 33.9514 17.4974C33.537 17.083 33.537 16.4094 33.9514 15.995L35.7662 14.1802V8.24512C35.7662 7.65862 36.2422 7.18262 36.8287 7.18262C37.4152 7.18262 37.8912 7.65862 37.8912 8.24512V14.6201C37.8912 14.9027 37.7785 15.1726 37.5809 15.3724L35.4559 17.4974C35.2477 17.7035 34.9757 17.8076 34.7037 17.8076Z" fill="#F67600"/>
<path d="M36.8301 9.30762C34.4862 9.30762 32.5801 7.40149 32.5801 5.05762C32.5801 2.71374 34.4862 0.807617 36.8301 0.807617C39.174 0.807617 41.0801 2.71374 41.0801 5.05762C41.0801 7.40149 39.174 9.30762 36.8301 9.30762ZM36.8301 2.93262C35.6571 2.93262 34.7051 3.88674 34.7051 5.05762C34.7051 6.22849 35.6571 7.18262 36.8301 7.18262C38.0031 7.18262 38.9551 6.22849 38.9551 5.05762C38.9551 3.88674 38.0031 2.93262 36.8301 2.93262Z" fill="#F67600"/>
</svg>
