<svg width="49" height="48" viewBox="0 0 49 48" fill="none" xmlns="http://www.w3.org/2000/svg">
<path d="M12.2803 10.9604C12.1398 10.601 11.7933 10.3644 11.4073 10.3643C11.4072 10.3643 11.4072 10.3643 11.4072 10.3643C11.0213 10.3643 10.6747 10.6007 10.5341 10.9601L7.76591 18.0341C7.57719 18.5163 7.81512 19.0601 8.29728 19.2488C8.4095 19.2927 8.52509 19.3135 8.63872 19.3135C9.01344 19.3135 9.36725 19.0874 9.512 18.7175L9.9815 17.5178H12.8307L13.2996 18.7172C13.488 19.1994 14.032 19.4377 14.514 19.2489C14.9964 19.0604 15.2344 18.5167 15.0459 18.0344L12.2803 10.9604ZM10.7153 15.6427L11.4068 13.8755L12.0977 15.6427H10.7153Z" fill="#F67600"/>
<path d="M17.4609 19.3133C17.9786 19.3133 18.3984 18.8935 18.3984 18.3758V11.3018C18.3984 10.784 17.9786 10.3643 17.4609 10.3643C16.9432 10.3643 16.5234 10.784 16.5234 11.3018V18.3758C16.5234 18.8935 16.9432 19.3133 17.4609 19.3133Z" fill="#F67600"/>
<path d="M45.2663 22.3682C43.8266 22.3682 42.6061 23.3247 42.2047 24.6364H40.1641L39.3874 21.2752C39.2903 20.8555 38.9043 20.5488 38.474 20.5488H36.6103C36.983 19.4132 37.2373 18.1387 37.3118 16.661L42.4635 16.6619C42.8651 17.9721 44.0854 18.9276 45.5249 18.9276C47.2903 18.9276 48.7266 17.4907 48.7266 15.7245C48.7266 13.9568 47.2903 12.5188 45.5249 12.5188C44.0852 12.5188 42.8647 13.4753 42.4633 14.7869L37.3088 14.786C37.2376 13.4279 37.0126 12.1268 36.6388 10.8978H38.4738C38.9042 10.8978 39.29 10.591 39.3872 10.1713L40.1639 6.81017H42.2048C42.6064 8.12033 43.8268 9.07583 45.2663 9.07583C47.0332 9.07583 48.4705 7.63892 48.4705 5.87267C48.4705 4.10642 47.0332 2.66961 45.2663 2.66961C43.8268 2.66961 42.6065 3.62501 42.2048 4.93517H39.4184C38.9904 4.93517 38.6301 5.22233 38.5178 5.61429C38.5132 5.62892 38.5089 5.64448 38.505 5.66164L37.7283 9.02276H35.9279C35.2815 7.61604 34.4178 6.32867 33.346 5.18839C32.9916 4.81104 32.3983 4.79267 32.0209 5.14733C31.6436 5.50198 31.6252 6.09523 31.9798 6.47248C32.7073 7.24648 33.3246 8.10054 33.8287 9.02276H30.8448C30.3271 9.02276 29.9073 9.44248 29.9073 9.96026C29.9073 10.478 30.3271 10.8978 30.8448 10.8978H34.664C35.0919 12.1114 35.3499 13.4139 35.4311 14.7856L29.6391 14.7845C29.639 14.7845 29.639 14.7845 29.6389 14.7845C29.1212 14.7845 28.7015 15.2041 28.7014 15.7218C28.7013 16.2395 29.121 16.6594 29.6387 16.6595L35.4327 16.6606C35.3465 18.1654 35.0489 19.4286 34.6153 20.5488H30.8449C30.3272 20.5488 29.9074 20.9685 29.9074 21.4863C29.9074 22.004 30.3272 22.4238 30.8449 22.4238H33.71C33.1295 23.4293 32.4551 24.3485 31.7664 25.2861C30.2985 27.2847 28.7853 29.3466 28.1667 32.3493H17.0785C16.7456 30.7358 16.1613 29.4147 15.5175 28.2929C16.3264 28.0798 16.9254 27.344 16.9254 26.4689V26.1998C17.6757 25.977 18.3984 25.6768 19.086 25.3025L19.2778 25.4945C19.6337 25.8505 20.1077 26.0465 20.6125 26.0465C21.1174 26.0465 21.5914 25.8505 21.9473 25.4944L23.8287 23.6117C24.5643 22.8757 24.5643 21.6782 23.8287 20.9422L23.6362 20.7497C24.0105 20.0614 24.3106 19.3379 24.5334 18.5869H24.8016C25.8424 18.5869 26.6891 17.7398 26.6891 16.6987V14.0371C26.6891 12.996 25.8424 12.1489 24.8016 12.1489H24.5334C24.3106 11.3979 24.0105 10.6744 23.6362 9.98614L23.8287 9.79358C24.5642 9.05764 24.5642 7.86017 23.8287 7.12414L21.9473 5.24136C21.5914 4.88539 21.1174 4.68936 20.6125 4.68936C20.1077 4.68936 19.6337 4.88539 19.2778 5.24145L19.086 5.43336C18.3983 5.05901 17.6757 4.75892 16.9254 4.53608V4.26701C16.9254 4.10895 16.9038 3.95614 16.867 3.80923C18.6637 2.91842 20.6326 2.4642 22.6116 2.49251C22.6202 2.49261 22.6287 2.49261 22.6373 2.49251C23.5561 2.48051 24.4776 2.57183 25.3786 2.76495C25.8847 2.87314 26.3832 2.55092 26.4917 2.04458C26.6001 1.53833 26.2777 1.03995 25.7713 0.931482C24.7374 0.709951 23.6787 0.604013 22.625 0.617513C20.1356 0.58367 17.6699 1.21001 15.4613 2.42848C15.3249 2.39708 15.1837 2.37879 15.0379 2.37879H12.3779C11.3371 2.37879 10.4903 3.22583 10.4903 4.26692V4.53598C9.74006 4.75883 9.01744 5.05892 8.32978 5.43326L8.13797 5.24136C7.78209 4.88539 7.30809 4.68936 6.80325 4.68936C6.29841 4.68936 5.82441 4.88539 5.46853 5.24145L3.58706 7.12451C2.85159 7.86045 2.85159 9.05792 3.58706 9.79395L3.77953 9.98651C3.40528 10.6748 3.10519 11.3983 2.88234 12.1493H2.61422C1.57331 12.1492 0.726562 12.9963 0.726562 14.0374V16.699C0.726562 17.7401 1.57331 18.5871 2.61413 18.5871H2.88225C3.10509 19.3382 3.40519 20.0617 3.77944 20.75L3.58697 20.9425C2.85141 21.6784 2.85141 22.876 3.58697 23.6119L5.46844 25.4947C5.82431 25.8507 6.29831 26.0467 6.80316 26.0467C7.308 26.0467 7.782 25.8507 8.13788 25.4946L8.32969 25.3027C9.01725 25.677 9.73997 25.9772 10.4903 26.2V26.4691C10.4903 27.5102 11.337 28.3572 12.3778 28.3572H13.3565C14.1409 29.5582 14.9219 31.0223 15.2816 32.9242C14.5281 33.4719 14.0369 34.3594 14.0369 35.3598C14.0369 36.1635 14.3537 36.8941 14.8681 37.4348C14.3537 37.9751 14.0369 38.705 14.0369 39.5081C14.0369 40.9177 15.0114 42.1036 16.3223 42.4294V44.3033C16.3223 46.32 17.9621 47.9606 19.9777 47.9606H25.2687C27.2858 47.9606 28.9269 46.32 28.9269 44.3033V42.4292C30.2363 42.1032 31.2097 40.9174 31.2097 39.5081C31.2097 38.7051 30.8932 37.9752 30.3791 37.4348C30.8932 36.8941 31.2097 36.1635 31.2097 35.3598C31.2097 34.3586 30.7181 33.4706 29.9644 32.923C30.4742 30.2139 31.8381 28.3562 33.2776 26.3963C34.1846 25.1614 35.1051 23.9066 35.8399 22.4239H37.7284L38.5051 25.7851C38.6021 26.2049 38.9881 26.5115 39.4185 26.5115H42.2048C42.6065 27.8217 43.8269 28.7771 45.2663 28.7771C47.0332 28.7771 48.4706 27.3402 48.4706 25.574C48.4706 23.8062 47.0332 22.3682 45.2663 22.3682ZM45.5249 14.3939C46.2564 14.3939 46.8516 14.9909 46.8516 15.7246C46.8516 16.457 46.2563 17.0527 45.5249 17.0527C44.7935 17.0527 44.1983 16.457 44.1983 15.7246C44.1982 14.9909 44.7934 14.3939 45.5249 14.3939ZM45.2663 4.5447C45.9993 4.5447 46.5956 5.14048 46.5956 5.87276C46.5956 6.60514 45.9994 7.20092 45.2663 7.20092C44.5348 7.20092 43.9397 6.60514 43.9397 5.87276C43.9396 5.14048 44.5348 4.5447 45.2663 4.5447ZM15.0504 25.4762V26.469C15.0504 26.4744 15.0423 26.4821 15.0379 26.4821H13.8564C13.8544 26.4821 13.8523 26.4821 13.8502 26.4821H12.3779C12.3735 26.4821 12.3653 26.4744 12.3653 26.469V25.4762C12.3653 25.0378 12.0616 24.658 11.634 24.5616C10.5841 24.325 9.59081 23.9124 8.68191 23.3354C8.52741 23.2372 8.35303 23.1893 8.17978 23.1893C7.93753 23.1893 7.69734 23.2831 7.51641 23.4641L6.81178 24.1691C6.80775 24.1732 6.79875 24.1731 6.79472 24.1691L4.91325 22.2863C4.90969 22.2828 4.90969 22.2713 4.91325 22.2678L5.61788 21.5627C5.928 21.2524 5.98144 20.7685 5.7465 20.398C5.16984 19.4883 4.75744 18.4943 4.52091 17.4436C4.42462 17.0158 4.04475 16.712 3.60628 16.712H2.61413C2.60972 16.712 2.60156 16.7043 2.60156 16.6988V14.0372C2.60156 14.0317 2.60972 14.024 2.61413 14.024H3.60628C4.04475 14.024 4.42462 13.7202 4.52091 13.2924C4.75744 12.2418 5.16984 11.2477 5.7465 10.338C5.98144 9.96739 5.928 9.48354 5.61788 9.17333L4.91325 8.46833C4.90959 8.46467 4.90959 8.45323 4.91325 8.44967L6.79472 6.56698C6.79875 6.56295 6.80775 6.56304 6.81178 6.56698L7.51641 7.27198C7.82691 7.58257 8.31131 7.63601 8.682 7.40079C9.591 6.82376 10.5843 6.41117 11.634 6.17454C12.0617 6.07817 12.3654 5.69829 12.3654 5.26001V4.2672C12.3654 4.26176 12.3736 4.25408 12.378 4.25408H15.038C15.0424 4.25408 15.0505 4.26176 15.0505 4.2672V5.26001C15.0505 5.69839 15.3543 6.07826 15.782 6.17454C16.8317 6.41108 17.825 6.82367 18.734 7.40079C19.1045 7.63611 19.5891 7.58267 19.8996 7.27198L20.6042 6.56698C20.6082 6.56295 20.6172 6.56304 20.6213 6.56698L22.5027 8.44967C22.5064 8.45333 22.5064 8.46476 22.5027 8.46833L21.7981 9.17333C21.488 9.48364 21.4345 9.96748 21.6695 10.338C22.2461 11.2477 22.6585 12.2418 22.8951 13.2924C22.9913 13.7202 23.3712 14.024 23.8097 14.024H24.8018C24.8063 14.024 24.8144 14.0317 24.8144 14.0372V16.6988C24.8144 16.7043 24.8063 16.712 24.8018 16.712H23.8097C23.3712 16.712 22.9913 17.0158 22.8951 17.4436C22.6585 18.4943 22.2461 19.4883 21.6695 20.398C21.4345 20.7685 21.488 21.2524 21.7981 21.5627L22.5027 22.2678C22.5063 22.2713 22.5063 22.2828 22.5027 22.2863L20.6213 24.169C20.6172 24.173 20.6082 24.173 20.6042 24.169L19.8996 23.4639C19.5891 23.1533 19.1046 23.0998 18.734 23.3351C17.8251 23.9121 16.8318 24.3247 15.7819 24.5614C15.3542 24.658 15.0504 25.0378 15.0504 25.4762ZM27.052 44.3032C27.052 45.2859 26.2522 46.0855 25.2688 46.0855H19.9778C18.996 46.0855 18.1973 45.286 18.1973 44.3032V42.5183H27.0519V44.3032H27.052ZM28.2007 40.6433H17.0488C16.422 40.6433 15.9121 40.134 15.9121 39.508C15.9121 38.8819 16.422 38.3727 17.0488 38.3727H28.2007C28.826 38.3727 29.3347 38.882 29.3347 39.508C29.3347 40.134 28.826 40.6433 28.2007 40.6433ZM28.2007 36.4977H17.0488C16.422 36.4977 15.9121 35.9872 15.9121 35.3598C15.9121 34.7337 16.422 34.2244 17.0488 34.2244H28.2007C28.826 34.2244 29.3347 34.7338 29.3347 35.3598C29.3347 35.9871 28.826 36.4977 28.2007 36.4977ZM45.2663 26.9019C44.5348 26.9019 43.9397 26.3061 43.9397 25.5739C43.9397 24.8401 44.5349 24.2432 45.2663 24.2432C45.9993 24.2432 46.5956 24.8402 46.5956 25.5739C46.5956 26.3061 45.9993 26.9019 45.2663 26.9019Z" fill="#F67600"/>
<path d="M28.9814 4.12599L28.9868 4.12861C29.121 4.19574 29.2634 4.22752 29.4037 4.22752C29.7471 4.22752 30.0775 4.03683 30.2418 3.70796C30.4734 3.24483 30.283 2.68036 29.8198 2.4488C29.3568 2.21724 28.7935 2.40492 28.5621 2.86805C28.3305 3.33136 28.5182 3.89442 28.9814 4.12599Z" fill="#F67600"/>
</svg>
