<svg width="46" height="52" viewBox="0 0 46 52" fill="none" xmlns="http://www.w3.org/2000/svg">
<path d="M32.3991 15.9632L36.3581 10.6306L27.9461 7.99294L22.8382 0.807617L17.7302 7.99284L9.31818 10.6305L13.2797 15.9665C5.88674 16.3979 0.00390625 22.5483 0.00390625 30.0476C0.00390625 37.8258 6.33199 44.1538 14.1101 44.1538H16.8345V51.8076L28.0667 44.1538H31.6211C39.3992 44.1538 45.7273 37.8257 45.7273 30.0476C45.7274 22.5305 39.8169 16.3684 32.3991 15.9632ZM19.5882 10.5503L22.8382 5.97874L26.0881 10.5503L31.4401 12.2285L28.0965 16.732L28.1545 22.3407L22.8382 20.5525L17.5218 22.3407L17.5798 16.732L14.2362 12.2285L19.5882 10.5503ZM31.6211 41.1577H27.1429L19.8308 46.1403V41.1577H14.1102C7.98411 41.1577 3.00016 36.1737 3.00016 30.0476C3.00016 23.9216 7.98411 18.9376 14.1102 18.9376H14.5607L14.4824 26.5244L22.8383 23.7138L31.1941 26.5244L31.1158 18.9376H31.6212C37.7473 18.9376 42.7313 23.9216 42.7313 30.0476C42.7312 36.1737 37.7472 41.1577 31.6211 41.1577Z" fill="#F67600"/>
<path d="M14.2637 29.9668H17.4303V32.9631H14.2637V29.9668Z" fill="#F67600"/>
<path d="M21.2539 29.9668H24.4206V32.9631H21.2539V29.9668Z" fill="#F67600"/>
<path d="M28.2461 29.9668H31.4127V32.9631H28.2461V29.9668Z" fill="#F67600"/>
</svg>
