<svg width="39" height="51" viewBox="0 0 39 51" fill="none" xmlns="http://www.w3.org/2000/svg">
<path d="M32.3699 26.516H24.7179V21.0826C24.7179 18.5559 23.9681 16.7173 22.4788 15.6286C20.137 13.9133 16.9529 14.8788 16.8194 14.9302C16.3058 15.0945 15.9566 15.567 15.9566 16.1011V22.5411C15.9566 24.5337 15.0014 26.2182 13.1218 27.574C11.8995 28.4573 10.6464 28.9195 10.2048 29.0633C9.8761 28.56 9.31118 28.2313 8.6641 28.2313H2.04947C1.03263 28.2313 0.210938 29.0633 0.210938 30.0698V48.106C0.210938 49.1228 1.0429 49.9445 2.04947 49.9445H8.6641C9.11603 49.9445 9.52688 49.7802 9.85555 49.5132C10.8313 50.3862 12.1152 50.91 13.5018 50.91H29.268C30.8293 50.91 32.2159 50.53 33.2738 49.8213C34.6193 48.9174 35.4616 47.4589 35.6875 45.6204L37.7623 32.463C37.7931 32.2679 37.8034 32.083 37.8034 31.8981C37.6904 28.94 35.2459 26.516 32.3699 26.516ZM8.03756 47.5H2.66574V30.7067H8.03756V47.5ZM35.328 32.0933L33.2533 45.2712C33.2533 45.2814 33.2533 45.302 33.243 45.3122C33.1505 46.0929 32.863 48.4552 29.268 48.4552H13.5018C12.0639 48.4552 10.8313 47.4281 10.5643 46.021C10.554 45.9593 10.5335 45.8977 10.5129 45.8361V31.5386C10.5745 31.5284 10.6464 31.5181 10.7081 31.4975C10.7902 31.477 12.639 30.9532 14.4981 29.6282C17.0659 27.8102 18.4217 25.3554 18.4217 22.5411V17.1076C19.1612 17.0255 20.2397 17.0357 21.0203 17.6109C21.8317 18.2067 22.2528 19.3776 22.2528 21.0723V27.7383C22.2528 28.4162 22.8075 28.9708 23.4854 28.9708H32.3699C33.9209 28.9708 35.2767 30.3574 35.3383 32.0008C35.3383 32.0111 35.3383 32.0419 35.328 32.0933Z" fill="#F67600"/>
<path d="M20.2501 11.3457C20.928 11.3457 21.4827 10.791 21.4827 10.1131V2.1427C21.4827 1.4648 20.928 0.910156 20.2501 0.910156C19.5722 0.910156 19.0176 1.4648 19.0176 2.1427V10.1028C19.0176 10.791 19.5722 11.3457 20.2501 11.3457Z" fill="#F67600"/>
<path d="M27.6035 20.045C27.6035 20.7229 28.1582 21.2776 28.8361 21.2776H36.7962C37.4741 21.2776 38.0287 20.7229 38.0287 20.045C38.0287 19.3671 37.4741 18.8125 36.7962 18.8125H28.8361C28.1582 18.8125 27.6035 19.3671 27.6035 20.045Z" fill="#F67600"/>
<path d="M3.69348 21.2776H11.6536C12.3315 21.2776 12.8862 20.7229 12.8862 20.045C12.8862 19.3671 12.3315 18.8125 11.6536 18.8125H3.69348C3.01558 18.8125 2.46094 19.3671 2.46094 20.045C2.46094 20.7229 3.01558 21.2776 3.69348 21.2776Z" fill="#F67600"/>
<path d="M7.09191 7.94555C7.42059 7.94555 7.739 7.81202 7.96496 7.58606C8.19093 7.36009 8.32445 7.04168 8.32445 6.71301C8.32445 6.38433 8.19093 6.06592 7.96496 5.83996C7.739 5.61399 7.42059 5.48047 7.09191 5.48047C6.76324 5.48047 6.44483 5.61399 6.21887 5.83996C5.9929 6.06592 5.85938 6.38433 5.85938 6.71301C5.85938 7.04168 5.9929 7.36009 6.21887 7.58606C6.44483 7.82229 6.76324 7.94555 7.09191 7.94555Z" fill="#F67600"/>
<path d="M9.90699 10.7606C10.2254 10.7606 10.5335 10.6374 10.78 10.4011C11.2628 9.91838 11.2628 9.13777 10.78 8.65503C10.2973 8.17228 9.51668 8.17228 9.03393 8.65503C8.55119 9.13777 8.55119 9.91838 9.03393 10.4011C9.27017 10.6476 9.58858 10.7606 9.90699 10.7606Z" fill="#F67600"/>
<path d="M12.7208 13.5852C13.0495 13.5852 13.3679 13.4517 13.5939 13.2257C13.8198 12.9997 13.9534 12.6813 13.9534 12.3527C13.9534 12.024 13.8198 11.7056 13.5939 11.4796C13.3679 11.2536 13.0495 11.1201 12.7208 11.1201C12.3921 11.1201 12.0737 11.2536 11.8478 11.4796C11.6218 11.7056 11.4883 12.024 11.4883 12.3527C11.4883 12.6813 11.6218 12.9997 11.8478 13.2257C12.0737 13.4517 12.3921 13.5852 12.7208 13.5852Z" fill="#F67600"/>
<path d="M32.5646 8.52074C32.8932 8.52074 33.2117 8.38722 33.4376 8.16125C33.6636 7.93529 33.7971 7.61688 33.7971 7.2882C33.7971 6.95953 33.6636 6.64112 33.4376 6.41515C33.2117 6.18919 32.8932 6.05566 32.5646 6.05566C32.2359 6.05566 31.9175 6.18919 31.6915 6.41515C31.4656 6.64112 31.332 6.95953 31.332 7.2882C31.332 7.61688 31.4656 7.93529 31.6915 8.16125C31.9175 8.39749 32.2359 8.52074 32.5646 8.52074Z" fill="#F67600"/>
<path d="M29.7507 11.3456C30.0691 11.3456 30.3773 11.2223 30.6238 10.9861C31.1065 10.5033 31.1065 9.72273 30.6238 9.23999C30.141 8.75724 29.3604 8.75724 28.8777 9.23999C28.3949 9.72273 28.3949 10.5033 28.8777 10.9861C29.1139 11.2223 29.4323 11.3456 29.7507 11.3456Z" fill="#F67600"/>
<path d="M26.9357 14.1604C27.2643 14.1604 27.5827 14.0269 27.8087 13.8009C28.0347 13.5749 28.1682 13.2565 28.1682 12.9279C28.1682 12.5992 28.0347 12.2808 27.8087 12.0548C27.5827 11.8288 27.2643 11.6953 26.9357 11.6953C26.607 11.6953 26.2886 11.8288 26.0626 12.0548C25.8366 12.2808 25.7031 12.5992 25.7031 12.9279C25.7031 13.2565 25.8366 13.5749 26.0626 13.8009C26.2886 14.0269 26.607 14.1604 26.9357 14.1604Z" fill="#F67600"/>
</svg>
