<svg width="13" height="8" viewBox="0 0 13 8" fill="none" xmlns="http://www.w3.org/2000/svg">
<path d="M10.3243 0.625383C10.6697 0.279994 11.2297 0.279993 11.5751 0.625383C11.9205 0.970772 11.9205 1.53076 11.5751 1.87615L6.87611 6.57513C6.53072 6.92052 5.97073 6.92052 5.62534 6.57513C5.27995 6.22974 5.27995 5.66975 5.62534 5.32436L10.3243 0.625383Z" fill="#959BA4"/>
<path d="M1.87612 0.625383C1.53073 0.279994 0.970739 0.279993 0.62535 0.625383C0.27996 0.970772 0.27996 1.53076 0.62535 1.87615L5.32433 6.57513C5.66972 6.92052 6.22971 6.92052 6.5751 6.57513C6.92049 6.22974 6.92049 5.66975 6.5751 5.32436L1.87612 0.625383Z" fill="#959BA4"/>
</svg>
