<svg width="51" height="62" viewBox="0 0 51 62" fill="none" xmlns="http://www.w3.org/2000/svg">
<path d="M29.1416 37.3323V33.0734C29.1416 31.3942 27.7072 30.0281 25.944 30.0281C24.1808 30.0281 22.7464 31.3942 22.7464 33.0734V36.9186C22.7464 41.5524 20.9539 46.0012 17.699 49.4454L13.2113 54.1943C12.8343 54.5934 12.8683 55.2079 13.2873 55.5671C13.7061 55.9262 14.3513 55.8938 14.7285 55.4948L19.2162 50.7458C22.8088 46.9439 24.7874 42.0334 24.7874 36.9186V33.0734C24.7874 32.4661 25.3062 31.9719 25.944 31.9719C26.5818 31.9719 27.1006 32.4661 27.1006 33.0734V37.3323C27.1006 43.0346 24.8825 48.4986 20.8549 52.7181L16.4804 57.3009C16.1013 57.6979 16.1321 58.3128 16.5491 58.6739C16.7446 58.8432 16.9903 58.9266 17.2352 58.9266C17.5128 58.9266 17.7892 58.8194 17.9906 58.6084L22.365 54.0256C26.735 49.4476 29.1416 43.5191 29.1416 37.3323Z" stroke="url(#paint0_linear)"/>
<path d="M33.4962 33.0734C33.4962 29.1076 30.1085 25.8812 25.9444 25.8812C21.7803 25.8812 18.3926 29.1076 18.3926 33.0734V36.9186C18.3926 40.5263 16.997 43.9898 14.463 46.6713L11.2726 50.0475C10.8956 50.4465 10.9296 51.061 11.3485 51.4202C11.7675 51.7793 12.4126 51.7467 12.7898 51.3479L15.9802 47.9717C18.8521 44.9327 20.4337 41.0073 20.4337 36.9186V33.0734C20.4337 30.1794 22.9058 27.8251 25.9445 27.8251C28.9832 27.8251 31.4553 30.1794 31.4553 33.0734V37.3323C31.4553 44.0682 28.8352 50.5231 24.0772 55.5075L20.3864 59.3743C20.0071 59.7714 20.0379 60.3863 20.455 60.7473C20.6505 60.9167 20.8961 61 21.141 61C21.4186 61 21.6951 60.8928 21.8965 60.6819L25.5875 56.815C30.6875 51.472 33.4962 44.553 33.4962 37.3323V33.0734Z" stroke="url(#paint1_linear)"/>
<path d="M37.8505 33.0734C37.8505 26.821 32.5095 21.7344 25.9445 21.7344C19.3794 21.7344 14.0384 26.821 14.0384 33.0734V36.9186C14.0384 39.5001 13.0398 41.9785 11.2266 43.8972L8.35386 46.9371C7.97681 47.3361 8.01083 47.9506 8.42979 48.3098C8.84861 48.6689 9.49398 48.6363 9.87103 48.2375L12.7437 45.1976C14.8948 42.9214 16.0795 39.9811 16.0795 36.9186V33.0734C16.0795 27.8928 20.5048 23.6782 25.9445 23.6782C31.3841 23.6782 35.8095 27.8928 35.8095 33.0734V37.3323C35.8095 45.1022 32.7871 52.5477 27.299 58.2969L26.2776 59.3671C25.8985 59.7643 25.9292 60.379 26.3463 60.7401C26.5418 60.9093 26.7876 60.9928 27.0323 60.9928C27.3099 60.9928 27.5864 60.8856 27.7878 60.6746L28.8091 59.6045C34.6394 53.4965 37.8504 45.5869 37.8504 37.3323L37.8505 33.0734Z" stroke="url(#paint2_linear)"/>
<path d="M9.68423 33.0734C9.68423 33.6103 10.1412 34.0454 10.7048 34.0454C11.2683 34.0454 11.7253 33.6103 11.7253 33.0734C11.7253 29.8007 12.9729 26.6392 15.2384 24.1713C17.4829 21.7263 20.5634 20.1274 23.9123 19.6692C24.4702 19.5929 24.8574 19.1002 24.7773 18.569C24.6971 18.0377 24.1794 17.6694 23.6221 17.7452C19.7904 18.2695 16.2673 20.0972 13.7018 22.892C11.1111 25.714 9.68423 29.33 9.68423 33.0734Z" stroke="url(#paint3_linear)"/>
<path d="M11.7245 36.9186C11.7245 36.3817 11.2676 35.9467 10.704 35.9467C10.1404 35.9467 9.68348 36.3817 9.68348 36.9186C9.68348 38.4739 9.08192 39.967 7.98956 41.1229L5.43432 43.827C5.05728 44.2259 5.09129 44.8404 5.51025 45.1997C5.70537 45.3668 5.94934 45.4491 6.19263 45.4491C6.47185 45.4491 6.75011 45.3405 6.95149 45.1273L9.50673 42.4233C10.9368 40.9098 11.7245 38.955 11.7245 36.9186Z" stroke="url(#paint4_linear)"/>
<path d="M40.2015 45.5948C39.656 45.4595 39.0987 45.7698 38.9558 46.289C38.579 47.6599 38.1104 49.0228 37.5624 50.3397C37.3548 50.8387 37.6113 51.4036 38.1353 51.6012C38.2587 51.6478 38.3858 51.6698 38.511 51.6698C38.9172 51.6698 39.3013 51.4372 39.4601 51.0557C40.0382 49.6658 40.5328 48.2278 40.9304 46.781C41.073 46.2619 40.7466 45.7307 40.2015 45.5948Z" stroke="url(#paint5_linear)"/>
<path d="M36.8042 21.5571C36.385 21.198 35.7397 21.2309 35.363 21.63C34.9862 22.0292 35.0205 22.6437 35.4396 23.0025C38.4414 25.5725 40.1629 29.2432 40.1629 33.0734V37.3323C40.1629 38.9486 40.0459 40.5775 39.815 42.1736C39.7381 42.7054 40.1284 43.1958 40.6867 43.269C40.7339 43.2753 40.7808 43.2782 40.8272 43.2782C41.329 43.2782 41.7665 42.9255 41.8369 42.4388C42.0804 40.755 42.204 39.0369 42.204 37.3321V33.0734C42.2041 28.6927 40.2359 24.4951 36.8042 21.5571Z" stroke="url(#paint6_linear)"/>
<path d="M32.0338 20.8371C32.1754 20.9013 32.3247 20.9317 32.4718 20.9317C32.8532 20.9317 33.2191 20.727 33.3939 20.3773C33.6363 19.8927 33.4201 19.3127 32.9113 19.082C31.4409 18.4153 29.8782 17.9655 28.2665 17.7451C27.7078 17.6693 27.1914 18.0377 27.1112 18.5689C27.0311 19.1 27.4183 19.5927 27.9762 19.6691C29.3843 19.8618 30.7493 20.2547 32.0338 20.8371Z" stroke="url(#paint7_linear)"/>
<path d="M25.9447 13.4406C25.5629 13.4406 25.1767 13.4507 24.7967 13.4707C24.2339 13.5002 23.8028 13.9587 23.8339 14.4946C23.865 15.0306 24.3459 15.4433 24.9091 15.4114C25.2519 15.3934 25.6002 15.3843 25.9446 15.3843C36.186 15.3843 44.518 23.3195 44.518 33.0733V37.3321C44.518 37.869 44.9749 38.3041 45.5385 38.3041C46.1021 38.3041 46.5591 37.869 46.5591 37.3321V33.0734C46.5592 22.2479 37.3115 13.4406 25.9447 13.4406Z" stroke="url(#paint8_linear)"/>
<path d="M14.786 18.714C14.987 18.714 15.1901 18.6575 15.3677 18.5399C17.0656 17.4155 18.9303 16.576 20.9102 16.0443C21.4527 15.8986 21.7685 15.3616 21.6156 14.8451C21.4626 14.3285 20.8986 14.0281 20.3564 14.1733C18.1575 14.7637 16.0871 15.6958 14.2025 16.9438C13.7398 17.2503 13.6255 17.856 13.9473 18.2966C14.1455 18.5684 14.4631 18.714 14.786 18.714Z" stroke="url(#paint9_linear)"/>
<path d="M7.3709 36.9186V33.0734C7.3709 28.552 9.16878 24.246 12.4334 20.9484C12.8199 20.5578 12.801 19.9428 12.3909 19.5745C11.9808 19.2062 11.3349 19.2244 10.9483 19.6149C7.32518 23.2746 5.32986 28.0544 5.32986 33.0734V36.9186C5.32986 37.4477 5.12521 37.9556 4.75374 38.3486L3.49538 39.6802C3.11833 40.0792 3.15235 40.6937 3.5713 41.0528C3.76629 41.2201 4.0104 41.3024 4.25369 41.3024C4.5329 41.3024 4.81103 41.1939 5.01255 40.9807L6.27092 39.6492C6.98024 38.8984 7.3709 37.9286 7.3709 36.9186Z" stroke="url(#paint10_linear)"/>
<path d="M49.6166 25.5059C48.4973 22.338 46.7185 19.476 44.3296 16.9994C43.9482 16.6042 43.3026 16.578 42.8876 16.9412C42.4726 17.3045 42.4453 17.9192 42.8265 18.3146C45.0209 20.5894 46.6547 23.2175 47.6823 26.1258C47.8257 26.5318 48.2233 26.788 48.6493 26.788C48.7572 26.788 48.867 26.7715 48.9749 26.7369C49.509 26.5657 49.7964 26.0146 49.6166 25.5059Z" stroke="url(#paint11_linear)"/>
<path d="M34.0095 10.5666C33.4765 10.3928 32.896 10.6635 32.7135 11.1715C32.5311 11.6794 32.8155 12.2319 33.3487 12.4056C35.599 13.1389 37.7118 14.2013 39.6283 15.5636C39.8116 15.6938 40.0256 15.7565 40.2379 15.7565C40.549 15.7565 40.8562 15.6216 41.0566 15.3658C41.3938 14.9357 41.3007 14.3266 40.8491 14.0056C38.7622 12.5226 36.461 11.3654 34.0095 10.5666Z" stroke="url(#paint12_linear)"/>
<path d="M10.0875 17.3164C14.3803 13.3964 20.0117 11.2376 25.9441 11.2376C27.0458 11.2376 28.1535 11.3131 29.2365 11.4619C29.7948 11.5394 30.3118 11.1701 30.3924 10.6387C30.4729 10.1074 30.0861 9.61473 29.5282 9.53801C28.3488 9.37603 27.1429 9.29374 25.9441 9.29374C19.4826 9.29374 13.3496 11.6446 8.67494 15.9133C4.01484 20.1688 1.28951 25.8794 1.00105 31.9933C0.97574 32.5295 1.4117 32.9839 1.97462 33.0079C1.99027 33.0086 2.00578 33.0089 2.02129 33.0089C2.5638 33.0089 3.01542 32.602 3.04004 32.0806C3.3047 26.4679 5.80755 21.2245 10.0875 17.3164Z" stroke="url(#paint13_linear)"/>
<path d="M25.944 5.14689C23.6619 5.14689 21.3878 5.39881 19.1849 5.89566C18.6364 6.01929 18.2972 6.54309 18.427 7.06533C18.557 7.58758 19.107 7.91078 19.6553 7.78702C21.7042 7.32516 23.82 7.09073 25.944 7.09073C33.4273 7.09073 40.4125 9.93017 45.6128 15.0858C45.8132 15.2844 46.0808 15.3845 46.3489 15.3845C46.6033 15.3845 46.858 15.2945 47.0558 15.1135C47.4623 14.7416 47.4753 14.1263 47.0848 13.7393C44.3753 11.0531 41.1925 8.93985 37.625 7.45877C33.9299 5.92469 29.9998 5.14689 25.944 5.14689Z" stroke="url(#paint14_linear)"/>
<path d="M3.0204 17.2511C3.20709 17.3902 3.42875 17.4578 3.64891 17.4578C3.95193 17.4578 4.25183 17.3298 4.45307 17.0851C7.36155 13.547 11.1905 10.7718 15.526 9.05931C16.0466 8.85365 16.2937 8.28501 16.0777 7.7892C15.8618 7.29339 15.2644 7.0578 14.7441 7.26371C10.085 9.10402 5.97065 12.0857 2.8461 15.8865C2.49858 16.3093 2.57668 16.9202 3.0204 17.2511Z" stroke="url(#paint15_linear)"/>
<path d="M11.7932 6.01836C11.9421 6.01836 12.0933 5.98726 12.2361 5.92143C16.5329 3.94557 21.1447 2.94384 25.9435 2.94384C28.4442 2.94384 30.9348 3.22402 33.3458 3.77659C33.8934 3.90177 34.4448 3.58091 34.5767 3.05905C34.7085 2.53719 34.3712 2.01222 33.8231 1.88665C31.256 1.29832 28.6049 1 25.9435 1C20.8349 1 15.9246 2.06678 11.3488 4.17093C10.8413 4.40432 10.6285 4.9854 10.8736 5.46877C11.0495 5.81594 11.4139 6.01836 11.7932 6.01836Z" stroke="url(#paint16_linear)"/>
<path d="M37.6116 5.06691C38.6637 5.46591 39.705 5.92466 40.7066 6.43019C40.8589 6.50717 41.0224 6.54358 41.1835 6.54358C41.5493 6.54358 41.9029 6.35581 42.0861 6.02652C42.3499 5.55222 42.1602 4.96401 41.6622 4.71261C40.5959 4.17442 39.487 3.686 38.3666 3.26107C37.8429 3.06241 37.2495 3.30578 37.0409 3.80431C36.8325 4.30298 37.088 4.86838 37.6116 5.06691Z" stroke="url(#paint17_linear)"/>
<defs>
<linearGradient id="paint0_linear" x1="25.3351" y1="1" x2="25.3351" y2="42" gradientUnits="userSpaceOnUse">
<stop stop-color="#FBC039"/>
<stop offset="1" stop-color="#FBC039" stop-opacity="0"/>
</linearGradient>
<linearGradient id="paint1_linear" x1="25.3351" y1="1" x2="25.3351" y2="42" gradientUnits="userSpaceOnUse">
<stop stop-color="#FBC039"/>
<stop offset="1" stop-color="#FBC039" stop-opacity="0"/>
</linearGradient>
<linearGradient id="paint2_linear" x1="25.3351" y1="1" x2="25.3351" y2="42" gradientUnits="userSpaceOnUse">
<stop stop-color="#FBC039"/>
<stop offset="1" stop-color="#FBC039" stop-opacity="0"/>
</linearGradient>
<linearGradient id="paint3_linear" x1="25.3351" y1="1" x2="25.3351" y2="42" gradientUnits="userSpaceOnUse">
<stop stop-color="#FBC039"/>
<stop offset="1" stop-color="#FBC039" stop-opacity="0"/>
</linearGradient>
<linearGradient id="paint4_linear" x1="25.3351" y1="1" x2="25.3351" y2="42" gradientUnits="userSpaceOnUse">
<stop stop-color="#FBC039"/>
<stop offset="1" stop-color="#FBC039" stop-opacity="0"/>
</linearGradient>
<linearGradient id="paint5_linear" x1="25.3351" y1="1" x2="25.3351" y2="42" gradientUnits="userSpaceOnUse">
<stop stop-color="#FBC039"/>
<stop offset="1" stop-color="#FBC039" stop-opacity="0"/>
</linearGradient>
<linearGradient id="paint6_linear" x1="25.3351" y1="1" x2="25.3351" y2="42" gradientUnits="userSpaceOnUse">
<stop stop-color="#FBC039"/>
<stop offset="1" stop-color="#FBC039" stop-opacity="0"/>
</linearGradient>
<linearGradient id="paint7_linear" x1="25.3351" y1="1" x2="25.3351" y2="42" gradientUnits="userSpaceOnUse">
<stop stop-color="#FBC039"/>
<stop offset="1" stop-color="#FBC039" stop-opacity="0"/>
</linearGradient>
<linearGradient id="paint8_linear" x1="25.3351" y1="1" x2="25.3351" y2="42" gradientUnits="userSpaceOnUse">
<stop stop-color="#FBC039"/>
<stop offset="1" stop-color="#FBC039" stop-opacity="0"/>
</linearGradient>
<linearGradient id="paint9_linear" x1="25.3351" y1="1" x2="25.3351" y2="42" gradientUnits="userSpaceOnUse">
<stop stop-color="#FBC039"/>
<stop offset="1" stop-color="#FBC039" stop-opacity="0"/>
</linearGradient>
<linearGradient id="paint10_linear" x1="25.3351" y1="1" x2="25.3351" y2="42" gradientUnits="userSpaceOnUse">
<stop stop-color="#FBC039"/>
<stop offset="1" stop-color="#FBC039" stop-opacity="0"/>
</linearGradient>
<linearGradient id="paint11_linear" x1="25.3351" y1="1" x2="25.3351" y2="42" gradientUnits="userSpaceOnUse">
<stop stop-color="#FBC039"/>
<stop offset="1" stop-color="#FBC039" stop-opacity="0"/>
</linearGradient>
<linearGradient id="paint12_linear" x1="25.3351" y1="1" x2="25.3351" y2="42" gradientUnits="userSpaceOnUse">
<stop stop-color="#FBC039"/>
<stop offset="1" stop-color="#FBC039" stop-opacity="0"/>
</linearGradient>
<linearGradient id="paint13_linear" x1="25.3351" y1="1" x2="25.3351" y2="42" gradientUnits="userSpaceOnUse">
<stop stop-color="#FBC039"/>
<stop offset="1" stop-color="#FBC039" stop-opacity="0"/>
</linearGradient>
<linearGradient id="paint14_linear" x1="25.3351" y1="1" x2="25.3351" y2="42" gradientUnits="userSpaceOnUse">
<stop stop-color="#FBC039"/>
<stop offset="1" stop-color="#FBC039" stop-opacity="0"/>
</linearGradient>
<linearGradient id="paint15_linear" x1="25.3351" y1="1" x2="25.3351" y2="42" gradientUnits="userSpaceOnUse">
<stop stop-color="#FBC039"/>
<stop offset="1" stop-color="#FBC039" stop-opacity="0"/>
</linearGradient>
<linearGradient id="paint16_linear" x1="25.3351" y1="1" x2="25.3351" y2="42" gradientUnits="userSpaceOnUse">
<stop stop-color="#FBC039"/>
<stop offset="1" stop-color="#FBC039" stop-opacity="0"/>
</linearGradient>
<linearGradient id="paint17_linear" x1="25.3351" y1="1" x2="25.3351" y2="42" gradientUnits="userSpaceOnUse">
<stop stop-color="#FBC039"/>
<stop offset="1" stop-color="#FBC039" stop-opacity="0"/>
</linearGradient>
</defs>
</svg>
