<svg width="49" height="60" viewBox="0 0 49 60" fill="none" xmlns="http://www.w3.org/2000/svg">
<path d="M28.1416 36.3323V32.0734C28.1416 30.3942 26.7072 29.0281 24.944 29.0281C23.1808 29.0281 21.7464 30.3942 21.7464 32.0734V35.9186C21.7464 40.5524 19.9539 45.0012 16.699 48.4454L12.2113 53.1943C11.8343 53.5933 11.8683 54.2079 12.2873 54.5671C12.7061 54.9262 13.3513 54.8938 13.7285 54.4948L18.2162 49.7458C21.8088 45.9439 23.7874 41.0334 23.7874 35.9186V32.0734C23.7874 31.466 24.3062 30.9719 24.944 30.9719C25.5818 30.9719 26.1006 31.466 26.1006 32.0734V36.3323C26.1006 42.0346 23.8825 47.4986 19.8549 51.7181L15.4804 56.3009C15.1013 56.6979 15.1321 57.3128 15.5491 57.6739C15.7446 57.8432 15.9903 57.9266 16.2352 57.9266C16.5128 57.9266 16.7892 57.8194 16.9906 57.6084L21.365 53.0256C25.735 48.4476 28.1416 42.5191 28.1416 36.3323Z" fill="url(#paint0_linear)"/>
<path d="M32.4962 32.0734C32.4962 28.1076 29.1085 24.8812 24.9444 24.8812C20.7803 24.8812 17.3926 28.1076 17.3926 32.0734V35.9186C17.3926 39.5263 15.997 42.9898 13.463 45.6713L10.2726 49.0475C9.89555 49.4465 9.92957 50.061 10.3485 50.4202C10.7675 50.7793 11.4126 50.7467 11.7898 50.3479L14.9802 46.9717C17.8521 43.9327 19.4337 40.0073 19.4337 35.9186V32.0734C19.4337 29.1794 21.9058 26.8251 24.9445 26.8251C27.9832 26.8251 30.4553 29.1794 30.4553 32.0734V36.3323C30.4553 43.0682 27.8352 49.5231 23.0772 54.5075L19.3864 58.3743C19.0071 58.7714 19.0379 59.3863 19.455 59.7473C19.6505 59.9167 19.8961 60 20.141 60C20.4186 60 20.6951 59.8928 20.8965 59.6819L24.5875 55.815C29.6875 50.4721 32.4962 43.553 32.4962 36.3323V32.0734Z" fill="url(#paint1_linear)"/>
<path d="M36.8505 32.0734C36.8505 25.821 31.5095 20.7344 24.9445 20.7344C18.3794 20.7344 13.0384 25.821 13.0384 32.0734V35.9186C13.0384 38.5001 12.0398 40.9785 10.2266 42.8972L7.35386 45.9371C6.97681 46.3361 7.01083 46.9506 7.42979 47.3098C7.84861 47.6689 8.49398 47.6363 8.87103 47.2375L11.7437 44.1976C13.8948 41.9214 15.0795 38.9811 15.0795 35.9186V32.0734C15.0795 26.8928 19.5048 22.6782 24.9445 22.6782C30.3841 22.6782 34.8095 26.8928 34.8095 32.0734V36.3323C34.8095 44.1022 31.7871 51.5477 26.299 57.2969L25.2776 58.3671C24.8985 58.7643 24.9292 59.379 25.3463 59.7401C25.5418 59.9093 25.7876 59.9928 26.0323 59.9928C26.3099 59.9928 26.5864 59.8856 26.7878 59.6746L27.8091 58.6045C33.6394 52.4965 36.8504 44.5869 36.8504 36.3323L36.8505 32.0734Z" fill="url(#paint2_linear)"/>
<path d="M8.68423 32.0734C8.68423 32.6103 9.14115 33.0454 9.70475 33.0454C10.2683 33.0454 10.7253 32.6103 10.7253 32.0734C10.7253 28.8007 11.9729 25.6392 14.2384 23.1713C16.4829 20.7263 19.5634 19.1274 22.9123 18.6692C23.4702 18.5929 23.8574 18.1002 23.7773 17.569C23.6971 17.0377 23.1794 16.6694 22.6221 16.7452C18.7904 17.2695 15.2673 19.0972 12.7018 21.892C10.1111 24.714 8.68423 28.33 8.68423 32.0734Z" fill="url(#paint3_linear)"/>
<path d="M10.7245 35.9186C10.7245 35.3817 10.2676 34.9467 9.704 34.9467C9.1404 34.9467 8.68349 35.3817 8.68349 35.9186C8.68349 37.4739 8.08192 38.9669 6.98956 40.1229L4.43432 42.827C4.05728 43.2259 4.09129 43.8404 4.51025 44.1997C4.70537 44.3668 4.94934 44.4491 5.19263 44.4491C5.47185 44.4491 5.75011 44.3405 5.95149 44.1273L8.50673 41.4233C9.93682 39.9098 10.7245 37.955 10.7245 35.9186Z" fill="url(#paint4_linear)"/>
<path d="M39.2015 44.5948C38.656 44.4595 38.0987 44.7698 37.9558 45.289C37.579 46.6599 37.1104 48.0228 36.5624 49.3397C36.3548 49.8387 36.6113 50.4036 37.1353 50.6012C37.2587 50.6478 37.3858 50.6698 37.511 50.6698C37.9172 50.6698 38.3013 50.4372 38.4601 50.0557C39.0382 48.6658 39.5328 47.2278 39.9304 45.781C40.073 45.2619 39.7466 44.7307 39.2015 44.5948Z" fill="url(#paint5_linear)"/>
<path d="M35.8042 20.5571C35.385 20.198 34.7397 20.2309 34.363 20.63C33.9862 21.0292 34.0205 21.6437 34.4396 22.0025C37.4414 24.5725 39.1629 28.2432 39.1629 32.0734V36.3323C39.1629 37.9486 39.0459 39.5774 38.815 41.1736C38.7381 41.7054 39.1284 42.1958 39.6867 42.269C39.7339 42.2752 39.7808 42.2782 39.8272 42.2782C40.329 42.2782 40.7665 41.9255 40.8369 41.4388C41.0804 39.755 41.204 38.0369 41.204 36.3321V32.0734C41.2041 27.6927 39.2359 23.4951 35.8042 20.5571Z" fill="url(#paint6_linear)"/>
<path d="M31.0338 19.8371C31.1754 19.9013 31.3247 19.9317 31.4718 19.9317C31.8532 19.9317 32.2191 19.727 32.3939 19.3773C32.6363 18.8927 32.4201 18.3127 31.9113 18.082C30.4409 17.4153 28.8782 16.9655 27.2665 16.7451C26.7078 16.6693 26.1914 17.0377 26.1112 17.5689C26.0311 18.1 26.4183 18.5927 26.9762 18.6691C28.3843 18.8618 29.7493 19.2547 31.0338 19.8371Z" fill="url(#paint7_linear)"/>
<path d="M24.9447 12.4406C24.5629 12.4406 24.1767 12.4507 23.7967 12.4707C23.2339 12.5002 22.8029 12.9587 22.8339 13.4946C22.865 14.0306 23.3459 14.4433 23.9091 14.4114C24.2519 14.3934 24.6002 14.3843 24.9446 14.3843C35.186 14.3843 43.518 22.3195 43.518 32.0733V36.3321C43.518 36.869 43.9749 37.3041 44.5385 37.3041C45.1021 37.3041 45.5591 36.869 45.5591 36.3321V32.0734C45.5592 21.2479 36.3115 12.4406 24.9447 12.4406Z" fill="url(#paint8_linear)"/>
<path d="M13.786 17.714C13.987 17.714 14.1901 17.6575 14.3677 17.5399C16.0656 16.4155 17.9303 15.576 19.9102 15.0443C20.4527 14.8986 20.7685 14.3616 20.6156 13.8451C20.4626 13.3285 19.8986 13.0281 19.3564 13.1733C17.1575 13.7637 15.0871 14.6958 13.2025 15.9438C12.7398 16.2503 12.6255 16.856 12.9473 17.2966C13.1455 17.5684 13.4631 17.714 13.786 17.714Z" fill="url(#paint9_linear)"/>
<path d="M6.3709 35.9186V32.0734C6.3709 27.5521 8.16878 23.246 11.4334 19.9484C11.8199 19.5578 11.801 18.9428 11.3909 18.5745C10.9808 18.2062 10.3349 18.2244 9.94829 18.6149C6.32518 22.2746 4.32986 27.0544 4.32986 32.0734V35.9186C4.32986 36.4477 4.12521 36.9556 3.75374 37.3486L2.49538 38.6802C2.11833 39.0792 2.15235 39.6937 2.5713 40.0528C2.76629 40.2201 3.0104 40.3024 3.25369 40.3024C3.5329 40.3024 3.81103 40.1939 4.01255 39.9807L5.27092 38.6492C5.98024 37.8984 6.3709 36.9286 6.3709 35.9186Z" fill="url(#paint10_linear)"/>
<path d="M48.6166 24.5059C47.4973 21.338 45.7185 18.476 43.3296 15.9994C42.9482 15.6042 42.3026 15.578 41.8876 15.9412C41.4726 16.3045 41.4453 16.9192 41.8265 17.3146C44.0209 19.5894 45.6547 22.2175 46.6823 25.1258C46.8257 25.5318 47.2233 25.788 47.6493 25.788C47.7572 25.788 47.867 25.7715 47.9749 25.7369C48.509 25.5657 48.7964 25.0146 48.6166 24.5059Z" fill="url(#paint11_linear)"/>
<path d="M33.0095 9.56657C32.4765 9.39279 31.896 9.6635 31.7135 10.1715C31.5311 10.6794 31.8155 11.2319 32.3487 11.4056C34.599 12.1389 36.7118 13.2013 38.6283 14.5636C38.8116 14.6938 39.0256 14.7565 39.2379 14.7565C39.549 14.7565 39.8562 14.6216 40.0566 14.3658C40.3938 13.9357 40.3007 13.3266 39.8491 13.0056C37.7622 11.5226 35.461 10.3654 33.0095 9.56657Z" fill="url(#paint12_linear)"/>
<path d="M9.08747 16.3164C13.3803 12.3964 19.0117 10.2376 24.9441 10.2376C26.0458 10.2376 27.1535 10.3131 28.2365 10.4619C28.7948 10.5394 29.3118 10.1701 29.3924 9.63875C29.4729 9.10743 29.0861 8.61473 28.5282 8.53801C27.3488 8.37603 26.1429 8.29374 24.9441 8.29374C18.4826 8.29374 12.3496 10.6446 7.67494 14.9133C3.01484 19.1688 0.289515 24.8794 0.00104848 30.9933C-0.0242604 31.5295 0.411705 31.9839 0.974623 32.0079C0.99027 32.0086 1.00578 32.0089 1.02129 32.0089C1.5638 32.0089 2.01542 31.602 2.04004 31.0806C2.3047 25.4679 4.80755 20.2245 9.08747 16.3164Z" fill="url(#paint13_linear)"/>
<path d="M24.944 4.14689C22.6619 4.14689 20.3878 4.39881 18.1849 4.89566C17.6364 5.01929 17.2972 5.54309 17.427 6.06533C17.557 6.58758 18.107 6.91078 18.6553 6.78702C20.7042 6.32516 22.82 6.09073 24.944 6.09073C32.4273 6.09073 39.4125 8.93017 44.6128 14.0858C44.8132 14.2844 45.0808 14.3845 45.3489 14.3845C45.6033 14.3845 45.858 14.2945 46.0558 14.1135C46.4623 13.7416 46.4753 13.1263 46.0848 12.7393C43.3753 10.0531 40.1925 7.93985 36.625 6.45877C32.9299 4.92469 28.9998 4.14689 24.944 4.14689Z" fill="url(#paint14_linear)"/>
<path d="M2.0204 16.2511C2.20709 16.3902 2.42875 16.4578 2.64891 16.4578C2.95193 16.4578 3.25183 16.3298 3.45307 16.0851C6.36155 12.547 10.1905 9.77184 14.526 8.05931C15.0466 7.85365 15.2937 7.28501 15.0777 6.7892C14.8618 6.29339 14.2644 6.0578 13.7441 6.26371C9.08498 8.10402 4.97065 11.0857 1.8461 14.8865C1.49858 15.3093 1.57668 15.9202 2.0204 16.2511Z" fill="url(#paint15_linear)"/>
<path d="M10.7932 5.01836C10.9421 5.01836 11.0933 4.98726 11.2361 4.92143C15.5329 2.94557 20.1447 1.94384 24.9435 1.94384C27.4442 1.94384 29.9348 2.22402 32.3458 2.77659C32.8935 2.90177 33.4448 2.58091 33.5767 2.05905C33.7085 1.53719 33.3712 1.01222 32.8231 0.886652C30.256 0.298315 27.6049 0 24.9435 0C19.8349 0 14.9246 1.06678 10.3488 3.17093C9.8413 3.40432 9.62849 3.9854 9.87355 4.46877C10.0495 4.81594 10.4139 5.01836 10.7932 5.01836Z" fill="url(#paint16_linear)"/>
<path d="M36.6116 4.06691C37.6637 4.46591 38.705 4.92466 39.7066 5.43019C39.8589 5.50717 40.0224 5.54358 40.1835 5.54358C40.5493 5.54358 40.9029 5.35581 41.0861 5.02652C41.3499 4.55222 41.1602 3.96401 40.6622 3.71261C39.5959 3.17442 38.487 2.686 37.3666 2.26107C36.8429 2.06241 36.2495 2.30578 36.0409 2.80431C35.8325 3.30298 36.088 3.86838 36.6116 4.06691Z" fill="url(#paint17_linear)"/>
<defs>
<linearGradient id="paint0_linear" x1="24.3351" y1="0" x2="24.3351" y2="40.5" gradientUnits="userSpaceOnUse">
<stop stop-color="#FBC039"/>
<stop offset="1" stop-color="#FBC039" stop-opacity="0"/>
</linearGradient>
<linearGradient id="paint1_linear" x1="24.3351" y1="0" x2="24.3351" y2="40.5" gradientUnits="userSpaceOnUse">
<stop stop-color="#FBC039"/>
<stop offset="1" stop-color="#FBC039" stop-opacity="0"/>
</linearGradient>
<linearGradient id="paint2_linear" x1="24.3351" y1="0" x2="24.3351" y2="40.5" gradientUnits="userSpaceOnUse">
<stop stop-color="#FBC039"/>
<stop offset="1" stop-color="#FBC039" stop-opacity="0"/>
</linearGradient>
<linearGradient id="paint3_linear" x1="24.3351" y1="0" x2="24.3351" y2="40.5" gradientUnits="userSpaceOnUse">
<stop stop-color="#FBC039"/>
<stop offset="1" stop-color="#FBC039" stop-opacity="0"/>
</linearGradient>
<linearGradient id="paint4_linear" x1="24.3351" y1="0" x2="24.3351" y2="40.5" gradientUnits="userSpaceOnUse">
<stop stop-color="#FBC039"/>
<stop offset="1" stop-color="#FBC039" stop-opacity="0"/>
</linearGradient>
<linearGradient id="paint5_linear" x1="24.3351" y1="0" x2="24.3351" y2="40.5" gradientUnits="userSpaceOnUse">
<stop stop-color="#FBC039"/>
<stop offset="1" stop-color="#FBC039" stop-opacity="0"/>
</linearGradient>
<linearGradient id="paint6_linear" x1="24.3351" y1="0" x2="24.3351" y2="40.5" gradientUnits="userSpaceOnUse">
<stop stop-color="#FBC039"/>
<stop offset="1" stop-color="#FBC039" stop-opacity="0"/>
</linearGradient>
<linearGradient id="paint7_linear" x1="24.3351" y1="0" x2="24.3351" y2="40.5" gradientUnits="userSpaceOnUse">
<stop stop-color="#FBC039"/>
<stop offset="1" stop-color="#FBC039" stop-opacity="0"/>
</linearGradient>
<linearGradient id="paint8_linear" x1="24.3351" y1="0" x2="24.3351" y2="40.5" gradientUnits="userSpaceOnUse">
<stop stop-color="#FBC039"/>
<stop offset="1" stop-color="#FBC039" stop-opacity="0"/>
</linearGradient>
<linearGradient id="paint9_linear" x1="24.3351" y1="0" x2="24.3351" y2="40.5" gradientUnits="userSpaceOnUse">
<stop stop-color="#FBC039"/>
<stop offset="1" stop-color="#FBC039" stop-opacity="0"/>
</linearGradient>
<linearGradient id="paint10_linear" x1="24.3351" y1="0" x2="24.3351" y2="40.5" gradientUnits="userSpaceOnUse">
<stop stop-color="#FBC039"/>
<stop offset="1" stop-color="#FBC039" stop-opacity="0"/>
</linearGradient>
<linearGradient id="paint11_linear" x1="24.3351" y1="0" x2="24.3351" y2="40.5" gradientUnits="userSpaceOnUse">
<stop stop-color="#FBC039"/>
<stop offset="1" stop-color="#FBC039" stop-opacity="0"/>
</linearGradient>
<linearGradient id="paint12_linear" x1="24.3351" y1="0" x2="24.3351" y2="40.5" gradientUnits="userSpaceOnUse">
<stop stop-color="#FBC039"/>
<stop offset="1" stop-color="#FBC039" stop-opacity="0"/>
</linearGradient>
<linearGradient id="paint13_linear" x1="24.3351" y1="0" x2="24.3351" y2="40.5" gradientUnits="userSpaceOnUse">
<stop stop-color="#FBC039"/>
<stop offset="1" stop-color="#FBC039" stop-opacity="0"/>
</linearGradient>
<linearGradient id="paint14_linear" x1="24.3351" y1="0" x2="24.3351" y2="40.5" gradientUnits="userSpaceOnUse">
<stop stop-color="#FBC039"/>
<stop offset="1" stop-color="#FBC039" stop-opacity="0"/>
</linearGradient>
<linearGradient id="paint15_linear" x1="24.3351" y1="0" x2="24.3351" y2="40.5" gradientUnits="userSpaceOnUse">
<stop stop-color="#FBC039"/>
<stop offset="1" stop-color="#FBC039" stop-opacity="0"/>
</linearGradient>
<linearGradient id="paint16_linear" x1="24.3351" y1="0" x2="24.3351" y2="40.5" gradientUnits="userSpaceOnUse">
<stop stop-color="#FBC039"/>
<stop offset="1" stop-color="#FBC039" stop-opacity="0"/>
</linearGradient>
<linearGradient id="paint17_linear" x1="24.3351" y1="0" x2="24.3351" y2="40.5" gradientUnits="userSpaceOnUse">
<stop stop-color="#FBC039"/>
<stop offset="1" stop-color="#FBC039" stop-opacity="0"/>
</linearGradient>
</defs>
</svg>
