<svg width="14" height="14" viewBox="0 0 14 14" fill="none" xmlns="http://www.w3.org/2000/svg">
<g clip-path="url(#clip0)">
<path d="M12.6841 3.12926L12.375 2.20267C12.2573 1.84976 11.9282 1.61264 11.5563 1.61264H8.9583V0.7668C8.9583 0.34404 8.61458 0 8.19193 0H5.81281C5.39026 0 5.04643 0.34404 5.04643 0.7668V1.61264H2.44856C2.07654 1.61264 1.74745 1.84976 1.62975 2.20267L1.32063 3.12926C1.25024 3.34021 1.28592 3.57381 1.41591 3.75421C1.5459 3.93462 1.75621 4.04239 1.97859 4.04239H2.3017L3.01285 12.8363C3.06572 13.4888 3.61943 14 4.27365 14H9.87538C10.5295 14 11.0833 13.4888 11.1361 12.8362L11.8472 4.04239H12.0261C12.2485 4.04239 12.4588 3.93462 12.5888 3.75432C12.7188 3.57391 12.7545 3.34021 12.6841 3.12926ZM5.86675 0.820312H8.13799V1.61264H5.86675V0.820312ZM10.3184 12.7701C10.2999 12.9998 10.1052 13.1797 9.87538 13.1797H4.27365C4.04379 13.1797 3.84918 12.9998 3.8306 12.7701L3.12468 4.04239H11.0242L10.3184 12.7701ZM2.15451 3.22208L2.40797 2.46222C2.41374 2.4447 2.43008 2.43295 2.44856 2.43295H11.5563C11.5748 2.43295 11.591 2.4447 11.5969 2.46222L11.8503 3.22208H2.15451Z" fill="rgb(255, 191, 66)"/>
<path d="M9.00992 12.741C9.01718 12.7414 9.02434 12.7415 9.0316 12.7415C9.24832 12.7415 9.42947 12.5717 9.44079 12.3527L9.82596 4.95904C9.8377 4.73282 9.66382 4.53981 9.4377 4.52806C9.21093 4.51599 9.01857 4.69009 9.00671 4.91632L8.62166 12.31C8.60991 12.5363 8.78369 12.7293 9.00992 12.741Z" fill="rgb(255, 191, 66)"/>
<path d="M4.58167 12.3538C4.59363 12.5724 4.77457 12.7416 4.99086 12.7416C4.99834 12.7416 5.00603 12.7414 5.01361 12.741C5.23973 12.7287 5.41309 12.5353 5.40081 12.3091L4.99738 4.9154C4.9851 4.68918 4.79177 4.51582 4.56554 4.52821C4.33942 4.5405 4.16607 4.73383 4.17835 4.96005L4.58167 12.3538Z" fill="rgb(255, 191, 66)"/>
<path d="M7.00683 12.7416C7.23338 12.7416 7.41699 12.558 7.41699 12.3315V4.93774C7.41699 4.7112 7.23338 4.52759 7.00683 4.52759C6.78029 4.52759 6.59668 4.7112 6.59668 4.93774V12.3315C6.59668 12.558 6.78029 12.7416 7.00683 12.7416Z" fill="rgb(255, 191, 66)"/>
</g>
<defs>
<clipPath id="clip0">
<rect width="14" height="14" fill="white"/>
</clipPath>
</defs>
</svg>
