<svg width="15" height="15" viewBox="0 0 15 15" fill="none" xmlns="http://www.w3.org/2000/svg">
<path d="M11.7188 5.50781H10.663V3.09873C10.663 1.39008 9.24357 0 7.49892 0C5.75426 0 4.33485 1.39008 4.33485 3.09873V5.50781H3.28125C2.31199 5.50781 1.52344 6.29637 1.52344 7.26562V13.2422C1.52344 14.2114 2.31199 15 3.28125 15H11.7188C12.688 15 13.4766 14.2114 13.4766 13.2422V7.26562C13.4766 6.29637 12.688 5.50781 11.7188 5.50781ZM5.50673 3.09873C5.50673 2.03625 6.40043 1.17188 7.49892 1.17188C8.5974 1.17188 9.4911 2.03625 9.4911 3.09873V5.50781H5.50673V3.09873ZM12.3047 13.2422C12.3047 13.5653 12.0418 13.8281 11.7188 13.8281H3.28125C2.95816 13.8281 2.69531 13.5653 2.69531 13.2422V7.26562C2.69531 6.94254 2.95816 6.67969 3.28125 6.67969H11.7188C12.0418 6.67969 12.3047 6.94254 12.3047 7.26562V13.2422Z" fill="rgb(255, 191, 66)"/>
<path d="M7.5 8.37891C6.90132 8.37891 6.41602 8.86421 6.41602 9.46289C6.41602 9.84516 6.61406 10.181 6.91298 10.374V11.6602C6.91298 11.9837 7.1753 12.2461 7.49892 12.2461C7.8225 12.2461 8.08485 11.9837 8.08485 11.6602V10.3753C8.38497 10.1826 8.58398 9.84609 8.58398 9.46289C8.58398 8.86421 8.09868 8.37891 7.5 8.37891Z" fill="rgb(255, 191, 66)"/>
</svg>
