<svg width="55" height="50" viewBox="0 0 55 50" fill="none" xmlns="http://www.w3.org/2000/svg">
<rect x="0.5" y="38.5" width="18" height="11" rx="3.5" fill="white" stroke="black"/>
<rect x="18.5" y="22.5" width="18" height="11" rx="3.5" fill="white" stroke="black"/>
<rect x="36.5" y="6.5" width="18" height="11" rx="3.5" fill="white" stroke="black"/>
<rect x="3" y="41" width="13" height="2" rx="1" fill="black"/>
<rect x="21" y="25" width="13" height="2" rx="1" fill="black"/>
<rect x="39" y="9" width="13" height="2" rx="1" fill="black"/>
<rect x="3" y="45" width="13" height="2" rx="1" fill="black"/>
<rect x="21" y="29" width="13" height="2" rx="1" fill="black"/>
<rect x="39" y="13" width="13" height="2" rx="1" fill="black"/>
<circle cx="9.5" cy="35.5" r="3" fill="white" stroke="black"/>
<circle cx="27.5" cy="19.5" r="3" fill="white" stroke="black"/>
<circle cx="45.5" cy="3.5" r="3" fill="white" stroke="black"/>
<path fill-rule="evenodd" clip-rule="evenodd" d="M24 19H14C11.2386 19 9 21.2386 9 24V32H10V24C10 21.7909 11.7909 20 14 20H24V19Z" fill="black"/>
<path fill-rule="evenodd" clip-rule="evenodd" d="M42 3H32C29.2386 3 27 5.23858 27 8V16H28V8C28 5.79086 29.7909 4 32 4H42V3Z" fill="black"/>
</svg>
