<svg width="62" height="29" viewBox="0 0 62 29" fill="none" xmlns="http://www.w3.org/2000/svg">
<mask id="path-1-inside-1" fill="white">
<path fill-rule="evenodd" clip-rule="evenodd" d="M0 4C0 1.79086 1.79086 0 4 0H18C20.2091 0 22 1.79086 22 4V10V15C22 17.2091 20.2091 19 18 19C20.2091 19 22 20.7909 22 23V25C22 27.2091 20.2091 29 18 29H4C1.79086 29 0 27.2091 0 25V19V14C0 11.7909 1.79086 10 4 10C1.79086 10 0 8.20914 0 6V4Z"/>
</mask>
<path fill-rule="evenodd" clip-rule="evenodd" d="M0 4C0 1.79086 1.79086 0 4 0H18C20.2091 0 22 1.79086 22 4V10V15C22 17.2091 20.2091 19 18 19C20.2091 19 22 20.7909 22 23V25C22 27.2091 20.2091 29 18 29H4C1.79086 29 0 27.2091 0 25V19V14C0 11.7909 1.79086 10 4 10C1.79086 10 0 8.20914 0 6V4Z" fill="white"/>
<path d="M18 18C17.4477 18 17 18.4477 17 19C17 19.5523 17.4477 20 18 20V18ZM4 11C4.55228 11 5 10.5523 5 10C5 9.44771 4.55228 9 4 9V11ZM4 -1C1.23858 -1 -1 1.23858 -1 4H1C1 2.34315 2.34315 1 4 1V-1ZM18 -1H4V1H18V-1ZM23 4C23 1.23858 20.7614 -1 18 -1V1C19.6569 1 21 2.34315 21 4H23ZM23 10V4H21V10H23ZM23 15V10H21V15H23ZM18 20C20.7614 20 23 17.7614 23 15H21C21 16.6569 19.6569 18 18 18V20ZM18 20C19.6569 20 21 21.3431 21 23H23C23 20.2386 20.7614 18 18 18V20ZM21 23V25H23V23H21ZM21 25C21 26.6569 19.6569 28 18 28V30C20.7614 30 23 27.7614 23 25H21ZM18 28H4V30H18V28ZM4 28C2.34315 28 1 26.6569 1 25H-1C-1 27.7614 1.23858 30 4 30V28ZM1 25V19H-1V25H1ZM-1 14V19H1V14H-1ZM4 9C1.23858 9 -1 11.2386 -1 14H1C1 12.3431 2.34315 11 4 11V9ZM-1 6C-1 8.76142 1.23858 11 4 11V9C2.34315 9 1 7.65685 1 6H-1ZM-1 4V6H1V4H-1Z" fill="black" mask="url(#path-1-inside-1)"/>
<path d="M4 9H12C12.5523 9 13 9.44772 13 10C13 10.5523 12.5523 11 12 11H4V9Z" fill="black"/>
<path d="M18 18H10C9.44771 18 9 18.4477 9 19C9 19.5523 9.44771 20 10 20H18V18Z" fill="black"/>
<mask id="path-5-inside-2" fill="white">
<path fill-rule="evenodd" clip-rule="evenodd" d="M40 4C40 1.79086 41.7909 0 44 0H58C60.2091 0 62 1.79086 62 4V10V15C62 17.2091 60.2091 19 58 19C60.2091 19 62 20.7909 62 23V25C62 27.2091 60.2091 29 58 29H44C41.7909 29 40 27.2091 40 25V19V14C40 11.7909 41.7909 10 44 10C41.7909 10 40 8.20914 40 6V4Z"/>
</mask>
<path fill-rule="evenodd" clip-rule="evenodd" d="M40 4C40 1.79086 41.7909 0 44 0H58C60.2091 0 62 1.79086 62 4V10V15C62 17.2091 60.2091 19 58 19C60.2091 19 62 20.7909 62 23V25C62 27.2091 60.2091 29 58 29H44C41.7909 29 40 27.2091 40 25V19V14C40 11.7909 41.7909 10 44 10C41.7909 10 40 8.20914 40 6V4Z" fill="white"/>
<path d="M58 18C57.4477 18 57 18.4477 57 19C57 19.5523 57.4477 20 58 20V18ZM44 11C44.5523 11 45 10.5523 45 10C45 9.44771 44.5523 9 44 9V11ZM44 -1C41.2386 -1 39 1.23858 39 4H41C41 2.34315 42.3431 1 44 1V-1ZM58 -1H44V1H58V-1ZM63 4C63 1.23858 60.7614 -1 58 -1V1C59.6569 1 61 2.34315 61 4H63ZM63 10V4H61V10H63ZM63 15V10H61V15H63ZM58 20C60.7614 20 63 17.7614 63 15H61C61 16.6569 59.6569 18 58 18V20ZM58 20C59.6569 20 61 21.3431 61 23H63C63 20.2386 60.7614 18 58 18V20ZM61 23V25H63V23H61ZM61 25C61 26.6569 59.6569 28 58 28V30C60.7614 30 63 27.7614 63 25H61ZM58 28H44V30H58V28ZM44 28C42.3431 28 41 26.6569 41 25H39C39 27.7614 41.2386 30 44 30V28ZM41 25V19H39V25H41ZM39 14V19H41V14H39ZM44 9C41.2386 9 39 11.2386 39 14H41C41 12.3431 42.3431 11 44 11V9ZM39 6C39 8.76142 41.2386 11 44 11V9C42.3431 9 41 7.65685 41 6H39ZM39 4V6H41V4H39Z" fill="black" mask="url(#path-5-inside-2)"/>
<path d="M44 9H52C52.5523 9 53 9.44772 53 10C53 10.5523 52.5523 11 52 11H44V9Z" fill="black"/>
<path d="M58 18H50C49.4477 18 49 18.4477 49 19C49 19.5523 49.4477 20 50 20H58V18Z" fill="black"/>
<mask id="path-9-inside-3" fill="white">
<path fill-rule="evenodd" clip-rule="evenodd" d="M36.739 12.9139C35.958 12.1329 34.6916 12.1329 33.9106 12.9139L31.1373 15.6872L28.364 12.9139C27.5829 12.1329 26.3166 12.1329 25.5355 12.9139L23.4142 15.0352C22.6332 15.8163 22.6332 17.0826 23.4142 17.8637L26.1875 20.637L23.4139 23.4106C22.6329 24.1916 22.6329 25.458 23.4139 26.239L25.5352 28.3603C26.3163 29.1414 27.5826 29.1414 28.3637 28.3603L31.1373 25.5867L33.9109 28.3603C34.6919 29.1414 35.9583 29.1414 36.7393 28.3603L38.8606 26.239C39.6417 25.458 39.6417 24.1916 38.8606 23.4106L36.087 20.637L38.8603 17.8637C39.6414 17.0826 39.6414 15.8163 38.8603 15.0352L36.739 12.9139Z"/>
</mask>
<path fill-rule="evenodd" clip-rule="evenodd" d="M36.739 12.9139C35.958 12.1329 34.6916 12.1329 33.9106 12.9139L31.1373 15.6872L28.364 12.9139C27.5829 12.1329 26.3166 12.1329 25.5355 12.9139L23.4142 15.0352C22.6332 15.8163 22.6332 17.0826 23.4142 17.8637L26.1875 20.637L23.4139 23.4106C22.6329 24.1916 22.6329 25.458 23.4139 26.239L25.5352 28.3603C26.3163 29.1414 27.5826 29.1414 28.3637 28.3603L31.1373 25.5867L33.9109 28.3603C34.6919 29.1414 35.9583 29.1414 36.7393 28.3603L38.8606 26.239C39.6417 25.458 39.6417 24.1916 38.8606 23.4106L36.087 20.637L38.8603 17.8637C39.6414 17.0826 39.6414 15.8163 38.8603 15.0352L36.739 12.9139Z" fill="white"/>
<path fill-rule="evenodd" clip-rule="evenodd" d="M36.739 12.9139C35.958 12.1329 34.6916 12.1329 33.9106 12.9139L31.1373 15.6872L28.364 12.9139C27.5829 12.1329 26.3166 12.1329 25.5355 12.9139L23.4142 15.0352C22.6332 15.8163 22.6332 17.0826 23.4142 17.8637L26.1875 20.637L23.4139 23.4106C22.6329 24.1916 22.6329 25.458 23.4139 26.239L25.5352 28.3603C26.3163 29.1414 27.5826 29.1414 28.3637 28.3603L31.1373 25.5867L33.9109 28.3603C34.6919 29.1414 35.9583 29.1414 36.7393 28.3603L38.8606 26.239C39.6417 25.458 39.6417 24.1916 38.8606 23.4106L36.087 20.637L38.8603 17.8637C39.6414 17.0826 39.6414 15.8163 38.8603 15.0352L36.739 12.9139Z" fill="white"/>
<path fill-rule="evenodd" clip-rule="evenodd" d="M36.739 12.9139C35.958 12.1329 34.6916 12.1329 33.9106 12.9139L31.1373 15.6872L28.364 12.9139C27.5829 12.1329 26.3166 12.1329 25.5355 12.9139L23.4142 15.0352C22.6332 15.8163 22.6332 17.0826 23.4142 17.8637L26.1875 20.637L23.4139 23.4106C22.6329 24.1916 22.6329 25.458 23.4139 26.239L25.5352 28.3603C26.3163 29.1414 27.5826 29.1414 28.3637 28.3603L31.1373 25.5867L33.9109 28.3603C34.6919 29.1414 35.9583 29.1414 36.7393 28.3603L38.8606 26.239C39.6417 25.458 39.6417 24.1916 38.8606 23.4106L36.087 20.637L38.8603 17.8637C39.6414 17.0826 39.6414 15.8163 38.8603 15.0352L36.739 12.9139Z" fill="white"/>
<path d="M33.9106 12.9139L33.2035 12.2068V12.2068L33.9106 12.9139ZM36.739 12.9139L36.0319 13.621L36.0319 13.621L36.739 12.9139ZM31.1373 15.6872L30.4302 16.3943L31.1373 17.1014L31.8444 16.3943L31.1373 15.6872ZM28.364 12.9139L27.6569 13.621V13.621L28.364 12.9139ZM25.5355 12.9139L24.8284 12.2068V12.2068L25.5355 12.9139ZM23.4142 15.0352L24.1213 15.7424L23.4142 15.0352ZM23.4142 17.8637L22.7071 18.5708H22.7071L23.4142 17.8637ZM26.1875 20.637L26.8946 21.3441L27.6017 20.637L26.8946 19.9299L26.1875 20.637ZM23.4139 23.4106L22.7068 22.7035H22.7068L23.4139 23.4106ZM23.4139 26.239L24.121 25.5319L24.121 25.5319L23.4139 26.239ZM25.5352 28.3603L24.8281 29.0674L24.8281 29.0674L25.5352 28.3603ZM28.3637 28.3603L29.0708 29.0674H29.0708L28.3637 28.3603ZM31.1373 25.5867L31.8444 24.8796L31.1373 24.1725L30.4302 24.8796L31.1373 25.5867ZM33.9109 28.3603L34.618 27.6532H34.618L33.9109 28.3603ZM36.7393 28.3603L37.4464 29.0675L36.7393 28.3603ZM38.8606 26.239L38.1535 25.5319V25.5319L38.8606 26.239ZM38.8606 23.4106L38.1535 24.1177V24.1177L38.8606 23.4106ZM36.087 20.637L35.3799 19.9299L34.6728 20.637L35.3799 21.3441L36.087 20.637ZM38.8603 17.8637L38.1532 17.1566V17.1566L38.8603 17.8637ZM38.8603 15.0352L39.5674 14.3281L39.5674 14.3281L38.8603 15.0352ZM34.6177 13.621C35.0082 13.2305 35.6414 13.2305 36.0319 13.621L37.4461 12.2068C36.2745 11.0352 34.3751 11.0352 33.2035 12.2068L34.6177 13.621ZM31.8444 16.3943L34.6177 13.621L33.2035 12.2068L30.4302 14.9801L31.8444 16.3943ZM31.8444 14.9801L29.0711 12.2068L27.6569 13.621L30.4302 16.3943L31.8444 14.9801ZM29.0711 12.2068C27.8995 11.0352 26 11.0352 24.8284 12.2068L26.2426 13.621C26.6332 13.2305 27.2663 13.2305 27.6569 13.621L29.0711 12.2068ZM24.8284 12.2068L22.7071 14.3281L24.1213 15.7424L26.2426 13.621L24.8284 12.2068ZM22.7071 14.3281C21.5355 15.4997 21.5355 17.3992 22.7071 18.5708L24.1213 17.1566C23.7308 16.766 23.7308 16.1329 24.1213 15.7424L22.7071 14.3281ZM22.7071 18.5708L25.4804 21.3441L26.8946 19.9299L24.1213 17.1566L22.7071 18.5708ZM24.121 24.1177L26.8946 21.3441L25.4804 19.9299L22.7068 22.7035L24.121 24.1177ZM24.121 25.5319C23.7305 25.1414 23.7305 24.5082 24.121 24.1177L22.7068 22.7035C21.5352 23.8751 21.5352 25.7745 22.7068 26.9461L24.121 25.5319ZM26.2423 27.6532L24.121 25.5319L22.7068 26.9461L24.8281 29.0674L26.2423 27.6532ZM27.6566 27.6532C27.266 28.0438 26.6329 28.0438 26.2423 27.6532L24.8281 29.0674C25.9997 30.239 27.8992 30.239 29.0708 29.0674L27.6566 27.6532ZM30.4302 24.8796L27.6566 27.6532L29.0708 29.0674L31.8444 26.2938L30.4302 24.8796ZM30.4302 26.2938L33.2038 29.0675L34.618 27.6532L31.8444 24.8796L30.4302 26.2938ZM33.2038 29.0675C34.3754 30.239 36.2748 30.239 37.4464 29.0675L36.0322 27.6532C35.6417 28.0438 35.0085 28.0438 34.618 27.6532L33.2038 29.0675ZM37.4464 29.0675L39.5677 26.9461L38.1535 25.5319L36.0322 27.6532L37.4464 29.0675ZM39.5677 26.9461C40.7393 25.7746 40.7393 23.8751 39.5677 22.7035L38.1535 24.1177C38.5441 24.5082 38.5441 25.1414 38.1535 25.5319L39.5677 26.9461ZM39.5677 22.7035L36.7941 19.9299L35.3799 21.3441L38.1535 24.1177L39.5677 22.7035ZM38.1532 17.1566L35.3799 19.9299L36.7941 21.3441L39.5674 18.5708L38.1532 17.1566ZM38.1532 15.7423C38.5438 16.1329 38.5438 16.766 38.1532 17.1566L39.5674 18.5708C40.739 17.3992 40.739 15.4997 39.5674 14.3281L38.1532 15.7423ZM36.0319 13.621L38.1532 15.7423L39.5674 14.3281L37.4461 12.2068L36.0319 13.621Z" fill="black" mask="url(#path-9-inside-3)"/>
</svg>
