<svg width="59" height="59" viewBox="0 0 59 59" fill="none" xmlns="http://www.w3.org/2000/svg">
<g clip-path="url(#clip0)">
<path d="M36.0553 16.5229C36.2804 16.7479 36.5752 16.8604 36.8701 16.8604C37.165 16.8604 37.46 16.7479 37.6849 16.5229C38.1349 16.0729 38.1349 15.3432 37.6849 14.8931L37.6694 14.8775C37.2194 14.4275 36.4897 14.4275 36.0396 14.8775C35.5897 15.3275 35.5897 16.0572 36.0396 16.5073L36.0553 16.5229Z" fill="black"/>
<path d="M54.646 27.4258L58.6625 23.4093C58.9921 23.0797 59.0906 22.584 58.9122 22.1535C58.7338 21.7228 58.3137 21.4421 57.8475 21.4421H49.5217C48.4335 16.9872 46.1494 12.9278 42.8842 9.66252C38.1397 4.91774 31.8312 2.30469 25.1211 2.30469C18.411 2.30469 12.1025 4.91774 7.35783 9.66252C2.61305 14.4073 0 20.7157 0 27.4258C0 34.1359 2.61305 40.4444 7.35783 45.189C8.76876 46.6 10.3188 47.8208 11.9757 48.842L8.50407 54.9753C8.30218 55.3321 8.30494 55.7693 8.51144 56.1233C8.71783 56.4775 9.09683 56.6953 9.50684 56.6953H15.4414C15.8566 56.6953 16.2397 56.472 16.4443 56.1106L18.899 51.7738C20.9081 52.2834 22.9943 52.5469 25.1211 52.5469C27.2479 52.5469 29.3341 52.2834 31.3432 51.7738L33.7979 56.1106C34.0024 56.472 34.3856 56.6953 34.8008 56.6953H40.7354C41.1454 56.6953 41.5244 56.4775 41.7309 56.1234C41.9374 55.7693 41.9401 55.3321 41.7382 54.9754L38.2666 48.8421C39.9235 47.8208 41.4735 46.6001 42.8845 45.1892C46.1484 41.9253 48.4336 37.8642 49.5217 33.4096H57.8477C58.3137 33.4096 58.7339 33.1287 58.9123 32.6982C59.0907 32.2677 58.992 31.772 58.6626 31.4424L54.646 27.4258ZM52.5389 26.2734H44.4968L47.0235 23.7468H55.0657L52.5389 26.2734ZM14.7695 54.3906H11.4832L13.9914 49.9595C14.8522 50.3857 15.7359 50.7626 16.6401 51.0859L14.7695 54.3906ZM38.759 54.3906H35.4727L33.6021 51.0859C34.5062 50.7626 35.39 50.3857 36.2508 49.9595L38.759 54.3906ZM41.2547 43.5594C39.7325 45.0816 38.0323 46.361 36.2021 47.3808C36.1796 47.3918 36.1567 47.4021 36.1345 47.4147C36.1206 47.4226 36.1079 47.4317 36.0944 47.4401C34.6905 48.2124 33.2111 48.8325 31.6761 49.2905C31.6157 49.3025 31.556 49.3202 31.4971 49.3423C29.4513 49.9344 27.31 50.2422 25.1211 50.2422C22.9322 50.2422 20.7909 49.9344 18.7451 49.3424C18.6861 49.3203 18.6264 49.3026 18.5659 49.2906C17.0309 48.8326 15.5516 48.2126 14.1478 47.4403C14.1343 47.4319 14.1216 47.4227 14.1077 47.4148C14.0854 47.4022 14.0627 47.3919 14.0402 47.3809C12.21 46.3611 10.5098 45.0818 8.98759 43.5594C4.67806 39.25 2.30469 33.5203 2.30469 27.4258C2.30469 21.3313 4.67805 15.6016 8.98747 11.2922C13.2969 6.98274 19.0266 4.60938 25.1211 4.60938C31.2156 4.60938 36.9453 6.98274 41.2547 11.2922C44.0864 14.1238 46.106 17.6121 47.143 21.4421H46.5463C46.2407 21.4421 45.9475 21.5636 45.7315 21.7796L42.673 24.8381C42.3644 22.743 41.6871 20.7059 40.6643 18.8533C40.3567 18.2961 39.6556 18.094 39.0984 18.4014C38.5413 18.709 38.3391 19.4101 38.6466 19.9672C39.7405 21.9486 40.3516 24.1028 40.508 26.2736H35.4271C35.1706 23.9394 34.1391 21.777 32.4546 20.0925C30.4957 18.1335 27.8913 17.0547 25.1211 17.0547C22.3509 17.0547 19.7464 18.1335 17.7877 20.0923C15.8288 22.0513 14.75 24.6555 14.75 27.4258C14.75 30.196 15.8288 32.8004 17.7876 34.7592C19.7464 36.7181 22.3509 37.7969 25.1211 37.7969C27.8913 37.7969 30.4957 36.7181 32.4545 34.7593C34.139 33.0748 35.1705 30.9124 35.427 28.5781H40.5029C40.2281 32.1804 38.708 35.6761 36.0398 38.3445C33.1233 41.2611 29.2456 42.8672 25.1211 42.8672C20.9966 42.8672 17.1189 41.2611 14.2024 38.3445C11.2858 35.428 9.67969 31.5504 9.67969 27.4258C9.67969 23.3012 11.2858 19.4236 14.2024 16.5071C19.0402 11.6693 26.5972 10.5974 32.5798 13.9004C33.1368 14.2078 33.8379 14.0057 34.1456 13.4485C34.4531 12.8914 34.2509 12.1904 33.6937 11.8827C30.3928 10.0603 26.5061 9.33398 22.7498 9.83802C18.8681 10.3586 15.3489 12.1012 12.5728 14.8774C9.22094 18.2293 7.375 22.6856 7.375 27.4258C7.375 32.1659 9.22094 36.6224 12.5726 39.9741C15.9245 43.3259 20.3809 45.1719 25.1211 45.1719C29.8613 45.1719 34.3177 43.3259 37.6694 39.9742C40.393 37.2508 42.1208 33.8121 42.6771 30.0177L45.7313 33.072C45.9474 33.2881 46.2406 33.4096 46.5462 33.4096H47.1426C46.1056 37.2394 44.0852 40.7289 41.2547 43.5594ZM28.8846 25.2529C28.5665 24.7016 27.8617 24.5129 27.3105 24.8312L24.5449 26.4279C24.1884 26.6337 23.9688 27.014 23.9688 27.4258C23.9688 27.8375 24.1884 28.2179 24.5449 28.4237L27.3105 30.0204C27.492 30.1251 27.6901 30.1749 27.8857 30.1749C28.2839 30.1749 28.6712 29.9683 28.8846 29.5986C29.0717 29.2748 29.0824 28.8984 28.9486 28.5781H33.1053C32.8612 30.2955 32.0733 31.8812 30.8249 33.1295C29.3013 34.6532 27.2757 35.4922 25.1211 35.4922C22.9664 35.4922 20.9409 34.6532 19.4172 33.1295C17.8937 31.606 17.0547 29.5804 17.0547 27.4258C17.0547 25.2711 17.8937 23.2455 19.4173 21.7219C20.9409 20.1984 22.9664 19.3594 25.1211 19.3594C27.2757 19.3594 29.3013 20.1984 30.825 21.722C32.0733 22.9704 32.8613 24.5561 33.1055 26.2734H28.9487C29.0824 25.9531 29.0717 25.5767 28.8846 25.2529ZM47.0235 31.1048L44.4968 28.5781H52.5389L55.0657 31.1048H47.0235Z" fill="black"/>
</g>
<defs>
<clipPath id="clip0">
<rect width="59" height="59" fill="white"/>
</clipPath>
</defs>
</svg>
