<svg width="56" height="56" viewBox="0 0 56 56" fill="none" xmlns="http://www.w3.org/2000/svg">
<g clip-path="url(#clip0)">
<path d="M54.6767 26.203C53.8384 25.4297 52.6981 24.952 51.5479 24.8922C50.2419 24.8247 49.0182 25.2904 48.1069 26.2021L41.8802 32.3634C41.7572 32.1502 41.6166 31.949 41.459 31.7623C40.6929 30.8527 39.5727 30.352 38.305 30.352H29.5883C27.9447 30.352 26.3413 30.1388 24.8228 29.7188C20.864 28.6237 17.082 29.4235 13.8849 32.0332C12.5848 33.0944 11.6363 34.2489 11.0365 35.0905L9.47359 33.5738C9.26809 33.3743 8.98952 33.2611 8.70284 33.2611C8.70028 33.2611 8.69814 33.2611 8.69558 33.2611C8.39864 33.2632 8.11153 33.3867 7.9056 33.6003L0.307881 41.4877C0.104512 41.6988 -0.00614506 41.9825 0.000263632 42.2755C0.00667233 42.5691 0.129292 42.8476 0.341633 43.0497L13.1919 55.2856C13.4051 55.4886 13.6786 55.5898 13.9516 55.5898C14.2382 55.5898 14.5249 55.4783 14.7407 55.257L22.2675 47.5349C22.473 47.3239 22.5871 47.0355 22.5815 46.7407C22.576 46.4502 22.4542 46.1699 22.2457 45.9674L21.5903 45.3316L23.0904 45.1629C23.9978 45.0573 24.9207 45.0039 25.8341 45.0039H39.0963C41.2513 45.0039 43.0816 44.5327 44.5368 43.603C44.5488 43.5953 44.5608 43.5872 44.5727 43.5791C45.094 43.2168 45.5669 42.7874 45.9779 42.3033L54.9151 31.7892C56.4446 29.9901 56.3489 27.7449 54.6767 26.203ZM13.9229 52.9396L2.66329 42.2183L8.7289 35.9211L19.9228 46.7838L13.9229 52.9396ZM53.2364 30.3622L44.2993 40.8767C44.0156 41.2104 43.6905 41.5069 43.332 41.7581C42.2395 42.4499 40.8147 42.8011 39.0963 42.8011H25.8337C24.8361 42.8011 23.8274 42.8596 22.84 42.9745L19.5425 43.3445L12.6382 36.6444C13.118 35.9331 14.0003 34.7834 15.2782 33.74C17.9348 31.5713 20.9486 30.9326 24.2354 31.8422C25.9452 32.3152 27.7461 32.5553 29.5883 32.5553H38.305C39.8705 32.5553 40.2883 33.9113 40.2883 34.7124C40.2883 35.2978 40.1003 35.8549 39.7726 36.2411C39.4171 36.6594 38.9117 36.8713 38.2704 36.8713H30.6825C30.0741 36.8713 29.5811 37.3648 29.5811 37.9732C29.5811 38.5816 30.0741 39.0746 30.6825 39.0746H38.2704C39.5513 39.0746 40.6809 38.5747 41.4517 37.6673C42.093 36.9127 42.4587 35.9207 42.4895 34.8603L49.6608 27.7641C50.6858 26.7392 52.2871 26.9964 53.183 27.8227C53.6462 28.2499 54.2691 29.1475 53.2364 30.3622Z" fill="black"/>
<path d="M27.2465 37.6795C27.1077 37.0869 26.5151 36.7199 25.9225 36.8583C25.3303 36.9972 24.9625 37.5897 25.1017 38.1823L25.112 38.2272C25.2312 38.7348 25.6836 39.0774 26.1835 39.0774C26.2668 39.0774 26.3514 39.068 26.436 39.0484C27.0286 38.9095 27.396 38.3165 27.2572 37.7243L27.2465 37.6795Z" fill="black"/>
<path d="M30.5794 27.7345C30.7854 27.9127 31.0404 28.0016 31.2959 28.0016C31.5514 28.0016 31.8069 27.9127 32.0124 27.7345C40.9363 20.0005 46.4563 16.0865 46.4563 10.0042C46.4563 5.19257 43.0499 1.20508 38.2643 1.20508C35.1215 1.20508 32.7148 3.0166 31.1648 5.73518C29.6181 3.02259 27.214 1.20508 24.0665 1.20508C20.4028 1.20508 17.3399 3.57929 16.2632 7.25318C16.0932 7.83296 16.4256 8.4405 17.0054 8.61055C17.5851 8.78059 18.1927 8.44819 18.3623 7.86842C19.1591 5.14942 21.3979 3.39258 24.0665 3.39258C27.1867 3.39258 29.3754 6.16328 30.1107 8.74299C30.2419 9.21681 30.6734 9.54494 31.1648 9.54494C31.6565 9.54494 32.0876 9.21681 32.2188 8.74299C32.2337 8.68959 33.753 3.39258 38.2643 3.39258C41.6874 3.39258 44.2688 6.23463 44.2688 10.0042C44.2688 14.8697 39.5127 18.3774 31.2951 25.4629C26.2882 21.1631 22.3109 18.1364 20.0504 15.1756C19.6838 14.6954 18.9976 14.6031 18.5174 14.9697C18.0372 15.3363 17.9453 16.0224 18.3115 16.5031C20.8596 19.8403 25.1611 23.0378 30.5794 27.7345Z" fill="black"/>
</g>
<defs>
<clipPath id="clip0">
<rect width="56" height="56" fill="white"/>
</clipPath>
</defs>
</svg>
