<svg width="55" height="55" viewBox="0 0 55 55" fill="none" xmlns="http://www.w3.org/2000/svg">
<g clip-path="url(#clip0)">
<path d="M54.1513 11.0977H49.6732C49.8032 10.9151 49.9212 10.7234 50.0244 10.5224C50.6169 9.36507 50.697 8.00215 50.2443 6.78273L48.8872 3.13541C48.4349 1.91726 47.4844 0.937867 46.2806 0.448592C45.0754 -0.0411031 43.7104 -0.00207859 42.535 0.556014L31.7953 5.65648C31.2645 5.27714 30.6154 5.05307 29.9146 5.05307H25.0856C24.3849 5.05307 23.7353 5.27756 23.2045 5.6569L12.4652 0.555594C11.2898 -0.00207853 9.92482 -0.0411031 8.71967 0.448592C7.51579 0.937867 6.56535 1.91726 6.113 3.13499L4.75596 6.78315C4.30319 8.00215 4.38333 9.36507 4.97625 10.5224C5.07906 10.7234 5.19739 10.9156 5.32748 11.0977H0.848888C0.380174 11.0977 0 11.4774 0 11.9466V18.0575C0 18.5262 0.380174 18.9064 0.848888 18.9064C1.3176 18.9064 1.69778 18.5262 1.69778 18.0575V12.795H7.59383C7.68825 12.8282 7.78392 12.8588 7.88085 12.8857L15.0072 14.8474C13.4236 17.274 12.0267 19.8266 10.8308 22.4714H1.69778V21.4526C1.69778 20.9839 1.3176 20.6041 0.848888 20.6041C0.380174 20.6041 0 20.9839 0 21.4526V23.3203C0 23.789 0.380174 24.1692 0.848888 24.1692H3.87602V54.221C3.87602 54.6902 4.25619 55.0699 4.7249 55.0699H50.2753C50.744 55.0699 51.1242 54.6902 51.1242 54.221V49.2922C51.1242 48.8235 50.744 48.4433 50.2753 48.4433C49.8062 48.4433 49.4264 48.8235 49.4264 49.2922V53.3726H32.5926V24.6912C34.997 29.2453 36.6247 34.1973 37.3737 39.3137C37.4232 39.6523 37.6717 39.928 38.0036 40.0127C38.0732 40.0308 38.1437 40.0392 38.2138 40.0392C38.4761 40.0392 38.7287 39.9175 38.8915 39.7014C40.1117 38.0825 41.2464 36.3495 42.2707 34.5401C43.9861 35.7083 45.6515 37.0108 47.2318 38.4207C47.4983 38.6582 47.8852 38.704 48.1995 38.5344C48.5138 38.3653 48.6887 38.0175 48.6367 37.6641C47.959 33.0412 46.6956 28.4951 44.9046 24.1692H49.426V45.8966C49.426 46.3658 49.8062 46.7455 50.2749 46.7455C50.744 46.7455 51.1238 46.3658 51.1238 45.8966V24.1692H54.1513C54.6201 24.1692 54.9998 23.789 54.9998 23.3203V11.9466C55.0002 11.4774 54.6205 11.0977 54.1513 11.0977ZM43.2631 2.0893C44.0205 1.73011 44.8648 1.70577 45.6415 2.02132C46.4169 2.33646 47.0044 2.94197 47.296 3.72707L48.6527 7.37398C48.9447 8.1595 48.8948 9.00293 48.5129 9.7486C48.1315 10.4938 47.4765 11.0268 46.6691 11.2487L33.157 14.9687V10.8891C36.1942 9.02937 43.7658 5.19364 45.6503 7.8536C45.9209 8.23587 46.4505 8.32693 46.8332 8.05586C47.2159 7.78478 47.3065 7.2548 47.0354 6.87253C45.5811 4.81934 42.5162 4.71947 37.9251 6.57628C36.0339 7.34083 34.2879 8.27406 33.157 8.92153V8.29504C33.157 7.84059 33.0626 7.40755 32.893 7.01436L43.2631 2.0893ZM25.0856 6.75042H29.9146C30.7664 6.75042 31.4592 7.44363 31.4592 8.29504V15.3115C31.4592 16.1633 30.7664 16.8561 29.9146 16.8561H25.0856C24.2338 16.8561 23.541 16.1633 23.541 15.3115V8.29504C23.541 7.44321 24.2338 6.75042 25.0856 6.75042ZM23.6589 22.471C24.4709 21.1219 25.3546 19.8144 26.3055 18.5539H28.6939C29.6452 19.8144 30.5289 21.1219 31.3405 22.471H23.6589ZM6.4873 9.7486C6.10545 9.00293 6.05551 8.1595 6.34715 7.3744L7.70461 3.72665C7.99583 2.94197 8.58329 2.33646 9.35875 2.02132C10.135 1.70577 10.9797 1.73011 11.7367 2.0893L22.1072 7.0152C21.9377 7.40796 21.8432 7.84059 21.8432 8.29546V8.9702C20.7161 8.32147 18.9307 7.36055 16.9912 6.57628C12.4006 4.71947 9.33525 4.81934 7.88085 6.87253C7.60978 7.2548 7.70042 7.78478 8.08311 8.05586C8.4658 8.32693 8.99536 8.23629 9.26601 7.8536C11.1681 5.16846 18.8644 9.10196 21.8432 10.9407V14.9687L8.33152 11.2492C7.52376 11.0268 6.86873 10.4938 6.4873 9.7486ZM22.2243 16.8343C22.6468 17.6248 23.387 18.2211 24.2737 18.4506C20.3037 23.9896 17.5707 30.354 16.2887 37.0435C15.387 35.7259 14.544 34.345 13.7723 32.9187C13.6594 32.7097 13.4647 32.5578 13.2343 32.4995C13.0044 32.4411 12.7606 32.4818 12.5621 32.6115C11.1484 33.5334 9.7641 34.5447 8.4272 35.6307C9.80396 28.404 12.6486 21.4358 16.7277 15.3211L22.2243 16.8343ZM5.57379 24.1692H10.0956C8.30467 28.4951 7.0412 33.0408 6.36309 37.6641C6.31148 38.0175 6.48604 38.3653 6.80034 38.5344C7.11505 38.7035 7.50152 38.6582 7.76798 38.4207C9.34826 37.0108 11.0137 35.7083 12.7295 34.5401C13.7538 36.3495 14.8881 38.0821 16.1087 39.7014C16.2715 39.9175 16.5242 40.0396 16.7864 40.0396C16.8565 40.0396 16.927 40.0308 16.9966 40.0127C17.3286 39.928 17.5766 39.6523 17.6261 39.3137C18.3755 34.1973 20.0032 29.2449 22.4072 24.6908V53.3726H5.57379V24.1692ZM24.105 53.3726V24.1692H30.8952V53.3726H24.105ZM42.4381 32.6115C42.2396 32.4818 41.9954 32.4416 41.7659 32.4999C41.5359 32.5582 41.3408 32.7101 41.2279 32.9187C40.4562 34.345 39.6132 35.7263 38.7115 37.0435C37.4295 30.3535 34.6966 23.9896 30.7261 18.4511C31.6128 18.222 32.3534 17.6253 32.776 16.8343L38.2738 15.3207C42.3521 21.4367 45.1967 28.4048 46.5734 35.6307C45.2361 34.5447 43.8518 33.5334 42.4381 32.6115ZM53.3024 22.4714H44.1699C42.974 19.8266 41.5771 17.274 39.9938 14.8474L47.1194 12.8857C47.2163 12.8588 47.312 12.8282 47.4064 12.795H53.3024V22.4714Z" fill="black"/>
</g>
<defs>
<clipPath id="clip0">
<rect width="55" height="55" fill="white"/>
</clipPath>
</defs>
</svg>
