<svg width="57" height="57" viewBox="0 0 57 57" fill="none" xmlns="http://www.w3.org/2000/svg">
<path d="M34.4557 22.5339C34.3304 22.5339 34.2043 22.5126 34.0825 22.4695L28.5004 20.4843L22.9179 22.4695C22.5722 22.5926 22.1877 22.5369 21.8907 22.3212C21.5937 22.1051 21.4219 21.7568 21.4319 21.3897L21.595 15.4671L17.982 10.7713C17.7581 10.4808 17.692 10.0977 17.8055 9.74848C17.919 9.39927 18.1973 9.12877 18.5496 9.02484L24.2325 7.34969L27.582 2.4621C27.7898 2.15942 28.1334 1.97852 28.5004 1.97852C28.8675 1.97852 29.211 2.15942 29.4189 2.4621L32.7683 7.34969L38.4513 9.02484C38.8036 9.12877 39.0819 9.39927 39.1954 9.74848C39.3089 10.0977 39.2428 10.4804 39.0188 10.7713L35.4059 15.4676L35.5689 21.3897C35.5789 21.7568 35.4072 22.1055 35.1101 22.3212C34.9175 22.4613 34.6874 22.5339 34.4557 22.5339ZM20.7374 10.7013L23.6011 14.4234C23.7572 14.6261 23.8385 14.8766 23.8316 15.1327L23.7024 19.8272L28.1273 18.2538C28.3687 18.1681 28.6322 18.1681 28.8736 18.2538L33.298 19.8272L33.1693 15.1327C33.1619 14.8766 33.2436 14.6261 33.3998 14.4234L36.2634 10.7013L31.759 9.37318C31.5133 9.30099 31.3002 9.14617 31.1554 8.93482L28.5004 5.06093L25.8455 8.93482C25.7007 9.14617 25.4876 9.30099 25.2419 9.37318L20.7374 10.7013Z" fill="black"/>
<path d="M44.7282 12.2831C44.4964 12.2831 44.2663 12.2105 44.0737 12.0705C43.7767 11.8548 43.6049 11.5064 43.6153 11.1394L43.6836 8.64405L42.1615 6.66536C41.9376 6.37443 41.8719 5.99174 41.985 5.64253C42.0985 5.29332 42.3768 5.02283 42.729 4.91889L45.1235 4.21309L46.5347 2.15394C46.7425 1.85083 47.0861 1.66992 47.4531 1.66992C47.8202 1.66992 48.1637 1.85083 48.3716 2.15394L49.7828 4.21309L52.1768 4.91889C52.529 5.02283 52.8073 5.29332 52.9213 5.64253C53.0343 5.99174 52.9687 6.37443 52.7447 6.66536L51.2222 8.64405L51.2909 11.1394C51.3014 11.5064 51.1296 11.8548 50.8326 12.0705C50.5355 12.2862 50.1511 12.3414 49.8054 12.2188L47.4531 11.3825L45.1013 12.2188C44.9795 12.2618 44.8534 12.2831 44.7282 12.2831ZM47.4531 9.08763C47.5792 9.08763 47.7054 9.10894 47.8258 9.15199L49.0204 9.57643L48.9856 8.3092C48.9782 8.05306 49.06 7.80257 49.2161 7.59991L49.9889 6.59491L48.773 6.23657C48.5277 6.16438 48.3142 6.00957 48.1694 5.79822L47.4527 4.75233L46.736 5.79822C46.5912 6.00957 46.3781 6.16395 46.1324 6.23657L44.9165 6.59491L45.6897 7.59991C45.8454 7.80257 45.9271 8.05306 45.9197 8.3092L45.885 9.57643L47.0796 9.15199C47.2009 9.10894 47.3266 9.08763 47.4531 9.08763Z" fill="black"/>
<path d="M12.2717 12.2831C12.1464 12.2831 12.0203 12.2618 11.8986 12.2188L9.54674 11.3825L7.19492 12.2188C6.84876 12.3418 6.46476 12.2862 6.16731 12.0705C5.87029 11.8548 5.69894 11.5064 5.70895 11.1394L5.77766 8.64405L4.25515 6.66536C4.03119 6.37443 3.96552 5.99174 4.07902 5.64253C4.19253 5.29289 4.47085 5.02239 4.8231 4.91846L7.2171 4.21265L8.62828 2.15351C8.83615 1.85083 9.17971 1.66992 9.54674 1.66992C9.91378 1.66992 10.2573 1.85083 10.4652 2.15351L11.8764 4.21265L14.2704 4.91889C14.6226 5.02239 14.901 5.29332 15.0145 5.64253C15.128 5.99174 15.0619 6.37443 14.8383 6.66536L13.3158 8.64362L13.3845 11.1389C13.3945 11.506 13.2232 11.8548 12.9262 12.0705C12.7335 12.2105 12.5039 12.2831 12.2717 12.2831ZM9.54674 9.08763C9.67286 9.08763 9.79941 9.10894 9.91987 9.15199L11.1145 9.57643L11.0797 8.3092C11.0723 8.05306 11.154 7.80257 11.3097 7.59991L12.0829 6.59491L10.867 6.23657C10.6213 6.16438 10.4082 6.00957 10.2634 5.79822L9.54674 4.75233L8.83006 5.79822C8.68525 6.00957 8.47216 6.16395 8.22645 6.23657L7.01053 6.59491L7.78375 7.59991C7.93987 7.80257 8.02119 8.05306 8.01423 8.3092L7.97944 9.57643L9.17405 9.15199C9.29451 9.10894 9.42063 9.08763 9.54674 9.08763Z" fill="black"/>
<path d="M28.5 47.7044C28.4278 47.7044 28.3543 47.6966 28.283 47.6823C28.2117 47.6688 28.1417 47.6466 28.0747 47.6188C28.0069 47.5909 27.9421 47.5561 27.882 47.5161C27.8207 47.4761 27.7642 47.4296 27.7129 47.3783C27.6616 47.327 27.615 47.2704 27.575 47.2091C27.5346 47.1491 27.5002 47.0843 27.4724 47.0165C27.4446 46.9495 27.4224 46.8795 27.4089 46.8082C27.3945 46.7368 27.3867 46.6633 27.3867 46.5912C27.3867 46.519 27.3945 46.4455 27.4089 46.3741C27.4224 46.3028 27.4446 46.2328 27.4724 46.165C27.5002 46.098 27.5346 46.0332 27.575 45.9732C27.615 45.9119 27.6616 45.8553 27.7129 45.804C27.7642 45.7527 27.8207 45.7062 27.882 45.6662C27.9421 45.6257 28.0069 45.5914 28.0747 45.5635C28.1417 45.5357 28.2117 45.5144 28.283 45.5C28.4265 45.4713 28.5735 45.4713 28.717 45.5C28.7883 45.5144 28.8583 45.5357 28.9253 45.5635C28.9932 45.5914 29.0575 45.6257 29.1175 45.6662C29.1788 45.7062 29.2358 45.7527 29.2871 45.804C29.3385 45.8553 29.385 45.9119 29.425 45.9732C29.465 46.0332 29.4998 46.098 29.5276 46.165C29.5555 46.2328 29.5776 46.3028 29.5907 46.3741C29.6055 46.4455 29.6133 46.519 29.6133 46.5912C29.6133 46.6633 29.6055 46.7373 29.5907 46.8082C29.5763 46.8795 29.5555 46.9495 29.5276 47.0165C29.4998 47.0843 29.465 47.1491 29.425 47.2091C29.385 47.2704 29.3385 47.327 29.2871 47.3783C29.2358 47.4296 29.1788 47.4761 29.1175 47.5161C29.0575 47.5561 28.9932 47.5909 28.9253 47.6188C28.8583 47.6466 28.7883 47.6688 28.717 47.6823C28.6457 47.6966 28.5722 47.7044 28.5 47.7044Z" fill="black"/>
<path d="M28.5 44.0308C27.8851 44.0308 27.3867 43.5324 27.3867 42.9175V24.5479C27.3867 23.9334 27.8851 23.4346 28.5 23.4346C29.1149 23.4346 29.6133 23.9334 29.6133 24.5479V42.9175C29.6133 43.532 29.1149 44.0308 28.5 44.0308Z" fill="black"/>
<path d="M47.3979 36.9369C47.3397 36.9369 47.2818 36.9325 47.2235 36.923C46.8609 36.8656 46.5499 36.6333 46.3921 36.3015L44.3912 32.0924L40.1824 30.0915C39.8506 29.9341 39.618 29.6231 39.5606 29.2604C39.5032 28.8977 39.6284 28.5298 39.895 28.2776L43.2796 25.0743L43.8819 20.4529C43.9294 20.0889 44.1533 19.7714 44.4803 19.6048C44.8078 19.4378 45.1957 19.4435 45.5184 19.6192L49.611 21.8479L54.192 20.993C54.553 20.9251 54.9239 21.0404 55.1835 21.3C55.4432 21.5596 55.558 21.9306 55.491 22.2915L54.6356 26.8725L56.8648 30.9652C57.04 31.2878 57.0457 31.6762 56.8787 32.0032C56.7121 32.3302 56.3947 32.5542 56.0307 32.6016L51.4097 33.2039L48.2059 36.5886C47.9942 36.813 47.701 36.9369 47.3979 36.9369ZM42.6051 28.7782L45.705 30.2515C45.9359 30.3615 46.1224 30.5477 46.2325 30.779L47.7058 33.8784L50.0646 31.3861C50.2407 31.2 50.4756 31.0804 50.7295 31.0473L54.1324 30.6038L52.4908 27.5901C52.3686 27.3652 52.3273 27.1052 52.3742 26.8534L53.0039 23.4796L49.6306 24.1097C49.3788 24.1563 49.1187 24.1154 48.8939 23.9928L45.8798 22.3515L45.4366 25.7544C45.4036 26.0084 45.284 26.2432 45.0979 26.4189L42.6051 28.7782Z" fill="black"/>
<path d="M30.4645 55.4828C30.4258 55.4828 30.3875 55.4811 30.3484 55.4772C29.737 55.4137 29.2925 54.8666 29.3556 54.2552C30.0853 47.1962 33.4839 41.8338 36.2066 38.5783C39.1468 35.0619 41.9275 33.1932 42.044 33.1153C42.5558 32.7748 43.2469 32.9131 43.5878 33.4254C43.9283 33.9368 43.7896 34.6283 43.2777 34.9688C43.1721 35.0392 40.6506 36.7344 37.9144 40.0064C35.3912 43.024 32.2419 47.9851 31.5704 54.4844C31.5113 55.0567 31.0277 55.4828 30.4645 55.4828Z" fill="black"/>
<path d="M9.60248 36.9367C9.29937 36.9367 9.00626 36.8128 8.79404 36.5888L5.59073 33.2042L0.969284 32.6019C0.605292 32.5545 0.287831 32.3305 0.121273 32.003C-0.0452855 31.676 -0.0400669 31.2877 0.135624 30.9654L2.36437 26.8728L1.5094 22.2913C1.44156 21.9304 1.5568 21.5594 1.81643 21.2998C2.07605 21.0402 2.447 20.925 2.80795 20.9928L7.38895 21.8482L11.4816 19.619C11.8043 19.4433 12.1926 19.4381 12.5196 19.6047C12.8467 19.7712 13.0706 20.0887 13.118 20.4527L13.7203 25.0741L17.1054 28.2774C17.372 28.5301 17.4968 28.8976 17.4394 29.2603C17.382 29.6229 17.1493 29.9339 16.818 30.0917L12.6088 32.0926L10.6083 36.3014C10.4505 36.6327 10.1395 36.8654 9.77686 36.9228C9.71859 36.9324 9.66031 36.9367 9.60248 36.9367ZM2.86796 30.6036L6.27088 31.0472C6.52485 31.0802 6.75968 31.1998 6.93537 31.3859L9.29458 33.8782L10.7679 30.7788C10.878 30.5475 11.0641 30.3614 11.2955 30.2513L14.3948 28.778L11.9025 26.4188C11.7164 26.2431 11.5968 26.0082 11.5638 25.7543L11.1202 22.3514L8.1065 23.993C7.88166 24.1152 7.62117 24.1565 7.36981 24.1096L3.99603 23.4799L4.62574 26.8532C4.67314 27.105 4.63182 27.3655 4.50919 27.5899L2.86796 30.6036Z" fill="black"/>
<path d="M26.5357 55.4821C25.9721 55.4821 25.489 55.0559 25.4298 54.4832C24.758 47.9839 21.609 43.0233 19.0858 40.0057C16.3509 36.7354 13.8282 35.0385 13.7221 34.968C13.2102 34.6271 13.0715 33.9356 13.4124 33.4242C13.7534 32.9124 14.4444 32.7736 14.9562 33.1146C15.0732 33.1924 17.8551 35.0633 20.7936 38.5775C23.5164 41.833 26.915 47.1955 27.6447 54.2544C27.7077 54.8659 27.2633 55.4129 26.6514 55.476C26.6127 55.4803 26.574 55.4821 26.5357 55.4821Z" fill="black"/>
<path d="M37.2457 55.2746C37.0904 55.2746 36.9326 55.242 36.7821 55.1733C36.2233 54.9167 35.978 54.2561 36.2346 53.6969C37.9341 49.9913 40.7669 47.7047 42.8439 46.4388C45.0448 45.0972 46.833 44.5992 47.0296 44.5466C47.624 44.3883 48.2337 44.7414 48.392 45.3355C48.5503 45.9295 48.1972 46.5397 47.6032 46.6979C47.5871 46.7023 45.9689 47.1415 44.0024 48.34C42.1907 49.4442 39.7232 51.4312 38.2581 54.6253C38.0711 55.0337 37.6675 55.2746 37.2457 55.2746Z" fill="black"/>
<path d="M20.8094 55.2746C20.3875 55.2746 19.984 55.0337 19.7965 54.6253C18.3319 51.4312 15.8644 49.4442 14.0522 48.34C12.0861 47.1415 10.4675 46.7023 10.4514 46.6979C9.85739 46.5392 9.50427 45.9295 9.663 45.3355C9.82129 44.7414 10.4314 44.3883 11.0255 44.5466C11.2225 44.5992 13.0111 45.098 15.2112 46.4388C17.2881 47.7047 20.1209 49.9913 21.8204 53.6969C22.077 54.2561 21.8317 54.9167 21.2725 55.1733C21.122 55.242 20.9646 55.2746 20.8094 55.2746Z" fill="black"/>
<path d="M51.8613 41.1347C51.2469 41.1347 50.748 40.6364 50.748 40.0215V39.0947C50.748 38.4798 51.2469 37.9814 51.8613 37.9814C52.4763 37.9814 52.9746 38.4798 52.9746 39.0947V40.0215C52.9746 40.6364 52.4763 41.1347 51.8613 41.1347Z" fill="black"/>
<path d="M51.8613 46.1615C51.2469 46.1615 50.748 45.6627 50.748 45.0483V44.1211C50.748 43.5066 51.2469 43.0078 51.8613 43.0078C52.4763 43.0078 52.9746 43.5066 52.9746 44.1211V45.0483C52.9746 45.6627 52.4763 46.1615 51.8613 46.1615Z" fill="black"/>
<path d="M54.8388 43.1846H53.9121C53.2976 43.1846 52.7988 42.6858 52.7988 42.0713C52.7988 41.4564 53.2976 40.958 53.9121 40.958H54.8388C55.4538 40.958 55.9521 41.4564 55.9521 42.0713C55.9521 42.6858 55.4538 43.1846 54.8388 43.1846Z" fill="black"/>
<path d="M49.8125 43.1846H48.8857C48.2708 43.1846 47.7725 42.6858 47.7725 42.0713C47.7725 41.4564 48.2708 40.958 48.8857 40.958H49.8125C50.4274 40.958 50.9258 41.4564 50.9258 42.0713C50.9258 42.6858 50.4274 43.1846 49.8125 43.1846Z" fill="black"/>
<path d="M5.1377 41.1347C4.52278 41.1347 4.02441 40.6364 4.02441 40.0215V39.0947C4.02441 38.4798 4.52278 37.9814 5.1377 37.9814C5.75262 37.9814 6.25099 38.4798 6.25099 39.0947V40.0215C6.25099 40.6364 5.75262 41.1347 5.1377 41.1347Z" fill="black"/>
<path d="M5.1377 46.1615C4.52278 46.1615 4.02441 45.6627 4.02441 45.0483V44.1211C4.02441 43.5066 4.52278 43.0078 5.1377 43.0078C5.75262 43.0078 6.25099 43.5066 6.25099 44.1211V45.0483C6.25099 45.6627 5.75262 46.1615 5.1377 46.1615Z" fill="black"/>
<path d="M8.11423 43.1846H7.18751C6.57259 43.1846 6.07422 42.6858 6.07422 42.0713C6.07422 41.4564 6.57259 40.958 7.18751 40.958H8.11423C8.72915 40.958 9.22752 41.4564 9.22752 42.0713C9.22752 42.6858 8.72915 43.1846 8.11423 43.1846Z" fill="black"/>
<path d="M3.08927 43.1846H2.16212C1.54763 43.1846 1.04883 42.6858 1.04883 42.0713C1.04883 41.4564 1.54763 40.958 2.16212 40.958H3.08927C3.70419 40.958 4.20256 41.4564 4.20256 42.0713C4.20256 42.6858 3.70419 43.1846 3.08927 43.1846Z" fill="black"/>
</svg>
