<svg width="52" height="54" viewBox="0 0 52 54" fill="none" xmlns="http://www.w3.org/2000/svg">
<g clip-path="url(#clip0)">
<path d="M39.6456 41.2273L31.4698 37.8155C30.5677 37.4391 29.9843 36.5531 29.9843 35.5581V34.9744C32.4365 33.2462 34.3093 30.8075 35.3708 27.9867H35.5629C37.76 27.9867 39.5476 26.1634 39.5476 23.9222V17.419C39.5476 9.79881 33.4701 3.59961 25.9997 3.59961H12.4518V4.41251C12.4518 5.25305 12.5586 6.06677 12.7411 6.85122H9.91672L10.0713 7.79825C10.4554 10.1475 11.4628 12.2408 12.8965 13.9292C12.6072 15.064 12.4518 16.2338 12.4518 17.419V23.9222C12.4518 26.1634 14.2393 27.9867 16.4364 27.9867H16.6285C17.69 30.8083 19.5628 33.2462 22.015 34.9744V35.5581C22.015 36.5531 21.4316 37.4383 20.5295 37.8147L12.3537 41.2265C7.57214 43.2229 4.48242 47.9175 4.48242 53.1867V53.9996H47.5169V53.1867C47.5169 47.9175 44.4272 43.2229 39.6456 41.2273ZM35.3613 44.5716L28.7642 47.0948L30.4737 49.7099L26.5551 52.3738H26.1176L26.7177 51.1C26.8898 50.7358 30.5661 42.9222 31.791 39.7063L34.083 40.6631L35.3613 44.5716ZM16.6381 44.5716L17.9156 40.6631L20.2083 39.7063C21.4308 42.9092 25.1095 50.735 25.2808 51.1L25.8809 52.3738H25.4442L21.5265 49.7099L23.2359 47.0948L16.6381 44.5716ZM22.8087 41.8061H29.1914C28.1562 44.1895 26.8125 47.1086 25.9997 48.858C25.1876 47.1078 23.844 44.1879 22.8087 41.8061ZM35.8928 26.3268C36.1949 25.122 36.3598 23.8677 36.3598 22.5817V21.6331C37.2851 21.9696 37.9537 22.8638 37.9537 23.9222C37.9537 25.1513 37.0539 26.1609 35.8928 26.3268ZM13.2511 8.47703C14.8155 12.292 18.5109 14.9803 22.8119 14.9803H28.3905V13.3544H22.8119C18.2463 13.3544 14.4855 9.77686 14.0815 5.22542H25.9997C32.5911 5.22542 37.9537 10.6954 37.9537 17.419V20.6917C37.4692 20.3178 36.9065 20.0495 36.2865 19.9325C35.9446 18.0433 34.3244 16.6061 32.3751 16.6061H22.1473C17.2398 16.6061 13.0463 13.2415 11.8405 8.47703H13.2511ZM14.2385 15.2713C14.6832 15.655 15.1446 16.0191 15.6395 16.3346V19.9398C15.0474 20.0633 14.5111 20.3316 14.0456 20.6909V17.419C14.0456 16.6947 14.115 15.9777 14.2385 15.2713ZM14.0456 23.9222C14.0456 22.8638 14.7143 21.9696 15.6395 21.6331V22.5817C15.6395 23.8677 15.8045 25.122 16.1065 26.3268C14.9454 26.1609 14.0456 25.1513 14.0456 23.9222ZM17.2334 22.5817V17.1922C18.742 17.8628 20.4052 18.2319 22.1473 18.2319H32.3751C33.6933 18.2319 34.7659 19.326 34.7659 20.6706V22.5817C34.7659 28.2907 31.2547 33.3502 25.9997 35.2557C20.7447 33.3502 17.2334 28.2915 17.2334 22.5817ZM23.5802 35.9499C24.2687 36.3157 24.9923 36.6303 25.747 36.8864L25.9997 36.9725L26.2515 36.8872C27.0062 36.6303 27.7298 36.3165 28.4184 35.9507C28.5395 37.2432 29.2448 38.3902 30.331 39.0495C30.2091 39.3747 30.0577 39.7543 29.8815 40.1811H22.117C21.9401 39.7543 21.7887 39.3739 21.6667 39.0495C22.7537 38.3894 23.459 37.2424 23.5802 35.9499ZM12.957 42.7328L15.9702 41.4752L14.641 45.5438L20.7949 47.898L19.3166 50.1603L22.5705 52.3738H14.0456V47.4964H12.4518V52.3738H6.10418C6.40144 48.102 9.02495 44.3732 12.957 42.7328ZM39.5476 52.3738V47.4964H37.9537V52.3738H29.4289L32.6836 50.1603L31.2052 47.898L37.3592 45.5438L36.0299 41.4752L39.0431 42.7328C42.9752 44.374 45.5987 48.102 45.8959 52.3738H39.5476Z" fill="black"/>
<path d="M31.379 22.5002C31.8741 22.5002 32.2755 22.0973 32.2755 21.6002C32.2755 21.1031 31.8741 20.7002 31.379 20.7002C30.8838 20.7002 30.4824 21.1031 30.4824 21.6002C30.4824 22.0973 30.8838 22.5002 31.379 22.5002Z" fill="black"/>
<path d="M21.5176 22.5002C22.0128 22.5002 22.4142 22.0973 22.4142 21.6002C22.4142 21.1031 22.0128 20.7002 21.5176 20.7002C21.0225 20.7002 20.6211 21.1031 20.6211 21.6002C20.6211 22.0973 21.0225 22.5002 21.5176 22.5002Z" fill="black"/>
<path d="M29.5864 28.7998H28.0174C28.0174 29.7925 27.3138 30.5998 26.4485 30.5998C25.5832 30.5998 24.8795 29.7925 24.8795 28.7998H23.3105C23.3105 30.7852 24.7179 32.3998 26.4485 32.3998C28.179 32.3998 29.5864 30.7852 29.5864 28.7998Z" fill="black"/>
<rect x="4" width="2" height="9" rx="1" fill="black"/>
<rect x="48" y="36" width="2" height="9" rx="1" transform="rotate(-180 48 36)" fill="black"/>
<rect x="4" y="2" width="2" height="9" rx="1" transform="rotate(-90 4 2)" fill="black"/>
<rect x="48" y="34" width="2" height="9" rx="1" transform="rotate(90 48 34)" fill="black"/>
<rect width="2" height="9" rx="1" transform="matrix(1 0 0 -1 4 36)" fill="black"/>
<rect width="2" height="9" rx="1" transform="matrix(-1 0 0 1 48 0)" fill="black"/>
<rect width="2" height="9" rx="1" transform="matrix(-4.35438e-08 1 1 4.38797e-08 4 34)" fill="black"/>
<rect width="2" height="9" rx="1" transform="matrix(4.35439e-08 -1 -1 -4.38795e-08 48 2)" fill="black"/>
</g>
<defs>
<clipPath id="clip0">
<rect width="52" height="54" fill="white"/>
</clipPath>
</defs>
</svg>
