<svg width="54" height="54" viewBox="0 0 54 54" fill="none" xmlns="http://www.w3.org/2000/svg">
<g clip-path="url(#clip0)">
<path d="M12.2344 32.9062C11.6522 32.9062 11.1797 33.3787 11.1797 33.9609C11.1797 34.5431 11.6522 35.0156 12.2344 35.0156C12.8166 35.0156 13.2891 34.5431 13.2891 33.9609C13.2891 33.3787 12.8166 32.9062 12.2344 32.9062Z" fill="black"/>
<path d="M45.9842 12.6562H35.4374C34.855 12.6562 34.3827 13.1284 34.3827 13.7109V33.9608C34.3827 38.0317 31.0708 41.3436 26.9999 41.3436C22.9367 41.3436 19.6171 38.0564 19.6171 33.9608V13.7109C19.6171 13.1284 19.1448 12.6562 18.5624 12.6562H8.01563C7.43323 12.6562 6.96094 13.1284 6.96094 13.7109V33.9608C6.96094 45.0103 15.9504 53.9997 26.9999 53.9997C38.0494 53.9997 47.0389 45.0103 47.0389 33.9607V13.7109C47.0389 13.1284 46.5666 12.6562 45.9842 12.6562ZM9.07031 14.7656H17.5078V22.3594H9.07031V14.7656ZM44.9295 33.9608C44.9295 43.8472 36.8862 51.8904 26.9999 51.8904C17.1136 51.8904 9.07031 43.8472 9.07031 33.9608V24.4688H17.5078V33.9608C17.5078 39.185 21.7344 43.453 26.9999 43.453C32.2339 43.453 36.492 39.1948 36.492 33.9608V24.4688H44.9295V33.9608ZM44.9295 22.3593H36.492V14.7655H44.9295V22.3593Z" fill="black"/>
<path d="M18.7235 44.8847C16.3993 43.1192 14.6675 40.6167 13.8468 37.8384C13.6818 37.2797 13.0953 36.9603 12.5365 37.1256C11.9779 37.2906 11.6588 37.8772 11.8237 38.4359C12.7707 41.6421 14.768 44.5289 17.4475 46.5644C17.9112 46.9166 18.573 46.8264 18.9254 46.3625C19.2777 45.8987 19.1873 45.237 18.7235 44.8847Z" fill="black"/>
<path d="M15.2409 4.71935C15.0488 4.40843 14.7093 4.21912 14.3437 4.21912H11.8316L13.1778 1.52671C13.4382 1.00569 13.227 0.372143 12.706 0.111636C12.1851 -0.148978 11.5515 0.0622763 11.291 0.583292L9.18165 4.80204C9.01817 5.12899 9.03568 5.51723 9.22784 5.82815C9.42001 6.13907 9.75951 6.32839 10.1251 6.32839H12.6372L11.291 9.02079C11.0305 9.54181 11.2417 10.1754 11.7628 10.4359C12.2855 10.6972 12.9182 10.4834 13.1778 9.96421L15.2871 5.74546C15.4506 5.41851 15.4331 5.03028 15.2409 4.71935Z" fill="black"/>
<path d="M44.7722 4.71935C44.58 4.40843 44.2405 4.21912 43.875 4.21912H41.3628L42.709 1.52671C42.9694 1.00569 42.7583 0.372143 42.2372 0.111636C41.7163 -0.148978 41.0828 0.0622763 40.8223 0.583292L38.7129 4.80204C38.5494 5.12899 38.5669 5.51723 38.7591 5.82815C38.9513 6.13907 39.2908 6.32839 39.6563 6.32839H42.1685L40.8223 9.02079C40.5618 9.54181 40.7729 10.1754 41.294 10.4359C41.8167 10.6972 42.4494 10.4834 42.709 9.96421L44.8184 5.74546C44.9819 5.41851 44.9644 5.03028 44.7722 4.71935Z" fill="black"/>
</g>
<defs>
<clipPath id="clip0">
<rect width="54" height="54" fill="white"/>
</clipPath>
</defs>
</svg>
