<svg width="15" height="15" viewBox="0 0 15 15" fill="none" xmlns="http://www.w3.org/2000/svg">
<g clip-path="url(#clip0)">
<path d="M13.4653 4.1273L13.1562 3.20071C13.0385 2.84781 12.7094 2.61069 12.3375 2.61069H9.73955V1.76485C9.73955 1.34209 9.39583 0.998047 8.97318 0.998047H6.59406C6.17151 0.998047 5.82768 1.34209 5.82768 1.76485V2.61069H3.22981C2.85779 2.61069 2.5287 2.84781 2.411 3.20071L2.10188 4.1273C2.03149 4.33826 2.06717 4.57185 2.19716 4.75226C2.32715 4.93266 2.53746 5.04044 2.75984 5.04044H3.08295L3.7941 13.8343C3.84697 14.4868 4.40068 14.998 5.0549 14.998H10.6566C11.3107 14.998 11.8646 14.4868 11.9173 13.8342L12.6285 5.04044H12.8074C13.0298 5.04044 13.2401 4.93266 13.3701 4.75237C13.5001 4.57196 13.5357 4.33826 13.4653 4.1273ZM6.648 1.81836H8.91924V2.61069H6.648V1.81836ZM11.0997 13.7681C11.0811 13.9979 10.8865 14.1777 10.6566 14.1777H5.0549C4.82504 14.1777 4.63043 13.9979 4.61185 13.7681L3.90593 5.04044H11.8055L11.0997 13.7681ZM2.93576 4.22012L3.18922 3.46027C3.19499 3.44275 3.21133 3.431 3.22981 3.431H12.3375C12.356 3.431 12.3722 3.44275 12.3781 3.46027L12.6316 4.22012H2.93576Z" fill="#ffa200"/>
<path d="M9.79117 13.7389C9.79843 13.7394 9.80559 13.7395 9.81285 13.7395C10.0296 13.7395 10.2107 13.5696 10.222 13.3507L10.6072 5.95697C10.619 5.73074 10.4451 5.53773 10.2189 5.52598C9.99218 5.51391 9.79982 5.68802 9.78796 5.91424L9.40291 13.308C9.39116 13.5342 9.56494 13.7272 9.79117 13.7389Z" fill="#ffa200"/>
<path d="M5.36292 13.3516C5.37488 13.5702 5.55582 13.7394 5.77211 13.7394C5.77959 13.7394 5.78728 13.7392 5.79486 13.7388C6.02098 13.7265 6.19434 13.5331 6.18206 13.3069L5.77863 5.91321C5.76635 5.68698 5.57302 5.51363 5.34679 5.52602C5.12067 5.5383 4.94732 5.73163 4.9596 5.95785L5.36292 13.3516Z" fill="#ffa200"/>
<path d="M7.78808 13.7394C8.01463 13.7394 8.19824 13.5558 8.19824 13.3293V5.93555C8.19824 5.709 8.01463 5.52539 7.78808 5.52539C7.56154 5.52539 7.37793 5.709 7.37793 5.93555V13.3293C7.37793 13.5558 7.56154 13.7394 7.78808 13.7394Z" fill="#ffa200"/>
</g>
<defs>
<clipPath id="clip0">
<rect width="14" height="14" fill="white" transform="translate(0.78125 0.998047)"/>
</clipPath>
</defs>
</svg>
