<svg width="13" height="12" viewBox="0 0 13 12" fill="none" xmlns="http://www.w3.org/2000/svg">
<g clip-path="url(#clip0)">
<path d="M11.4658 2.68222L11.2009 1.888C11.1 1.58551 10.8179 1.38226 10.4991 1.38226H8.27229V0.657257C8.27229 0.294891 7.97767 0 7.6154 0H5.57615C5.21397 0 4.91926 0.294891 4.91926 0.657257V1.38226H2.69252C2.37364 1.38226 2.09157 1.58551 1.99067 1.888L1.72572 2.68222C1.66539 2.86304 1.69597 3.06326 1.80739 3.2179C1.91881 3.37253 2.09907 3.4649 2.28969 3.4649H2.56663L3.17619 11.0025C3.22151 11.5618 3.69612 12 4.25688 12H9.05836C9.61903 12 10.0937 11.5618 10.139 11.0024L10.7485 3.4649H10.9019C11.0925 3.4649 11.2727 3.37253 11.3842 3.21799C11.4956 3.06335 11.5262 2.86304 11.4658 2.68222ZM5.62239 0.703125H7.56917V1.38226H5.62239V0.703125ZM9.43812 10.9458C9.42219 11.1427 9.25538 11.2969 9.05836 11.2969H4.25688C4.05986 11.2969 3.89305 11.1427 3.87712 10.9458L3.27205 3.4649H10.0431L9.43812 10.9458ZM2.44047 2.76178L2.65773 2.11047C2.66267 2.09546 2.67668 2.08539 2.69252 2.08539H10.4991C10.515 2.08539 10.5289 2.09546 10.5339 2.11047L10.7512 2.76178H2.44047Z" fill="#ffa200"/>
<path d="M8.31667 10.921C8.3229 10.9214 8.32903 10.9215 8.33526 10.9215C8.52102 10.9215 8.67629 10.7759 8.686 10.5882L9.01614 4.25078C9.02621 4.05687 8.87716 3.89144 8.68334 3.88137C8.48898 3.87102 8.32409 4.02025 8.31393 4.21416L7.98388 10.5516C7.97381 10.7455 8.12277 10.911 8.31667 10.921Z" fill="#ffa200"/>
<path d="M4.52103 10.589C4.53129 10.7764 4.68638 10.9214 4.87177 10.9214C4.87818 10.9214 4.88477 10.9213 4.89127 10.9209C5.08509 10.9104 5.23368 10.7447 5.22315 10.5507L4.87736 4.21327C4.86683 4.01937 4.70112 3.87077 4.50721 3.88139C4.31339 3.89192 4.1648 4.05763 4.17533 4.25154L4.52103 10.589Z" fill="#ffa200"/>
<path d="M6.59961 10.9214C6.79379 10.9214 6.95117 10.7641 6.95117 10.5699V4.23242C6.95117 4.03824 6.79379 3.88086 6.59961 3.88086C6.40543 3.88086 6.24805 4.03824 6.24805 4.23242V10.5699C6.24805 10.7641 6.40543 10.9214 6.59961 10.9214Z" fill="#ffa200"/>
</g>
<defs>
<clipPath id="clip0">
<rect width="12" height="12" fill="white" transform="translate(0.59375)"/>
</clipPath>
</defs>
</svg>
