<svg width="27" height="25" viewBox="0 0 27 25" fill="none" xmlns="http://www.w3.org/2000/svg">
<path d="M2.44141 2C2.44141 1.17157 3.11298 0.5 3.94141 0.5H6.94141C7.41354 0.5 7.85812 0.722291 8.14141 1.1L8.44141 1.5C8.91354 2.12951 9.65451 2.5 10.4414 2.5H23.9414C24.7698 2.5 25.4414 3.17157 25.4414 4C25.4414 4.82843 24.7698 5.5 23.9414 5.5H3.94141C3.11298 5.5 2.44141 4.82843 2.44141 4V2Z" fill="#FFA200" stroke="#fff"/>
<rect x="1.44141" y="4.5" width="25" height="17" rx="1.5" fill="#FFA200" stroke="#fff"/>
<mask id="path-3-inside-1" fill="#FFA200">
<path fill-rule="evenodd" clip-rule="evenodd" d="M11.7637 11C11.2114 11 10.7637 11.4477 10.7637 12V18H9.94337C9.07809 18 8.62121 19.0244 9.19937 19.6682L13.0194 23.9216C13.4167 24.364 14.11 24.364 14.5073 23.9216L18.3273 19.6682C18.9055 19.0244 18.4486 18 17.5833 18H16.7637V12C16.7637 11.4477 16.316 11 15.7637 11H11.7637Z"/>
</mask>
<path fill-rule="evenodd" clip-rule="evenodd" d="M11.7637 11C11.2114 11 10.7637 11.4477 10.7637 12V18H9.94337C9.07809 18 8.62121 19.0244 9.19937 19.6682L13.0194 23.9216C13.4167 24.364 14.11 24.364 14.5073 23.9216L18.3273 19.6682C18.9055 19.0244 18.4486 18 17.5833 18H16.7637V12C16.7637 11.4477 16.316 11 15.7637 11H11.7637Z" fill="#fff"/>
<path d="M10.7637 18V19H11.7637V18H10.7637ZM9.19937 19.6682L8.45537 20.3363H8.45538L9.19937 19.6682ZM13.0194 23.9216L13.7634 23.2534H13.7634L13.0194 23.9216ZM14.5073 23.9216L13.7634 23.2534L14.5073 23.9216ZM18.3273 19.6682L17.5833 19V19L18.3273 19.6682ZM16.7637 18H15.7637V19H16.7637V18ZM11.7637 12V10C10.6591 10 9.76371 10.8954 9.76371 12H11.7637ZM11.7637 18V12H9.76371V18H11.7637ZM9.94337 19H10.7637V17H9.94337V19ZM9.94337 19L9.94337 19V17C8.21282 17 7.29905 19.0488 8.45537 20.3363L9.94337 19ZM13.7634 23.2534L9.94337 19L8.45538 20.3363L12.2754 24.5898L13.7634 23.2534ZM13.7634 23.2534L13.7634 23.2534L12.2754 24.5898C13.07 25.4746 14.4567 25.4746 15.2513 24.5898L13.7634 23.2534ZM17.5833 19L13.7634 23.2534L15.2513 24.5898L19.0713 20.3363L17.5833 19ZM17.5833 19V19L19.0713 20.3363C20.2277 19.0488 19.3139 17 17.5833 17V19ZM16.7637 19H17.5833V17H16.7637V19ZM15.7637 12V18H17.7637V12H15.7637ZM15.7637 12H17.7637C17.7637 10.8954 16.8683 10 15.7637 10V12ZM11.7637 12H15.7637V10H11.7637V12Z" fill="#fff" mask="url(#path-3-inside-1)"/>
</svg>
