<svg width="31" height="31" viewBox="0 0 31 31" fill="none" xmlns="http://www.w3.org/2000/svg">
<path d="M15.3809 30.5356C12.4142 30.5356 9.51407 29.6559 7.04733 28.0077C4.58059 26.3594 2.65799 24.0168 1.52267 21.2759C0.387357 18.535 0.0903076 15.519 0.669089 12.6093C1.24787 9.69955 2.67649 7.0268 4.77428 4.92902C7.58733 2.11598 11.4026 0.535639 15.3809 0.535645C19.3591 0.53565 23.1744 2.11601 25.9875 4.92905C28.8005 7.7421 30.3809 11.5574 30.3809 15.5356C30.3809 19.5139 28.8005 23.3292 25.9874 26.1422C24.5978 27.5395 22.9449 28.6472 21.1242 29.4013C19.3036 30.1555 17.3515 30.541 15.3809 30.5356ZM15.3809 1.53565C12.612 1.53565 9.9052 2.35673 7.60292 3.89507C5.30063 5.43341 3.50621 7.6199 2.44659 10.1781C1.38696 12.7362 1.10971 15.5512 1.64991 18.2669C2.1901 20.9826 3.52347 23.4772 5.48141 25.4351C8.10692 28.0606 11.6679 29.5356 15.3809 29.5356C19.0939 29.5356 22.6549 28.0606 25.2804 25.4351C27.9059 22.8096 29.3809 19.2486 29.3809 15.5356C29.3809 11.8226 27.9059 8.26165 25.2804 5.63614C23.9834 4.33205 22.4406 3.29816 20.7414 2.59431C19.0421 1.89046 17.2201 1.53063 15.3809 1.53565Z" fill="white" stroke="white" stroke-width="0.5"/>
<path d="M20.2205 22.8815C21.6136 21.9883 22.3809 20.7743 22.3809 19.4642C22.3809 18.1541 21.6136 16.9401 20.2205 16.0469C19.128 15.3463 17.7442 14.9106 16.2559 14.7873V8.51136C18.7025 8.76927 20.6309 10.082 20.6309 11.6076C20.6309 11.8159 20.723 12.0158 20.8871 12.1631C21.0512 12.3105 21.2738 12.3933 21.5059 12.3933C21.7379 12.3933 21.9605 12.3105 22.1246 12.1631C22.2887 12.0158 22.3809 11.8159 22.3809 11.6076C22.3809 10.2975 21.6136 9.08346 20.2205 8.1903C19.128 7.48964 17.7442 7.05396 16.2559 6.9306V5.32136C16.2559 5.11297 16.1637 4.91312 15.9996 4.76577C15.8355 4.61842 15.6129 4.53564 15.3809 4.53564C15.1488 4.53564 14.9262 4.61842 14.7621 4.76577C14.598 4.91312 14.5059 5.11297 14.5059 5.32136V6.93011C13.0175 7.05347 11.6337 7.48914 10.5412 8.1898C9.14812 9.08297 8.38086 10.297 8.38086 11.6071C8.38086 12.9172 9.14812 14.1312 10.5412 15.0243C11.6337 15.725 13.0175 16.1607 14.5059 16.284V22.5599C12.0593 22.3026 10.1309 20.9898 10.1309 19.4642C10.1309 19.2558 10.0387 19.056 9.87458 18.9086C9.71048 18.7613 9.48792 18.6785 9.25586 18.6785C9.02379 18.6785 8.80123 18.7613 8.63714 18.9086C8.47305 19.056 8.38086 19.2558 8.38086 19.4642C8.38086 20.7743 9.14812 21.9883 10.5412 22.8815C11.6337 23.5821 13.0175 24.0178 14.5059 24.1412V25.7499C14.5059 25.9583 14.598 26.1582 14.7621 26.3055C14.9262 26.4529 15.1488 26.5356 15.3809 26.5356C15.6129 26.5356 15.8355 26.4529 15.9996 26.3055C16.1637 26.1582 16.2559 25.9583 16.2559 25.7499V24.1412C17.7442 24.0178 19.128 23.5821 20.2205 22.8815ZM20.6309 19.4642C20.6309 20.9898 18.7025 22.3026 16.2559 22.5604V16.368C18.7025 16.6258 20.6309 17.9387 20.6309 19.4642ZM10.1309 11.6071C10.1309 10.0815 12.0593 8.76868 14.5059 8.51087V14.7033C12.0593 14.4455 10.1309 13.1326 10.1309 11.6071Z" fill="white"/>
</svg>
