<svg width="32" height="32" viewBox="0 0 32 32" fill="none" xmlns="http://www.w3.org/2000/svg">
<path d="M28.625 9.0625H27.9375V8.79506C27.9375 7.58994 27.4809 6.44463 26.6518 5.57L22.7577 1.46244C21.8766 0.533063 20.6367 0 19.3559 0H6.875C5.32419 0 4.0625 1.26169 4.0625 2.8125V9.0625H3.375C1.82419 9.0625 0.5625 10.3242 0.5625 11.875V23.125C0.5625 24.6758 1.82419 25.9375 3.375 25.9375H4.0625V29.1875C4.0625 30.7383 5.32419 32 6.875 32H25.125C26.6758 32 27.9375 30.7383 27.9375 29.1875V25.9375H28.625C30.1758 25.9375 31.4375 24.6758 31.4375 23.125V11.875C31.4375 10.3242 30.1758 9.0625 28.625 9.0625ZM5.9375 2.8125C5.9375 2.29556 6.35806 1.875 6.875 1.875H19.3559C20.1244 1.875 20.8683 2.19481 21.397 2.7525L25.2911 6.86006C25.7886 7.38481 26.0625 8.072 26.0625 8.79506V9.0625H5.9375V2.8125ZM26.0625 29.1875C26.0625 29.7044 25.6419 30.125 25.125 30.125H6.875C6.35806 30.125 5.9375 29.7044 5.9375 29.1875V25.9375H26.0625V29.1875ZM29.5625 23.125C29.5625 23.6419 29.1419 24.0625 28.625 24.0625H3.375C2.85806 24.0625 2.4375 23.6419 2.4375 23.125V11.875C2.4375 11.3581 2.85806 10.9375 3.375 10.9375H28.625C29.1419 10.9375 29.5625 11.3581 29.5625 11.875V23.125Z" fill="black"/>
<path d="M6.19629 14V21H7.69629V18.7H8.83629C10.5263 18.7 11.8563 18.16 11.8563 16.35C11.8563 14.54 10.5263 14 8.83629 14H6.19629ZM10.3263 16.35C10.3263 17.17 9.67629 17.38 8.90629 17.38H7.69629V15.32H8.90629C9.67629 15.32 10.3263 15.52 10.3263 16.35ZM12.8564 14V21H15.4764C17.9664 21 19.1464 19.53 19.1464 17.5C19.1464 15.47 17.9664 14 15.4764 14H12.8564ZM17.6164 17.5C17.6164 18.94 16.8664 19.68 15.4764 19.68H14.3564V15.32H15.4764C16.8664 15.32 17.6164 16.06 17.6164 17.5ZM20.2783 14V21H21.7783V18.33H24.9283V16.98H21.7783V15.35H25.2183V14H20.2783Z" fill="black"/>
</svg>
