<svg width="31" height="32" viewBox="0 0 31 32" fill="none" xmlns="http://www.w3.org/2000/svg">
<path d="M28.0625 9.0625H27.375V8.79506C27.375 7.58994 26.9184 6.44463 26.0893 5.57L22.1952 1.46244C21.3141 0.533063 20.0742 0 18.7934 0H6.3125C4.76169 0 3.5 1.26169 3.5 2.8125V9.0625H2.8125C1.26169 9.0625 0 10.3242 0 11.875V23.125C0 24.6758 1.26169 25.9375 2.8125 25.9375H3.5V29.1875C3.5 30.7383 4.76169 32 6.3125 32H24.5625C26.1133 32 27.375 30.7383 27.375 29.1875V25.9375H28.0625C29.6133 25.9375 30.875 24.6758 30.875 23.125V11.875C30.875 10.3242 29.6133 9.0625 28.0625 9.0625ZM5.375 2.8125C5.375 2.29556 5.79556 1.875 6.3125 1.875H18.7934C19.5619 1.875 20.3058 2.19481 20.8345 2.7525L24.7286 6.86006C25.2261 7.38481 25.5 8.072 25.5 8.79506V9.0625H5.375V2.8125ZM25.5 29.1875C25.5 29.7044 25.0794 30.125 24.5625 30.125H6.3125C5.79556 30.125 5.375 29.7044 5.375 29.1875V25.9375H25.5V29.1875ZM29 23.125C29 23.6419 28.5794 24.0625 28.0625 24.0625H2.8125C2.29556 24.0625 1.875 23.6419 1.875 23.125V11.875C1.875 11.3581 2.29556 10.9375 2.8125 10.9375H28.0625C28.5794 10.9375 29 11.3581 29 11.875V23.125Z" fill="black"/>
<path d="M7.86383 21L9.56383 18.45L11.2538 21H13.0138L10.5038 17.37L12.8638 14H11.1038L9.56383 16.3L8.01383 14H6.26383L8.62383 17.37L6.11383 21H7.86383ZM13.7012 14V21H18.6312V19.65H15.2012V14H13.7012ZM19.2017 15.85C19.2017 18.33 23.0317 17.84 23.0317 19.15C23.0317 19.65 22.5317 19.82 21.7217 19.82C20.9217 19.82 20.0417 19.61 19.2417 19.08V20.51C19.9617 20.91 20.8617 21.14 21.8317 21.14C23.3017 21.14 24.5617 20.65 24.5617 19.08C24.5617 16.59 20.7317 17.04 20.7317 15.83C20.7317 15.4 21.1117 15.19 21.8717 15.18C22.6517 15.17 23.4417 15.38 24.0317 15.8V14.4C23.4317 14.06 22.5917 13.86 21.7617 13.86C20.3817 13.86 19.2017 14.5 19.2017 15.85Z" fill="black"/>
</svg>
