<svg width="35" height="35" viewBox="0 0 35 35" fill="none" xmlns="http://www.w3.org/2000/svg">
<path fill-rule="evenodd" clip-rule="evenodd" d="M22.7014 19.7387C25.1942 15.9762 24.7831 10.857 21.4681 7.54204C17.6839 3.75779 11.5484 3.75779 7.76411 7.54204C3.97985 11.3263 3.97985 17.4618 7.76411 21.246C11.079 24.561 16.1982 24.9721 19.9606 22.4794L24.9392 27.4579C25.696 28.2148 26.9231 28.2148 27.6799 27.4579C28.4367 26.7011 28.4367 25.474 27.6799 24.7172L22.7014 19.7387ZM19.5996 9.4106C22.3518 12.1628 22.3518 16.6251 19.5996 19.3773C16.8474 22.1295 12.3851 22.1295 9.63291 19.3773C6.88069 16.6251 6.88069 12.1628 9.63291 9.4106C12.3851 6.65838 16.8474 6.65838 19.5996 9.4106Z" fill="white"/>
</svg>
