<svg width="22" height="22" viewBox="0 0 22 22" fill="none" xmlns="http://www.w3.org/2000/svg">
<path d="M21.4227 16.9725L16.9698 14.0029C16.4047 13.6291 15.6473 13.7521 15.2295 14.2856L13.9324 15.9533C13.7657 16.1731 13.4627 16.2368 13.2216 16.1029L12.9748 15.9669C12.1569 15.521 11.1392 14.966 9.08876 12.9148C7.0383 10.8636 6.48215 9.84515 6.03633 9.02873L5.90104 8.782C5.76524 8.5409 5.82779 8.23659 6.04767 8.06857L7.71427 6.77188C8.24752 6.35407 8.37069 5.59681 7.9973 5.03156L5.02774 0.578679C4.64508 0.00306944 3.87734 -0.169725 3.28493 0.18639L1.4229 1.30492C0.837838 1.64887 0.408601 2.20592 0.225195 2.85934C-0.445319 5.30243 0.0591021 9.51885 6.27026 15.7307C11.2111 20.6712 14.8893 21.9998 17.4175 21.9998C17.9993 22.0023 18.5789 21.9266 19.1406 21.7747C19.7941 21.5915 20.3513 21.1623 20.695 20.577L21.8146 18.7161C22.1713 18.1236 21.9986 17.3554 21.4227 16.9725ZM21.1829 18.3399L20.0659 20.202C19.819 20.6244 19.4183 20.9349 18.9477 21.0686C16.6923 21.6879 12.7519 21.175 6.78899 15.212C0.826024 9.24905 0.313182 5.30905 0.932399 3.05331C1.06627 2.5821 1.37723 2.18088 1.80015 1.93367L3.66218 0.816605C3.91923 0.66194 4.25244 0.73691 4.41849 0.986693L6.0316 3.40852L7.38552 5.43918C7.54766 5.68437 7.49439 6.01299 7.26308 6.19442L5.59609 7.49111C5.08879 7.87902 4.94392 8.58089 5.25626 9.13794L5.38863 9.37845C5.85718 10.2378 6.4397 11.3068 8.56643 13.4332C10.6931 15.5595 11.7618 16.1421 12.6208 16.6106L12.8616 16.7433C13.4186 17.0556 14.1206 16.9108 14.5085 16.4035L15.8052 14.7365C15.9866 14.5053 16.3151 14.4521 16.5604 14.6141L21.0129 17.5836C21.2628 17.7495 21.3378 18.0829 21.1829 18.3399Z" fill="#FFB62E"/>
<path d="M12.466 3.66856C15.9064 3.67238 18.6945 6.46051 18.6984 9.90098C18.6984 10.1035 18.8625 10.2676 19.065 10.2676C19.2675 10.2676 19.4316 10.1035 19.4316 9.90098C19.4273 6.05572 16.3112 2.93957 12.466 2.93536C12.2635 2.93536 12.0994 3.09948 12.0994 3.30196C12.0994 3.50444 12.2635 3.66856 12.466 3.66856Z" fill="#FFB62E"/>
<path d="M12.466 5.86827C14.6921 5.87089 16.4961 7.67488 16.4987 9.90101C16.4987 10.1035 16.6629 10.2676 16.8653 10.2676C17.0678 10.2676 17.2319 10.1035 17.2319 9.90101C17.2289 7.27009 15.0969 5.13808 12.466 5.13507C12.2635 5.13507 12.0994 5.29919 12.0994 5.50167C12.0994 5.70415 12.2635 5.86827 12.466 5.86827Z" fill="#FFB62E"/>
<path d="M12.466 8.06791C13.4778 8.06912 14.2978 8.8891 14.299 9.90099C14.299 10.1035 14.4632 10.2676 14.6656 10.2676C14.8681 10.2676 15.0322 10.1035 15.0322 9.90099C15.0306 8.48435 13.8826 7.33631 12.466 7.33472C12.2635 7.33472 12.0994 7.49883 12.0994 7.70131C12.0994 7.9038 12.2635 8.06791 12.466 8.06791Z" fill="#FFB62E"/>
</svg>
