<svg width="35" height="35" viewBox="0 0 35 35" fill="none" xmlns="http://www.w3.org/2000/svg">
<path fill-rule="evenodd" clip-rule="evenodd" d="M22.7014 19.8734C25.1942 16.111 24.7831 10.9918 21.4681 7.67681C17.6839 3.89256 11.5484 3.89256 7.76411 7.67681C3.97985 11.4611 3.97985 17.5966 7.76411 21.3808C11.0791 24.6958 16.1982 25.1069 19.9607 22.6141L24.9392 27.5927C25.696 28.3495 26.9231 28.3495 27.6799 27.5927C28.4368 26.8358 28.4368 25.6088 27.6799 24.8519L22.7014 19.8734ZM19.5996 9.54537C22.3518 12.2976 22.3518 16.7598 19.5996 19.5121C16.8474 22.2643 12.3851 22.2643 9.63291 19.5121C6.88069 16.7598 6.88069 12.2976 9.63291 9.54537C12.3851 6.79315 16.8474 6.79315 19.5996 9.54537Z" fill="#FFB021"/>
</svg>
