<svg width="28" height="30" viewBox="0 0 28 30" fill="none" xmlns="http://www.w3.org/2000/svg">
<path d="M9.37822 8.57698L8.89217 8.75312C8.14203 9.02514 7.58239 9.68132 7.43156 10.4661L7.26665 11.3303C7.18436 11.7584 7.2964 12.1968 7.57419 12.5329C7.8521 12.8695 8.26187 13.0624 8.69824 13.0624H12.9113C13.3443 13.0624 13.752 12.872 14.0299 12.5399C14.3075 12.2081 14.423 11.7737 14.3468 11.3481L14.193 10.4884C14.0505 9.69126 13.489 9.02441 12.7275 8.74807L12.2122 8.56132V7.80185C12.2122 7.78052 12.2101 7.75975 12.2071 7.73926C12.583 7.35656 12.7983 6.8347 12.7983 6.30077V5.1692C12.7983 4.06463 11.8996 3.16602 10.795 3.16602C9.69037 3.16602 8.79153 4.06463 8.79153 5.1692V6.33602C8.79153 6.88488 9.01785 7.38597 9.38176 7.74987C9.37962 7.76694 9.37822 7.78417 9.37822 7.8018V8.57698ZM13.364 10.6366L13.5178 11.4964C13.5501 11.676 13.5013 11.8594 13.384 11.9995C13.2666 12.1399 13.0943 12.2204 12.9112 12.2204H8.69813C8.51373 12.2204 8.34062 12.1389 8.22319 11.9967C8.10599 11.8548 8.05867 11.6699 8.09347 11.4887L8.25839 10.6245C8.35342 10.1299 8.70626 9.71612 9.17895 9.54475L9.49733 9.4294C9.5053 9.4376 9.51333 9.44585 9.52198 9.45343C9.88476 9.77063 10.3398 9.92926 10.7952 9.9292C11.2499 9.9292 11.7049 9.77091 12.0677 9.45432C12.0808 9.44293 12.0928 9.43064 12.1043 9.41784L12.4401 9.53959C12.9203 9.71371 13.2742 10.134 13.364 10.6366ZM9.63351 5.1692C9.63351 4.52896 10.1545 4.008 10.7948 4.008C11.3353 4.008 11.7894 4.37959 11.9183 4.88029C11.8642 4.90673 11.8087 4.93171 11.7518 4.95444C11.2342 5.16168 10.816 5.13417 10.6965 5.05043C10.5061 4.91694 10.2437 4.96297 10.1101 5.15337C9.97665 5.34377 10.0227 5.60625 10.2131 5.73978C10.4187 5.88399 10.6978 5.95606 11.0163 5.95606C11.3056 5.95606 11.6275 5.89594 11.9562 5.777V6.30066C11.9562 6.62246 11.8231 6.93759 11.591 7.1652C11.4836 7.27062 11.3605 7.35229 11.2283 7.40865C11.219 7.41218 11.2099 7.416 11.201 7.42015C11.0652 7.47387 10.9202 7.50087 10.7719 7.497C10.1441 7.48493 9.63351 6.96408 9.63351 6.33596V5.1692ZM10.7558 8.33892C10.7686 8.33915 10.7814 8.33926 10.7942 8.33926C10.9917 8.33926 11.1853 8.30957 11.3702 8.25259V8.92612C11.0193 9.14245 10.5707 9.14234 10.2203 8.92578V8.25383C10.3906 8.30541 10.5701 8.33533 10.7558 8.33892Z" fill="url(#paint0_linear)"/>
<path d="M4.17294 20.2707H17.2837C17.5163 20.2707 17.7047 20.0823 17.7047 19.8497C17.7047 19.6171 17.5163 19.4287 17.2837 19.4287H4.17294C3.94039 19.4287 3.75195 19.6171 3.75195 19.8497C3.75195 20.0823 3.94039 20.2707 4.17294 20.2707Z" fill="url(#paint1_linear)"/>
<path d="M4.17294 22.5402H17.2837C17.5163 22.5402 17.7047 22.3518 17.7047 22.1192C17.7047 21.8867 17.5163 21.6982 17.2837 21.6982H4.17294C3.94039 21.6982 3.75195 21.8867 3.75195 22.1192C3.75195 22.3518 3.94039 22.5402 4.17294 22.5402Z" fill="url(#paint2_linear)"/>
<path d="M4.17294 24.8098H17.2837C17.5163 24.8098 17.7047 24.6213 17.7047 24.3888C17.7047 24.1562 17.5163 23.9678 17.2837 23.9678H4.17294C3.94039 23.9678 3.75195 24.1562 3.75195 24.3888C3.75195 24.6213 3.94039 24.8098 4.17294 24.8098Z" fill="url(#paint3_linear)"/>
<path d="M4.17294 27.0803H17.2837C17.5163 27.0803 17.7047 26.8918 17.7047 26.6593C17.7047 26.4267 17.5163 26.2383 17.2837 26.2383H4.17294C3.94039 26.2383 3.75195 26.4267 3.75195 26.6593C3.75195 26.8918 3.94039 27.0803 4.17294 27.0803Z" fill="url(#paint4_linear)"/>
<path d="M3.75195 15.3097C3.75195 15.5422 3.94039 15.7306 4.17294 15.7306H17.2837C17.5163 15.7306 17.7047 15.5422 17.7047 15.3097C17.7047 15.0771 17.5163 14.8887 17.2837 14.8887H4.17294C3.94039 14.8887 3.75195 15.0772 3.75195 15.3097Z" fill="url(#paint5_linear)"/>
<path d="M4.17294 18.0002H17.2837C17.5163 18.0002 17.7047 17.8117 17.7047 17.5792C17.7047 17.3466 17.5163 17.1582 17.2837 17.1582H4.17294C3.94039 17.1582 3.75195 17.3466 3.75195 17.5792C3.75195 17.8117 3.94039 18.0002 4.17294 18.0002Z" fill="url(#paint6_linear)"/>
<path d="M2.61787 20.2719C2.85127 20.2719 3.04049 20.0827 3.04049 19.8493C3.04049 19.616 2.85127 19.4268 2.61787 19.4268C2.38448 19.4268 2.19531 19.6159 2.19531 19.8493C2.19531 20.0827 2.38453 20.2719 2.61787 20.2719Z" fill="url(#paint7_linear)"/>
<path d="M2.61787 15.7318C2.85127 15.7318 3.04049 15.5427 3.04049 15.3093C3.04049 15.0759 2.85127 14.8867 2.61787 14.8867C2.38448 14.8867 2.19531 15.0759 2.19531 15.3093C2.19531 15.5427 2.38453 15.7318 2.61787 15.7318Z" fill="url(#paint8_linear)"/>
<path d="M2.61787 18.0014C2.85127 18.0014 3.04049 17.8122 3.04049 17.5788C3.04049 17.3454 2.85127 17.1562 2.61787 17.1562C2.38448 17.1562 2.19531 17.3454 2.19531 17.5788C2.19531 17.8122 2.38453 18.0014 2.61787 18.0014Z" fill="url(#paint9_linear)"/>
<path d="M2.61787 22.5414C2.85127 22.5414 3.04049 22.3522 3.04049 22.1189C3.04049 21.8855 2.85127 21.6963 2.61787 21.6963C2.38448 21.6963 2.19531 21.8855 2.19531 22.1189C2.19531 22.3522 2.38453 22.5414 2.61787 22.5414Z" fill="url(#paint10_linear)"/>
<path d="M2.61787 24.8119C2.85127 24.8119 3.04049 24.6228 3.04049 24.3894C3.04049 24.156 2.85127 23.9668 2.61787 23.9668C2.38448 23.9668 2.19531 24.156 2.19531 24.3894C2.19531 24.6227 2.38453 24.8119 2.61787 24.8119Z" fill="url(#paint11_linear)"/>
<path d="M2.61787 27.0815C2.85127 27.0815 3.04049 26.8923 3.04049 26.6589C3.04049 26.4256 2.85127 26.2363 2.61787 26.2363C2.38448 26.2363 2.19531 26.4255 2.19531 26.6589C2.19531 26.8922 2.38453 27.0815 2.61787 27.0815Z" fill="url(#paint12_linear)"/>
<path d="M26.4776 7.20362C26.3077 6.98863 26.1472 6.78549 26.0695 6.59835C25.9858 6.39633 25.9528 6.12942 25.9179 5.84674C25.8566 5.35154 25.7873 4.79028 25.3956 4.39864C25.0039 4.00701 24.4426 3.93763 23.9474 3.87639C23.6646 3.84148 23.3976 3.80847 23.1956 3.72472C23.0084 3.64709 22.8053 3.48667 22.5903 3.31675C22.2944 3.08296 21.969 2.82627 21.5843 2.7098V2.58243C21.5843 1.47461 20.6829 0.573242 19.5749 0.573242H2.03676C0.928769 0.573242 0.0273438 1.47461 0.0273438 2.58249V4.20746C0.0273438 4.44001 0.215779 4.62845 0.448334 4.62845C0.68089 4.62845 0.869325 4.44001 0.869325 4.20746V2.58249C0.869325 1.93882 1.39304 1.41522 2.03676 1.41522H19.5749C20.2186 1.41522 20.7423 1.93882 20.7423 2.58249V2.70991C20.3577 2.82644 20.0324 3.08302 19.7366 3.31681C19.5215 3.48667 19.3184 3.64715 19.1313 3.72478C18.9293 3.80847 18.6622 3.84148 18.3795 3.87645C17.8843 3.93763 17.323 4.00701 16.9313 4.39864C16.5395 4.79033 16.4702 5.3516 16.4089 5.84679C16.374 6.12942 16.341 6.39638 16.2573 6.5984C16.1796 6.78555 16.0191 6.98869 15.8492 7.20368C15.5347 7.60171 15.1782 8.05284 15.1782 8.63038C15.1782 9.20793 15.5347 9.65906 15.8492 10.0571C16.0191 10.2721 16.1796 10.4752 16.2573 10.6624C16.341 10.8644 16.374 11.1313 16.4089 11.414C16.4702 11.9092 16.5396 12.4704 16.9312 12.8621C17.3229 13.2538 17.8842 13.3231 18.3794 13.3843C18.5271 13.4026 18.6702 13.4205 18.8022 13.4452V19.8087C18.8022 20.0581 18.9414 20.2808 19.1656 20.3899C19.3897 20.4992 19.6508 20.4715 19.8474 20.3176L20.7423 19.6169V27.3037C20.7423 27.9473 20.2186 28.4709 19.5748 28.4709H2.03676C1.39304 28.4709 0.869325 27.9473 0.869325 27.3037V6.06133C0.869325 5.82878 0.68089 5.64034 0.448334 5.64034C0.215779 5.64034 0.0273438 5.82878 0.0273438 6.06133V27.3036C0.0273438 28.4115 0.928769 29.3129 2.03676 29.3129H19.5749C20.6829 29.3129 21.5843 28.4115 21.5843 27.3036V19.6169L22.4792 20.3175C22.596 20.409 22.7358 20.456 22.8771 20.456C22.9735 20.456 23.0705 20.4341 23.1614 20.3898C23.3856 20.2807 23.5249 20.058 23.5249 19.8086V15.1106C23.5249 14.878 23.3365 14.6896 23.1039 14.6896C22.8714 14.6896 22.6829 14.878 22.6829 15.1106V19.4077L21.5638 18.5316C21.4507 18.442 21.3085 18.3927 21.1633 18.3927C21.018 18.3927 20.8758 18.442 20.7645 18.5301L19.6442 19.4073V13.8713C19.6747 13.8952 19.7054 13.9194 19.7365 13.9439C20.1346 14.2585 20.5858 14.6149 21.1634 14.6149C21.7409 14.6149 22.1921 14.2584 22.5902 13.944C22.8052 13.7741 23.0084 13.6136 23.1955 13.5359C23.3975 13.4522 23.6646 13.4192 23.9473 13.3843C24.4425 13.3231 25.0038 13.2537 25.3956 12.8621C25.7872 12.4704 25.8566 11.9091 25.9178 11.414C25.9528 11.1313 25.9858 10.8643 26.0695 10.6623C26.1472 10.4752 26.3077 10.272 26.4776 10.057C26.7921 9.65901 27.1486 9.20787 27.1486 8.63033C27.1486 8.05279 26.7921 7.60165 26.4776 7.20362ZM25.8169 9.53501C25.6189 9.78564 25.4141 10.0447 25.2918 10.3398C25.1642 10.6474 25.1225 10.9846 25.0822 11.3106C25.0333 11.7061 24.9872 12.0797 24.8003 12.2666C24.6133 12.4535 24.2397 12.4997 23.8441 12.5486C23.518 12.5889 23.1809 12.6305 22.8732 12.7581C22.5781 12.8804 22.319 13.0851 22.0684 13.2832C21.7496 13.5349 21.4486 13.7728 21.1635 13.7728C20.8784 13.7728 20.5774 13.535 20.2586 13.2832C20.0079 13.0852 19.7488 12.8804 19.4538 12.7581C19.4335 12.7497 19.363 12.7229 19.3478 12.7181C19.0695 12.6214 18.7719 12.5843 18.4828 12.5486C18.0872 12.4997 17.7136 12.4535 17.5266 12.2666C17.3398 12.0797 17.2936 11.7061 17.2447 11.3107C17.2044 10.9846 17.1627 10.6475 17.0351 10.3398C16.9128 10.0447 16.7081 9.78564 16.51 9.53501C16.2583 9.21629 16.0204 8.91531 16.0204 8.63033C16.0204 8.34535 16.2582 8.04437 16.51 7.72565C16.7081 7.47502 16.9128 7.21591 17.0351 6.92088C17.1627 6.61328 17.2044 6.27609 17.2447 5.95002C17.2936 5.55452 17.3398 5.18096 17.5267 4.99404C17.7137 4.80712 18.0873 4.76098 18.4828 4.71208C18.809 4.67178 19.1461 4.63013 19.4538 4.50254C19.7488 4.38023 20.0079 4.17552 20.2586 3.97748C20.5767 3.72618 20.8772 3.48885 21.1618 3.48796C21.1623 3.48796 21.1629 3.48801 21.1634 3.48801C21.1639 3.48801 21.1645 3.48796 21.1651 3.48796C21.4497 3.4888 21.7502 3.72618 22.0684 3.97748C22.319 4.17546 22.5781 4.38023 22.8732 4.50254C23.1808 4.63013 23.5181 4.67184 23.8442 4.71208C24.2397 4.76098 24.6134 4.80717 24.8003 4.99409C24.9872 5.18101 25.0334 5.55452 25.0823 5.95002C25.1226 6.27609 25.1642 6.61322 25.2918 6.92088C25.4142 7.21591 25.6189 7.47502 25.8169 7.72565C26.0687 8.04437 26.3066 8.34535 26.3066 8.63033C26.3066 8.91531 26.0688 9.21635 25.8169 9.53501Z" fill="url(#paint13_linear)"/>
<path d="M23.867 7.29241L22.4344 6.88708L21.606 5.64993C21.5071 5.50219 21.3419 5.41406 21.1642 5.41406C20.9864 5.41406 20.8212 5.50225 20.7223 5.64993L19.8939 6.88708L18.4612 7.29247C18.2901 7.34091 18.1552 7.47085 18.1003 7.63992C18.0454 7.80899 18.0783 7.99339 18.1882 8.13293L19.1089 9.30289L19.0518 10.7902C19.0449 10.9679 19.1266 11.1364 19.2705 11.241C19.3628 11.3081 19.4722 11.3428 19.5829 11.3428C19.6447 11.3428 19.7069 11.332 19.7666 11.31L21.164 10.7959L22.5613 11.3099C22.7282 11.3714 22.9136 11.3456 23.0575 11.2411C23.2014 11.1367 23.2832 10.9682 23.2764 10.7904L23.2192 9.30284L24.14 8.13288C24.2499 7.99316 24.2827 7.80888 24.2278 7.63981C24.1731 7.47074 24.0381 7.34085 23.867 7.29241ZM22.4869 8.87214C22.4091 8.97115 22.3688 9.09498 22.3736 9.22122L22.4173 10.3598L21.3478 9.96637C21.2293 9.92276 21.0988 9.92282 20.9805 9.96632L19.9109 10.3598L19.9546 9.22083C19.9593 9.09504 19.919 8.97121 19.8411 8.87185L19.1364 7.97644L20.2332 7.66619C20.3545 7.63178 20.4599 7.55511 20.53 7.45037L21.164 6.50342L21.798 7.45025C21.8682 7.55505 21.9736 7.63173 22.0952 7.66625L23.1917 7.97644L22.4869 8.87214Z" fill="url(#paint14_linear)"/>
<defs>
<linearGradient id="paint0_linear" x1="7.38019" y1="3.16602" x2="14.4027" y2="3.16602" gradientUnits="userSpaceOnUse">
<stop stop-color="#FFA200"/>
<stop offset="1" stop-color="#FFBF42"/>
</linearGradient>
<linearGradient id="paint1_linear" x1="4.02585" y1="19.4287" x2="17.7692" y2="19.4287" gradientUnits="userSpaceOnUse">
<stop stop-color="#FFA200"/>
<stop offset="1" stop-color="#FFBF42"/>
</linearGradient>
<linearGradient id="paint2_linear" x1="4.02585" y1="21.6982" x2="17.7692" y2="21.6982" gradientUnits="userSpaceOnUse">
<stop stop-color="#FFA200"/>
<stop offset="1" stop-color="#FFBF42"/>
</linearGradient>
<linearGradient id="paint3_linear" x1="4.02585" y1="23.9678" x2="17.7692" y2="23.9678" gradientUnits="userSpaceOnUse">
<stop stop-color="#FFA200"/>
<stop offset="1" stop-color="#FFBF42"/>
</linearGradient>
<linearGradient id="paint4_linear" x1="4.02585" y1="26.2383" x2="17.7692" y2="26.2383" gradientUnits="userSpaceOnUse">
<stop stop-color="#FFA200"/>
<stop offset="1" stop-color="#FFBF42"/>
</linearGradient>
<linearGradient id="paint5_linear" x1="4.02585" y1="14.8887" x2="17.7692" y2="14.8887" gradientUnits="userSpaceOnUse">
<stop stop-color="#FFA200"/>
<stop offset="1" stop-color="#FFBF42"/>
</linearGradient>
<linearGradient id="paint6_linear" x1="4.02585" y1="17.1582" x2="17.7692" y2="17.1582" gradientUnits="userSpaceOnUse">
<stop stop-color="#FFA200"/>
<stop offset="1" stop-color="#FFBF42"/>
</linearGradient>
<linearGradient id="paint7_linear" x1="2.2119" y1="19.4268" x2="3.0444" y2="19.4268" gradientUnits="userSpaceOnUse">
<stop stop-color="#FFA200"/>
<stop offset="1" stop-color="#FFBF42"/>
</linearGradient>
<linearGradient id="paint8_linear" x1="2.2119" y1="14.8867" x2="3.0444" y2="14.8867" gradientUnits="userSpaceOnUse">
<stop stop-color="#FFA200"/>
<stop offset="1" stop-color="#FFBF42"/>
</linearGradient>
<linearGradient id="paint9_linear" x1="2.2119" y1="17.1562" x2="3.0444" y2="17.1562" gradientUnits="userSpaceOnUse">
<stop stop-color="#FFA200"/>
<stop offset="1" stop-color="#FFBF42"/>
</linearGradient>
<linearGradient id="paint10_linear" x1="2.2119" y1="21.6963" x2="3.0444" y2="21.6963" gradientUnits="userSpaceOnUse">
<stop stop-color="#FFA200"/>
<stop offset="1" stop-color="#FFBF42"/>
</linearGradient>
<linearGradient id="paint11_linear" x1="2.2119" y1="23.9668" x2="3.0444" y2="23.9668" gradientUnits="userSpaceOnUse">
<stop stop-color="#FFA200"/>
<stop offset="1" stop-color="#FFBF42"/>
</linearGradient>
<linearGradient id="paint12_linear" x1="2.2119" y1="26.2363" x2="3.0444" y2="26.2363" gradientUnits="userSpaceOnUse">
<stop stop-color="#FFA200"/>
<stop offset="1" stop-color="#FFBF42"/>
</linearGradient>
<linearGradient id="paint13_linear" x1="0.559744" y1="0.573242" x2="27.2738" y2="0.573242" gradientUnits="userSpaceOnUse">
<stop stop-color="#FFA200"/>
<stop offset="1" stop-color="#FFBF42"/>
</linearGradient>
<linearGradient id="paint14_linear" x1="18.1955" y1="5.41406" x2="24.2825" y2="5.41406" gradientUnits="userSpaceOnUse">
<stop stop-color="#FFA200"/>
<stop offset="1" stop-color="#FFBF42"/>
</linearGradient>
</defs>
</svg>
