<svg width="34" height="34" viewBox="0 0 34 34" fill="none" xmlns="http://www.w3.org/2000/svg">
<path d="M33.6152 16.1203C33.486 15.5327 33.1134 15.0347 32.568 14.7452C32.6707 14.6102 32.7573 14.4617 32.8254 14.3015C33.0401 13.7964 33.0452 13.2378 32.8398 12.7288C32.6148 12.1713 32.1646 11.7417 31.5786 11.547C31.6552 11.4011 31.7147 11.245 31.7551 11.0809C31.8866 10.548 31.8027 9.9958 31.5189 9.52601C31.2351 9.05617 30.7853 8.72502 30.2524 8.59352C30.1968 8.57984 30.141 8.56901 30.0851 8.55993C30.3518 7.76633 30.1142 6.85478 29.4243 6.3009C28.9344 5.90769 28.318 5.77652 27.745 5.88772C27.7048 4.38559 26.118 3.42197 24.7619 4.10716C24.539 3.39759 23.938 2.83262 23.1563 2.69541C22.5376 2.58661 21.9341 2.76875 21.4855 3.1425C21.1286 2.53285 20.4672 2.12221 19.7111 2.12221C19.0803 2.12221 18.5151 2.40823 18.1378 2.85706C17.3638 1.29754 15.755 0.222656 13.8991 0.222656C11.2911 0.222656 9.16939 2.34442 9.16939 4.95231C9.16939 5.72814 9.35633 6.4774 9.71296 7.15266C8.38635 7.58613 7.12874 8.22846 5.97688 9.0679C5.75979 9.22612 5.71207 9.53036 5.87022 9.74739C6.02837 9.96448 6.33261 10.012 6.5497 9.85405C8.6963 8.28967 11.2418 7.46345 13.8992 7.46345C20.7877 7.46345 26.392 13.0678 26.392 19.9564C26.392 26.845 20.7877 32.4493 13.8992 32.4493C7.0106 32.4493 1.40623 26.845 1.40623 19.9564C1.40623 16.6006 2.7187 13.4507 5.1019 11.0868C5.29261 10.8977 5.2939 10.5898 5.10476 10.3991C4.91555 10.2084 4.60761 10.2072 4.41704 10.3963C1.84825 12.9442 0.433594 16.3393 0.433594 19.9564C0.433594 27.3813 6.47416 33.4219 13.8991 33.4219C21.3241 33.4219 27.3646 27.3813 27.3646 19.9564C27.3646 13.9916 23.4658 8.92104 18.083 7.15707C18.2986 6.7498 18.4528 6.31574 18.5408 5.8649C18.8732 6.09606 19.2765 6.2321 19.7111 6.2321C20.2114 6.2321 20.6704 6.05216 21.0271 5.75389C21.3217 6.2581 21.8271 6.63483 22.4459 6.74338C22.8917 6.82171 23.3386 6.75045 23.7309 6.55067C23.9052 7.10792 24.3135 7.58821 24.8923 7.83253C25.2726 7.99308 25.6844 8.03588 26.085 7.95683C26.1006 8.53996 26.362 9.1129 26.8515 9.50578C27.1401 9.73746 27.4726 9.87804 27.8144 9.93193C27.6281 10.4852 27.6765 11.1135 28.0013 11.6512C28.2651 12.0878 28.6667 12.3909 29.1171 12.539C28.8289 13.0874 28.8039 13.71 29.0286 14.2668C29.2124 14.7223 29.5455 15.0889 29.9754 15.3149C29.6004 15.8076 29.4724 16.4169 29.6013 17.0032C29.8431 18.1026 30.9304 18.8146 32.0499 18.5687C33.1564 18.3252 33.8586 17.2268 33.6152 16.1203ZM14.3854 6.50054V5.43882H14.8857C15.1543 5.43882 15.372 5.22114 15.372 4.9525C15.372 4.68386 15.1543 4.46619 14.8857 4.46619H12.9125C12.6439 4.46619 12.4262 4.68386 12.4262 4.9525C12.4262 5.22114 12.6439 5.43882 12.9125 5.43882H13.4128V6.49983C12.4808 6.53271 11.5645 6.66012 10.6741 6.87864C10.3253 6.29739 10.142 5.63795 10.142 4.9525C10.142 2.88086 11.8274 1.19548 13.899 1.19548C15.9707 1.19548 17.6561 2.88086 17.6561 4.9525C17.6561 5.63918 17.4722 6.29979 17.1222 6.88182C16.2406 6.66434 15.3252 6.53407 14.3854 6.50054ZM19.7111 5.25947C19.1144 5.25947 18.6289 4.77399 18.6289 4.17718C18.6289 3.58044 19.1144 3.09497 19.7111 3.09497C20.3079 3.09497 20.7934 3.58044 20.7934 4.17718C20.7934 4.77399 20.3079 5.25947 19.7111 5.25947ZM22.614 5.78546C22.0262 5.68224 21.6319 5.12012 21.735 4.53239C21.8385 3.94285 22.4019 3.55081 22.9881 3.65339C23.5759 3.75662 23.9702 4.31874 23.8671 4.90646C23.7637 5.49549 23.2036 5.88889 22.614 5.78546ZM25.2705 6.93648C24.7217 6.70486 24.4633 6.07051 24.6932 5.52136C24.694 5.51948 24.6948 5.51767 24.6956 5.51579C24.8732 5.09827 25.2774 4.85654 25.6915 4.85654C26.4611 4.85654 26.9899 5.64612 26.6884 6.36029C26.456 6.91112 25.8217 7.16946 25.2705 6.93648ZM27.289 7.23255C27.2919 7.22905 27.2947 7.22541 27.2974 7.22185C27.5109 6.95865 27.8234 6.82158 28.1388 6.82158C28.3766 6.82158 28.6159 6.89932 28.8153 7.05942C29.2808 7.43304 29.3554 8.11557 28.9818 8.58094C28.6081 9.04631 27.9256 9.12094 27.4603 8.74739C26.9971 8.37552 26.9214 7.69773 27.289 7.23255ZM28.8337 11.1483C28.5251 10.6375 28.6896 9.97083 29.2004 9.66225C29.7135 9.35237 30.3776 9.51791 30.6864 10.0289C30.9958 10.5409 30.8317 11.2056 30.3197 11.515C29.8088 11.8233 29.1423 11.659 28.8337 11.1483ZM30.5291 12.4942C31.0845 12.2699 31.7144 12.5391 31.9378 13.0928C32.1616 13.6473 31.8941 14.2776 31.3392 14.5015C30.7849 14.7254 30.1544 14.4577 29.9305 13.9029C29.7067 13.3484 29.9743 12.7181 30.5291 12.4942ZM31.8408 17.6188C31.2569 17.7474 30.6797 17.3788 30.5512 16.7943C30.4227 16.2103 30.7913 15.6332 31.3756 15.5048C31.9593 15.376 32.5368 15.7449 32.6652 16.3292C32.7935 16.9121 32.4237 17.4906 31.8408 17.6188Z" fill="url(#paint0_linear)"/>
<path d="M13.8995 14.0498C13.6308 14.0498 13.4132 14.2675 13.4132 14.5361V19.4703H10.7285C10.4599 19.4703 10.2422 19.688 10.2422 19.9567C10.2422 20.2253 10.4599 20.443 10.7285 20.443H13.8995C14.1681 20.443 14.3858 20.2253 14.3858 19.9567V14.5361C14.3858 14.2675 14.1681 14.0498 13.8995 14.0498Z" fill="url(#paint1_linear)"/>
<path d="M18.4765 28.8013C18.6117 29.0335 18.9092 29.1119 19.1415 28.9769C22.3539 27.106 24.3302 23.6816 24.3309 19.9584C24.3309 19.9578 24.331 19.9572 24.331 19.9565C24.331 19.956 24.3309 19.9554 24.3309 19.9549C24.33 14.2046 19.6499 9.52441 13.8989 9.52441C8.12123 9.52441 3.4668 14.225 3.4668 19.9565C3.4668 25.7083 8.14801 30.3886 13.8989 30.3886C15.0501 30.3886 16.1818 30.202 17.2627 29.834C17.5169 29.7475 17.6529 29.4712 17.5663 29.2169C17.4798 28.9626 17.2032 28.8268 16.9492 28.9133C16.122 29.1949 15.2616 29.3588 14.3852 29.4031V28.4543C14.3852 28.1857 14.1675 27.968 13.8989 27.968C13.6302 27.968 13.4125 28.1857 13.4125 28.4543V29.4036C11.1701 29.2895 9.13154 28.3906 7.56605 26.9771L8.23386 26.3093C8.42379 26.1193 8.42379 25.8115 8.23386 25.6215C8.04388 25.4317 7.736 25.4317 7.54608 25.6215L6.87827 26.2894C5.46478 24.7239 4.56587 22.6853 4.45181 20.4429H5.4011C5.66974 20.4429 5.88742 20.2252 5.88742 19.9565C5.88742 19.6879 5.66974 19.4702 5.4011 19.4702H4.45181C4.56594 17.2278 5.46484 15.1892 6.87827 13.6237L7.54615 14.2916C7.64114 14.3865 7.76564 14.434 7.89007 14.434C8.0145 14.434 8.139 14.3865 8.23399 14.2916C8.42392 14.1016 8.42392 13.7938 8.23399 13.6038L7.56612 12.936C9.1316 11.5225 11.1702 10.6236 13.4126 10.5094V11.4588C13.4126 11.7274 13.6303 11.9451 13.8989 11.9451C14.1676 11.9451 14.3852 11.7274 14.3852 11.4588V10.5094C16.6277 10.6236 18.6663 11.5225 20.2317 12.936L19.5639 13.6038C19.3739 13.7938 19.3739 14.1017 19.5639 14.2916C19.6589 14.3865 19.7834 14.434 19.9078 14.434C20.0322 14.434 20.1567 14.3865 20.2517 14.2916L20.9196 13.6237C22.333 15.1892 23.2319 17.2278 23.346 19.4702H22.3968C22.1281 19.4702 21.9104 19.6879 21.9104 19.9565C21.9104 20.2252 22.1281 20.4429 22.3968 20.4429H23.3446C23.2372 22.5358 22.4416 24.6081 20.9217 26.2915L20.2517 25.6215C20.0617 25.4317 19.7538 25.4317 19.5639 25.6215C19.374 25.8115 19.374 26.1194 19.5639 26.3093L20.2337 26.9791C19.7488 27.4169 19.2194 27.806 18.6521 28.1363C18.4199 28.2716 18.3413 28.5693 18.4765 28.8013Z" fill="url(#paint2_linear)"/>
<defs>
<linearGradient id="paint0_linear" x1="1.08591" y1="0.222656" x2="33.8169" y2="0.222656" gradientUnits="userSpaceOnUse">
<stop stop-color="#FFA200"/>
<stop offset="1" stop-color="#FFBF42"/>
</linearGradient>
<linearGradient id="paint1_linear" x1="10.3235" y1="14.0498" x2="14.4049" y2="14.0498" gradientUnits="userSpaceOnUse">
<stop stop-color="#FFA200"/>
<stop offset="1" stop-color="#FFBF42"/>
</linearGradient>
<linearGradient id="paint2_linear" x1="3.87637" y1="9.52441" x2="24.4274" y2="9.52441" gradientUnits="userSpaceOnUse">
<stop stop-color="#FFA200"/>
<stop offset="1" stop-color="#FFBF42"/>
</linearGradient>
</defs>
</svg>
