<svg width="19" height="25" viewBox="0 0 19 25" fill="none" xmlns="http://www.w3.org/2000/svg">
<path d="M6.53945 24.2361H3.42158C3.01968 24.2361 2.69386 23.9201 2.69386 23.5304V21.2127H1.08318C0.681291 21.2127 0.355469 20.8967 0.355469 20.507V17.4836C0.355469 17.0939 0.681291 16.778 1.08318 16.778H2.69386V15.1659H1.08318C0.681291 15.1659 0.355469 14.85 0.355469 14.4603V11.4369C0.355469 11.0472 0.681291 10.7312 1.08318 10.7312H2.69386V0.855078C2.69386 0.465363 3.01968 0.149414 3.42158 0.149414H11.2162C15.4857 0.149414 18.9591 3.51759 18.9591 7.65768C18.9591 11.8043 15.4997 15.1659 11.2162 15.1659H7.26717V16.778H11.9957C12.3976 16.778 12.7234 17.094 12.7234 17.4837V20.5071C12.7234 20.8968 12.3976 21.2127 11.9957 21.2127H7.26717V23.5304C7.26717 23.9201 6.94139 24.2361 6.53945 24.2361ZM4.14934 22.8247H5.81178V20.507C5.81178 20.1173 6.13761 19.8013 6.5395 19.8013H11.268V18.1893H6.53945C6.13756 18.1893 5.81174 17.8733 5.81174 17.4836V14.4603C5.81174 14.0706 6.13756 13.7546 6.53945 13.7546H11.2162C14.6886 13.7546 17.5037 11.0305 17.5037 7.65768C17.5037 4.2958 14.6832 1.56074 11.2162 1.56074H4.14934V11.4369C4.14934 11.8266 3.82352 12.1425 3.42163 12.1425H1.81095V13.7546H3.42163C3.82352 13.7546 4.14934 14.0706 4.14934 14.4603V17.4837C4.14934 17.8734 3.82352 18.1893 3.42163 18.1893H1.81095V19.8014H3.42163C3.82352 19.8014 4.14934 20.1173 4.14934 20.5071V22.8247Z" fill="url(#paint0_linear)"/>
<path d="M11.215 12.1426H6.53826C6.13637 12.1426 5.81055 11.8266 5.81055 11.4369V3.87852C5.81055 3.4888 6.13637 3.17285 6.53826 3.17285H11.215C13.7652 3.17285 15.8401 5.18479 15.8401 7.65772C15.8401 10.1306 13.7652 12.1426 11.215 12.1426ZM7.26593 10.7313H11.215C12.9627 10.7313 14.3846 9.35249 14.3846 7.65772C14.3846 5.96295 12.9627 4.58418 11.215 4.58418H7.26593V10.7313Z" fill="url(#paint1_linear)"/>
<defs>
<linearGradient id="paint0_linear" x1="0.720666" y1="0.149414" x2="19.0451" y2="0.149414" gradientUnits="userSpaceOnUse">
<stop stop-color="#FFA200"/>
<stop offset="1" stop-color="#FFBF42"/>
</linearGradient>
<linearGradient id="paint1_linear" x1="6.00743" y1="3.17285" x2="15.8864" y2="3.17285" gradientUnits="userSpaceOnUse">
<stop stop-color="#FFA200"/>
<stop offset="1" stop-color="#FFBF42"/>
</linearGradient>
</defs>
</svg>
