<svg width="35" height="25" viewBox="0 0 35 25" fill="none" xmlns="http://www.w3.org/2000/svg">
<path d="M34.9385 15.0136L28.9255 0.49682C28.8438 0.299615 28.6872 0.142968 28.49 0.0613179C28.2928 -0.0204393 28.0713 -0.0204393 27.8741 0.0613179L7.85122 8.35528C7.65401 8.43693 7.49737 8.59358 7.41572 8.79078C7.33407 8.98799 7.33407 9.20955 7.41582 9.40664L13.4297 23.9234C13.558 24.2334 13.8577 24.4204 14.1735 24.4204C14.2761 24.4204 14.3804 24.4005 14.4811 24.3589L34.5031 16.0649C34.9136 15.8949 35.1086 15.4242 34.9385 15.0136ZM22.3892 15.1346L10.1494 9.14528L26.8077 2.24505L22.3892 15.1346ZM22.501 16.981C22.6124 17.0356 22.7334 17.063 22.8546 17.063C22.9591 17.063 23.0638 17.0427 23.1627 17.0017C23.376 16.9134 23.541 16.7377 23.6159 16.5192L25.3401 11.4892L32.2711 15.2475L15.481 22.2026L17.7246 14.6438L22.501 16.981ZM32.6115 13.6013L25.8695 9.94547L28.2368 3.03956L32.6115 13.6013ZM9.70073 10.7173L16.2589 13.9265L14.0764 21.2796L9.70073 10.7173Z" fill="black"/>
<path d="M0.804697 12.5869H5.4758C5.92021 12.5869 6.2805 12.2268 6.2805 11.7822C6.2805 11.3377 5.92021 10.9775 5.4758 10.9775H0.804697C0.36029 10.9775 0 11.3377 0 11.7822C0 12.2266 0.36029 12.5869 0.804697 12.5869Z" fill="black"/>
<path d="M8.80585 20.1272H0.804697C0.36029 20.1272 0 20.4874 0 20.9319C0 21.3764 0.36029 21.7366 0.804697 21.7366H8.80585C9.25026 21.7366 9.61055 21.3764 9.61055 20.9319C9.61055 20.4874 9.25026 20.1272 8.80585 20.1272Z" fill="black"/>
<path d="M0.804697 17.1616H7.14131C7.58572 17.1616 7.946 16.8015 7.946 16.3569C7.946 15.9124 7.58572 15.5522 7.14131 15.5522H0.804697C0.36029 15.5522 0 15.9124 0 16.3569C0 16.8015 0.36029 17.1616 0.804697 17.1616Z" fill="black"/>
</svg>
