<svg width="24" height="24" viewBox="0 0 24 24" fill="none" xmlns="http://www.w3.org/2000/svg">
<path d="M16.9219 18.5625C16.4041 18.5625 15.9844 18.9822 15.9844 19.5V22.125H2.57812V1.875H15.9844V4.5C15.9844 5.01778 16.4041 5.4375 16.9219 5.4375C17.4397 5.4375 17.8594 5.01778 17.8594 4.5V0.9375C17.8594 0.419719 17.4397 0 16.9219 0H1.64062C1.12284 0 0.703125 0.419719 0.703125 0.9375V23.0625C0.703125 23.5803 1.12284 24 1.64062 24H16.9219C17.4397 24 17.8594 23.5803 17.8594 23.0625V19.5C17.8594 18.9822 17.4397 18.5625 16.9219 18.5625Z" fill="black"/>
<path d="M23.0222 11.3371L20.5031 8.81805C20.137 8.4519 19.5435 8.45195 19.1773 8.81805C18.8112 9.18414 18.8112 9.77777 19.1773 10.1439L20.096 11.0625L12.3298 11.0625C11.8121 11.0625 11.3923 11.4822 11.3923 12C11.3923 12.5178 11.8121 12.9375 12.3298 12.9375L20.0961 12.9375L19.1774 13.8562C18.8112 14.2223 18.8112 14.8159 19.1774 15.1821C19.5435 15.5482 20.1371 15.5481 20.5032 15.182L23.0222 12.6629C23.0223 12.6628 23.0224 12.6627 23.0224 12.6627C23.211 12.4739 23.29 12.2557 23.2968 12C23.2968 11.7473 23.1894 11.5043 23.0222 11.3371Z" fill="black"/>
</svg>
