<svg width="19" height="19" viewBox="0 0 19 19" fill="none" xmlns="http://www.w3.org/2000/svg">
<path d="M4.74039 7.75586H3.5625C3.41458 7.75586 3.27272 7.81475 3.16825 7.91951C3.06379 8.02427 3.00538 8.16633 3.00586 8.31428L3.01406 12.5427C3.01406 12.8501 3.26329 13.0993 3.5707 13.0993C3.87812 13.0993 4.12734 12.8501 4.12734 12.5427V11.2588C4.35494 11.2577 4.59808 11.2567 4.74039 11.2567C5.71845 11.2567 6.51418 10.4714 6.51418 9.50627C6.51418 8.54109 5.71845 7.75586 4.74039 7.75586ZM4.74039 10.1434C4.59682 10.1434 4.35278 10.1444 4.1243 10.1456C4.12311 9.90861 4.12208 9.65341 4.12208 9.50627C4.12208 9.38036 4.12144 9.11685 4.12078 8.86914H4.74035C5.09839 8.86914 5.40086 9.16089 5.40086 9.50627C5.40086 9.85165 5.09842 10.1434 4.74039 10.1434Z" fill="#FFA200"/>
<path d="M9.47514 7.75586H8.3125C8.16469 7.75586 8.02294 7.81464 7.91851 7.91925C7.81408 8.02386 7.75556 8.16573 7.75586 8.31354C7.75586 8.31358 7.76414 12.4047 7.76417 12.4195C7.76473 12.5672 7.82388 12.7086 7.92868 12.8126C8.03299 12.9161 8.17393 12.9742 8.32081 12.9742H8.32293C8.35807 12.974 9.18735 12.9709 9.51889 12.9651C10.7767 12.9431 11.6896 11.8496 11.6896 10.365C11.6895 8.80442 10.7996 7.75586 9.47514 7.75586ZM9.49944 11.852C9.35527 11.8545 9.10724 11.8566 8.8756 11.858C8.87404 11.3745 8.871 9.3716 8.87014 8.86914H9.47514C10.4969 8.86914 10.5762 10.0141 10.5762 10.3651C10.5762 11.0958 10.2433 11.839 9.49944 11.852Z" fill="#FFA200"/>
<path d="M15.3582 8.82617C15.6656 8.82617 15.9148 8.57694 15.9148 8.26953C15.9148 7.96212 15.6656 7.71289 15.3582 7.71289H13.6562C13.3488 7.71289 13.0996 7.96212 13.0996 8.26953V12.4687C13.0996 12.7762 13.3488 13.0254 13.6562 13.0254C13.9637 13.0254 14.2129 12.7762 14.2129 12.4687V10.886H15.223C15.5304 10.886 15.7796 10.6368 15.7796 10.3294C15.7796 10.022 15.5304 9.77275 15.223 9.77275H14.2129V8.82617H15.3582Z" fill="#FFA200"/>
<path d="M16.9961 5.38086H16.5879V5.22207C16.5879 4.50653 16.3168 3.8265 15.8245 3.30719L13.5124 0.868322C12.9892 0.316506 12.253 0 11.4926 0H4.08203C3.16124 0 2.41211 0.749127 2.41211 1.66992V5.38086H2.00391C1.08311 5.38086 0.333984 6.12999 0.333984 7.05078V13.7305C0.333984 14.6513 1.08311 15.4004 2.00391 15.4004H2.41211V17.3301C2.41211 18.2509 3.16124 19 4.08203 19H14.918C15.8388 19 16.5879 18.2509 16.5879 17.3301V15.4004H16.9961C17.9169 15.4004 18.666 14.6513 18.666 13.7305V7.05078C18.666 6.12999 17.9169 5.38086 16.9961 5.38086ZM3.52539 1.66992C3.52539 1.36299 3.7751 1.11328 4.08203 1.11328H11.4926C11.9488 1.11328 12.3906 1.30317 12.7045 1.6343L15.0166 4.07316C15.312 4.38473 15.4746 4.79275 15.4746 5.22207V5.38086H3.52539V1.66992ZM15.4746 17.3301C15.4746 17.637 15.2249 17.8867 14.918 17.8867H4.08203C3.7751 17.8867 3.52539 17.637 3.52539 17.3301V15.4004H15.4746V17.3301ZM17.5527 13.7305C17.5527 14.0374 17.303 14.2871 16.9961 14.2871H2.00391C1.69697 14.2871 1.44727 14.0374 1.44727 13.7305V7.05078C1.44727 6.74385 1.69697 6.49414 2.00391 6.49414H16.9961C17.303 6.49414 17.5527 6.74385 17.5527 7.05078V13.7305Z" fill="#FFA200"/>
</svg>
