<svg width="42" height="31" viewBox="0 0 42 31" fill="none" xmlns="http://www.w3.org/2000/svg">
<path d="M5.00679 17.8903C4.64522 18.06 4.4857 18.487 4.64683 18.8521L6.29837 22.3974C6.37951 22.5739 6.52754 22.7114 6.70959 22.7792C6.78935 22.8082 6.87394 22.8231 6.95898 22.8231C7.06541 22.824 7.17045 22.8013 7.26722 22.7574L19.7454 16.929L18.6151 28.7463C18.5933 28.979 18.683 29.2077 18.857 29.3631C19.404 29.8159 20.0858 30.0738 20.7951 30.097C20.9907 30.0968 21.1852 30.0722 21.3748 30.0239C22.3878 29.7596 23.1733 28.8569 23.7091 27.3152L28.6195 12.7748L38.3449 8.2383C41.2076 6.90259 42.6828 4.19415 41.6921 2.08014C41.1299 0.975205 40.053 0.223565 38.8221 0.0762248C37.4544 -0.130189 36.0566 0.0849594 34.8145 0.693167L23.5914 5.9558L11.5247 1.23609C10.0051 0.663745 8.80154 0.678456 7.95749 1.28781C7.2493 1.8689 6.84635 2.74236 6.86359 3.65835C6.87095 3.89074 6.98795 4.10566 7.17919 4.23852L15.3045 9.8241L10.6512 12.0261L2.84841 10.0441C2.52868 9.96546 2.19584 10.1096 2.03379 10.3964L0.088949 13.8974C-0.0119592 14.0829 -0.0278195 14.3031 0.0455056 14.5013C0.118371 14.6996 0.273296 14.8566 0.470745 14.9325L6.24734 17.3182L5.00679 17.8903ZM8.36802 3.2915C8.41123 2.98119 8.56823 2.69869 8.80866 2.49871C9.22724 2.1976 9.9906 2.24173 11.0107 2.6233L21.7566 6.81455L16.8533 9.10464L8.36802 3.2915ZM1.76232 13.8903L3.03942 11.6223L10.5482 13.4864C10.7101 13.5274 10.8808 13.512 11.033 13.4428L35.4385 2.04359C36.4088 1.56502 37.5015 1.39079 38.5727 1.54434C39.3239 1.61352 39.993 2.04704 40.3637 2.70398C40.9798 4.02544 39.7689 5.9558 37.7208 6.90994L29.2652 10.8739L29.7792 9.35403C29.9091 8.96304 29.6969 8.54056 29.3059 8.41092C28.9145 8.28128 28.4922 8.49344 28.3626 8.88443L22.3216 26.8599C21.9619 27.8805 21.5141 28.4898 21.0151 28.6215C20.7059 28.6811 20.386 28.6204 20.1196 28.453L21.5877 13.0387C21.6261 12.6334 21.3289 12.2737 20.9232 12.2353C20.5179 12.1965 20.1582 12.4941 20.1196 12.8994L19.8922 15.2554L7.29642 21.1274L6.26205 18.9254L8.33147 17.9567C8.59788 17.8393 8.76959 17.5759 8.76959 17.2851C8.76959 16.9941 8.59788 16.7307 8.33147 16.6135L1.76232 13.8903Z" fill="#FF0050"/>
</svg>
