<svg width="18" height="17" viewBox="0 0 18 17" fill="none" xmlns="http://www.w3.org/2000/svg">
<g clip-path="url(#clip0)">
<path d="M10.4118 16.0444L10.4056 16.0709L10.4056 4.69532L14.2004 8.2714C14.3857 8.44652 14.6367 8.54257 14.9001 8.54257C15.1635 8.54257 15.4127 8.44652 15.5984 8.2714L16.1879 7.71496C16.3731 7.53999 16.4756 7.30683 16.4756 7.05818C16.4756 6.8094 16.3739 6.5761 16.1886 6.40113L9.69851 0.271036C9.51251 0.0953693 9.26476 -0.000687669 9.00119 3.37616e-06C8.73617 -0.000687692 8.48827 0.0953692 8.30256 0.271036L1.81188 6.40113C1.62676 6.5761 1.5249 6.80926 1.5249 7.05818C1.5249 7.30682 1.6269 7.53999 1.81188 7.71496L2.40134 8.2714C2.58632 8.44652 2.83334 8.54257 3.09676 8.54257C3.36002 8.54257 3.59402 8.44652 3.77915 8.2714L7.59515 4.65496L7.59515 16.0571C7.59515 16.5695 8.06271 17 8.6049 17L9.43861 17C9.9808 17 10.4118 16.5568 10.4118 16.0444Z" fill="#54BA24"/>
</g>
<defs>
<clipPath id="clip0">
<rect width="17" height="18" fill="white" transform="translate(18) rotate(90)"/>
</clipPath>
</defs>
</svg>
