<svg width="21" height="21" viewBox="0 0 21 21" fill="none" xmlns="http://www.w3.org/2000/svg">
<g clip-path="url(#clip0)">
<path d="M20.1372 5.07402L15.5031 0.439883C15.503 0.439844 15.503 0.439766 15.5029 0.439727C15.3698 0.30668 15.1835 0.225586 14.9857 0.225586C14.3991 0.225586 1.64195 0.225586 1.08328 0.225586C0.67918 0.225586 0.351562 0.553203 0.351562 0.957305V19.4939C0.351562 19.898 0.67918 20.2256 1.08328 20.2256C1.96465 20.2256 18.7533 20.2256 19.6199 20.2256C20.024 20.2256 20.3516 19.898 20.3516 19.4939V5.59144C20.3516 5.39738 20.2745 5.21129 20.1372 5.07402ZM6.44914 1.68898H14.254V6.01801H6.44914V1.68898ZM15.9941 18.7622H4.70898V12.6059H15.9941V18.7622ZM18.8882 18.7622H17.4576V11.8742C17.4576 11.4701 17.13 11.1425 16.7259 11.1425H3.97727C3.57316 11.1425 3.24555 11.4701 3.24555 11.8742V18.7622H1.81496V1.68898H4.9857V6.74973C4.9857 7.15383 5.31332 7.48145 5.71742 7.48145H14.9857C15.3898 7.48145 15.7174 7.15383 15.7174 6.74973V2.72379L18.8882 5.89453V18.7622Z" fill="white"/>
<path d="M12.4427 2.375C12.0386 2.375 11.7109 2.70262 11.7109 3.10672V4.60109C11.7109 5.00523 12.0385 5.33281 12.4427 5.33281C12.8468 5.33281 13.1744 5.00519 13.1744 4.60109V3.10672C13.1744 2.70262 12.8468 2.375 12.4427 2.375Z" fill="white"/>
</g>
<defs>
<clipPath id="clip0">
<rect width="20" height="20" fill="white" transform="translate(0.351562 0.225586)"/>
</clipPath>
</defs>
</svg>
