<svg width="68" height="27" viewBox="0 0 68 27" fill="none" xmlns="http://www.w3.org/2000/svg">
<path d="M0.471875 3.208V7.336H11.7039L3.09588 25H8.27988L17.2079 6.664V3.208H0.471875ZM19.9089 8.808C19.9089 11.016 20.9969 12.456 22.5009 13.48C20.4529 14.696 19.1089 16.776 19.1089 18.952C19.1089 22.28 21.8609 25.448 28.3569 25.448C34.9169 25.448 37.5409 22.312 37.5409 19.112C37.5409 16.488 35.9729 14.952 33.9889 13.96C35.7489 12.648 36.7729 11.048 36.7409 8.936C36.7089 5.896 33.8289 2.792 28.2929 2.792C22.3409 2.792 19.9089 5.896 19.9089 8.808ZM28.8369 16.04C30.9809 16.776 32.7729 17.384 32.7729 19.24C32.7729 20.712 31.0129 21.672 28.7089 21.672C25.4129 21.672 23.9409 20.232 23.9089 18.376C23.8769 17.256 24.4209 15.944 25.6049 14.952C26.7249 15.368 27.8769 15.688 28.8369 16.04ZM32.1329 9.288C32.1649 10.344 31.6209 11.624 30.5969 12.648C29.8929 12.456 29.2209 12.232 28.5809 12.072C26.4369 11.368 24.4849 10.76 24.4849 8.84C24.4849 7.624 25.7969 6.568 28.1009 6.568C30.7889 6.568 32.1329 7.784 32.1329 9.288ZM48.7154 26.92L61.8034 0.679998H58.6034L45.5154 26.92H48.7154ZM51.3714 7.656C51.3714 4.04 48.6834 2.152 45.6114 2.152C42.5074 2.152 39.7874 4.04 39.7874 7.656C39.7874 11.272 42.5074 13.16 45.6114 13.16C48.6834 13.16 51.3714 11.272 51.3714 7.656ZM43.3714 7.656C43.3714 6.504 44.0434 5.448 45.6114 5.448C47.1154 5.448 47.7874 6.504 47.7874 7.656C47.7874 8.808 47.1154 9.864 45.6114 9.864C44.0434 9.864 43.3714 8.808 43.3714 7.656ZM67.4034 19.944C67.4034 16.328 64.7154 14.44 61.6434 14.44C58.5394 14.44 55.8194 16.328 55.8194 19.944C55.8194 23.56 58.5394 25.448 61.6434 25.448C64.7154 25.448 67.4034 23.56 67.4034 19.944ZM59.4034 19.944C59.4034 18.792 60.0754 17.736 61.6434 17.736C63.1474 17.736 63.8194 18.792 63.8194 19.944C63.8194 21.096 63.1474 22.152 61.6434 22.152C60.0754 22.152 59.4034 21.096 59.4034 19.944Z" fill="#F88E2C"/>
</svg>
