<svg width="62" height="52" viewBox="0 0 62 52" fill="none" xmlns="http://www.w3.org/2000/svg">
<path d="M8.43491 22.64C8.43491 28.592 17.6269 27.416 17.6269 30.56C17.6269 31.76 16.4269 32.168 14.4829 32.168C12.5629 32.168 10.4509 31.664 8.53091 30.392V33.824C10.2589 34.784 12.4189 35.336 14.7469 35.336C18.2749 35.336 21.2989 34.16 21.2989 30.392C21.2989 24.416 12.1069 25.496 12.1069 22.592C12.1069 21.56 13.0189 21.056 14.8429 21.032C16.7149 21.008 18.6109 21.512 20.0269 22.52V19.16C18.5869 18.344 16.5709 17.864 14.5789 17.864C11.2669 17.864 8.43491 19.4 8.43491 22.64ZM23.7336 18.2V35H35.5656V31.76H27.3336V18.2H23.7336ZM39.6709 35L40.9189 31.856H48.5989L49.8229 35H53.5429L46.7029 18.2H42.8149L35.9509 35H39.6709ZM44.3749 22.856C44.5189 22.52 44.6389 22.184 44.7589 21.536C44.8789 22.184 44.9989 22.52 45.1189 22.856L47.4709 28.88H42.0469L44.3749 22.856Z" fill="#F88E2C"/>
<path fill-rule="evenodd" clip-rule="evenodd" d="M0.491943 2.42445V9.31703H2.21521L2.21521 2.42445H9.1078V0.701181H2.21521V0.701172L0.491943 0.701172V0.701181V2.42445Z" fill="#F88E2C"/>
<path fill-rule="evenodd" clip-rule="evenodd" d="M0.491943 50.1957V43.3031H2.21521L2.21521 50.1957H9.1078V51.9189H2.21521V51.9189L0.491943 51.9189V51.9189V50.1957Z" fill="#F88E2C"/>
<path fill-rule="evenodd" clip-rule="evenodd" d="M61.2434 2.42445V9.31703H59.5201L59.5201 2.42445H52.6276V0.701181H59.5201V0.701172L61.2434 0.701172V0.701181V2.42445Z" fill="#F88E2C"/>
<path fill-rule="evenodd" clip-rule="evenodd" d="M61.2434 50.1957V43.3031H59.5201L59.5201 50.1957H52.6276V51.9189H59.5201V51.9189L61.2434 51.9189V51.9189V50.1957Z" fill="#F88E2C"/>
</svg>
