<svg width="59" height="58" viewBox="0 0 59 58" fill="none" xmlns="http://www.w3.org/2000/svg">
<path d="M14.125 30.6016C13.5573 31.112 12.9219 31.3672 12.2188 31.3672C11.1875 31.3672 10.3698 31.0182 9.76562 30.3203C9.16146 29.6224 8.85938 28.6901 8.85938 27.5234C8.85938 26.7943 9.02865 26.1172 9.36719 25.4922C9.70573 24.8672 10.1797 24.3724 10.7891 24.0078C11.4036 23.6432 12.0807 23.4609 12.8203 23.4609C13.5703 23.4609 14.2474 23.651 14.8516 24.0312C15.4609 24.4062 15.9349 24.9401 16.2734 25.6328C16.612 26.3203 16.7865 27.1146 16.7969 28.0156V29.0234C16.7969 30.2786 16.5495 31.3672 16.0547 32.2891C15.5651 33.2109 14.8646 33.9193 13.9531 34.4141C13.0417 34.9089 11.9792 35.1562 10.7656 35.1562H10.6016V33.0469L11.1016 33.0391C12.9141 32.9505 13.9219 32.138 14.125 30.6016ZM12.9297 29.4688C13.5026 29.4688 13.9141 29.2214 14.1641 28.7266V27.6328C14.1641 26.9036 14.0417 26.3646 13.7969 26.0156C13.5521 25.6667 13.2214 25.4922 12.8047 25.4922C12.4349 25.4922 12.125 25.6901 11.875 26.0859C11.625 26.4818 11.5 26.9609 11.5 27.5234C11.5 28.1172 11.6276 28.5911 11.8828 28.9453C12.138 29.2943 12.487 29.4688 12.9297 29.4688ZM23.3906 30.6016C22.8229 31.112 22.1875 31.3672 21.4844 31.3672C20.4531 31.3672 19.6354 31.0182 19.0312 30.3203C18.4271 29.6224 18.125 28.6901 18.125 27.5234C18.125 26.7943 18.2943 26.1172 18.6328 25.4922C18.9714 24.8672 19.4453 24.3724 20.0547 24.0078C20.6693 23.6432 21.3464 23.4609 22.0859 23.4609C22.8359 23.4609 23.513 23.651 24.1172 24.0312C24.7266 24.4062 25.2005 24.9401 25.5391 25.6328C25.8776 26.3203 26.0521 27.1146 26.0625 28.0156V29.0234C26.0625 30.2786 25.8151 31.3672 25.3203 32.2891C24.8307 33.2109 24.1302 33.9193 23.2188 34.4141C22.3073 34.9089 21.2448 35.1562 20.0312 35.1562H19.8672V33.0469L20.3672 33.0391C22.1797 32.9505 23.1875 32.138 23.3906 30.6016ZM22.1953 29.4688C22.7682 29.4688 23.1797 29.2214 23.4297 28.7266V27.6328C23.4297 26.9036 23.3073 26.3646 23.0625 26.0156C22.8177 25.6667 22.487 25.4922 22.0703 25.4922C21.7005 25.4922 21.3906 25.6901 21.1406 26.0859C20.8906 26.4818 20.7656 26.9609 20.7656 27.5234C20.7656 28.1172 20.8932 28.5911 21.1484 28.9453C21.4036 29.2943 21.7526 29.4688 22.1953 29.4688ZM29.1406 32.4453C29.5573 32.4453 29.9036 32.5703 30.1797 32.8203C30.4557 33.0651 30.5938 33.3802 30.5938 33.7656C30.5938 34.151 30.4557 34.4688 30.1797 34.7188C29.9036 34.9635 29.5573 35.0859 29.1406 35.0859C28.7188 35.0859 28.3698 34.9609 28.0938 34.7109C27.8229 34.4609 27.6875 34.1458 27.6875 33.7656C27.6875 33.3854 27.8229 33.0703 28.0938 32.8203C28.3698 32.5703 28.7188 32.4453 29.1406 32.4453ZM37.5 30.6016C36.9323 31.112 36.2969 31.3672 35.5938 31.3672C34.5625 31.3672 33.7448 31.0182 33.1406 30.3203C32.5365 29.6224 32.2344 28.6901 32.2344 27.5234C32.2344 26.7943 32.4036 26.1172 32.7422 25.4922C33.0807 24.8672 33.5547 24.3724 34.1641 24.0078C34.7786 23.6432 35.4557 23.4609 36.1953 23.4609C36.9453 23.4609 37.6224 23.651 38.2266 24.0312C38.8359 24.4062 39.3099 24.9401 39.6484 25.6328C39.987 26.3203 40.1615 27.1146 40.1719 28.0156V29.0234C40.1719 30.2786 39.9245 31.3672 39.4297 32.2891C38.9401 33.2109 38.2396 33.9193 37.3281 34.4141C36.4167 34.9089 35.3542 35.1562 34.1406 35.1562H33.9766V33.0469L34.4766 33.0391C36.2891 32.9505 37.2969 32.138 37.5 30.6016ZM36.3047 29.4688C36.8776 29.4688 37.2891 29.2214 37.5391 28.7266V27.6328C37.5391 26.9036 37.4167 26.3646 37.1719 26.0156C36.9271 25.6667 36.5964 25.4922 36.1797 25.4922C35.8099 25.4922 35.5 25.6901 35.25 26.0859C35 26.4818 34.875 26.9609 34.875 27.5234C34.875 28.1172 35.0026 28.5911 35.2578 28.9453C35.513 29.2943 35.862 29.4688 36.3047 29.4688ZM41.5859 25.8125C41.5859 25.1094 41.8151 24.5417 42.2734 24.1094C42.7318 23.6771 43.3464 23.4609 44.1172 23.4609C44.8984 23.4609 45.5156 23.6771 45.9688 24.1094C46.4219 24.5365 46.6484 25.1172 46.6484 25.8516V26.4141C46.6484 27.1172 46.4219 27.6823 45.9688 28.1094C45.5156 28.5365 44.9036 28.75 44.1328 28.75C43.3672 28.75 42.75 28.5391 42.2812 28.1172C41.8177 27.6901 41.5859 27.1068 41.5859 26.3672V25.8125ZM43.2812 26.4141C43.2812 26.6849 43.3568 26.9062 43.5078 27.0781C43.6589 27.2448 43.8672 27.3281 44.1328 27.3281C44.6797 27.3281 44.9531 26.9792 44.9531 26.2812V25.8125C44.9531 25.5417 44.8802 25.3203 44.7344 25.1484C44.5885 24.9714 44.3828 24.8828 44.1172 24.8828C43.862 24.8828 43.6589 24.9688 43.5078 25.1406C43.3568 25.3073 43.2812 25.5365 43.2812 25.8281V26.4141ZM46.9922 32.2109C46.9922 31.5026 47.2214 30.9349 47.6797 30.5078C48.1432 30.0807 48.7578 29.8672 49.5234 29.8672C50.2995 29.8672 50.9167 30.0781 51.375 30.5C51.8333 30.9219 52.0625 31.5104 52.0625 32.2656V32.8125C52.0625 33.5208 51.8359 34.0885 51.3828 34.5156C50.9297 34.9427 50.3151 35.1562 49.5391 35.1562C48.7734 35.1562 48.1562 34.9453 47.6875 34.5234C47.224 34.0964 46.9922 33.513 46.9922 32.7734V32.2109ZM48.6797 32.8125C48.6797 33.0573 48.763 33.2734 48.9297 33.4609C49.0964 33.6432 49.2995 33.7344 49.5391 33.7344C50.0443 33.7344 50.3177 33.4948 50.3594 33.0156L50.3672 32.2109C50.3672 31.9349 50.2917 31.7135 50.1406 31.5469C49.9896 31.375 49.7839 31.2891 49.5234 31.2891C49.2734 31.2891 49.0729 31.3698 48.9219 31.5312C48.7708 31.6875 48.6901 31.901 48.6797 32.1719V32.8125ZM44.6328 34.1484L43.4062 33.5312L48.9609 24.6406L50.1875 25.2578L44.6328 34.1484Z" fill="#F67600"/>
<path fill-rule="evenodd" clip-rule="evenodd" d="M58.4617 28.9185C58.4617 44.8384 45.556 57.7441 29.6361 57.7441C13.7162 57.7441 0.810547 44.8384 0.810547 28.9185C0.810547 13.3151 13.2081 0.607308 28.6902 0.108153V2.76465C14.7748 3.3137 3.66211 14.7682 3.66211 28.8182C3.66211 43.2186 15.3359 54.8924 29.7363 54.8924C44.1367 54.8924 55.8105 43.2186 55.8105 28.8182C55.8105 14.5606 44.3669 2.97574 30.1637 2.74748V0.0976562C45.8402 0.379027 58.4617 13.1748 58.4617 28.9185Z" fill="#F67600"/>
</svg>
