<svg width="35" height="37" viewBox="0 0 35 37" fill="none" xmlns="http://www.w3.org/2000/svg">
<mask id="path-1-inside-1" fill="white">
<path fill-rule="evenodd" clip-rule="evenodd" d="M28.1292 16V0L16 21H21.9997V37L34.1289 16H28.1292Z"/>
</mask>
<path d="M28.1292 0H29.1292C29.1292 -0.452574 28.8252 -0.848731 28.3881 -0.965904C27.9509 -1.08308 27.4896 -0.89205 27.2632 -0.500148L28.1292 0ZM28.1292 16H27.1292C27.1292 16.5523 27.5769 17 28.1292 17V16ZM16 21L15.1341 20.4999C14.9554 20.8093 14.9553 21.1905 15.1339 21.4999C15.3126 21.8094 15.6427 22 16 22V21ZM21.9997 21H22.9997C22.9997 20.4477 22.552 20 21.9997 20V21ZM21.9997 37H20.9997C20.9997 37.4526 21.3037 37.8487 21.7408 37.9659C22.178 38.0831 22.6393 37.8921 22.8657 37.5001L21.9997 37ZM34.1289 16L34.9948 16.5001C35.1735 16.1907 35.1736 15.8095 34.995 15.5001C34.8164 15.1906 34.4862 15 34.1289 15V16ZM27.1292 0V16H29.1292V0H27.1292ZM16.8659 21.5002L28.9951 0.500148L27.2632 -0.500148L15.1341 20.4999L16.8659 21.5002ZM21.9997 20H16V22H21.9997V20ZM22.9997 37V21H20.9997V37H22.9997ZM33.263 15.4998L21.1338 36.4999L22.8657 37.5001L34.9948 16.5001L33.263 15.4998ZM28.1292 17H34.1289V15H28.1292V17Z" fill="#FF0050" mask="url(#path-1-inside-1)"/>
<rect x="6" y="7" width="12" height="2" fill="#FF0050"/>
<rect x="3" y="13" width="12" height="2" fill="#FF0050"/>
<rect y="19" width="12" height="2" fill="#FF0050"/>
<rect x="6" y="25" width="12" height="2" fill="#FF0050"/>
</svg>
