<svg width="37" height="33" viewBox="0 0 37 33" fill="none" xmlns="http://www.w3.org/2000/svg">
<path d="M26.5 32C20.7184 32 16 27.2811 16 21.5C16 15.7184 20.7189 11 26.5 11C32.2816 11 37 15.7189 37 21.5C37 27.2816 32.2811 32 26.5 32ZM32.5235 28.5396C31.0125 26.8448 28.8026 25.8477 26.5 25.8477C24.1974 25.8477 21.9875 26.8448 20.4765 28.5396C22.0977 29.9289 24.2025 30.7695 26.5 30.7695C28.7975 30.7695 30.9023 29.9289 32.5235 28.5396ZM33.2806 20.8848C33.153 19.4688 32.5905 18.1763 31.7274 17.1427L30.8914 17.9787L30.0213 17.1086L30.8573 16.2726C29.8237 15.4095 28.5312 14.847 27.1152 14.7194V15.9219H25.8848V14.7194C24.4688 14.847 23.1763 15.4095 22.1427 16.2726L22.9787 17.1086L22.1086 17.9787L21.2726 17.1427C20.4097 18.1763 19.847 19.4688 19.7194 20.8848H20.9219V22.1148H19.7198C19.8537 23.5971 20.4677 25.004 21.4604 26.097C22.9935 25.11 24.7584 24.6172 26.5 24.6172C28.2379 24.6172 30.0033 25.1079 31.5396 26.097C32.5323 25.004 33.1463 23.5974 33.2802 22.1152H32.0781V20.8848H33.2806ZM26.5 12.2305C21.3887 12.2305 17.2305 16.3887 17.2305 21.5C17.2305 23.8714 18.1259 26.0372 19.5961 27.6783C19.867 27.3782 20.1589 27.0959 20.4683 26.833C19.1858 25.3757 18.4609 23.4688 18.4609 21.5C18.4609 17.0852 22.0847 13.4609 26.5 13.4609C30.9148 13.4609 34.5391 17.0847 34.5391 21.5C34.5391 23.4688 33.8142 25.3757 32.5317 26.833C32.8411 27.0959 33.133 27.3782 33.4039 27.6783C34.8741 26.0372 35.7695 23.8714 35.7695 21.5C35.7695 16.3887 31.6113 12.2305 26.5 12.2305Z" fill="#FF0050"/>
<path d="M28.3457 27.0781H24.6543V28.3086H28.3457V27.0781Z" fill="#FF0050"/>
<path d="M28.0767 22.4596C27.7386 23.0144 27.1492 23.3456 26.5 23.3456C25.4823 23.3456 24.6543 22.5176 24.6543 21.4999C24.6543 20.8507 24.9854 20.2612 25.5403 19.9232L25.572 19.9038L30.2002 17.7998L28.0961 22.4278L28.0767 22.4596ZM26.1545 20.9905C25.985 21.1056 25.8847 21.2937 25.8847 21.4999C25.8847 21.839 26.1608 22.1151 26.5 22.1151C26.7062 22.1151 26.8943 22.0148 27.0093 21.8453L27.7216 20.278L26.1545 20.9905Z" fill="#FF0050"/>
<path d="M0.510219 7.43702C0.746711 7.40155 1.05887 7.34884 1.40447 7.27512C2.13849 7.11855 3.08848 6.85428 3.76829 6.42203C4.48712 5.96497 4.84686 5.50809 5.16926 5.08118C5.18252 5.06362 5.1957 5.04614 5.20882 5.02874C5.50232 4.63948 5.76737 4.28796 6.29429 3.90435C7.61844 2.94034 8.58828 2.36043 10.1189 1.98576C11.4392 1.66256 12.1784 1.52336 13.5088 1.50002C15.0363 1.47322 15.8968 1.57735 17.3673 1.98216C18.5721 2.31384 19.3362 2.88367 20.3797 3.66183C20.4842 3.73978 20.5916 3.81983 20.7024 3.90193C21.2239 4.28809 21.4896 4.6386 21.7819 5.02424C21.7975 5.04476 21.8131 5.06537 21.8289 5.0861C22.1529 5.51264 22.5141 5.96576 23.2317 6.42203C23.9115 6.85427 24.8615 7.11855 25.5955 7.27512C25.957 7.35222 26.2818 7.40634 26.5218 7.44179C26.5226 7.46007 26.5234 7.47892 26.5242 7.49834C26.5369 7.80201 26.5516 8.24335 26.5593 8.79107C26.5748 9.88702 26.5623 11.4063 26.4508 13.0994C26.2264 16.5088 25.605 20.5352 24.065 23.2536C22.7179 25.6316 20.1608 27.9563 17.8952 29.7064C16.7697 30.5759 15.7301 31.2931 14.972 31.7928C14.5932 32.0425 14.2851 32.2376 14.0724 32.3699C14.0485 32.3847 14.0259 32.3987 14.0045 32.4119C13.984 32.3988 13.9624 32.385 13.9396 32.3704C13.7302 32.2359 13.4268 32.0377 13.0532 31.7846C12.3055 31.2781 11.2783 30.5527 10.1606 29.6773C7.91214 27.9164 5.3481 25.5875 3.92773 23.2412C2.28936 20.5347 1.42369 16.4993 0.973856 13.0838C0.750324 11.3866 0.631757 9.86205 0.569118 8.76192C0.537811 8.21209 0.520508 7.76886 0.51104 7.46377C0.510759 7.45473 0.510486 7.44582 0.510219 7.43702Z" fill="white" stroke="#FF0050"/>
<path d="M24 14.5C24 14.5 23.5 19 22 21.5C19.3 26 14 29.5 14 29.5C14 29.5 12 29 7.5 24.5" stroke="#FF0050" stroke-linecap="round" stroke-linejoin="round"/>
<path d="M4 9.00054C4 9.00054 6.38278 9.42631 8 7.00049C10 4.00049 14 4.00055 14 4.00055" stroke="#FF0050" stroke-linecap="round" stroke-linejoin="round"/>
<mask id="path-7-inside-1" fill="white">
<path fill-rule="evenodd" clip-rule="evenodd" d="M20.3539 9.74204C21.135 10.5231 21.135 11.7894 20.3539 12.5705L12.2426 20.6818C11.8446 21.0798 11.3205 21.275 10.7988 21.2673C10.2766 21.2754 9.75193 21.0802 9.3535 20.6818L5.81796 17.1463C5.03692 16.3652 5.03692 15.0989 5.81796 14.3178C6.59901 13.5368 7.86534 13.5368 8.64639 14.3178L10.798 16.4695L17.5255 9.74204C18.3065 8.96099 19.5729 8.96099 20.3539 9.74204Z"/>
</mask>
<path d="M20.3539 12.5705L19.6468 11.8634V11.8634L20.3539 12.5705ZM20.3539 9.74204L21.061 9.03493L21.061 9.03493L20.3539 9.74204ZM12.2426 20.6818L11.5355 19.9747H11.5355L12.2426 20.6818ZM10.7988 21.2673L10.8135 20.2675L10.7984 20.2672L10.7834 20.2675L10.7988 21.2673ZM9.3535 20.6818L10.0606 19.9747H10.0606L9.3535 20.6818ZM5.81796 17.1463L5.11086 17.8534H5.11086L5.81796 17.1463ZM5.81796 14.3178L5.11086 13.6107L5.11086 13.6107L5.81796 14.3178ZM8.64639 14.3178L9.3535 13.6107L8.64639 14.3178ZM10.798 16.4695L10.0909 17.1766L10.798 17.8837L11.5051 17.1766L10.798 16.4695ZM17.5255 9.74204L16.8184 9.03493V9.03493L17.5255 9.74204ZM21.061 13.2776C22.2326 12.106 22.2326 10.2065 21.061 9.03493L19.6468 10.4491C20.0373 10.8397 20.0373 11.4728 19.6468 11.8634L21.061 13.2776ZM12.9497 21.3889L21.061 13.2776L19.6468 11.8634L11.5355 19.9747L12.9497 21.3889ZM10.7841 22.2672C11.5649 22.2787 12.3528 21.9858 12.9497 21.3889L11.5355 19.9747C11.3363 20.1738 11.076 20.2713 10.8135 20.2675L10.7841 22.2672ZM10.7834 20.2675C10.5206 20.2715 10.2599 20.174 10.0606 19.9747L8.64639 21.3889C9.24392 21.9864 10.0327 22.2793 10.8143 22.2672L10.7834 20.2675ZM10.0606 19.9747L6.52507 16.4392L5.11086 17.8534L8.64639 21.3889L10.0606 19.9747ZM6.52507 16.4392C6.13455 16.0486 6.13455 15.4155 6.52507 15.0249L5.11086 13.6107C3.93928 14.7823 3.93928 16.6818 5.11086 17.8534L6.52507 16.4392ZM6.52507 15.0249C6.9156 14.6344 7.54876 14.6344 7.93928 15.0249L9.3535 13.6107C8.18193 12.4392 6.28243 12.4392 5.11086 13.6107L6.52507 15.0249ZM7.93928 15.0249L10.0909 17.1766L11.5051 15.7624L9.3535 13.6107L7.93928 15.0249ZM16.8184 9.03493L10.0909 15.7624L11.5051 17.1766L18.2326 10.4491L16.8184 9.03493ZM21.061 9.03493C19.8895 7.86336 17.99 7.86336 16.8184 9.03493L18.2326 10.4491C18.6231 10.0586 19.2563 10.0586 19.6468 10.4491L21.061 9.03493Z" fill="#FF0050" mask="url(#path-7-inside-1)"/>
</svg>
