<svg width="31" height="30" viewBox="0 0 31 30" fill="none" xmlns="http://www.w3.org/2000/svg">
<path fill-rule="evenodd" clip-rule="evenodd" d="M17.6042 18.9497C18.0422 17.9155 18.1191 16.764 17.8228 15.6807L16.8592 15.9443C16.951 16.2806 17 16.6345 17 17C17 19.2091 15.2091 21 13 21C10.7908 21 8.99997 19.2091 8.99997 17C8.99997 14.7908 10.7908 13 13 13C13.4979 13 13.9746 13.0909 14.4143 13.2572L14.7674 12.3228C13.7168 11.9258 12.5632 11.8941 11.4923 12.2327C10.4215 12.5714 9.4959 13.2607 8.86462 14.1896C8.23334 15.1184 7.93318 16.2328 8.01249 17.3531C8.0918 18.4734 8.54597 19.5344 9.30183 20.365C10.0577 21.1957 11.0712 21.7477 12.179 21.9321C13.2869 22.1165 14.4246 21.9226 15.4087 21.3816C16.3929 20.8405 17.1663 19.9839 17.6042 18.9497Z" fill="#FF0050"/>
<path fill-rule="evenodd" clip-rule="evenodd" d="M21.3599 20.3336C22.1086 18.4558 22.2034 16.3806 21.6289 14.4424L20.6722 14.726C20.8855 15.4468 21 16.21 21 17C21 21.4183 17.4183 25 13 25C8.58171 25 4.99998 21.4183 4.99998 17C4.99998 12.5817 8.58171 9.00002 13 9.00002C13.9362 9.00002 14.8349 9.16085 15.6699 9.45638L16.0028 8.51571C14.0971 7.84123 12.0198 7.82798 10.1056 8.47812C8.19142 9.12826 6.55187 10.4039 5.45114 12.0995C4.3504 13.7952 3.85259 15.812 4.03791 17.825C4.22323 19.8381 5.08089 21.7301 6.4727 23.1963C7.86451 24.6625 9.7094 25.6173 11.7101 25.9071C13.7108 26.1968 15.7508 25.8045 17.5013 24.7935C19.2519 23.7824 20.6111 22.2114 21.3599 20.3336Z" fill="#FF0050"/>
<path fill-rule="evenodd" clip-rule="evenodd" d="M25.106 21.7377C26.1701 19.0184 26.2878 16.0201 25.4401 13.2258L24.4877 13.5148C24.8219 14.6177 25.0016 15.7879 25.0016 17C25.0016 23.6274 19.629 29 13.0016 29C6.37418 29 1.0016 23.6274 1.0016 17C1.0016 10.3725 6.37418 4.99996 13.0016 4.99996C14.3783 4.99996 15.7009 5.2318 16.9324 5.65856L17.2588 4.71737C14.4998 3.76077 11.4992 3.76088 8.74037 4.71768C5.98153 5.67447 3.62516 7.53223 2.05094 9.9916C0.476719 12.451 -0.223658 15.3687 0.0626625 18.2747C0.348983 21.1807 1.60532 23.9056 3.62925 26.0105C5.65317 28.1153 8.3268 29.4775 11.2193 29.8775C14.1118 30.2774 17.0548 29.6919 19.574 28.2153C22.0931 26.7387 24.0418 24.4569 25.106 21.7377Z" fill="#FF0050"/>
<rect x="25" y="5" width="1" height="17" transform="rotate(45 25 5)" fill="#FF0050"/>
<path d="M20.3424 10.3354L25.1746 5.50318L29.7001 6.63455L24.8679 11.4668L20.3424 10.3354Z" stroke="#FF0050"/>
<path d="M20.3423 10.3353L25.1746 5.5031L24.0432 0.977618L19.211 5.80985L20.3423 10.3353Z" stroke="#FF0050"/>
</svg>
