<svg width="24" height="31" viewBox="0 0 24 31" fill="none" xmlns="http://www.w3.org/2000/svg">
<path d="M0.957031 0.964649V30.4165C0.957031 30.7293 1.21062 30.9829 1.52348 30.9829H23.046C23.3586 30.9829 23.6122 30.7293 23.6122 30.4165V6.62862C23.6122 6.61603 23.6062 6.6053 23.605 6.59293C23.6022 6.54324 23.5924 6.49425 23.5761 6.44735C23.5698 6.42916 23.5653 6.41166 23.5574 6.39393C23.5299 6.33234 23.4916 6.27611 23.444 6.22805L17.7803 0.564311C17.7322 0.516486 17.6758 0.478225 17.6137 0.450929C17.5967 0.443697 17.5794 0.437631 17.5617 0.432266C17.5143 0.415935 17.4651 0.406136 17.4149 0.40287C17.4054 0.404503 17.3942 0.398438 17.3823 0.398438H1.52348C1.21062 0.398438 0.957031 0.651798 0.957031 0.964649ZM21.6787 6.06218H17.9485V2.332L21.6787 6.06218ZM2.08969 1.53109H16.8158V6.62862C16.8158 6.94124 17.0694 7.19484 17.382 7.19484H22.4796V29.8503H2.08969V1.53109Z" fill="#FF0050"/>
<path d="M5.48779 8.32812H19.0808V9.46078H5.48779V8.32812Z" fill="#FF0050"/>
<path d="M5.48779 4.92969H10.0189V6.06257H5.48779V4.92969Z" fill="#FF0050"/>
<path d="M5.48779 11.7256H14.55V12.8585H5.48779V11.7256Z" fill="#FF0050"/>
<path d="M15.6826 11.7256H19.0808V12.8585H15.6826V11.7256Z" fill="#FF0050"/>
<path d="M5.48779 15.124H19.0808V16.2569H5.48779V15.124Z" fill="#FF0050"/>
<path d="M5.48779 21.9209H19.0808V23.0538H5.48779V21.9209Z" fill="#FF0050"/>
<path d="M10.5854 18.5225H19.0812V19.6551H10.5854V18.5225Z" fill="#FF0050"/>
<path d="M5.48779 18.5225H9.45244V19.6551H5.48779V18.5225Z" fill="#FF0050"/>
<path d="M5.48779 25.3193H7.75334V26.452H5.48779V25.3193Z" fill="#FF0050"/>
<path d="M8.88623 25.3193H19.0811V26.452H8.88623V25.3193Z" fill="#FF0050"/>
</svg>
