<svg width="19" height="31" viewBox="0 0 19 31" fill="none" xmlns="http://www.w3.org/2000/svg">
<path d="M14.3022 14.0885L13.4483 13.7289L13.1299 12.9645L13.4803 12.1039C13.5269 11.9895 13.5004 11.8582 13.413 11.7708L12.4116 10.7691C12.3242 10.6817 12.1929 10.6552 12.0785 10.7018L11.2179 11.0522L10.4559 10.7356L10.0963 9.88146C10.0483 9.76743 9.93665 9.69332 9.81294 9.69336H8.39665C8.27294 9.69332 8.16126 9.76743 8.11327 9.88146L7.75121 10.7356L6.98651 11.0525L6.12592 10.7021C6.01143 10.6555 5.88015 10.682 5.79274 10.7694L4.79138 11.7711C4.70398 11.8585 4.67747 11.9898 4.72407 12.1043L5.07446 12.9648L4.75726 13.7292L3.90343 14.0888C3.7894 14.1368 3.71529 14.2485 3.71533 14.3722V15.7885C3.71526 15.9121 3.78921 16.0238 3.90313 16.0719L4.75726 16.4315L5.07722 17.1959L4.72684 18.0565C4.68023 18.171 4.70674 18.3023 4.79415 18.3897L5.79428 19.3913C5.88168 19.4787 6.01296 19.5052 6.12745 19.4586L6.98805 19.1086L7.75274 19.4251L8.11235 20.2796C8.16068 20.3936 8.27275 20.4676 8.39665 20.4671H9.81048C9.93412 20.4671 10.0458 20.3932 10.0939 20.2793L10.4535 19.4248L11.2182 19.1079L12.0788 19.4583C12.1933 19.5049 12.3245 19.4784 12.4119 19.391L13.4133 18.3893C13.501 18.3021 13.5279 18.1709 13.4815 18.0562L13.1311 17.1956L13.4483 16.4309L14.3025 16.0713C14.4164 16.0232 14.4903 15.9115 14.4903 15.7879V14.3719C14.4903 14.2482 14.4162 14.1365 14.3022 14.0885ZM13.8756 15.5841L13.093 15.9139C13.0186 15.9454 12.9595 16.0049 12.9286 16.0796H12.9283L12.5152 17.0776C12.4843 17.1522 12.4843 17.2362 12.5152 17.3108L12.8355 18.1004L12.1224 18.8132L11.3344 18.4923C11.2595 18.4619 11.1756 18.4619 11.1008 18.4923L10.1028 18.906C10.0281 18.9369 9.96858 18.996 9.93712 19.0704L9.60763 19.8524H8.59951L8.27002 19.0698C8.23863 18.9953 8.17912 18.9361 8.10436 18.9051L7.10576 18.4917C7.03104 18.461 6.94721 18.461 6.87248 18.4917L6.08442 18.8123L5.37167 18.1004L5.69193 17.3108C5.72282 17.2362 5.72282 17.1522 5.69193 17.0776L5.27854 16.0796C5.24765 16.0049 5.18856 15.9454 5.1141 15.9139L4.33158 15.5841V14.576L5.1138 14.2468C5.18837 14.2154 5.24757 14.1559 5.27854 14.0812L5.69193 13.0832C5.72267 13.0083 5.72267 12.9244 5.69193 12.8496L5.37105 12.0612L6.08412 11.3485L6.87217 11.6693C6.9469 11.7005 7.03104 11.7005 7.10576 11.6693L8.10374 11.2556C8.17843 11.2248 8.23794 11.1657 8.26941 11.0912L8.59889 10.3087H9.60702L9.9365 11.0912C9.96797 11.1657 10.0275 11.2248 10.1022 11.2556L11.1014 11.6687C11.1761 11.6998 11.2602 11.6998 11.335 11.6687L12.123 11.3479L12.8361 12.0606L12.5152 12.8496C12.4845 12.9244 12.4845 13.0083 12.5152 13.0832L12.9286 14.0812C12.9596 14.1559 13.0188 14.2154 13.0933 14.2468L13.8756 14.576V15.5841Z" fill="#FF407E"/>
<path d="M9.10358 12.0068C7.4061 12.0068 6.03003 13.3829 6.03003 15.0804C6.03003 16.7779 7.4061 18.1539 9.10358 18.1539C10.8011 18.1539 12.1771 16.7779 12.1771 15.0804C12.1753 13.3837 10.8003 12.0087 9.10358 12.0068ZM9.10358 17.5392C7.74561 17.5392 6.64474 16.4384 6.64474 15.0804C6.64474 13.7224 7.74561 12.6215 9.10358 12.6215C10.4615 12.6215 11.5624 13.7224 11.5624 15.0804C11.5609 16.4377 10.4609 17.5377 9.10358 17.5392Z" fill="#FF407E"/>
<path d="M15.3959 0.902344H2.65446C1.95069 0.903045 1.27598 1.15137 0.778346 1.59283C0.280709 2.0343 0.000790401 2.63285 0 3.25718V27.7475C0.000790401 28.3718 0.280709 28.9704 0.778346 29.4118C1.27598 29.8533 1.95069 30.1016 2.65446 30.1023H15.3959C16.0996 30.1016 16.7743 29.8533 17.272 29.4118C17.7696 28.9704 18.0495 28.3718 18.0503 27.7475V3.25718C18.0495 2.63285 17.7696 2.0343 17.272 1.59283C16.7743 1.15137 16.0996 0.903045 15.3959 0.902344ZM12.6247 1.84428L12.3062 3.25718H5.74418L5.42565 1.84428H12.6247ZM16.9885 27.7475C16.9881 28.1221 16.8201 28.4812 16.5215 28.7461C16.2229 29.011 15.8181 29.16 15.3959 29.1604H2.65446C2.2322 29.16 1.82737 29.011 1.52879 28.7461C1.23021 28.4812 1.06226 28.1221 1.06178 27.7475V3.25718C1.06226 2.88258 1.23021 2.52345 1.52879 2.25857C1.82737 1.99369 2.2322 1.8447 2.65446 1.84428H4.34276L4.78831 3.82052C4.81238 3.92728 4.87741 4.02335 4.97232 4.09237C5.06724 4.1614 5.18618 4.19912 5.30892 4.19912H12.7414C12.8641 4.19912 12.9831 4.1614 13.078 4.09237C13.1729 4.02335 13.2379 3.92728 13.262 3.82052L13.7076 1.84428H15.3959C15.8181 1.8447 16.2229 1.99369 16.5215 2.25857C16.8201 2.52345 16.9881 2.88258 16.9885 3.25718V27.7475Z" fill="#FF407E"/>
<path d="M5.83978 27.2764H2.65443C2.51363 27.2764 2.37859 27.326 2.27903 27.4143C2.17947 27.5026 2.12354 27.6224 2.12354 27.7473C2.12354 27.8722 2.17947 27.992 2.27903 28.0804C2.37859 28.1687 2.51363 28.2183 2.65443 28.2183H5.83978C5.98058 28.2183 6.11561 28.1687 6.21517 28.0804C6.31474 27.992 6.37067 27.8722 6.37067 27.7473C6.37067 27.6224 6.31474 27.5026 6.21517 27.4143C6.11561 27.326 5.98058 27.2764 5.83978 27.2764Z" fill="#FF407E"/>
<path d="M7.96339 27.2764H7.4325C7.2917 27.2764 7.15667 27.326 7.05711 27.4143C6.95754 27.5026 6.90161 27.6224 6.90161 27.7473C6.90161 27.8722 6.95754 27.992 7.05711 28.0804C7.15667 28.1687 7.2917 28.2183 7.4325 28.2183H7.96339C8.1042 28.2183 8.23923 28.1687 8.33879 28.0804C8.43835 27.992 8.49429 27.8722 8.49429 27.7473C8.49429 27.6224 8.43835 27.5026 8.33879 27.4143C8.23923 27.326 8.1042 27.2764 7.96339 27.2764Z" fill="#FF407E"/>
</svg>
