<svg width="39" height="36" viewBox="0 0 39 36" fill="none" xmlns="http://www.w3.org/2000/svg">
<path d="M1 21.2158L0.665845 20.8439C0.481296 21.0493 0.481296 21.3823 0.665845 21.5878L1 21.2158ZM11.0909 9.98384L11.5635 9.98384C11.5635 9.77109 11.4483 9.57929 11.2717 9.49787C11.0952 9.41646 10.8919 9.46146 10.7567 9.6119L11.0909 9.98384ZM11.0909 32.4478L10.7567 32.8197C10.8919 32.9702 11.0952 33.0152 11.2717 32.9338C11.4483 32.8524 11.5635 32.6606 11.5635 32.4478L11.0909 32.4478ZM11.0909 24.9598L11.0909 24.4338C10.9656 24.4338 10.8454 24.4892 10.7567 24.5879C10.6681 24.6865 10.6183 24.8203 10.6183 24.9598L11.0909 24.9598ZM23.4242 25.4858C23.6852 25.4858 23.8968 25.2503 23.8968 24.9598C23.8968 24.6693 23.6852 24.4338 23.4242 24.4338V25.4858ZM11.0909 17.4718L10.6183 17.4718C10.6183 17.7623 10.8299 17.9978 11.0909 17.9978L11.0909 17.4718ZM27.9091 17.9978C28.1701 17.9978 28.3816 17.7623 28.3816 17.4718C28.3816 17.1813 28.1701 16.9458 27.9091 16.9458V17.9978ZM1.33415 21.5878L11.4251 10.3558L10.7567 9.6119L0.665845 20.8439L1.33415 21.5878ZM11.4251 32.0759L1.33415 20.8439L0.665845 21.5878L10.7567 32.8197L11.4251 32.0759ZM10.6183 24.9598L10.6183 32.4478L11.5635 32.4478L11.5635 24.9598L10.6183 24.9598ZM23.4242 24.4338H11.0909L11.0909 25.4858L23.4242 25.4858V24.4338ZM10.6183 9.98384L10.6183 17.4718L11.5635 17.4718L11.5635 9.98384L10.6183 9.98384ZM11.0909 17.9978L27.9091 17.9978V16.9458L11.0909 16.9458L11.0909 17.9978Z" fill="#FF0050"/>
<path d="M38 14.3525L38.3342 14.7245C38.5187 14.5191 38.5187 14.186 38.3342 13.9806L38 14.3525ZM27.9091 25.5846L27.4365 25.5846C27.4365 25.7974 27.5517 25.9892 27.7282 26.0706C27.9048 26.152 28.1081 26.107 28.2432 25.9565L27.9091 25.5846ZM27.9091 3.12047L28.2432 2.74853C28.1081 2.59809 27.9048 2.55309 27.7282 2.6345C27.5517 2.71592 27.4365 2.90772 27.4365 3.12047L27.9091 3.12047ZM27.9091 9.98451L27.9091 10.5105C28.0344 10.5105 28.1546 10.4551 28.2432 10.3565C28.3319 10.2578 28.3817 10.124 28.3817 9.98451L27.9091 9.98451ZM16.1364 9.4585C15.8754 9.45851 15.6638 9.69401 15.6638 9.98451C15.6638 10.275 15.8754 10.5105 16.1364 10.5105V9.4585ZM27.9091 17.4726L28.3817 17.4726C28.3817 17.1821 28.1701 16.9465 27.9091 16.9465L27.9091 17.4726ZM11.0909 16.9465C10.8299 16.9465 10.6183 17.182 10.6183 17.4726C10.6183 17.7631 10.8299 17.9986 11.0909 17.9986V16.9465ZM37.6658 13.9806L27.5749 25.2127L28.2432 25.9565L38.3342 14.7245L37.6658 13.9806ZM27.5749 3.49241L37.6658 14.7245L38.3342 13.9806L28.2432 2.74853L27.5749 3.49241ZM28.3817 9.98451L28.3817 3.12047L27.4365 3.12047L27.4365 9.98451L28.3817 9.98451ZM16.1364 10.5105L27.9091 10.5105L27.9091 9.45851L16.1364 9.4585V10.5105ZM28.3817 25.5846L28.3817 17.4726L27.4365 17.4726L27.4365 25.5846L28.3817 25.5846ZM27.9091 16.9465L11.0909 16.9465V17.9986L27.9091 17.9986L27.9091 16.9465Z" fill="#FF0050"/>
</svg>
