<svg width="29" height="30" viewBox="0 0 29 30" fill="none" xmlns="http://www.w3.org/2000/svg">
<path d="M20.5386 10.472L19.5373 10.0502L19.1638 9.15376L19.5747 8.14447C19.6294 8.0102 19.5983 7.85624 19.4958 7.75373L18.3214 6.57899C18.2189 6.47649 18.065 6.4454 17.9307 6.50005L16.9214 6.91098L16.0278 6.5397L15.6061 5.53798C15.5498 5.40425 15.4188 5.31734 15.2737 5.31738H13.6127C13.4676 5.31734 13.3367 5.40425 13.2804 5.53798L12.8558 6.5397L11.9589 6.91134L10.9496 6.50041C10.8154 6.44576 10.6614 6.47685 10.5589 6.57935L9.38453 7.7541C9.28202 7.8566 9.25093 8.01056 9.30559 8.14483L9.71651 9.15412L9.34452 10.0506L8.34316 10.4723C8.20943 10.5286 8.12251 10.6596 8.12256 10.8047V12.4657C8.12247 12.6107 8.2092 12.7416 8.3428 12.798L9.34452 13.2198L9.71976 14.1162L9.30883 15.1255C9.25418 15.2598 9.28527 15.4137 9.38777 15.5162L10.5607 16.691C10.6632 16.7935 10.8172 16.8246 10.9515 16.7699L11.9607 16.3594L12.8576 16.7306L13.2793 17.7327C13.336 17.8665 13.4674 17.9532 13.6127 17.9526H15.2708C15.4158 17.9527 15.5468 17.866 15.6032 17.7324L16.0249 16.7303L16.9218 16.3586L17.931 16.7696C18.0653 16.8242 18.2193 16.7931 18.3218 16.6906L19.4962 15.5159C19.599 15.4136 19.6306 15.2596 19.5762 15.1251L19.1653 14.1159L19.5373 13.219L20.539 12.7973C20.6726 12.7409 20.7593 12.6099 20.7592 12.465V10.8043C20.7593 10.6592 20.6723 10.5282 20.5386 10.472ZM20.0383 12.226L19.1206 12.6127C19.0332 12.6496 18.9639 12.7194 18.9277 12.807H18.9274L18.4429 13.9774C18.4067 14.065 18.4067 14.1634 18.4429 14.251L18.8185 15.1771L17.9822 16.013L17.058 15.6366C16.9702 15.601 16.8719 15.601 16.7841 15.6366L15.6136 16.1218C15.5261 16.158 15.4563 16.2273 15.4194 16.3147L15.0329 17.2317H13.8506L13.4642 16.3139C13.4274 16.2265 13.3576 16.1571 13.2699 16.1207L12.0988 15.6359C12.0112 15.6 11.9128 15.6 11.8252 15.6359L10.901 16.0119L10.0651 15.1771L10.4407 14.251C10.4769 14.1634 10.4769 14.065 10.4407 13.9774L9.95586 12.807C9.91963 12.7194 9.85034 12.6496 9.76301 12.6127L8.84528 12.226V11.0437L9.76265 10.6576C9.85011 10.6208 9.91954 10.551 9.95586 10.4633L10.4407 9.2929C10.4767 9.20513 10.4767 9.10672 10.4407 9.01895L10.0644 8.09437L10.9006 7.25846L11.8248 7.63478C11.9125 7.67137 12.0112 7.67137 12.0988 7.63478L13.2692 7.1496C13.3568 7.11338 13.4266 7.04408 13.4635 6.95676L13.8499 6.03902H15.0322L15.4186 6.95676C15.4555 7.04408 15.5253 7.11338 15.6129 7.1496L16.7848 7.63406C16.8725 7.67047 16.971 7.67047 17.0587 7.63406L17.983 7.25774L18.8192 8.09365L18.4429 9.01895C18.4069 9.10672 18.4069 9.20513 18.4429 9.2929L18.9277 10.4633C18.964 10.551 19.0335 10.6208 19.1209 10.6576L20.0383 11.0437V12.226Z" fill="#FF407E"/>
<path d="M14.4418 8.03027C12.451 8.03027 10.8372 9.6441 10.8372 11.6349C10.8372 13.6257 12.451 15.2395 14.4418 15.2395C16.4325 15.2395 18.0464 13.6257 18.0464 11.6349C18.0442 9.645 16.4316 8.03248 14.4418 8.03027ZM14.4418 14.5186C12.8492 14.5186 11.5581 13.2275 11.5581 11.6349C11.5581 10.0423 12.8492 8.75119 14.4418 8.75119C16.0344 8.75119 17.3254 10.0423 17.3254 11.6349C17.3236 13.2268 16.0336 14.5168 14.4418 14.5186Z" fill="#FF407E"/>
<path d="M26.6242 0.804688H2.25629C1.01217 0.804688 0 1.81686 0 3.06098V20.7775C0 22.0216 1.01217 23.0338 2.25629 23.0338H11.1122V25.8653C9.45769 26.0265 8.16026 27.425 8.16026 29.1211C8.16026 29.4326 8.4128 29.6851 8.72434 29.6851H20.1562C20.4678 29.6851 20.7203 29.4326 20.7203 29.1211C20.7203 27.3866 19.3634 25.9638 17.6555 25.8567V23.0338H20.2879C20.5994 23.0338 20.8519 22.7813 20.8519 22.4697C20.8519 22.1582 20.5994 21.9057 20.2879 21.9057H2.25629C1.63423 21.9057 1.12814 21.3996 1.12814 20.7775V3.06098C1.12814 2.43892 1.63423 1.93283 2.25629 1.93283H26.6242C27.2463 1.93283 27.7524 2.43892 27.7524 3.06098V20.7775C27.7524 21.3996 27.2463 21.9057 26.6242 21.9057H24.5184C24.2068 21.9057 23.9543 22.1582 23.9543 22.4697C23.9543 22.7813 24.2068 23.0338 24.5184 23.0338H26.6242C27.8683 23.0338 28.8805 22.0216 28.8805 20.7775V3.06098C28.8805 1.8168 27.8683 0.804688 26.6242 0.804688ZM12.2404 23.0338H16.5273V25.8495H12.2404V23.0338ZM17.4486 26.9776C18.4354 26.9776 19.2686 27.6479 19.5168 28.557H9.36366C9.61185 27.6479 10.445 26.9776 11.4318 26.9776H17.4486Z" fill="#FF407E"/>
</svg>
