<svg width="35" height="25" viewBox="0 0 35 25" fill="none" xmlns="http://www.w3.org/2000/svg">
<g clip-path="url(#clip0)">
<path d="M27.9164 11.251H22.0834C21.9224 11.251 21.7917 11.3816 21.7917 11.5426V16.209C21.7917 16.9136 22.2934 17.5022 22.9583 17.6381V19.1255C22.9583 19.6079 23.3509 20.0004 23.8333 20.0004C24.3157 20.0004 24.7082 19.6079 24.7082 19.1255V17.6673H25.2915V19.1255C25.2915 19.6079 25.6841 20.0004 26.1665 20.0004C26.6489 20.0004 27.0414 19.6079 27.0414 19.1255V17.6381C27.7064 17.5028 28.208 16.9136 28.208 16.209V11.5426C28.208 11.3811 28.0774 11.251 27.9164 11.251Z" fill="#FF407E"/>
<path d="M26.5263 7.55427L27.0181 6.40692C27.0816 6.25875 27.0128 6.08786 26.8646 6.02427C26.7182 5.9601 26.545 6.02894 26.482 6.17768L25.9903 7.32561C25.6782 7.22411 25.3457 7.16754 25.0004 7.16754C24.6551 7.16754 24.3226 7.22411 24.0106 7.32561L23.5177 6.17768C23.4547 6.02894 23.2815 5.95952 23.1351 6.02427C22.9869 6.08784 22.9186 6.25933 22.9822 6.40692L23.474 7.55427C22.4725 8.09791 21.7917 9.15891 21.7917 10.3757C21.7917 10.5366 21.9224 10.6673 22.0834 10.6673H27.9164C28.0773 10.6673 28.208 10.5366 28.208 10.3757C28.208 9.15891 27.5273 8.09791 26.5263 7.55427ZM23.8333 9.50071C23.6723 9.50071 23.5416 9.37004 23.5416 9.20906C23.5416 9.04807 23.6723 8.9174 23.8333 8.9174C23.9943 8.9174 24.1249 9.04807 24.1249 9.20906C24.1249 9.37004 23.9943 9.50071 23.8333 9.50071ZM26.1665 9.50071C26.0055 9.50071 25.8748 9.37004 25.8748 9.20906C25.8748 9.04807 26.0055 8.9174 26.1665 8.9174C26.3275 8.9174 26.4581 9.04807 26.4581 9.20906C26.4581 9.37004 26.3275 9.50071 26.1665 9.50071Z" fill="#FF407E"/>
<path d="M29.6662 11.251C29.1838 11.251 28.7913 11.6435 28.7913 12.1259V15.0424C28.7913 15.5248 29.1838 15.9173 29.6662 15.9173C30.1486 15.9173 30.5411 15.5248 30.5411 15.0424V12.1259C30.5411 11.6436 30.1486 11.251 29.6662 11.251Z" fill="#FF407E"/>
<path d="M20.3334 11.251C19.851 11.251 19.4585 11.6435 19.4585 12.1259V15.0424C19.4585 15.5248 19.851 15.9173 20.3334 15.9173C20.8158 15.9173 21.2084 15.5248 21.2084 15.0424V12.1259C21.2084 11.6436 20.8158 11.251 20.3334 11.251Z" fill="#FF407E"/>
</g>
<path d="M8.70367 19.0001C6.76888 18.9889 5.16846 15.0394 5.16846 13.028C5.16846 9.74231 7.63325 9.023 8.58317 9.023C9.01125 9.023 9.46836 9.19111 9.87154 9.33987C10.1535 9.44364 10.4451 9.55077 10.6072 9.55077C10.7043 9.55077 10.933 9.45964 11.135 9.37968C11.5657 9.20822 12.1016 8.99512 12.7257 8.99512C12.7269 8.99512 12.7284 8.99512 12.7295 8.99512C13.1955 8.99512 14.6085 9.09739 15.458 10.3731L15.6569 10.6721L15.3706 10.8882C14.9614 11.1969 14.215 11.7601 14.215 12.8755C14.215 14.1966 15.0604 14.7047 15.4665 14.949C15.6458 15.0569 15.8314 15.1681 15.8314 15.4113C15.8314 15.5701 14.5638 18.9804 12.7231 18.9804C12.2727 18.9804 11.9544 18.845 11.6735 18.7256C11.3894 18.6047 11.1443 18.5006 10.7392 18.5006C10.5339 18.5006 10.2743 18.5977 9.99945 18.7007C9.62385 18.8409 9.19871 19.0001 8.71631 19.0001H8.70367Z" fill="#FF407E"/>
<path d="M12.9208 6C12.9688 7.72849 11.7326 8.92764 10.4979 8.85243C10.2944 7.47304 11.7325 6 12.9208 6Z" fill="#FF407E"/>
<rect x="0.5" y="0.5" width="34" height="24" rx="3.5" stroke="#FF407E"/>
<defs>
<clipPath id="clip0">
<rect width="14" height="14" fill="white" transform="translate(18 6)"/>
</clipPath>
</defs>
</svg>
