<svg width="30" height="30" viewBox="0 0 30 30" fill="none" xmlns="http://www.w3.org/2000/svg">
<path d="M15 0.9375C9.31922 0.9375 3.28125 2.25 3.28125 4.6875V25.3125C3.28125 27.75 9.31922 29.0625 15 29.0625C20.6808 29.0625 26.7188 27.75 26.7188 25.3125V4.6875C26.7188 2.25 20.6808 0.9375 15 0.9375ZM15 1.875C21.6797 1.875 25.7812 3.51562 25.7812 4.6875C25.7812 5.85938 21.6797 7.5 15 7.5C8.32031 7.5 4.21875 5.86172 4.21875 4.6875C4.21875 3.51328 8.32031 1.875 15 1.875ZM4.21875 12.7917C5.57156 13.8164 8.19563 14.4595 10.7812 14.7605V17.3438H9.84375C9.47079 17.3438 9.1131 17.4919 8.84938 17.7556C8.58566 18.0194 8.4375 18.377 8.4375 18.75V20.9381C5.53125 20.3142 4.21875 19.4062 4.21875 18.75V12.7917ZM20.1562 18.2812C20.2806 18.2812 20.3998 18.3306 20.4877 18.4185C20.5756 18.5065 20.625 18.6257 20.625 18.75V25.3125C20.625 25.4368 20.5756 25.556 20.4877 25.644C20.3998 25.7319 20.2806 25.7812 20.1562 25.7812H9.84375C9.71943 25.7812 9.6002 25.7319 9.51229 25.644C9.42439 25.556 9.375 25.4368 9.375 25.3125V18.75C9.375 18.6257 9.42439 18.5065 9.51229 18.4185C9.6002 18.3306 9.71943 18.2812 9.84375 18.2812H20.1562ZM16.4062 14.0367C15.51 14.0709 14.49 14.0709 13.5938 14.0367V13.125C13.5938 13.0007 13.6431 12.8815 13.731 12.7935C13.819 12.7056 13.9382 12.6562 14.0625 12.6562H15.9375C16.0618 12.6562 16.181 12.7056 16.269 12.7935C16.3569 12.8815 16.4062 13.0007 16.4062 13.125V14.0367ZM13.5938 14.9742C14.0409 14.9911 14.5055 15.0023 15 15.0023C15.4945 15.0023 15.9591 14.9911 16.4062 14.9742V17.3438H13.5938V14.9742ZM18.2812 17.3438H17.3438V13.125C17.3438 12.752 17.1956 12.3944 16.9319 12.1306C16.6681 11.8669 16.3105 11.7188 15.9375 11.7188H14.0625C13.6895 11.7188 13.3319 11.8669 13.0681 12.1306C12.8044 12.3944 12.6562 12.752 12.6562 13.125V17.3438H11.7188V12.1875C11.7188 11.8145 11.8669 11.4569 12.1306 11.1931C12.3944 10.9294 12.752 10.7812 13.125 10.7812H16.875C17.248 10.7812 17.6056 10.9294 17.8694 11.1931C18.1331 11.4569 18.2812 11.8145 18.2812 12.1875V17.3438ZM15 28.125C8.32031 28.125 4.21875 26.4867 4.21875 25.3125V20.3067C5.29078 21.1162 7.07297 21.615 8.4375 21.8958V25.3125C8.4375 25.6855 8.58566 26.0431 8.84938 26.3069C9.1131 26.5706 9.47079 26.7188 9.84375 26.7188H20.1562C20.5292 26.7188 20.8869 26.5706 21.1506 26.3069C21.4143 26.0431 21.5625 25.6855 21.5625 25.3125V21.8958C22.927 21.6145 24.7092 21.1162 25.7812 20.3067V25.3125C25.7812 26.4867 21.6797 28.125 15 28.125ZM21.5625 20.9381V18.75C21.5625 18.377 21.4143 18.0194 21.1506 17.7556C20.8869 17.4919 20.5292 17.3438 20.1562 17.3438H19.2188V14.7619C21.8044 14.4595 24.4284 13.8164 25.7812 12.7931V18.75C25.7812 19.4062 24.4688 20.3142 21.5625 20.9381ZM19.2188 13.8173V12.1875C19.218 11.5661 18.9708 10.9704 18.5315 10.531C18.0921 10.0917 17.4964 9.84449 16.875 9.84375H13.125C12.5036 9.84449 11.9079 10.0917 11.4685 10.531C11.0292 10.9704 10.782 11.5661 10.7812 12.1875V13.8173C6.51797 13.3073 4.21875 12.135 4.21875 11.25V6.22828C6.12937 7.67203 10.6669 8.4375 15 8.4375C19.3331 8.4375 23.8706 7.67203 25.7812 6.22828V11.25C25.7812 12.135 23.4844 13.3073 19.2188 13.8173Z" fill="#FF407E"/>
<path d="M14.5312 22.9024V24.8439H15.4687V22.9024C15.9106 22.7883 16.2957 22.517 16.5518 22.1392C16.808 21.7615 16.9175 21.3034 16.86 20.8507C16.8025 20.3979 16.5819 19.9817 16.2395 19.68C15.8971 19.3784 15.4564 19.2119 15 19.2119C14.5436 19.2119 14.1029 19.3784 13.7605 19.68C13.4181 19.9817 13.1975 20.3979 13.1399 20.8507C13.0824 21.3034 13.192 21.7615 13.4482 22.1392C13.7043 22.517 14.0894 22.7883 14.5312 22.9024ZM15 20.1564C15.1854 20.1564 15.3667 20.2114 15.5208 20.3144C15.675 20.4174 15.7952 20.5639 15.8661 20.7352C15.9371 20.9065 15.9557 21.095 15.9195 21.2768C15.8833 21.4587 15.794 21.6257 15.6629 21.7569C15.5318 21.888 15.3648 21.9773 15.1829 22.0134C15.001 22.0496 14.8125 22.031 14.6412 21.9601C14.4699 21.8891 14.3235 21.769 14.2205 21.6148C14.1175 21.4606 14.0625 21.2794 14.0625 21.0939C14.0625 20.8453 14.1613 20.6068 14.3371 20.431C14.5129 20.2552 14.7514 20.1564 15 20.1564Z" fill="#FF407E"/>
</svg>
