<svg width="29" height="30" viewBox="0 0 29 30" fill="none" xmlns="http://www.w3.org/2000/svg">
<path d="M26.6242 0.804688H2.25629C1.01217 0.804688 0 1.81686 0 3.06098V20.7775C0 22.0216 1.01217 23.0338 2.25629 23.0338H11.1122V25.8653C9.45769 26.0265 8.16026 27.425 8.16026 29.1211C8.16026 29.4326 8.4128 29.6851 8.72434 29.6851H20.1562C20.4678 29.6851 20.7203 29.4326 20.7203 29.1211C20.7203 27.3866 19.3634 25.9638 17.6555 25.8567V23.0338H20.2879C20.5994 23.0338 20.8519 22.7813 20.8519 22.4697C20.8519 22.1582 20.5994 21.9057 20.2879 21.9057H2.25629C1.63423 21.9057 1.12814 21.3996 1.12814 20.7775V3.06098C1.12814 2.43892 1.63423 1.93283 2.25629 1.93283H26.6242C27.2463 1.93283 27.7524 2.43892 27.7524 3.06098V20.7775C27.7524 21.3996 27.2463 21.9057 26.6242 21.9057H24.5184C24.2068 21.9057 23.9543 22.1582 23.9543 22.4697C23.9543 22.7813 24.2068 23.0338 24.5184 23.0338H26.6242C27.8683 23.0338 28.8805 22.0216 28.8805 20.7775V3.06098C28.8805 1.8168 27.8683 0.804688 26.6242 0.804688ZM12.2404 23.0338H16.5273V25.8495H12.2404V23.0338ZM17.4486 26.9776C18.4354 26.9776 19.2686 27.6479 19.5168 28.557H9.36366C9.61185 27.6479 10.445 26.9776 11.4318 26.9776H17.4486Z" fill="#FF407E"/>
<g clip-path="url(#clip0)">
<path d="M9.93742 19H5.97909C5.76059 19 5.58325 18.8227 5.58325 18.6042V14.6458C5.58325 14.4273 5.76059 14.25 5.97909 14.25H9.93742C10.1559 14.25 10.3333 14.4273 10.3333 14.6458V18.6042C10.3333 18.8227 10.1559 19 9.93742 19ZM6.37492 18.2083H9.54159V15.0417H6.37492V18.2083Z" fill="#FF407E"/>
<path d="M16.2709 19.0003H12.3126C12.2073 19.0003 12.106 18.9584 12.0323 18.884C11.9587 18.8095 11.916 18.7074 11.9168 18.6021L11.9643 10.6855C11.9658 10.4677 12.1424 10.292 12.3601 10.292H16.2709C16.4894 10.292 16.6668 10.4693 16.6668 10.6878V18.6045C16.6668 18.823 16.4894 19.0003 16.2709 19.0003ZM12.7108 18.2087H15.8751V11.0837H12.7536L12.7108 18.2087Z" fill="#FF407E"/>
<path d="M22.6042 18.9997H18.6458C18.4273 18.9997 18.25 18.8223 18.25 18.6038V6.72884C18.25 6.51034 18.4273 6.33301 18.6458 6.33301H22.6042C22.8227 6.33301 23 6.51034 23 6.72884V18.6038C23 18.8223 22.8227 18.9997 22.6042 18.9997ZM19.0417 18.208H22.2083V7.12467H19.0417V18.208Z" fill="#FF407E"/>
</g>
<defs>
<clipPath id="clip0">
<rect width="19" height="19" fill="white" transform="translate(4)"/>
</clipPath>
</defs>
</svg>
