<svg width="27" height="27" viewBox="0 0 27 27" fill="none" xmlns="http://www.w3.org/2000/svg">
<circle cx="13.5" cy="13.5" r="13" stroke="#FF407E"/>
<path d="M9.7955 21V18.1429H8V16.7773H9.7955V14.9076H8V13.3109H9.7955V6H13.6754C15.4778 6 16.8124 6.37115 17.6792 7.11345C18.5597 7.85574 19 8.93417 19 10.3487C19 11.7773 18.5253 12.8978 17.576 13.7101C16.6266 14.5084 15.2301 14.9076 13.3865 14.9076H11.6529V16.7773H15.0582V18.1429H11.6529V21H9.7955ZM11.6529 13.3109H13.1182C14.3702 13.3109 15.3402 13.1008 16.0281 12.6807C16.7298 12.2605 17.0807 11.5042 17.0807 10.4118C17.0807 9.45938 16.7917 8.7521 16.2139 8.28992C15.636 7.82773 14.7348 7.59664 13.5103 7.59664H11.6529V13.3109Z" fill="#FF407E"/>
</svg>
