<svg width="33" height="30" viewBox="0 0 33 30" fill="none" xmlns="http://www.w3.org/2000/svg">
<path fill-rule="evenodd" clip-rule="evenodd" d="M17 11C16.4477 11 16 11.4477 16 12V22C16 22.5523 16.4477 23 17 23H31C31.5523 23 32 22.5523 32 22V12C32 11.4477 31.5523 11 31 11H17ZM17 16C17 15.4477 17.4477 15 18 15H20C20.5523 15 21 15.4477 21 16V17C21 17.5523 20.5523 18 20 18H18C17.4477 18 17 17.5523 17 17V16ZM17 20C17 19.4477 17.4477 19 18 19H20C20.5523 19 21 19.4477 21 20V21C21 21.5523 20.5523 22 20 22H18C17.4477 22 17 21.5523 17 21V20ZM23 15C22.4477 15 22 15.4477 22 16V17C22 17.5523 22.4477 18 23 18H25C25.5523 18 26 17.5523 26 17V16C26 15.4477 25.5523 15 25 15H23ZM22 20C22 19.4477 22.4477 19 23 19H25C25.5523 19 26 19.4477 26 20V21C26 21.5523 25.5523 22 25 22H23C22.4477 22 22 21.5523 22 21V20ZM28 15C27.4477 15 27 15.4477 27 16V17C27 17.5523 27.4477 18 28 18H30C30.5523 18 31 17.5523 31 17V16C31 15.4477 30.5523 15 30 15H28ZM27 20C27 19.4477 27.4477 19 28 19H30C30.5523 19 31 19.4477 31 20V21C31 21.5523 30.5523 22 30 22H28C27.4477 22 27 21.5523 27 21V20Z" fill="#FF0050"/>
<path fill-rule="evenodd" clip-rule="evenodd" d="M13 15V14.6492L12.7809 14.3753L2.08062 1H30.9194L23.7194 10H25L32.2 1L33 0H31.7194H1.28062H0L0.8 1L12 15V28.9057V30L13 29.5556L21 26V24H20V25.3501L13 28.4612V15Z" fill="#FF0050"/>
</svg>
