<svg width="38" height="32" viewBox="0 0 38 32" fill="none" xmlns="http://www.w3.org/2000/svg">
<path d="M9.5 22C6.4603 22 4 24.2363 4 27C4 27.877 4.2516 28.7336 4.72938 29.489L4.02073 31.4896C3.9713 31.6291 4.01192 31.782 4.12589 31.8856C4.23876 31.9882 4.40652 32.0265 4.56145 31.9812L6.76208 31.3369C7.59309 31.7713 8.5353 32 9.5 32C12.5397 32 15 29.7637 15 27C15 24.2366 12.5401 22 9.5 22ZM10.0371 27C10.0371 27.2696 9.79667 27.4883 9.5 27.4883C9.20333 27.4883 8.96289 27.2696 8.96289 27C8.96289 26.7303 9.20333 26.5117 9.5 26.5117C9.79667 26.5117 10.0371 26.7303 10.0371 27ZM12.1855 27C12.1855 27.2696 11.9451 27.4883 11.6484 27.4883C11.3518 27.4883 11.1113 27.2696 11.1113 27C11.1113 26.7303 11.3518 26.5117 11.6484 26.5117C11.9451 26.5117 12.1855 26.7303 12.1855 27ZM7.88867 27C7.88867 27.2696 7.64823 27.4883 7.35156 27.4883C7.05498 27.4883 6.81445 27.2696 6.81445 27C6.81445 26.7303 7.05498 26.5117 7.35156 26.5117C7.64823 26.5117 7.88867 26.7303 7.88867 27Z" fill="#FF0050"/>
<g clip-path="url(#clip0)">
<path d="M14.8663 10.1307C14.826 10.0677 14.5766 9.56191 13.3765 8.52234C12.1202 7.43376 12.2889 7.61052 13.8022 5.72826C14.7238 4.58192 15.0923 3.88187 14.9769 3.5826C14.8673 3.29733 14.1894 3.37259 14.1894 3.37259L11.9355 3.38484C11.9355 3.38484 11.7686 3.36383 11.6439 3.43296C11.5229 3.50122 11.4451 3.65873 11.4451 3.65873C11.4451 3.65873 11.0879 4.54605 10.6116 5.30035C9.60749 6.89209 9.20527 6.9761 9.04119 6.87722C8.6596 6.64708 8.75523 5.9514 8.75523 5.45786C8.75523 3.91513 9.00557 3.27195 8.26676 3.10569C8.02112 3.05056 7.8411 3.01381 7.21387 3.00768C6.40943 2.99981 5.72782 3.01031 5.34248 3.1862C5.08559 3.30346 4.88776 3.5651 5.00871 3.57998C5.15778 3.59835 5.4953 3.66486 5.67438 3.89237C5.90596 4.18552 5.89752 4.84532 5.89752 4.84532C5.89752 4.84532 6.03066 6.66108 5.58719 6.88684C5.28248 7.04173 4.86526 6.72583 3.96988 5.2811C3.51141 4.54167 3.16451 3.72349 3.16451 3.72349C3.16451 3.72349 3.09794 3.57123 2.97887 3.48984C2.83448 3.39096 2.63197 3.35946 2.63197 3.35946L0.488683 3.37171C0.488683 3.37171 0.167097 3.38046 0.0489629 3.51085C-0.0560449 3.62723 0.0405248 3.867 0.0405248 3.867C0.0405248 3.867 1.71877 7.53089 3.61829 9.37815C5.36123 11.0714 7.3395 10.9603 7.3395 10.9603H8.23582C8.23582 10.9603 8.50678 10.9323 8.6446 10.7931C8.77211 10.6654 8.76742 10.4256 8.76742 10.4256C8.76742 10.4256 8.74961 9.3029 9.3084 9.13751C9.85875 8.97475 10.5657 10.2226 11.3148 10.703C11.8811 11.0661 12.3114 10.9865 12.3114 10.9865L14.315 10.9603C14.315 10.9603 15.3632 10.8999 14.8663 10.1307Z" fill="#FF0050"/>
</g>
<path d="M32.0001 18L37.196 13H26.8037L32.0001 18Z" fill="#FF0050"/>
<path d="M34 17.0002L38 21L38 13L34 17.0002Z" fill="#FF0050"/>
<path d="M30 17.0002L26 21L26 13L30 17.0002Z" fill="#FF0050"/>
<path d="M30.5001 18L34 21H27L30.5001 18Z" fill="#FF0050"/>
<path d="M33.5001 18L37 21H30L33.5001 18Z" fill="#FF0050"/>
<path fill-rule="evenodd" clip-rule="evenodd" d="M6.37652 13.3206C6.68057 13.4601 6.99555 13.5798 7.31982 13.6782C7.11058 14.585 7 15.5296 7 16.5C7 18.097 7.2995 19.6241 7.8454 21.0282C7.50152 21.0579 7.16428 21.1108 6.83525 21.1854C6.29507 19.7258 6 18.1474 6 16.5C6 15.4049 6.1304 14.3402 6.37652 13.3206ZM19.5 4C18.5296 4 17.585 4.11058 16.6782 4.31982C16.5798 3.99555 16.4601 3.68057 16.3206 3.37652C17.3402 3.1304 18.4049 3 19.5 3C25.1796 3 30.0401 6.50739 32.0336 11.4744C31.7489 11.6857 31.4797 11.9168 31.2281 12.1655C29.4656 7.39842 24.8797 4 19.5 4ZM30.6383 22.1792C28.5698 26.228 24.3586 29 19.5 29C18.2851 29 17.1106 28.8267 16 28.5034C15.9998 28.8493 15.9763 29.1897 15.9308 29.5231C17.0677 29.834 18.2645 30 19.5 30C24.616 30 29.0673 27.1542 31.3574 22.9593C31.0998 22.7166 30.8595 22.4559 30.6383 22.1792Z" fill="#FF0050"/>
<mask id="mask0" mask-type="alpha" maskUnits="userSpaceOnUse" x="14" y="19" width="11" height="8">
<ellipse cx="19.5" cy="23" rx="5.5" ry="4" fill="#FF0050"/>
</mask>
<g mask="url(#mask0)">
<rect x="13" y="19" width="13" height="3" fill="#FF0050"/>
</g>
<path fill-rule="evenodd" clip-rule="evenodd" d="M21 16.6151C22.1825 15.9731 23 14.5957 23 13C23 10.7909 21.433 9 19.5 9C17.567 9 16 10.7909 16 13C16 14.5957 16.8175 15.9731 18 16.6151V20H21V16.6151Z" fill="#FF0050"/>
<defs>
<clipPath id="clip0">
<rect width="15" height="14" fill="white"/>
</clipPath>
</defs>
</svg>
