<svg width="57" height="31" viewBox="0 0 57 31" fill="none" xmlns="http://www.w3.org/2000/svg">
<path fill-rule="evenodd" clip-rule="evenodd" d="M25.0108 2H50.7668C52.6861 2 54.1117 3.77725 53.6954 5.65079L53.3956 7H55.4444L55.6478 6.08465C56.3417 2.96208 53.9656 0 50.7668 0H25.0108C22.6673 0 20.6382 1.62766 20.1298 3.91535L16.3521 20.9153C15.6581 24.0379 18.0342 27 21.233 27H38.5L38.95 25H21.233C19.3137 25 17.8881 23.2227 18.3044 21.3492L22.0822 4.34921C22.3872 2.9766 23.6047 2 25.0108 2Z" fill="#FF0050"/>
<mask id="mask0" mask-type="alpha" maskUnits="userSpaceOnUse" x="16" y="0" width="40" height="27">
<path d="M20.1299 3.91535C20.6383 1.62766 22.6674 0 25.0109 0H50.7669C53.9657 0 56.3418 2.96208 55.6479 6.08465L51.8701 23.0847C51.3617 25.3723 49.3326 27 46.9891 27H21.2331C18.0343 27 15.6582 24.0379 16.3521 20.9153L20.1299 3.91535Z" fill="#C4C4C4"/>
</mask>
<g mask="url(#mask0)">
<path fill-rule="evenodd" clip-rule="evenodd" d="M32.2758 -18.2631L52.5773 -2.41301C54.0901 -1.23192 54.1201 1.04629 52.639 2.26684L45.682 7.99983H48.8269L53.9109 3.81029C56.3794 1.77604 56.3294 -2.02097 53.8081 -3.98945L33.5066 -19.8395C31.6594 -21.2817 29.0584 -21.2474 27.2499 -19.7571L13.8105 -8.68214C11.3419 -6.64789 11.392 -2.85088 13.9133 -0.882399L34.2147 14.9677C35.4765 15.9528 37.09 16.249 38.5623 15.8628L39.1295 13.3978C38.0481 14.2365 36.5302 14.2381 35.4455 13.3913L15.1441 -2.45884C13.6313 -3.63993 13.6012 -5.91813 15.0824 -7.13868L28.5218 -18.2136C29.6069 -19.1078 31.1675 -19.1284 32.2758 -18.2631Z" fill="#FF0050"/>
</g>
<mask id="mask1" mask-type="alpha" maskUnits="userSpaceOnUse" x="43" y="23" width="11" height="8">
<ellipse cx="48.5" cy="27" rx="5.5" ry="4" fill="#FF0050"/>
</mask>
<g mask="url(#mask1)">
<rect x="42" y="23" width="13" height="3" fill="#FF0050"/>
</g>
<path fill-rule="evenodd" clip-rule="evenodd" d="M50 20.6151C51.1825 19.9731 52 18.5957 52 17C52 14.7909 50.433 13 48.5 13C46.567 13 45 14.7909 45 17C45 18.5957 45.8175 19.9731 47 20.6151V24H50V20.6151Z" fill="#FF0050"/>
<rect x="41.5" y="10.5" width="14" height="16" rx="2.5" stroke="#FF0050"/>
<rect x="3" y="3" width="13" height="2" fill="#FF0050"/>
<rect x="2" y="9" width="13" height="2" fill="#FF0050"/>
<rect x="1" y="15" width="13" height="2" fill="#FF0050"/>
<rect y="21" width="13" height="2" fill="#FF0050"/>
</svg>
