<svg width="13" height="16" viewBox="0 0 13 16" fill="none" xmlns="http://www.w3.org/2000/svg">
<path d="M4.55566 0.414062V1.71423H5.85583V2.3643C6.31088 2.2993 6.70092 2.2993 7.156 2.3643V1.71423H8.45616V0.414062H4.55566Z" fill="#E04A09"/>
<path d="M10.9265 4.70451L11.3815 4.24946L11.9016 4.76953L12.8117 3.85941L10.8615 1.90918L9.95139 2.8193L10.4715 3.33934L9.88639 3.92441C6.76601 2.03917 2.73552 3.01429 0.915308 6.13467C-0.904901 9.25504 0.0701864 13.1555 3.12556 15.0407C6.18094 16.926 10.2114 15.9509 12.0316 12.8305C13.6568 10.1652 13.2018 6.78477 10.9265 4.70451ZM6.50596 14.0006C3.97066 14.0006 1.95542 11.9854 1.95542 9.4501C1.95542 6.91479 3.97066 4.89953 6.50596 4.89953V9.45007H11.0565C11.0565 11.9854 9.04127 14.0006 6.50596 14.0006Z" fill="#E04A09"/>
</svg>
