<svg width="20" height="20" viewBox="0 0 20 20" fill="none" xmlns="http://www.w3.org/2000/svg">
<path d="M11.0238 0.768464C10.8813 0.650964 10.6925 0.602214 10.51 0.635964L0.51 2.51096C0.21375 2.56596 0 2.82346 0 3.12471V16.8747C0 17.1747 0.21375 17.4335 0.51 17.4885L10.51 19.3635C10.5475 19.371 10.5875 19.3747 10.625 19.3747C10.7688 19.3747 10.9113 19.3247 11.0238 19.231C11.1675 19.1122 11.25 18.9347 11.25 18.7497V1.24971C11.25 1.06346 11.1675 0.887214 11.0238 0.768464ZM10 17.996L1.25 16.356V3.64346L10 2.00346V17.996Z" fill="#FFA200"/>
<path d="M19.375 3.12451H10.625C10.28 3.12451 10 3.40451 10 3.74951C10 4.09451 10.28 4.37451 10.625 4.37451H18.75V15.6245H10.625C10.28 15.6245 10 15.9045 10 16.2495C10 16.5945 10.28 16.8745 10.625 16.8745H19.375C19.72 16.8745 20 16.5945 20 16.2495V3.74951C20 3.40451 19.72 3.12451 19.375 3.12451Z" fill="#FFA200"/>
<path d="M13.125 5.62451H10.625C10.28 5.62451 10 5.90451 10 6.24951C10 6.59451 10.28 6.87451 10.625 6.87451H13.125C13.47 6.87451 13.75 6.59451 13.75 6.24951C13.75 5.90451 13.47 5.62451 13.125 5.62451Z" fill="#FFA200"/>
<path d="M13.125 8.12451H10.625C10.28 8.12451 10 8.40451 10 8.74951C10 9.09451 10.28 9.37451 10.625 9.37451H13.125C13.47 9.37451 13.75 9.09451 13.75 8.74951C13.75 8.40451 13.47 8.12451 13.125 8.12451Z" fill="#FFA200"/>
<path d="M13.125 10.6245H10.625C10.28 10.6245 10 10.9045 10 11.2495C10 11.5945 10.28 11.8745 10.625 11.8745H13.125C13.47 11.8745 13.75 11.5945 13.75 11.2495C13.75 10.9045 13.47 10.6245 13.125 10.6245Z" fill="#FFA200"/>
<path d="M13.125 13.1245H10.625C10.28 13.1245 10 13.4045 10 13.7495C10 14.0945 10.28 14.3745 10.625 14.3745H13.125C13.47 14.3745 13.75 14.0945 13.75 13.7495C13.75 13.4045 13.47 13.1245 13.125 13.1245Z" fill="#FFA200"/>
<path d="M16.875 5.62451H15.625C15.28 5.62451 15 5.90451 15 6.24951C15 6.59451 15.28 6.87451 15.625 6.87451H16.875C17.22 6.87451 17.5 6.59451 17.5 6.24951C17.5 5.90451 17.22 5.62451 16.875 5.62451Z" fill="#FFA200"/>
<path d="M16.875 8.12451H15.625C15.28 8.12451 15 8.40451 15 8.74951C15 9.09451 15.28 9.37451 15.625 9.37451H16.875C17.22 9.37451 17.5 9.09451 17.5 8.74951C17.5 8.40451 17.22 8.12451 16.875 8.12451Z" fill="#FFA200"/>
<path d="M16.875 10.6245H15.625C15.28 10.6245 15 10.9045 15 11.2495C15 11.5945 15.28 11.8745 15.625 11.8745H16.875C17.22 11.8745 17.5 11.5945 17.5 11.2495C17.5 10.9045 17.22 10.6245 16.875 10.6245Z" fill="#FFA200"/>
<path d="M16.875 13.1245H15.625C15.28 13.1245 15 13.4045 15 13.7495C15 14.0945 15.28 14.3745 15.625 14.3745H16.875C17.22 14.3745 17.5 14.0945 17.5 13.7495C17.5 13.4045 17.22 13.1245 16.875 13.1245Z" fill="#FFA200"/>
<path d="M8.59607 12.0883L4.22108 7.08827C3.99108 6.82702 3.59733 6.80202 3.33858 7.02952C3.07858 7.25702 3.05233 7.65202 3.27983 7.91077L7.65483 12.9108C7.77857 13.052 7.95108 13.1245 8.12483 13.1245C8.27107 13.1245 8.41732 13.0733 8.53732 12.9695C8.79732 12.742 8.82357 12.3483 8.59607 12.0883Z" fill="#FFA200"/>
<path d="M8.50877 6.38218C8.23627 6.16843 7.84377 6.21968 7.63127 6.49093L3.25627 12.1159C3.04502 12.3884 3.09377 12.7822 3.36627 12.9934C3.48127 13.0822 3.61627 13.1247 3.75002 13.1247C3.93502 13.1247 4.12002 13.0422 4.24252 12.8847L8.61752 7.25968C8.83002 6.98593 8.78127 6.59343 8.50877 6.38218Z" fill="#FFA200"/>
</svg>
